M48
METRIC,LZ,000.000
;FILE_FORMAT=3:3
;TYPE=PLATED
;Layer: PTH_Through
;EasyEDA v6.5.47, 2024-11-20 18:03:06
;98833bf8f3114fe38780f31a112c5de4,28dbc4cd0de04f76b295d4d1f3f9c80b,10
;Gerber Generator version 0.2
;Holesize 1 = 0.306 mm
T01C0.306
;Holesize 2 = 0.600 mm
T02C0.600
;Holesize 3 = 0.751 mm
T03C0.751
;Holesize 4 = 0.762 mm
T04C0.762
;Holesize 5 = 0.889 mm
T05C0.889
;Holesize 6 = 0.901 mm
T06C0.901
;Holesize 7 = 0.914 mm
T07C0.914
;Holesize 8 = 0.915 mm
T08C0.915
;Holesize 9 = 1.000 mm
T09C1.000
;Holesize 10 = 1.301 mm
T10C1.301
%
G05
G90
T01
X034314Y064162
X075356Y046939
T02
X066605Y011684
X065355Y011684
X064105Y011684
X062855Y011684
T03
X043815Y045000
T04
X078650Y026190
X078650Y023650
X078650Y021110
X078650Y028730
X078650Y031270
X078650Y033810
X078650Y036350
X078650Y038890
X091350Y038890
X091350Y036350
X091350Y033810
X091350Y031270
X091350Y028730
X091350Y026190
X091350Y023650
X091350Y021110
T05
X027432Y074422
X027432Y071882
X027432Y069342
X027432Y066802
T06
X018350Y033750
X010651Y036250
X005650Y033750
X018350Y026250
X010651Y028750
X005650Y026250
X018350Y018750
X010651Y021250
X005650Y018750
X018350Y011250
X010651Y013750
X005650Y011250
T07
X091427Y056110G85X091432Y056110
X091427Y058650G85X091432Y058650
X091427Y061190G85X091432Y061190
X091427Y063730G85X091432Y063730
X088427Y062460G85X088432Y062460
X088427Y065000G85X088432Y065000
X076187Y063730G85X076192Y063730
X076187Y061190G85X076192Y061190
X076187Y058650G85X076192Y058650
X076187Y056110G85X076192Y056110
X076187Y053570G85X076192Y053570
X076187Y051030G85X076192Y051030
X076187Y048490G85X076192Y048490
X076187Y045950G85X076192Y045950
X091427Y045950G85X091432Y045950
X091427Y048490G85X091432Y048490
X091427Y051030G85X091432Y051030
X091427Y053570G85X091432Y053570
X076187Y066270G85X076192Y066270
X091427Y071350G85X091432Y071350
X091427Y073890G85X091432Y073890
X091427Y068810G85X091432Y068810
X076187Y068810G85X076192Y068810
X076187Y071350G85X076192Y071350
X076187Y073890G85X076192Y073890
X091427Y066270G85X091432Y066270
T08
X005000Y061270
X005000Y058730
X005000Y075000
X005000Y072460
T09
X051435Y091567
X048895Y091567
X046355Y091567
X043815Y091567
X041275Y091567
X051689Y002667
X049149Y002667
X046609Y002667
X044069Y002667
X041529Y002667
T10
X069922Y086497
X075000Y086500
X080080Y086500
X080077Y008503
X075000Y008500
X069920Y008500
M30
