G04 Layer: TopPasteMaskLayer*
G04 EasyEDA v6.5.47, 2024-11-20 18:03:06*
G04 98833bf8f3114fe38780f31a112c5de4,28dbc4cd0de04f76b295d4d1f3f9c80b,10*
G04 Gerber Generator version 0.2*
G04 Scale: 100 percent, Rotated: No, Reflected: No *
G04 Dimensions in millimeters *
G04 leading zeros omitted , absolute positions ,4 integer and 5 decimal *
%FSLAX45Y45*%
%MOMM*%

%ADD10R,1.5050X0.5720*%

%LPD*%
G36*
X924966Y4708245D02*
G01*
X914958Y4698238D01*
X914958Y4597501D01*
X924966Y4587494D01*
X961085Y4587494D01*
X971092Y4597501D01*
X971092Y4618532D01*
X981100Y4628540D01*
X1018895Y4628540D01*
X1028903Y4618532D01*
X1028903Y4597501D01*
X1038910Y4587494D01*
X1075029Y4587494D01*
X1085037Y4597501D01*
X1085037Y4698238D01*
X1075029Y4708245D01*
G37*
G36*
X924966Y4412488D02*
G01*
X914958Y4402480D01*
X914958Y4301744D01*
X924966Y4291736D01*
X1075029Y4291736D01*
X1085037Y4301744D01*
X1085037Y4402480D01*
X1075029Y4412488D01*
X1038910Y4412488D01*
X1028903Y4402480D01*
X1028903Y4381449D01*
X1018895Y4371441D01*
X981100Y4371441D01*
X971092Y4381449D01*
X971092Y4402480D01*
X961085Y4412488D01*
G37*
G36*
X424942Y4708245D02*
G01*
X414934Y4698238D01*
X414934Y4597501D01*
X424942Y4587494D01*
X461060Y4587494D01*
X471068Y4597501D01*
X471068Y4618532D01*
X481076Y4628540D01*
X518922Y4628540D01*
X528929Y4618532D01*
X528929Y4597501D01*
X538937Y4587494D01*
X575056Y4587494D01*
X585063Y4597501D01*
X585063Y4698238D01*
X575056Y4708245D01*
G37*
G36*
X424942Y4412488D02*
G01*
X414934Y4402480D01*
X414934Y4301744D01*
X424942Y4291736D01*
X575056Y4291736D01*
X585063Y4301744D01*
X585063Y4402480D01*
X575056Y4412488D01*
X538937Y4412488D01*
X528929Y4402480D01*
X528929Y4381449D01*
X518922Y4371441D01*
X481076Y4371441D01*
X471068Y4381449D01*
X471068Y4402480D01*
X461060Y4412488D01*
G37*
D10*
G01*
X1889988Y4594987D03*
G36*
X1814956Y4408449D02*
G01*
X1815566Y4411827D01*
X1816607Y4415129D01*
X1818030Y4418279D01*
X1819808Y4421225D01*
X1821942Y4423968D01*
X1824380Y4426407D01*
X1827098Y4428540D01*
X1830044Y4430318D01*
X1833194Y4431741D01*
X1836496Y4432757D01*
X1839899Y4433392D01*
X1843354Y4433595D01*
X1936648Y4433595D01*
X1940102Y4433392D01*
X1943481Y4432757D01*
X1946783Y4431741D01*
X1949932Y4430318D01*
X1952904Y4428540D01*
X1955622Y4426407D01*
X1958060Y4423968D01*
X1960194Y4421225D01*
X1961972Y4418279D01*
X1963394Y4415129D01*
X1964410Y4411827D01*
X1965045Y4408449D01*
X1965248Y4404995D01*
X1965045Y4401540D01*
X1964410Y4398137D01*
X1963394Y4394860D01*
X1961972Y4391710D01*
X1960194Y4388738D01*
X1958060Y4386021D01*
X1955622Y4383582D01*
X1952904Y4381449D01*
X1949932Y4379671D01*
X1946783Y4378248D01*
X1943481Y4377232D01*
X1940102Y4376597D01*
X1936648Y4376394D01*
X1843354Y4376394D01*
X1839899Y4376597D01*
X1836496Y4377232D01*
X1833194Y4378248D01*
X1830044Y4379671D01*
X1827098Y4381449D01*
X1824380Y4383582D01*
X1821942Y4386021D01*
X1819808Y4388738D01*
X1818030Y4391710D01*
X1816607Y4394860D01*
X1815566Y4398137D01*
X1814956Y4401540D01*
X1814753Y4404995D01*
G37*
G36*
X2034946Y4503445D02*
G01*
X2035581Y4506823D01*
X2036597Y4510125D01*
X2038019Y4513275D01*
X2039797Y4516246D01*
X2041931Y4518964D01*
X2044369Y4521403D01*
X2047087Y4523536D01*
X2050059Y4525314D01*
X2053209Y4526737D01*
X2056511Y4527753D01*
X2059889Y4528388D01*
X2063343Y4528591D01*
X2156637Y4528591D01*
X2160092Y4528388D01*
X2163495Y4527753D01*
X2166797Y4526737D01*
X2169947Y4525314D01*
X2172893Y4523536D01*
X2175611Y4521403D01*
X2178050Y4518964D01*
X2180183Y4516246D01*
X2181961Y4513275D01*
X2183384Y4510125D01*
X2184425Y4506823D01*
X2185034Y4503445D01*
X2185238Y4499990D01*
X2185034Y4496536D01*
X2184425Y4493158D01*
X2183384Y4489856D01*
X2181961Y4486706D01*
X2180183Y4483735D01*
X2178050Y4481017D01*
X2175611Y4478578D01*
X2172893Y4476445D01*
X2169947Y4474667D01*
X2166797Y4473244D01*
X2163495Y4472228D01*
X2160092Y4471593D01*
X2156637Y4471390D01*
X2063343Y4471390D01*
X2059889Y4471593D01*
X2056511Y4472228D01*
X2053209Y4473244D01*
X2050059Y4474667D01*
X2047087Y4476445D01*
X2044369Y4478578D01*
X2041931Y4481017D01*
X2039797Y4483735D01*
X2038019Y4486706D01*
X2036597Y4489856D01*
X2035581Y4493158D01*
X2034946Y4496536D01*
X2034743Y4499990D01*
G37*
M02*
