G04 Layer: TopLayer*
G04 EasyEDA v6.5.47, 2024-11-20 18:03:06*
G04 98833bf8f3114fe38780f31a112c5de4,28dbc4cd0de04f76b295d4d1f3f9c80b,10*
G04 Gerber Generator version 0.2*
G04 Scale: 100 percent, Rotated: No, Reflected: No *
G04 Dimensions in millimeters *
G04 leading zeros omitted , absolute positions ,4 integer and 5 decimal *
%FSLAX45Y45*%
%MOMM*%

%AMMACRO1*21,1,$1,$2,0,0,$3*%
%ADD10C,0.2540*%
%ADD11C,0.7600*%
%ADD12R,1.5050X0.5720*%
%ADD13MACRO1,1.701X1.2075X0.0000*%
%ADD14R,1.7010X1.2075*%
%ADD15C,1.5240*%
%ADD16R,1.0000X1.0000*%
%ADD17C,1.0000*%
%ADD18R,2.0000X2.0000*%
%ADD19C,2.0000*%
%ADD20R,1.5748X1.5748*%
%ADD21C,1.5748*%
%ADD22R,1.5240X1.5240*%
%ADD23C,1.9000*%
%ADD24C,0.6100*%
%ADD25C,0.0170*%

%LPD*%
D10*
X4660900Y266697D02*
G01*
X4507331Y113129D01*
X4100829Y113129D01*
X1834997Y2378961D01*
X1834997Y2625011D01*
X9142984Y5864984D02*
G01*
X8122386Y4844387D01*
X8122386Y3969077D01*
X7893583Y3740274D01*
X2950260Y3740274D01*
X1834997Y2625011D01*
X7618984Y6880984D02*
G01*
X9142984Y6880984D01*
X999997Y4647867D02*
G01*
X1733956Y4647867D01*
X1786839Y4594984D01*
X1838426Y4594984D02*
G01*
X1786839Y4594984D01*
X1838426Y4594984D02*
G01*
X1889988Y4594984D01*
X7535570Y4693942D02*
G01*
X2092121Y4693942D01*
X1993163Y4594984D01*
X1889988Y4594984D02*
G01*
X1993163Y4594984D01*
X7618984Y5356984D02*
G01*
X4066413Y5356984D01*
X2743200Y6680197D01*
X2743200Y6934197D02*
G01*
X3939413Y5737984D01*
X7653248Y5737984D01*
X7726934Y5664299D01*
X7726934Y5210934D01*
X7618984Y5102984D01*
X6991984Y825497D02*
G01*
X9014079Y2847591D01*
X9014079Y4720079D01*
X9142984Y4848984D01*
D11*
X1065123Y3624958D02*
G01*
X999997Y3690084D01*
X999997Y4352109D01*
X2743200Y7442197D02*
G01*
X696213Y7442197D01*
X499998Y7245982D01*
X999997Y4352109D02*
G01*
X1837105Y4352109D01*
X1889988Y4404992D01*
X1889988Y4404992D02*
G01*
X2405989Y3888991D01*
X7864983Y3888991D01*
X7864983Y2110991D02*
G01*
X5997193Y2110991D01*
X4152900Y266697D01*
D10*
X9142984Y6372984D02*
G01*
X8752509Y6763458D01*
X7282738Y6763458D01*
X4889500Y9156697D01*
X5486781Y8305441D02*
G01*
X3597529Y6416189D01*
X3431438Y6416189D01*
X4635500Y9156697D02*
G01*
X5486781Y8305441D01*
X5486781Y8305441D02*
G01*
X7301687Y6490510D01*
X8194217Y6490510D01*
X8565743Y6118984D01*
X9142984Y6118984D01*
X7618984Y5864984D02*
G01*
X7771155Y5712813D01*
X7771155Y5105422D01*
X7641716Y4975984D01*
X739825Y4975984D01*
X499998Y4736157D01*
X499998Y4647867D02*
G01*
X499998Y4736157D01*
X499998Y4352109D02*
G01*
X499998Y4440400D01*
X499998Y4440400D02*
G01*
X386867Y4553531D01*
X386867Y4831864D01*
X2743200Y7188197D01*
X7864983Y3634991D02*
G01*
X8922765Y4692774D01*
X8922765Y5538238D01*
X9143009Y5758482D01*
X9189110Y5758482D01*
X9264268Y5833640D01*
X9264268Y6505699D01*
X9142984Y6626984D01*
X2743200Y7188197D02*
G01*
X3857116Y8302114D01*
X3857116Y9107040D01*
X4064127Y9314050D01*
X4986147Y9314050D01*
X5143500Y9156697D01*
X5271414Y9156697D02*
G01*
X7420127Y7007984D01*
X9168180Y7007984D01*
X9247276Y6928888D01*
X9247276Y6731276D01*
X9142984Y6626984D01*
X5143500Y9156697D02*
G01*
X5271414Y9156697D01*
X4914900Y266697D02*
G01*
X4714011Y65808D01*
X4074871Y65808D01*
X1718284Y2422395D01*
X1718284Y3258309D01*
X1834997Y3375022D01*
X9142984Y5610984D02*
G01*
X8973286Y5441287D01*
X8973286Y3047641D01*
X6391097Y465452D01*
X5113654Y465452D01*
X4914900Y266697D01*
D11*
X2110003Y4499988D02*
G01*
X4381500Y4499988D01*
D12*
G01*
X1889988Y4594987D03*
G36*
X1814753Y4404995D02*
G01*
X1814956Y4408449D01*
X1815566Y4411827D01*
X1816607Y4415129D01*
X1818030Y4418279D01*
X1819808Y4421225D01*
X1821942Y4423968D01*
X1824380Y4426407D01*
X1827098Y4428540D01*
X1830044Y4430318D01*
X1833194Y4431741D01*
X1836496Y4432757D01*
X1839899Y4433392D01*
X1843354Y4433595D01*
X1936648Y4433595D01*
X1940102Y4433392D01*
X1943481Y4432757D01*
X1946783Y4431741D01*
X1949932Y4430318D01*
X1952904Y4428540D01*
X1955622Y4426407D01*
X1958060Y4423968D01*
X1960194Y4421225D01*
X1961972Y4418279D01*
X1963394Y4415129D01*
X1964410Y4411827D01*
X1965045Y4408449D01*
X1965248Y4404995D01*
X1965248Y4404995D01*
X1965045Y4401540D01*
X1964410Y4398137D01*
X1963394Y4394860D01*
X1961972Y4391710D01*
X1960194Y4388738D01*
X1958060Y4386021D01*
X1955622Y4383582D01*
X1952904Y4381449D01*
X1949932Y4379671D01*
X1946783Y4378248D01*
X1943481Y4377232D01*
X1940102Y4376597D01*
X1936648Y4376394D01*
X1843354Y4376394D01*
X1839899Y4376597D01*
X1836496Y4377232D01*
X1833194Y4378248D01*
X1830044Y4379671D01*
X1827098Y4381449D01*
X1824380Y4383582D01*
X1821942Y4386021D01*
X1819808Y4388738D01*
X1818030Y4391710D01*
X1816607Y4394860D01*
X1815566Y4398137D01*
X1814956Y4401540D01*
X1814753Y4404995D01*
G37*
G36*
X2034743Y4499990D02*
G01*
X2034946Y4503445D01*
X2035581Y4506823D01*
X2036597Y4510125D01*
X2038019Y4513275D01*
X2039797Y4516246D01*
X2041931Y4518964D01*
X2044369Y4521403D01*
X2047087Y4523536D01*
X2050059Y4525314D01*
X2053209Y4526737D01*
X2056511Y4527753D01*
X2059889Y4528388D01*
X2063343Y4528591D01*
X2156637Y4528591D01*
X2160092Y4528388D01*
X2163495Y4527753D01*
X2166797Y4526737D01*
X2169947Y4525314D01*
X2172893Y4523536D01*
X2175611Y4521403D01*
X2178050Y4518964D01*
X2180183Y4516246D01*
X2181961Y4513275D01*
X2183384Y4510125D01*
X2184425Y4506823D01*
X2185034Y4503445D01*
X2185238Y4499990D01*
X2185238Y4499990D01*
X2185034Y4496536D01*
X2184425Y4493158D01*
X2183384Y4489856D01*
X2181961Y4486706D01*
X2180183Y4483735D01*
X2178050Y4481017D01*
X2175611Y4478578D01*
X2172893Y4476445D01*
X2169947Y4474667D01*
X2166797Y4473244D01*
X2163495Y4472228D01*
X2160092Y4471593D01*
X2156637Y4471390D01*
X2063343Y4471390D01*
X2059889Y4471593D01*
X2056511Y4472228D01*
X2053209Y4473244D01*
X2050059Y4474667D01*
X2047087Y4476445D01*
X2044369Y4478578D01*
X2041931Y4481017D01*
X2039797Y4483735D01*
X2038019Y4486706D01*
X2036597Y4489856D01*
X2035581Y4493158D01*
X2034946Y4496536D01*
X2034743Y4499990D01*
G37*
D13*
G01*
X999998Y4647867D03*
D14*
G01*
X999997Y4352112D03*
D13*
G01*
X499998Y4647867D03*
D14*
G01*
X499998Y4352112D03*
D15*
G01*
X499998Y6126987D03*
G01*
X499998Y5872987D03*
D16*
G01*
X6660515Y1168400D03*
D17*
G01*
X6535521Y1168400D03*
G01*
X6410502Y1168400D03*
G01*
X6285509Y1168400D03*
D18*
G01*
X5143500Y9156700D03*
D19*
G01*
X4889500Y9156700D03*
G01*
X4635500Y9156700D03*
G01*
X4381500Y9156700D03*
G01*
X4127500Y9156700D03*
D18*
G01*
X5168900Y266700D03*
D19*
G01*
X4914900Y266700D03*
G01*
X4660900Y266700D03*
G01*
X4406900Y266700D03*
G01*
X4152900Y266700D03*
D20*
G01*
X2743200Y7442200D03*
D21*
G01*
X2743200Y7188200D03*
G01*
X2743200Y6934200D03*
G01*
X2743200Y6680200D03*
D22*
G01*
X499998Y7499985D03*
D15*
G01*
X499998Y7245985D03*
G01*
X1834997Y3375025D03*
G01*
X1065123Y3624961D03*
G01*
X564997Y3375025D03*
G01*
X1834997Y2625013D03*
G01*
X1065123Y2874949D03*
G01*
X564997Y2625013D03*
G01*
X1834997Y1875028D03*
G01*
X1065123Y2124963D03*
G01*
X564997Y1875028D03*
G01*
X1834997Y1125016D03*
G01*
X1065123Y1374952D03*
G01*
X564997Y1125016D03*
D23*
G01*
X6992238Y8649715D03*
G01*
X7499984Y8649970D03*
G01*
X8007984Y8649970D03*
G01*
X8007731Y850239D03*
G01*
X7499984Y849985D03*
G01*
X6991984Y849985D03*
D15*
G01*
X7864983Y2618994D03*
G01*
X7864983Y2364994D03*
G01*
X7864983Y2110994D03*
G01*
X7864983Y2872994D03*
G01*
X7864983Y3126994D03*
G01*
X7864983Y3380994D03*
G01*
X7864983Y3634994D03*
G01*
X7864983Y3888994D03*
G01*
X9134983Y3888994D03*
G01*
X9134983Y3634994D03*
G01*
X9134983Y3380994D03*
G01*
X9134983Y3126994D03*
G01*
X9134983Y2872994D03*
G01*
X9134983Y2618994D03*
G01*
X9134983Y2364994D03*
G01*
X9134983Y2110994D03*
G01*
X9142984Y5610987D03*
G01*
X9142984Y5864987D03*
G01*
X9142984Y6118987D03*
G01*
X9142984Y6372987D03*
G01*
X8842984Y6245987D03*
G01*
X8842984Y6499987D03*
G01*
X7618984Y6372987D03*
G01*
X7618984Y6118987D03*
G01*
X7618984Y5864987D03*
G01*
X7618984Y5610987D03*
G01*
X7618984Y5356987D03*
G01*
X7618984Y5102987D03*
G01*
X7618984Y4848987D03*
G01*
X7618984Y4594987D03*
G01*
X9142984Y4594987D03*
G01*
X9142984Y4848987D03*
G01*
X9142984Y5102987D03*
G01*
X9142984Y5356987D03*
G01*
X7618984Y6626987D03*
G01*
X9142984Y7134987D03*
G01*
X9142984Y7388987D03*
G01*
X9142984Y6880987D03*
G01*
X7618984Y6880987D03*
G01*
X7618984Y7134987D03*
G01*
X7618984Y7388987D03*
G01*
X9142984Y6626987D03*
D17*
G01*
X4381500Y4499990D03*
D24*
G01*
X3431438Y6416192D03*
G01*
X7535570Y4693945D03*
M02*
