G04 Layer: TopSolderMaskLayer*
G04 EasyEDA v6.5.47, 2024-11-20 18:03:06*
G04 98833bf8f3114fe38780f31a112c5de4,28dbc4cd0de04f76b295d4d1f3f9c80b,10*
G04 Gerber Generator version 0.2*
G04 Scale: 100 percent, Rotated: No, Reflected: No *
G04 Dimensions in millimeters *
G04 leading zeros omitted , absolute positions ,4 integer and 5 decimal *
%FSLAX45Y45*%
%MOMM*%

%AMMACRO1*4,1,8,-0.5422,-0.6016,-0.6016,-0.5419,-0.6016,0.5422,-0.5422,0.6016,0.5419,0.6016,0.6016,0.5422,0.6016,-0.5419,0.5419,-0.6016,-0.5422,-0.6016,0*%
%AMMACRO2*4,1,8,-1.0211,-1.0508,-1.0508,-1.0208,-1.0508,1.0211,-1.0211,1.0508,1.0208,1.0508,1.0508,1.0211,1.0508,-1.0208,1.0208,-1.0508,-1.0211,-1.0508,0*%
%AMMACRO3*4,1,8,-0.8085,-0.8382,-0.8382,-0.8082,-0.8382,0.8085,-0.8085,0.8382,0.8082,0.8382,0.8382,0.8085,0.8382,-0.8082,0.8082,-0.8382,-0.8085,-0.8382,0*%
%AMMACRO4*4,1,8,-0.7831,-0.8128,-0.8128,-0.7828,-0.8128,0.7831,-0.7831,0.8128,0.7828,0.8128,0.8128,0.7831,0.8128,-0.7828,0.7828,-0.8128,-0.7831,-0.8128,0*%
%AMMACRO5*4,1,8,-0.7736,-0.3368,-0.8033,-0.3068,-0.8033,0.3071,-0.7736,0.3368,0.7733,0.3368,0.8033,0.3071,0.8033,-0.3068,0.7733,-0.3368,-0.7736,-0.3368,0*%
%AMMACRO6*4,1,8,-0.8715,-0.6546,-0.9012,-0.6246,-0.9012,0.6248,-0.8715,0.6546,0.8712,0.6546,0.9012,0.6248,0.9012,-0.6246,0.8712,-0.6546,-0.8715,-0.6546,0*%
%ADD10C,1.7272*%
%ADD11MACRO1*%
%ADD12C,1.2032*%
%ADD13MACRO2*%
%ADD14C,2.1016*%
%ADD15MACRO3*%
%ADD16C,1.6764*%
%ADD17MACRO4*%
%ADD18C,1.6256*%
%ADD19MACRO5*%
%ADD20MACRO6*%
%ADD21C,2.1032*%

%LPD*%
D10*
G01*
X499998Y6126987D03*
G01*
X499998Y5872987D03*
D11*
G01*
X6660502Y1168387D03*
D12*
G01*
X6535521Y1168400D03*
G01*
X6410502Y1168400D03*
G01*
X6285509Y1168400D03*
D13*
G01*
X5143500Y9156700D03*
D14*
G01*
X4889500Y9156700D03*
G01*
X4635500Y9156700D03*
G01*
X4381500Y9156700D03*
G01*
X4127500Y9156700D03*
D13*
G01*
X5168900Y266700D03*
D14*
G01*
X4914900Y266700D03*
G01*
X4660900Y266700D03*
G01*
X4406900Y266700D03*
G01*
X4152900Y266700D03*
D15*
G01*
X2743200Y7442200D03*
D16*
G01*
X2743200Y7188200D03*
G01*
X2743200Y6934200D03*
G01*
X2743200Y6680200D03*
D17*
G01*
X499999Y7499984D03*
D18*
G01*
X499998Y7245985D03*
D19*
G01*
X1890001Y4594987D03*
G36*
X1843049Y4371314D02*
G01*
X1839595Y4371517D01*
X1838960Y4371594D01*
X1835556Y4372229D01*
X1834997Y4372381D01*
X1831695Y4373397D01*
X1831111Y4373626D01*
X1827961Y4375048D01*
X1827428Y4375327D01*
X1824481Y4377105D01*
X1823973Y4377461D01*
X1821256Y4379595D01*
X1820798Y4380001D01*
X1818360Y4382439D01*
X1817954Y4382896D01*
X1815820Y4385614D01*
X1815439Y4386122D01*
X1813661Y4389094D01*
X1813407Y4389628D01*
X1811985Y4392777D01*
X1811756Y4393311D01*
X1810715Y4396587D01*
X1810562Y4397247D01*
X1809953Y4400651D01*
X1809877Y4401235D01*
X1809673Y4404690D01*
X1809673Y4405299D01*
X1809877Y4408754D01*
X1809953Y4409363D01*
X1810562Y4412742D01*
X1810715Y4413351D01*
X1811756Y4416653D01*
X1811985Y4417212D01*
X1813407Y4420362D01*
X1813687Y4420895D01*
X1815464Y4423841D01*
X1815795Y4424349D01*
X1817928Y4427093D01*
X1818360Y4427550D01*
X1820798Y4429988D01*
X1821256Y4430395D01*
X1823973Y4432528D01*
X1824481Y4432884D01*
X1827428Y4434662D01*
X1827961Y4434941D01*
X1831111Y4436363D01*
X1831695Y4436592D01*
X1834997Y4437608D01*
X1835556Y4437761D01*
X1838960Y4438395D01*
X1839595Y4438472D01*
X1843049Y4438675D01*
X1936953Y4438675D01*
X1940407Y4438472D01*
X1941042Y4438395D01*
X1944420Y4437761D01*
X1944979Y4437608D01*
X1948281Y4436592D01*
X1948865Y4436363D01*
X1952015Y4434941D01*
X1952548Y4434687D01*
X1955520Y4432909D01*
X1956028Y4432528D01*
X1958746Y4430395D01*
X1959203Y4429988D01*
X1961641Y4427550D01*
X1962073Y4427093D01*
X1964207Y4424349D01*
X1964537Y4423841D01*
X1966315Y4420895D01*
X1966595Y4420362D01*
X1968017Y4417212D01*
X1968245Y4416628D01*
X1969261Y4413326D01*
X1969414Y4412767D01*
X1970049Y4409389D01*
X1970125Y4408754D01*
X1970328Y4405299D01*
X1970328Y4404690D01*
X1970125Y4401235D01*
X1970049Y4400600D01*
X1969414Y4397197D01*
X1969261Y4396638D01*
X1968245Y4393361D01*
X1968017Y4392777D01*
X1966595Y4389628D01*
X1966340Y4389094D01*
X1964563Y4386122D01*
X1964181Y4385614D01*
X1962048Y4382896D01*
X1961641Y4382439D01*
X1959203Y4380001D01*
X1958746Y4379595D01*
X1956028Y4377461D01*
X1955520Y4377080D01*
X1952548Y4375302D01*
X1952015Y4375048D01*
X1948865Y4373626D01*
X1948281Y4373397D01*
X1944979Y4372381D01*
X1944420Y4372229D01*
X1941042Y4371594D01*
X1940407Y4371517D01*
X1936953Y4371314D01*
G37*
G36*
X2063038Y4466310D02*
G01*
X2059584Y4466513D01*
X2058949Y4466589D01*
X2055571Y4467225D01*
X2055012Y4467377D01*
X2051710Y4468393D01*
X2051126Y4468621D01*
X2047976Y4470044D01*
X2047443Y4470298D01*
X2044471Y4472076D01*
X2043963Y4472457D01*
X2041245Y4474590D01*
X2040788Y4474997D01*
X2038350Y4477435D01*
X2037943Y4477893D01*
X2035809Y4480610D01*
X2035429Y4481118D01*
X2033650Y4484090D01*
X2033397Y4484623D01*
X2031974Y4487773D01*
X2031745Y4488357D01*
X2030729Y4491659D01*
X2030577Y4492218D01*
X2029942Y4495596D01*
X2029866Y4496231D01*
X2029663Y4499686D01*
X2029663Y4500295D01*
X2029866Y4503750D01*
X2029942Y4504385D01*
X2030577Y4507763D01*
X2030729Y4508322D01*
X2031745Y4511624D01*
X2031974Y4512208D01*
X2033397Y4515357D01*
X2033650Y4515891D01*
X2035429Y4518863D01*
X2035809Y4519371D01*
X2037943Y4522088D01*
X2038350Y4522546D01*
X2040788Y4524984D01*
X2041245Y4525390D01*
X2043963Y4527524D01*
X2044471Y4527905D01*
X2047443Y4529683D01*
X2047976Y4529937D01*
X2051126Y4531360D01*
X2051710Y4531588D01*
X2055012Y4532604D01*
X2055571Y4532756D01*
X2058949Y4533392D01*
X2059584Y4533468D01*
X2063038Y4533671D01*
X2156942Y4533671D01*
X2160397Y4533468D01*
X2161031Y4533392D01*
X2164435Y4532756D01*
X2164994Y4532604D01*
X2168296Y4531588D01*
X2168880Y4531360D01*
X2172030Y4529937D01*
X2172563Y4529658D01*
X2175509Y4527880D01*
X2176018Y4527524D01*
X2178735Y4525390D01*
X2179193Y4524984D01*
X2181631Y4522546D01*
X2182037Y4522088D01*
X2184171Y4519371D01*
X2184552Y4518863D01*
X2186330Y4515891D01*
X2186584Y4515357D01*
X2188006Y4512208D01*
X2188235Y4511649D01*
X2189276Y4508347D01*
X2189429Y4507737D01*
X2190038Y4504359D01*
X2190115Y4503750D01*
X2190318Y4500295D01*
X2190318Y4499686D01*
X2190115Y4496231D01*
X2190038Y4495622D01*
X2189429Y4492244D01*
X2189276Y4491634D01*
X2188235Y4488332D01*
X2188006Y4487773D01*
X2186584Y4484623D01*
X2186330Y4484090D01*
X2184552Y4481118D01*
X2184171Y4480610D01*
X2182037Y4477893D01*
X2181631Y4477435D01*
X2179193Y4474997D01*
X2178735Y4474590D01*
X2176018Y4472457D01*
X2175509Y4472101D01*
X2172563Y4470323D01*
X2172030Y4470044D01*
X2168880Y4468621D01*
X2168296Y4468393D01*
X2164994Y4467377D01*
X2164435Y4467225D01*
X2161031Y4466589D01*
X2160397Y4466513D01*
X2156942Y4466310D01*
G37*
D10*
G01*
X1834997Y3375025D03*
G01*
X1065123Y3624961D03*
G01*
X564997Y3375025D03*
G01*
X1834997Y2625013D03*
G01*
X1065123Y2874949D03*
G01*
X564997Y2625013D03*
G01*
X1834997Y1875028D03*
G01*
X1065123Y2124963D03*
G01*
X564997Y1875028D03*
G01*
X1834997Y1125016D03*
G01*
X1065123Y1374952D03*
G01*
X564997Y1125016D03*
D20*
G01*
X999998Y4647869D03*
G01*
X999998Y4352112D03*
G01*
X499999Y4647869D03*
G01*
X499999Y4352112D03*
D21*
G01*
X6992238Y8649715D03*
G01*
X7499984Y8649970D03*
G01*
X8007984Y8649970D03*
G01*
X8007731Y850239D03*
G01*
X7499984Y849985D03*
G01*
X6991984Y849985D03*
D18*
G01*
X7864983Y2618994D03*
G01*
X7864983Y2364994D03*
G01*
X7864983Y2110994D03*
G01*
X7864983Y2872994D03*
G01*
X7864983Y3126994D03*
G01*
X7864983Y3380994D03*
G01*
X7864983Y3634994D03*
G01*
X7864983Y3888994D03*
G01*
X9134983Y3888994D03*
G01*
X9134983Y3634994D03*
G01*
X9134983Y3380994D03*
D10*
G01*
X9134983Y3126994D03*
D18*
G01*
X9134983Y2872994D03*
G01*
X9134983Y2618994D03*
G01*
X9134983Y2364994D03*
G01*
X9134983Y2110994D03*
G01*
X9142984Y5610987D03*
G01*
X9142984Y5864987D03*
G01*
X9142984Y6118987D03*
G01*
X9142984Y6372987D03*
G01*
X8842984Y6245987D03*
G01*
X8842984Y6499987D03*
G01*
X7618984Y6372987D03*
G01*
X7618984Y6118987D03*
G01*
X7618984Y5864987D03*
G01*
X7618984Y5610987D03*
G01*
X7618984Y5356987D03*
G01*
X7618984Y5102987D03*
G01*
X7618984Y4848987D03*
G01*
X7618984Y4594987D03*
G01*
X9142984Y4594987D03*
G01*
X9142984Y4848987D03*
G01*
X9142984Y5102987D03*
G01*
X9142984Y5356987D03*
G01*
X7618984Y6626987D03*
G01*
X9142984Y7134987D03*
G01*
X9142984Y7388987D03*
G01*
X9142984Y6880987D03*
G01*
X7618984Y6880987D03*
G01*
X7618984Y7134987D03*
G01*
X7618984Y7388987D03*
G01*
X9142984Y6626987D03*
M02*
