%TF.GenerationSoftware,KiCad,Pcbnew,9.0.5*%
%TF.CreationDate,2025-11-13T21:56:36-08:00*%
%TF.ProjectId,IXOLAR,49584f4c-4152-42e6-9b69-6361645f7063,rev?*%
%TF.SameCoordinates,Original*%
%TF.FileFunction,Legend,Bot*%
%TF.FilePolarity,Positive*%
%FSLAX46Y46*%
G04 Gerber Fmt 4.6, Leading zero omitted, Abs format (unit mm)*
G04 Created by KiCad (PCBNEW 9.0.5) date 2025-11-13 21:56:36*
%MOMM*%
%LPD*%
G01*
G04 APERTURE LIST*
%ADD10C,0.150000*%
%ADD11C,0.120000*%
G04 APERTURE END LIST*
D10*
X43238094Y-45454819D02*
X43238094Y-44454819D01*
X43238094Y-44454819D02*
X42999999Y-44454819D01*
X42999999Y-44454819D02*
X42857142Y-44502438D01*
X42857142Y-44502438D02*
X42761904Y-44597676D01*
X42761904Y-44597676D02*
X42714285Y-44692914D01*
X42714285Y-44692914D02*
X42666666Y-44883390D01*
X42666666Y-44883390D02*
X42666666Y-45026247D01*
X42666666Y-45026247D02*
X42714285Y-45216723D01*
X42714285Y-45216723D02*
X42761904Y-45311961D01*
X42761904Y-45311961D02*
X42857142Y-45407200D01*
X42857142Y-45407200D02*
X42999999Y-45454819D01*
X42999999Y-45454819D02*
X43238094Y-45454819D01*
X42333332Y-44454819D02*
X41714285Y-44454819D01*
X41714285Y-44454819D02*
X42047618Y-44835771D01*
X42047618Y-44835771D02*
X41904761Y-44835771D01*
X41904761Y-44835771D02*
X41809523Y-44883390D01*
X41809523Y-44883390D02*
X41761904Y-44931009D01*
X41761904Y-44931009D02*
X41714285Y-45026247D01*
X41714285Y-45026247D02*
X41714285Y-45264342D01*
X41714285Y-45264342D02*
X41761904Y-45359580D01*
X41761904Y-45359580D02*
X41809523Y-45407200D01*
X41809523Y-45407200D02*
X41904761Y-45454819D01*
X41904761Y-45454819D02*
X42190475Y-45454819D01*
X42190475Y-45454819D02*
X42285713Y-45407200D01*
X42285713Y-45407200D02*
X42333332Y-45359580D01*
X50261904Y-45454819D02*
X50261904Y-44454819D01*
X49690476Y-45454819D02*
X50119047Y-44883390D01*
X49690476Y-44454819D02*
X50261904Y-45026247D01*
X133988096Y-46038152D02*
X133988096Y-46847676D01*
X133988096Y-46847676D02*
X134035715Y-46942914D01*
X134035715Y-46942914D02*
X134083334Y-46990533D01*
X134083334Y-46990533D02*
X134178572Y-47038152D01*
X134178572Y-47038152D02*
X134321429Y-47038152D01*
X134321429Y-47038152D02*
X134416667Y-46990533D01*
X133988096Y-46657200D02*
X134083334Y-46704819D01*
X134083334Y-46704819D02*
X134273810Y-46704819D01*
X134273810Y-46704819D02*
X134369048Y-46657200D01*
X134369048Y-46657200D02*
X134416667Y-46609580D01*
X134416667Y-46609580D02*
X134464286Y-46514342D01*
X134464286Y-46514342D02*
X134464286Y-46228628D01*
X134464286Y-46228628D02*
X134416667Y-46133390D01*
X134416667Y-46133390D02*
X134369048Y-46085771D01*
X134369048Y-46085771D02*
X134273810Y-46038152D01*
X134273810Y-46038152D02*
X134083334Y-46038152D01*
X134083334Y-46038152D02*
X133988096Y-46085771D01*
X133511905Y-46038152D02*
X133511905Y-46704819D01*
X133511905Y-46133390D02*
X133464286Y-46085771D01*
X133464286Y-46085771D02*
X133369048Y-46038152D01*
X133369048Y-46038152D02*
X133226191Y-46038152D01*
X133226191Y-46038152D02*
X133130953Y-46085771D01*
X133130953Y-46085771D02*
X133083334Y-46181009D01*
X133083334Y-46181009D02*
X133083334Y-46704819D01*
X132178572Y-46704819D02*
X132178572Y-45704819D01*
X132178572Y-46657200D02*
X132273810Y-46704819D01*
X132273810Y-46704819D02*
X132464286Y-46704819D01*
X132464286Y-46704819D02*
X132559524Y-46657200D01*
X132559524Y-46657200D02*
X132607143Y-46609580D01*
X132607143Y-46609580D02*
X132654762Y-46514342D01*
X132654762Y-46514342D02*
X132654762Y-46228628D01*
X132654762Y-46228628D02*
X132607143Y-46133390D01*
X132607143Y-46133390D02*
X132559524Y-46085771D01*
X132559524Y-46085771D02*
X132464286Y-46038152D01*
X132464286Y-46038152D02*
X132273810Y-46038152D01*
X132273810Y-46038152D02*
X132178572Y-46085771D01*
X131940477Y-46800057D02*
X131178572Y-46800057D01*
X130511905Y-46657200D02*
X130607143Y-46704819D01*
X130607143Y-46704819D02*
X130797619Y-46704819D01*
X130797619Y-46704819D02*
X130892857Y-46657200D01*
X130892857Y-46657200D02*
X130940476Y-46609580D01*
X130940476Y-46609580D02*
X130988095Y-46514342D01*
X130988095Y-46514342D02*
X130988095Y-46228628D01*
X130988095Y-46228628D02*
X130940476Y-46133390D01*
X130940476Y-46133390D02*
X130892857Y-46085771D01*
X130892857Y-46085771D02*
X130797619Y-46038152D01*
X130797619Y-46038152D02*
X130607143Y-46038152D01*
X130607143Y-46038152D02*
X130511905Y-46085771D01*
X129940476Y-46704819D02*
X130035714Y-46657200D01*
X130035714Y-46657200D02*
X130083333Y-46609580D01*
X130083333Y-46609580D02*
X130130952Y-46514342D01*
X130130952Y-46514342D02*
X130130952Y-46228628D01*
X130130952Y-46228628D02*
X130083333Y-46133390D01*
X130083333Y-46133390D02*
X130035714Y-46085771D01*
X130035714Y-46085771D02*
X129940476Y-46038152D01*
X129940476Y-46038152D02*
X129797619Y-46038152D01*
X129797619Y-46038152D02*
X129702381Y-46085771D01*
X129702381Y-46085771D02*
X129654762Y-46133390D01*
X129654762Y-46133390D02*
X129607143Y-46228628D01*
X129607143Y-46228628D02*
X129607143Y-46514342D01*
X129607143Y-46514342D02*
X129654762Y-46609580D01*
X129654762Y-46609580D02*
X129702381Y-46657200D01*
X129702381Y-46657200D02*
X129797619Y-46704819D01*
X129797619Y-46704819D02*
X129940476Y-46704819D01*
X129178571Y-46038152D02*
X129178571Y-46704819D01*
X129178571Y-46133390D02*
X129130952Y-46085771D01*
X129130952Y-46085771D02*
X129035714Y-46038152D01*
X129035714Y-46038152D02*
X128892857Y-46038152D01*
X128892857Y-46038152D02*
X128797619Y-46085771D01*
X128797619Y-46085771D02*
X128750000Y-46181009D01*
X128750000Y-46181009D02*
X128750000Y-46704819D01*
X128273809Y-46038152D02*
X128273809Y-46704819D01*
X128273809Y-46133390D02*
X128226190Y-46085771D01*
X128226190Y-46085771D02*
X128130952Y-46038152D01*
X128130952Y-46038152D02*
X127988095Y-46038152D01*
X127988095Y-46038152D02*
X127892857Y-46085771D01*
X127892857Y-46085771D02*
X127845238Y-46181009D01*
X127845238Y-46181009D02*
X127845238Y-46704819D01*
X126988095Y-46657200D02*
X127083333Y-46704819D01*
X127083333Y-46704819D02*
X127273809Y-46704819D01*
X127273809Y-46704819D02*
X127369047Y-46657200D01*
X127369047Y-46657200D02*
X127416666Y-46561961D01*
X127416666Y-46561961D02*
X127416666Y-46181009D01*
X127416666Y-46181009D02*
X127369047Y-46085771D01*
X127369047Y-46085771D02*
X127273809Y-46038152D01*
X127273809Y-46038152D02*
X127083333Y-46038152D01*
X127083333Y-46038152D02*
X126988095Y-46085771D01*
X126988095Y-46085771D02*
X126940476Y-46181009D01*
X126940476Y-46181009D02*
X126940476Y-46276247D01*
X126940476Y-46276247D02*
X127416666Y-46371485D01*
X126083333Y-46657200D02*
X126178571Y-46704819D01*
X126178571Y-46704819D02*
X126369047Y-46704819D01*
X126369047Y-46704819D02*
X126464285Y-46657200D01*
X126464285Y-46657200D02*
X126511904Y-46609580D01*
X126511904Y-46609580D02*
X126559523Y-46514342D01*
X126559523Y-46514342D02*
X126559523Y-46228628D01*
X126559523Y-46228628D02*
X126511904Y-46133390D01*
X126511904Y-46133390D02*
X126464285Y-46085771D01*
X126464285Y-46085771D02*
X126369047Y-46038152D01*
X126369047Y-46038152D02*
X126178571Y-46038152D01*
X126178571Y-46038152D02*
X126083333Y-46085771D01*
X125797618Y-46038152D02*
X125416666Y-46038152D01*
X125654761Y-45704819D02*
X125654761Y-46561961D01*
X125654761Y-46561961D02*
X125607142Y-46657200D01*
X125607142Y-46657200D02*
X125511904Y-46704819D01*
X125511904Y-46704819D02*
X125416666Y-46704819D01*
X124940475Y-46704819D02*
X125035713Y-46657200D01*
X125035713Y-46657200D02*
X125083332Y-46609580D01*
X125083332Y-46609580D02*
X125130951Y-46514342D01*
X125130951Y-46514342D02*
X125130951Y-46228628D01*
X125130951Y-46228628D02*
X125083332Y-46133390D01*
X125083332Y-46133390D02*
X125035713Y-46085771D01*
X125035713Y-46085771D02*
X124940475Y-46038152D01*
X124940475Y-46038152D02*
X124797618Y-46038152D01*
X124797618Y-46038152D02*
X124702380Y-46085771D01*
X124702380Y-46085771D02*
X124654761Y-46133390D01*
X124654761Y-46133390D02*
X124607142Y-46228628D01*
X124607142Y-46228628D02*
X124607142Y-46514342D01*
X124607142Y-46514342D02*
X124654761Y-46609580D01*
X124654761Y-46609580D02*
X124702380Y-46657200D01*
X124702380Y-46657200D02*
X124797618Y-46704819D01*
X124797618Y-46704819D02*
X124940475Y-46704819D01*
X124178570Y-46704819D02*
X124178570Y-46038152D01*
X124178570Y-46228628D02*
X124130951Y-46133390D01*
X124130951Y-46133390D02*
X124083332Y-46085771D01*
X124083332Y-46085771D02*
X123988094Y-46038152D01*
X123988094Y-46038152D02*
X123892856Y-46038152D01*
X123035713Y-46704819D02*
X123607141Y-46704819D01*
X123321427Y-46704819D02*
X123321427Y-45704819D01*
X123321427Y-45704819D02*
X123416665Y-45847676D01*
X123416665Y-45847676D02*
X123511903Y-45942914D01*
X123511903Y-45942914D02*
X123607141Y-45990533D01*
X250368094Y-21734819D02*
X250368094Y-20734819D01*
X250368094Y-20734819D02*
X250129999Y-20734819D01*
X250129999Y-20734819D02*
X249987142Y-20782438D01*
X249987142Y-20782438D02*
X249891904Y-20877676D01*
X249891904Y-20877676D02*
X249844285Y-20972914D01*
X249844285Y-20972914D02*
X249796666Y-21163390D01*
X249796666Y-21163390D02*
X249796666Y-21306247D01*
X249796666Y-21306247D02*
X249844285Y-21496723D01*
X249844285Y-21496723D02*
X249891904Y-21591961D01*
X249891904Y-21591961D02*
X249987142Y-21687200D01*
X249987142Y-21687200D02*
X250129999Y-21734819D01*
X250129999Y-21734819D02*
X250368094Y-21734819D01*
X248939523Y-21068152D02*
X248939523Y-21734819D01*
X249177618Y-20687200D02*
X249415713Y-21401485D01*
X249415713Y-21401485D02*
X248796666Y-21401485D01*
X257511904Y-22854819D02*
X257511904Y-21854819D01*
X256940476Y-22854819D02*
X257369047Y-22283390D01*
X256940476Y-21854819D02*
X257511904Y-22426247D01*
X160738094Y-45454819D02*
X160738094Y-44454819D01*
X160738094Y-44454819D02*
X160499999Y-44454819D01*
X160499999Y-44454819D02*
X160357142Y-44502438D01*
X160357142Y-44502438D02*
X160261904Y-44597676D01*
X160261904Y-44597676D02*
X160214285Y-44692914D01*
X160214285Y-44692914D02*
X160166666Y-44883390D01*
X160166666Y-44883390D02*
X160166666Y-45026247D01*
X160166666Y-45026247D02*
X160214285Y-45216723D01*
X160214285Y-45216723D02*
X160261904Y-45311961D01*
X160261904Y-45311961D02*
X160357142Y-45407200D01*
X160357142Y-45407200D02*
X160499999Y-45454819D01*
X160499999Y-45454819D02*
X160738094Y-45454819D01*
X159785713Y-44550057D02*
X159738094Y-44502438D01*
X159738094Y-44502438D02*
X159642856Y-44454819D01*
X159642856Y-44454819D02*
X159404761Y-44454819D01*
X159404761Y-44454819D02*
X159309523Y-44502438D01*
X159309523Y-44502438D02*
X159261904Y-44550057D01*
X159261904Y-44550057D02*
X159214285Y-44645295D01*
X159214285Y-44645295D02*
X159214285Y-44740533D01*
X159214285Y-44740533D02*
X159261904Y-44883390D01*
X159261904Y-44883390D02*
X159833332Y-45454819D01*
X159833332Y-45454819D02*
X159214285Y-45454819D01*
X150261904Y-45454819D02*
X150261904Y-44454819D01*
X149690476Y-45454819D02*
X150119047Y-44883390D01*
X149690476Y-44454819D02*
X150261904Y-45026247D01*
X360738094Y-29174819D02*
X360738094Y-28174819D01*
X360738094Y-28174819D02*
X360499999Y-28174819D01*
X360499999Y-28174819D02*
X360357142Y-28222438D01*
X360357142Y-28222438D02*
X360261904Y-28317676D01*
X360261904Y-28317676D02*
X360214285Y-28412914D01*
X360214285Y-28412914D02*
X360166666Y-28603390D01*
X360166666Y-28603390D02*
X360166666Y-28746247D01*
X360166666Y-28746247D02*
X360214285Y-28936723D01*
X360214285Y-28936723D02*
X360261904Y-29031961D01*
X360261904Y-29031961D02*
X360357142Y-29127200D01*
X360357142Y-29127200D02*
X360499999Y-29174819D01*
X360499999Y-29174819D02*
X360738094Y-29174819D01*
X359261904Y-28174819D02*
X359738094Y-28174819D01*
X359738094Y-28174819D02*
X359785713Y-28651009D01*
X359785713Y-28651009D02*
X359738094Y-28603390D01*
X359738094Y-28603390D02*
X359642856Y-28555771D01*
X359642856Y-28555771D02*
X359404761Y-28555771D01*
X359404761Y-28555771D02*
X359309523Y-28603390D01*
X359309523Y-28603390D02*
X359261904Y-28651009D01*
X359261904Y-28651009D02*
X359214285Y-28746247D01*
X359214285Y-28746247D02*
X359214285Y-28984342D01*
X359214285Y-28984342D02*
X359261904Y-29079580D01*
X359261904Y-29079580D02*
X359309523Y-29127200D01*
X359309523Y-29127200D02*
X359404761Y-29174819D01*
X359404761Y-29174819D02*
X359642856Y-29174819D01*
X359642856Y-29174819D02*
X359738094Y-29127200D01*
X359738094Y-29127200D02*
X359785713Y-29079580D01*
X352641904Y-28054819D02*
X352641904Y-27054819D01*
X352070476Y-28054819D02*
X352499047Y-27483390D01*
X352070476Y-27054819D02*
X352641904Y-27626247D01*
X283345238Y-19454819D02*
X283154762Y-19454819D01*
X283154762Y-19454819D02*
X283059524Y-19502438D01*
X283059524Y-19502438D02*
X282964286Y-19597676D01*
X282964286Y-19597676D02*
X282916667Y-19788152D01*
X282916667Y-19788152D02*
X282916667Y-20121485D01*
X282916667Y-20121485D02*
X282964286Y-20311961D01*
X282964286Y-20311961D02*
X283059524Y-20407200D01*
X283059524Y-20407200D02*
X283154762Y-20454819D01*
X283154762Y-20454819D02*
X283345238Y-20454819D01*
X283345238Y-20454819D02*
X283440476Y-20407200D01*
X283440476Y-20407200D02*
X283535714Y-20311961D01*
X283535714Y-20311961D02*
X283583333Y-20121485D01*
X283583333Y-20121485D02*
X283583333Y-19788152D01*
X283583333Y-19788152D02*
X283535714Y-19597676D01*
X283535714Y-19597676D02*
X283440476Y-19502438D01*
X283440476Y-19502438D02*
X283345238Y-19454819D01*
X282630952Y-19788152D02*
X282250000Y-19788152D01*
X282488095Y-19454819D02*
X282488095Y-20311961D01*
X282488095Y-20311961D02*
X282440476Y-20407200D01*
X282440476Y-20407200D02*
X282345238Y-20454819D01*
X282345238Y-20454819D02*
X282250000Y-20454819D01*
X281916666Y-20454819D02*
X281916666Y-19454819D01*
X281488095Y-20454819D02*
X281488095Y-19931009D01*
X281488095Y-19931009D02*
X281535714Y-19835771D01*
X281535714Y-19835771D02*
X281630952Y-19788152D01*
X281630952Y-19788152D02*
X281773809Y-19788152D01*
X281773809Y-19788152D02*
X281869047Y-19835771D01*
X281869047Y-19835771D02*
X281916666Y-19883390D01*
X280630952Y-20407200D02*
X280726190Y-20454819D01*
X280726190Y-20454819D02*
X280916666Y-20454819D01*
X280916666Y-20454819D02*
X281011904Y-20407200D01*
X281011904Y-20407200D02*
X281059523Y-20311961D01*
X281059523Y-20311961D02*
X281059523Y-19931009D01*
X281059523Y-19931009D02*
X281011904Y-19835771D01*
X281011904Y-19835771D02*
X280916666Y-19788152D01*
X280916666Y-19788152D02*
X280726190Y-19788152D01*
X280726190Y-19788152D02*
X280630952Y-19835771D01*
X280630952Y-19835771D02*
X280583333Y-19931009D01*
X280583333Y-19931009D02*
X280583333Y-20026247D01*
X280583333Y-20026247D02*
X281059523Y-20121485D01*
X280154761Y-20454819D02*
X280154761Y-19788152D01*
X280154761Y-19978628D02*
X280107142Y-19883390D01*
X280107142Y-19883390D02*
X280059523Y-19835771D01*
X280059523Y-19835771D02*
X279964285Y-19788152D01*
X279964285Y-19788152D02*
X279869047Y-19788152D01*
X279773809Y-20550057D02*
X279011904Y-20550057D01*
X278440475Y-19931009D02*
X278297618Y-19978628D01*
X278297618Y-19978628D02*
X278249999Y-20026247D01*
X278249999Y-20026247D02*
X278202380Y-20121485D01*
X278202380Y-20121485D02*
X278202380Y-20264342D01*
X278202380Y-20264342D02*
X278249999Y-20359580D01*
X278249999Y-20359580D02*
X278297618Y-20407200D01*
X278297618Y-20407200D02*
X278392856Y-20454819D01*
X278392856Y-20454819D02*
X278773808Y-20454819D01*
X278773808Y-20454819D02*
X278773808Y-19454819D01*
X278773808Y-19454819D02*
X278440475Y-19454819D01*
X278440475Y-19454819D02*
X278345237Y-19502438D01*
X278345237Y-19502438D02*
X278297618Y-19550057D01*
X278297618Y-19550057D02*
X278249999Y-19645295D01*
X278249999Y-19645295D02*
X278249999Y-19740533D01*
X278249999Y-19740533D02*
X278297618Y-19835771D01*
X278297618Y-19835771D02*
X278345237Y-19883390D01*
X278345237Y-19883390D02*
X278440475Y-19931009D01*
X278440475Y-19931009D02*
X278773808Y-19931009D01*
X277630951Y-20454819D02*
X277726189Y-20407200D01*
X277726189Y-20407200D02*
X277773808Y-20359580D01*
X277773808Y-20359580D02*
X277821427Y-20264342D01*
X277821427Y-20264342D02*
X277821427Y-19978628D01*
X277821427Y-19978628D02*
X277773808Y-19883390D01*
X277773808Y-19883390D02*
X277726189Y-19835771D01*
X277726189Y-19835771D02*
X277630951Y-19788152D01*
X277630951Y-19788152D02*
X277488094Y-19788152D01*
X277488094Y-19788152D02*
X277392856Y-19835771D01*
X277392856Y-19835771D02*
X277345237Y-19883390D01*
X277345237Y-19883390D02*
X277297618Y-19978628D01*
X277297618Y-19978628D02*
X277297618Y-20264342D01*
X277297618Y-20264342D02*
X277345237Y-20359580D01*
X277345237Y-20359580D02*
X277392856Y-20407200D01*
X277392856Y-20407200D02*
X277488094Y-20454819D01*
X277488094Y-20454819D02*
X277630951Y-20454819D01*
X276440475Y-20454819D02*
X276440475Y-19931009D01*
X276440475Y-19931009D02*
X276488094Y-19835771D01*
X276488094Y-19835771D02*
X276583332Y-19788152D01*
X276583332Y-19788152D02*
X276773808Y-19788152D01*
X276773808Y-19788152D02*
X276869046Y-19835771D01*
X276440475Y-20407200D02*
X276535713Y-20454819D01*
X276535713Y-20454819D02*
X276773808Y-20454819D01*
X276773808Y-20454819D02*
X276869046Y-20407200D01*
X276869046Y-20407200D02*
X276916665Y-20311961D01*
X276916665Y-20311961D02*
X276916665Y-20216723D01*
X276916665Y-20216723D02*
X276869046Y-20121485D01*
X276869046Y-20121485D02*
X276773808Y-20073866D01*
X276773808Y-20073866D02*
X276535713Y-20073866D01*
X276535713Y-20073866D02*
X276440475Y-20026247D01*
X275964284Y-20454819D02*
X275964284Y-19788152D01*
X275964284Y-19978628D02*
X275916665Y-19883390D01*
X275916665Y-19883390D02*
X275869046Y-19835771D01*
X275869046Y-19835771D02*
X275773808Y-19788152D01*
X275773808Y-19788152D02*
X275678570Y-19788152D01*
X274916665Y-20454819D02*
X274916665Y-19454819D01*
X274916665Y-20407200D02*
X275011903Y-20454819D01*
X275011903Y-20454819D02*
X275202379Y-20454819D01*
X275202379Y-20454819D02*
X275297617Y-20407200D01*
X275297617Y-20407200D02*
X275345236Y-20359580D01*
X275345236Y-20359580D02*
X275392855Y-20264342D01*
X275392855Y-20264342D02*
X275392855Y-19978628D01*
X275392855Y-19978628D02*
X275345236Y-19883390D01*
X275345236Y-19883390D02*
X275297617Y-19835771D01*
X275297617Y-19835771D02*
X275202379Y-19788152D01*
X275202379Y-19788152D02*
X275011903Y-19788152D01*
X275011903Y-19788152D02*
X274916665Y-19835771D01*
X274488093Y-19550057D02*
X274440474Y-19502438D01*
X274440474Y-19502438D02*
X274345236Y-19454819D01*
X274345236Y-19454819D02*
X274107141Y-19454819D01*
X274107141Y-19454819D02*
X274011903Y-19502438D01*
X274011903Y-19502438D02*
X273964284Y-19550057D01*
X273964284Y-19550057D02*
X273916665Y-19645295D01*
X273916665Y-19645295D02*
X273916665Y-19740533D01*
X273916665Y-19740533D02*
X273964284Y-19883390D01*
X273964284Y-19883390D02*
X274535712Y-20454819D01*
X274535712Y-20454819D02*
X273916665Y-20454819D01*
X68238094Y-45454819D02*
X68238094Y-44454819D01*
X68238094Y-44454819D02*
X67999999Y-44454819D01*
X67999999Y-44454819D02*
X67857142Y-44502438D01*
X67857142Y-44502438D02*
X67761904Y-44597676D01*
X67761904Y-44597676D02*
X67714285Y-44692914D01*
X67714285Y-44692914D02*
X67666666Y-44883390D01*
X67666666Y-44883390D02*
X67666666Y-45026247D01*
X67666666Y-45026247D02*
X67714285Y-45216723D01*
X67714285Y-45216723D02*
X67761904Y-45311961D01*
X67761904Y-45311961D02*
X67857142Y-45407200D01*
X67857142Y-45407200D02*
X67999999Y-45454819D01*
X67999999Y-45454819D02*
X68238094Y-45454819D01*
X66714285Y-45454819D02*
X67285713Y-45454819D01*
X66999999Y-45454819D02*
X66999999Y-44454819D01*
X66999999Y-44454819D02*
X67095237Y-44597676D01*
X67095237Y-44597676D02*
X67190475Y-44692914D01*
X67190475Y-44692914D02*
X67285713Y-44740533D01*
X75261904Y-45454819D02*
X75261904Y-44454819D01*
X74690476Y-45454819D02*
X75119047Y-44883390D01*
X74690476Y-44454819D02*
X75261904Y-45026247D01*
X332738096Y-19788152D02*
X332738096Y-20597676D01*
X332738096Y-20597676D02*
X332785715Y-20692914D01*
X332785715Y-20692914D02*
X332833334Y-20740533D01*
X332833334Y-20740533D02*
X332928572Y-20788152D01*
X332928572Y-20788152D02*
X333071429Y-20788152D01*
X333071429Y-20788152D02*
X333166667Y-20740533D01*
X332738096Y-20407200D02*
X332833334Y-20454819D01*
X332833334Y-20454819D02*
X333023810Y-20454819D01*
X333023810Y-20454819D02*
X333119048Y-20407200D01*
X333119048Y-20407200D02*
X333166667Y-20359580D01*
X333166667Y-20359580D02*
X333214286Y-20264342D01*
X333214286Y-20264342D02*
X333214286Y-19978628D01*
X333214286Y-19978628D02*
X333166667Y-19883390D01*
X333166667Y-19883390D02*
X333119048Y-19835771D01*
X333119048Y-19835771D02*
X333023810Y-19788152D01*
X333023810Y-19788152D02*
X332833334Y-19788152D01*
X332833334Y-19788152D02*
X332738096Y-19835771D01*
X332261905Y-19788152D02*
X332261905Y-20454819D01*
X332261905Y-19883390D02*
X332214286Y-19835771D01*
X332214286Y-19835771D02*
X332119048Y-19788152D01*
X332119048Y-19788152D02*
X331976191Y-19788152D01*
X331976191Y-19788152D02*
X331880953Y-19835771D01*
X331880953Y-19835771D02*
X331833334Y-19931009D01*
X331833334Y-19931009D02*
X331833334Y-20454819D01*
X330928572Y-20454819D02*
X330928572Y-19454819D01*
X330928572Y-20407200D02*
X331023810Y-20454819D01*
X331023810Y-20454819D02*
X331214286Y-20454819D01*
X331214286Y-20454819D02*
X331309524Y-20407200D01*
X331309524Y-20407200D02*
X331357143Y-20359580D01*
X331357143Y-20359580D02*
X331404762Y-20264342D01*
X331404762Y-20264342D02*
X331404762Y-19978628D01*
X331404762Y-19978628D02*
X331357143Y-19883390D01*
X331357143Y-19883390D02*
X331309524Y-19835771D01*
X331309524Y-19835771D02*
X331214286Y-19788152D01*
X331214286Y-19788152D02*
X331023810Y-19788152D01*
X331023810Y-19788152D02*
X330928572Y-19835771D01*
X330690477Y-20550057D02*
X329928572Y-20550057D01*
X329261905Y-20407200D02*
X329357143Y-20454819D01*
X329357143Y-20454819D02*
X329547619Y-20454819D01*
X329547619Y-20454819D02*
X329642857Y-20407200D01*
X329642857Y-20407200D02*
X329690476Y-20359580D01*
X329690476Y-20359580D02*
X329738095Y-20264342D01*
X329738095Y-20264342D02*
X329738095Y-19978628D01*
X329738095Y-19978628D02*
X329690476Y-19883390D01*
X329690476Y-19883390D02*
X329642857Y-19835771D01*
X329642857Y-19835771D02*
X329547619Y-19788152D01*
X329547619Y-19788152D02*
X329357143Y-19788152D01*
X329357143Y-19788152D02*
X329261905Y-19835771D01*
X328690476Y-20454819D02*
X328785714Y-20407200D01*
X328785714Y-20407200D02*
X328833333Y-20359580D01*
X328833333Y-20359580D02*
X328880952Y-20264342D01*
X328880952Y-20264342D02*
X328880952Y-19978628D01*
X328880952Y-19978628D02*
X328833333Y-19883390D01*
X328833333Y-19883390D02*
X328785714Y-19835771D01*
X328785714Y-19835771D02*
X328690476Y-19788152D01*
X328690476Y-19788152D02*
X328547619Y-19788152D01*
X328547619Y-19788152D02*
X328452381Y-19835771D01*
X328452381Y-19835771D02*
X328404762Y-19883390D01*
X328404762Y-19883390D02*
X328357143Y-19978628D01*
X328357143Y-19978628D02*
X328357143Y-20264342D01*
X328357143Y-20264342D02*
X328404762Y-20359580D01*
X328404762Y-20359580D02*
X328452381Y-20407200D01*
X328452381Y-20407200D02*
X328547619Y-20454819D01*
X328547619Y-20454819D02*
X328690476Y-20454819D01*
X327928571Y-19788152D02*
X327928571Y-20454819D01*
X327928571Y-19883390D02*
X327880952Y-19835771D01*
X327880952Y-19835771D02*
X327785714Y-19788152D01*
X327785714Y-19788152D02*
X327642857Y-19788152D01*
X327642857Y-19788152D02*
X327547619Y-19835771D01*
X327547619Y-19835771D02*
X327500000Y-19931009D01*
X327500000Y-19931009D02*
X327500000Y-20454819D01*
X327023809Y-19788152D02*
X327023809Y-20454819D01*
X327023809Y-19883390D02*
X326976190Y-19835771D01*
X326976190Y-19835771D02*
X326880952Y-19788152D01*
X326880952Y-19788152D02*
X326738095Y-19788152D01*
X326738095Y-19788152D02*
X326642857Y-19835771D01*
X326642857Y-19835771D02*
X326595238Y-19931009D01*
X326595238Y-19931009D02*
X326595238Y-20454819D01*
X325738095Y-20407200D02*
X325833333Y-20454819D01*
X325833333Y-20454819D02*
X326023809Y-20454819D01*
X326023809Y-20454819D02*
X326119047Y-20407200D01*
X326119047Y-20407200D02*
X326166666Y-20311961D01*
X326166666Y-20311961D02*
X326166666Y-19931009D01*
X326166666Y-19931009D02*
X326119047Y-19835771D01*
X326119047Y-19835771D02*
X326023809Y-19788152D01*
X326023809Y-19788152D02*
X325833333Y-19788152D01*
X325833333Y-19788152D02*
X325738095Y-19835771D01*
X325738095Y-19835771D02*
X325690476Y-19931009D01*
X325690476Y-19931009D02*
X325690476Y-20026247D01*
X325690476Y-20026247D02*
X326166666Y-20121485D01*
X324833333Y-20407200D02*
X324928571Y-20454819D01*
X324928571Y-20454819D02*
X325119047Y-20454819D01*
X325119047Y-20454819D02*
X325214285Y-20407200D01*
X325214285Y-20407200D02*
X325261904Y-20359580D01*
X325261904Y-20359580D02*
X325309523Y-20264342D01*
X325309523Y-20264342D02*
X325309523Y-19978628D01*
X325309523Y-19978628D02*
X325261904Y-19883390D01*
X325261904Y-19883390D02*
X325214285Y-19835771D01*
X325214285Y-19835771D02*
X325119047Y-19788152D01*
X325119047Y-19788152D02*
X324928571Y-19788152D01*
X324928571Y-19788152D02*
X324833333Y-19835771D01*
X324547618Y-19788152D02*
X324166666Y-19788152D01*
X324404761Y-19454819D02*
X324404761Y-20311961D01*
X324404761Y-20311961D02*
X324357142Y-20407200D01*
X324357142Y-20407200D02*
X324261904Y-20454819D01*
X324261904Y-20454819D02*
X324166666Y-20454819D01*
X323690475Y-20454819D02*
X323785713Y-20407200D01*
X323785713Y-20407200D02*
X323833332Y-20359580D01*
X323833332Y-20359580D02*
X323880951Y-20264342D01*
X323880951Y-20264342D02*
X323880951Y-19978628D01*
X323880951Y-19978628D02*
X323833332Y-19883390D01*
X323833332Y-19883390D02*
X323785713Y-19835771D01*
X323785713Y-19835771D02*
X323690475Y-19788152D01*
X323690475Y-19788152D02*
X323547618Y-19788152D01*
X323547618Y-19788152D02*
X323452380Y-19835771D01*
X323452380Y-19835771D02*
X323404761Y-19883390D01*
X323404761Y-19883390D02*
X323357142Y-19978628D01*
X323357142Y-19978628D02*
X323357142Y-20264342D01*
X323357142Y-20264342D02*
X323404761Y-20359580D01*
X323404761Y-20359580D02*
X323452380Y-20407200D01*
X323452380Y-20407200D02*
X323547618Y-20454819D01*
X323547618Y-20454819D02*
X323690475Y-20454819D01*
X322928570Y-20454819D02*
X322928570Y-19788152D01*
X322928570Y-19978628D02*
X322880951Y-19883390D01*
X322880951Y-19883390D02*
X322833332Y-19835771D01*
X322833332Y-19835771D02*
X322738094Y-19788152D01*
X322738094Y-19788152D02*
X322642856Y-19788152D01*
X322357141Y-19550057D02*
X322309522Y-19502438D01*
X322309522Y-19502438D02*
X322214284Y-19454819D01*
X322214284Y-19454819D02*
X321976189Y-19454819D01*
X321976189Y-19454819D02*
X321880951Y-19502438D01*
X321880951Y-19502438D02*
X321833332Y-19550057D01*
X321833332Y-19550057D02*
X321785713Y-19645295D01*
X321785713Y-19645295D02*
X321785713Y-19740533D01*
X321785713Y-19740533D02*
X321833332Y-19883390D01*
X321833332Y-19883390D02*
X322404760Y-20454819D01*
X322404760Y-20454819D02*
X321785713Y-20454819D01*
D11*
%TO.C,D3*%
X36720000Y-50000000D02*
X37630000Y-50000000D01*
X45705000Y-47280000D02*
X45705000Y-52720000D01*
X45825000Y-47280000D02*
X45825000Y-52720000D01*
X45945000Y-47280000D02*
X45945000Y-52720000D01*
X48280000Y-50000000D02*
X47370000Y-50000000D01*
X47370000Y-47280000D02*
X37630000Y-47280000D01*
X37630000Y-52720000D01*
X47370000Y-52720000D01*
X47370000Y-47280000D01*
%TO.C,D4*%
X243850000Y-25000000D02*
X244760000Y-25000000D01*
X252835000Y-22280000D02*
X252835000Y-27720000D01*
X252955000Y-22280000D02*
X252955000Y-27720000D01*
X253075000Y-22280000D02*
X253075000Y-27720000D01*
X255410000Y-25000000D02*
X254500000Y-25000000D01*
X254500000Y-22280000D02*
X244760000Y-22280000D01*
X244760000Y-27720000D01*
X254500000Y-27720000D01*
X254500000Y-22280000D01*
%TO.C,D2*%
X152970000Y-51250000D02*
X153880000Y-51250000D01*
X155305000Y-53970000D02*
X155305000Y-48530000D01*
X155425000Y-53970000D02*
X155425000Y-48530000D01*
X155545000Y-53970000D02*
X155545000Y-48530000D01*
X164530000Y-51250000D02*
X163620000Y-51250000D01*
X153880000Y-53970000D02*
X163620000Y-53970000D01*
X163620000Y-48530000D01*
X153880000Y-48530000D01*
X153880000Y-53970000D01*
%TO.C,D5*%
X354220000Y-25000000D02*
X355130000Y-25000000D01*
X356555000Y-27720000D02*
X356555000Y-22280000D01*
X356675000Y-27720000D02*
X356675000Y-22280000D01*
X356795000Y-27720000D02*
X356795000Y-22280000D01*
X365780000Y-25000000D02*
X364870000Y-25000000D01*
X355130000Y-27720000D02*
X364870000Y-27720000D01*
X364870000Y-22280000D01*
X355130000Y-22280000D01*
X355130000Y-27720000D01*
%TO.C,D1*%
X61720000Y-50000000D02*
X62630000Y-50000000D01*
X70705000Y-47280000D02*
X70705000Y-52720000D01*
X70825000Y-47280000D02*
X70825000Y-52720000D01*
X70945000Y-47280000D02*
X70945000Y-52720000D01*
X73280000Y-50000000D02*
X72370000Y-50000000D01*
X72370000Y-47280000D02*
X62630000Y-47280000D01*
X62630000Y-52720000D01*
X72370000Y-52720000D01*
X72370000Y-47280000D01*
%TD*%
M02*
