%TF.GenerationSoftware,KiCad,Pcbnew,9.0.5*%
%TF.CreationDate,2025-11-13T21:56:36-08:00*%
%TF.ProjectId,IXOLAR,49584f4c-4152-42e6-9b69-6361645f7063,rev?*%
%TF.SameCoordinates,Original*%
%TF.FileFunction,Legend,Top*%
%TF.FilePolarity,Positive*%
%FSLAX46Y46*%
G04 Gerber Fmt 4.6, Leading zero omitted, Abs format (unit mm)*
G04 Created by KiCad (PCBNEW 9.0.5) date 2025-11-13 21:56:36*
%MOMM*%
%LPD*%
G01*
G04 APERTURE LIST*
%ADD10C,0.250000*%
%ADD11C,0.100000*%
%ADD12C,0.150000*%
G04 APERTURE END LIST*
D10*
X286178568Y-244552462D02*
X286178568Y-242552462D01*
X286178568Y-242552462D02*
X286940473Y-242552462D01*
X286940473Y-242552462D02*
X287130949Y-242647700D01*
X287130949Y-242647700D02*
X287226187Y-242742938D01*
X287226187Y-242742938D02*
X287321425Y-242933414D01*
X287321425Y-242933414D02*
X287321425Y-243219128D01*
X287321425Y-243219128D02*
X287226187Y-243409604D01*
X287226187Y-243409604D02*
X287130949Y-243504843D01*
X287130949Y-243504843D02*
X286940473Y-243600081D01*
X286940473Y-243600081D02*
X286178568Y-243600081D01*
X288178568Y-244552462D02*
X288178568Y-243219128D01*
X288178568Y-243600081D02*
X288273806Y-243409604D01*
X288273806Y-243409604D02*
X288369044Y-243314366D01*
X288369044Y-243314366D02*
X288559520Y-243219128D01*
X288559520Y-243219128D02*
X288749997Y-243219128D01*
X289702377Y-244552462D02*
X289511901Y-244457224D01*
X289511901Y-244457224D02*
X289416663Y-244361985D01*
X289416663Y-244361985D02*
X289321425Y-244171509D01*
X289321425Y-244171509D02*
X289321425Y-243600081D01*
X289321425Y-243600081D02*
X289416663Y-243409604D01*
X289416663Y-243409604D02*
X289511901Y-243314366D01*
X289511901Y-243314366D02*
X289702377Y-243219128D01*
X289702377Y-243219128D02*
X289988092Y-243219128D01*
X289988092Y-243219128D02*
X290178568Y-243314366D01*
X290178568Y-243314366D02*
X290273806Y-243409604D01*
X290273806Y-243409604D02*
X290369044Y-243600081D01*
X290369044Y-243600081D02*
X290369044Y-244171509D01*
X290369044Y-244171509D02*
X290273806Y-244361985D01*
X290273806Y-244361985D02*
X290178568Y-244457224D01*
X290178568Y-244457224D02*
X289988092Y-244552462D01*
X289988092Y-244552462D02*
X289702377Y-244552462D01*
X290940473Y-243219128D02*
X291702377Y-243219128D01*
X291226187Y-242552462D02*
X291226187Y-244266747D01*
X291226187Y-244266747D02*
X291321425Y-244457224D01*
X291321425Y-244457224D02*
X291511901Y-244552462D01*
X291511901Y-244552462D02*
X291702377Y-244552462D01*
X292654758Y-244552462D02*
X292464282Y-244457224D01*
X292464282Y-244457224D02*
X292369044Y-244361985D01*
X292369044Y-244361985D02*
X292273806Y-244171509D01*
X292273806Y-244171509D02*
X292273806Y-243600081D01*
X292273806Y-243600081D02*
X292369044Y-243409604D01*
X292369044Y-243409604D02*
X292464282Y-243314366D01*
X292464282Y-243314366D02*
X292654758Y-243219128D01*
X292654758Y-243219128D02*
X292940473Y-243219128D01*
X292940473Y-243219128D02*
X293130949Y-243314366D01*
X293130949Y-243314366D02*
X293226187Y-243409604D01*
X293226187Y-243409604D02*
X293321425Y-243600081D01*
X293321425Y-243600081D02*
X293321425Y-244171509D01*
X293321425Y-244171509D02*
X293226187Y-244361985D01*
X293226187Y-244361985D02*
X293130949Y-244457224D01*
X293130949Y-244457224D02*
X292940473Y-244552462D01*
X292940473Y-244552462D02*
X292654758Y-244552462D01*
X293988092Y-243219128D02*
X294464282Y-244552462D01*
X294940473Y-243219128D02*
X294464282Y-244552462D01*
X294464282Y-244552462D02*
X294273806Y-245028652D01*
X294273806Y-245028652D02*
X294178568Y-245123890D01*
X294178568Y-245123890D02*
X293988092Y-245219128D01*
X295702378Y-243219128D02*
X295702378Y-245219128D01*
X295702378Y-243314366D02*
X295892854Y-243219128D01*
X295892854Y-243219128D02*
X296273807Y-243219128D01*
X296273807Y-243219128D02*
X296464283Y-243314366D01*
X296464283Y-243314366D02*
X296559521Y-243409604D01*
X296559521Y-243409604D02*
X296654759Y-243600081D01*
X296654759Y-243600081D02*
X296654759Y-244171509D01*
X296654759Y-244171509D02*
X296559521Y-244361985D01*
X296559521Y-244361985D02*
X296464283Y-244457224D01*
X296464283Y-244457224D02*
X296273807Y-244552462D01*
X296273807Y-244552462D02*
X295892854Y-244552462D01*
X295892854Y-244552462D02*
X295702378Y-244457224D01*
X298273807Y-244457224D02*
X298083331Y-244552462D01*
X298083331Y-244552462D02*
X297702378Y-244552462D01*
X297702378Y-244552462D02*
X297511902Y-244457224D01*
X297511902Y-244457224D02*
X297416664Y-244266747D01*
X297416664Y-244266747D02*
X297416664Y-243504843D01*
X297416664Y-243504843D02*
X297511902Y-243314366D01*
X297511902Y-243314366D02*
X297702378Y-243219128D01*
X297702378Y-243219128D02*
X298083331Y-243219128D01*
X298083331Y-243219128D02*
X298273807Y-243314366D01*
X298273807Y-243314366D02*
X298369045Y-243504843D01*
X298369045Y-243504843D02*
X298369045Y-243695319D01*
X298369045Y-243695319D02*
X297416664Y-243885795D01*
X300654760Y-244457224D02*
X300940474Y-244552462D01*
X300940474Y-244552462D02*
X301416665Y-244552462D01*
X301416665Y-244552462D02*
X301607141Y-244457224D01*
X301607141Y-244457224D02*
X301702379Y-244361985D01*
X301702379Y-244361985D02*
X301797617Y-244171509D01*
X301797617Y-244171509D02*
X301797617Y-243981033D01*
X301797617Y-243981033D02*
X301702379Y-243790557D01*
X301702379Y-243790557D02*
X301607141Y-243695319D01*
X301607141Y-243695319D02*
X301416665Y-243600081D01*
X301416665Y-243600081D02*
X301035712Y-243504843D01*
X301035712Y-243504843D02*
X300845236Y-243409604D01*
X300845236Y-243409604D02*
X300749998Y-243314366D01*
X300749998Y-243314366D02*
X300654760Y-243123890D01*
X300654760Y-243123890D02*
X300654760Y-242933414D01*
X300654760Y-242933414D02*
X300749998Y-242742938D01*
X300749998Y-242742938D02*
X300845236Y-242647700D01*
X300845236Y-242647700D02*
X301035712Y-242552462D01*
X301035712Y-242552462D02*
X301511903Y-242552462D01*
X301511903Y-242552462D02*
X301797617Y-242647700D01*
X302940474Y-244552462D02*
X302749998Y-244457224D01*
X302749998Y-244457224D02*
X302654760Y-244361985D01*
X302654760Y-244361985D02*
X302559522Y-244171509D01*
X302559522Y-244171509D02*
X302559522Y-243600081D01*
X302559522Y-243600081D02*
X302654760Y-243409604D01*
X302654760Y-243409604D02*
X302749998Y-243314366D01*
X302749998Y-243314366D02*
X302940474Y-243219128D01*
X302940474Y-243219128D02*
X303226189Y-243219128D01*
X303226189Y-243219128D02*
X303416665Y-243314366D01*
X303416665Y-243314366D02*
X303511903Y-243409604D01*
X303511903Y-243409604D02*
X303607141Y-243600081D01*
X303607141Y-243600081D02*
X303607141Y-244171509D01*
X303607141Y-244171509D02*
X303511903Y-244361985D01*
X303511903Y-244361985D02*
X303416665Y-244457224D01*
X303416665Y-244457224D02*
X303226189Y-244552462D01*
X303226189Y-244552462D02*
X302940474Y-244552462D01*
X304749998Y-244552462D02*
X304559522Y-244457224D01*
X304559522Y-244457224D02*
X304464284Y-244266747D01*
X304464284Y-244266747D02*
X304464284Y-242552462D01*
X306369046Y-244552462D02*
X306369046Y-243504843D01*
X306369046Y-243504843D02*
X306273808Y-243314366D01*
X306273808Y-243314366D02*
X306083332Y-243219128D01*
X306083332Y-243219128D02*
X305702379Y-243219128D01*
X305702379Y-243219128D02*
X305511903Y-243314366D01*
X306369046Y-244457224D02*
X306178570Y-244552462D01*
X306178570Y-244552462D02*
X305702379Y-244552462D01*
X305702379Y-244552462D02*
X305511903Y-244457224D01*
X305511903Y-244457224D02*
X305416665Y-244266747D01*
X305416665Y-244266747D02*
X305416665Y-244076271D01*
X305416665Y-244076271D02*
X305511903Y-243885795D01*
X305511903Y-243885795D02*
X305702379Y-243790557D01*
X305702379Y-243790557D02*
X306178570Y-243790557D01*
X306178570Y-243790557D02*
X306369046Y-243695319D01*
X307321427Y-244552462D02*
X307321427Y-243219128D01*
X307321427Y-243600081D02*
X307416665Y-243409604D01*
X307416665Y-243409604D02*
X307511903Y-243314366D01*
X307511903Y-243314366D02*
X307702379Y-243219128D01*
X307702379Y-243219128D02*
X307892856Y-243219128D01*
X310083332Y-244552462D02*
X310083332Y-242552462D01*
X310083332Y-242552462D02*
X310845237Y-242552462D01*
X310845237Y-242552462D02*
X311035713Y-242647700D01*
X311035713Y-242647700D02*
X311130951Y-242742938D01*
X311130951Y-242742938D02*
X311226189Y-242933414D01*
X311226189Y-242933414D02*
X311226189Y-243219128D01*
X311226189Y-243219128D02*
X311130951Y-243409604D01*
X311130951Y-243409604D02*
X311035713Y-243504843D01*
X311035713Y-243504843D02*
X310845237Y-243600081D01*
X310845237Y-243600081D02*
X310083332Y-243600081D01*
X312940475Y-244552462D02*
X312940475Y-243504843D01*
X312940475Y-243504843D02*
X312845237Y-243314366D01*
X312845237Y-243314366D02*
X312654761Y-243219128D01*
X312654761Y-243219128D02*
X312273808Y-243219128D01*
X312273808Y-243219128D02*
X312083332Y-243314366D01*
X312940475Y-244457224D02*
X312749999Y-244552462D01*
X312749999Y-244552462D02*
X312273808Y-244552462D01*
X312273808Y-244552462D02*
X312083332Y-244457224D01*
X312083332Y-244457224D02*
X311988094Y-244266747D01*
X311988094Y-244266747D02*
X311988094Y-244076271D01*
X311988094Y-244076271D02*
X312083332Y-243885795D01*
X312083332Y-243885795D02*
X312273808Y-243790557D01*
X312273808Y-243790557D02*
X312749999Y-243790557D01*
X312749999Y-243790557D02*
X312940475Y-243695319D01*
X313892856Y-243219128D02*
X313892856Y-244552462D01*
X313892856Y-243409604D02*
X313988094Y-243314366D01*
X313988094Y-243314366D02*
X314178570Y-243219128D01*
X314178570Y-243219128D02*
X314464285Y-243219128D01*
X314464285Y-243219128D02*
X314654761Y-243314366D01*
X314654761Y-243314366D02*
X314749999Y-243504843D01*
X314749999Y-243504843D02*
X314749999Y-244552462D01*
X316464285Y-244457224D02*
X316273809Y-244552462D01*
X316273809Y-244552462D02*
X315892856Y-244552462D01*
X315892856Y-244552462D02*
X315702380Y-244457224D01*
X315702380Y-244457224D02*
X315607142Y-244266747D01*
X315607142Y-244266747D02*
X315607142Y-243504843D01*
X315607142Y-243504843D02*
X315702380Y-243314366D01*
X315702380Y-243314366D02*
X315892856Y-243219128D01*
X315892856Y-243219128D02*
X316273809Y-243219128D01*
X316273809Y-243219128D02*
X316464285Y-243314366D01*
X316464285Y-243314366D02*
X316559523Y-243504843D01*
X316559523Y-243504843D02*
X316559523Y-243695319D01*
X316559523Y-243695319D02*
X315607142Y-243885795D01*
X317702380Y-244552462D02*
X317511904Y-244457224D01*
X317511904Y-244457224D02*
X317416666Y-244266747D01*
X317416666Y-244266747D02*
X317416666Y-242552462D01*
X318369047Y-244457224D02*
X318559523Y-244552462D01*
X318559523Y-244552462D02*
X318940475Y-244552462D01*
X318940475Y-244552462D02*
X319130952Y-244457224D01*
X319130952Y-244457224D02*
X319226190Y-244266747D01*
X319226190Y-244266747D02*
X319226190Y-244171509D01*
X319226190Y-244171509D02*
X319130952Y-243981033D01*
X319130952Y-243981033D02*
X318940475Y-243885795D01*
X318940475Y-243885795D02*
X318654761Y-243885795D01*
X318654761Y-243885795D02*
X318464285Y-243790557D01*
X318464285Y-243790557D02*
X318369047Y-243600081D01*
X318369047Y-243600081D02*
X318369047Y-243504843D01*
X318369047Y-243504843D02*
X318464285Y-243314366D01*
X318464285Y-243314366D02*
X318654761Y-243219128D01*
X318654761Y-243219128D02*
X318940475Y-243219128D01*
X318940475Y-243219128D02*
X319130952Y-243314366D01*
X322464286Y-243219128D02*
X322464286Y-244552462D01*
X321988095Y-242457224D02*
X321511905Y-243885795D01*
X321511905Y-243885795D02*
X322750000Y-243885795D01*
X323416667Y-244457224D02*
X323607143Y-244552462D01*
X323607143Y-244552462D02*
X323988095Y-244552462D01*
X323988095Y-244552462D02*
X324178572Y-244457224D01*
X324178572Y-244457224D02*
X324273810Y-244266747D01*
X324273810Y-244266747D02*
X324273810Y-244171509D01*
X324273810Y-244171509D02*
X324178572Y-243981033D01*
X324178572Y-243981033D02*
X323988095Y-243885795D01*
X323988095Y-243885795D02*
X323702381Y-243885795D01*
X323702381Y-243885795D02*
X323511905Y-243790557D01*
X323511905Y-243790557D02*
X323416667Y-243600081D01*
X323416667Y-243600081D02*
X323416667Y-243504843D01*
X323416667Y-243504843D02*
X323511905Y-243314366D01*
X323511905Y-243314366D02*
X323702381Y-243219128D01*
X323702381Y-243219128D02*
X323988095Y-243219128D01*
X323988095Y-243219128D02*
X324178572Y-243314366D01*
X326083334Y-242552462D02*
X325130953Y-242552462D01*
X325130953Y-242552462D02*
X325035715Y-243504843D01*
X325035715Y-243504843D02*
X325130953Y-243409604D01*
X325130953Y-243409604D02*
X325321429Y-243314366D01*
X325321429Y-243314366D02*
X325797620Y-243314366D01*
X325797620Y-243314366D02*
X325988096Y-243409604D01*
X325988096Y-243409604D02*
X326083334Y-243504843D01*
X326083334Y-243504843D02*
X326178572Y-243695319D01*
X326178572Y-243695319D02*
X326178572Y-244171509D01*
X326178572Y-244171509D02*
X326083334Y-244361985D01*
X326083334Y-244361985D02*
X325988096Y-244457224D01*
X325988096Y-244457224D02*
X325797620Y-244552462D01*
X325797620Y-244552462D02*
X325321429Y-244552462D01*
X325321429Y-244552462D02*
X325130953Y-244457224D01*
X325130953Y-244457224D02*
X325035715Y-244361985D01*
X327035715Y-243219128D02*
X327035715Y-245219128D01*
X327035715Y-243314366D02*
X327226191Y-243219128D01*
X327226191Y-243219128D02*
X327607144Y-243219128D01*
X327607144Y-243219128D02*
X327797620Y-243314366D01*
X327797620Y-243314366D02*
X327892858Y-243409604D01*
X327892858Y-243409604D02*
X327988096Y-243600081D01*
X327988096Y-243600081D02*
X327988096Y-244171509D01*
X327988096Y-244171509D02*
X327892858Y-244361985D01*
X327892858Y-244361985D02*
X327797620Y-244457224D01*
X327797620Y-244457224D02*
X327607144Y-244552462D01*
X327607144Y-244552462D02*
X327226191Y-244552462D01*
X327226191Y-244552462D02*
X327035715Y-244457224D01*
X330369049Y-244552462D02*
X330369049Y-242552462D01*
X330369049Y-243314366D02*
X330559525Y-243219128D01*
X330559525Y-243219128D02*
X330940478Y-243219128D01*
X330940478Y-243219128D02*
X331130954Y-243314366D01*
X331130954Y-243314366D02*
X331226192Y-243409604D01*
X331226192Y-243409604D02*
X331321430Y-243600081D01*
X331321430Y-243600081D02*
X331321430Y-244171509D01*
X331321430Y-244171509D02*
X331226192Y-244361985D01*
X331226192Y-244361985D02*
X331130954Y-244457224D01*
X331130954Y-244457224D02*
X330940478Y-244552462D01*
X330940478Y-244552462D02*
X330559525Y-244552462D01*
X330559525Y-244552462D02*
X330369049Y-244457224D01*
X332464287Y-244552462D02*
X332273811Y-244457224D01*
X332273811Y-244457224D02*
X332178573Y-244361985D01*
X332178573Y-244361985D02*
X332083335Y-244171509D01*
X332083335Y-244171509D02*
X332083335Y-243600081D01*
X332083335Y-243600081D02*
X332178573Y-243409604D01*
X332178573Y-243409604D02*
X332273811Y-243314366D01*
X332273811Y-243314366D02*
X332464287Y-243219128D01*
X332464287Y-243219128D02*
X332750002Y-243219128D01*
X332750002Y-243219128D02*
X332940478Y-243314366D01*
X332940478Y-243314366D02*
X333035716Y-243409604D01*
X333035716Y-243409604D02*
X333130954Y-243600081D01*
X333130954Y-243600081D02*
X333130954Y-244171509D01*
X333130954Y-244171509D02*
X333035716Y-244361985D01*
X333035716Y-244361985D02*
X332940478Y-244457224D01*
X332940478Y-244457224D02*
X332750002Y-244552462D01*
X332750002Y-244552462D02*
X332464287Y-244552462D01*
X334845240Y-244552462D02*
X334845240Y-243504843D01*
X334845240Y-243504843D02*
X334750002Y-243314366D01*
X334750002Y-243314366D02*
X334559526Y-243219128D01*
X334559526Y-243219128D02*
X334178573Y-243219128D01*
X334178573Y-243219128D02*
X333988097Y-243314366D01*
X334845240Y-244457224D02*
X334654764Y-244552462D01*
X334654764Y-244552462D02*
X334178573Y-244552462D01*
X334178573Y-244552462D02*
X333988097Y-244457224D01*
X333988097Y-244457224D02*
X333892859Y-244266747D01*
X333892859Y-244266747D02*
X333892859Y-244076271D01*
X333892859Y-244076271D02*
X333988097Y-243885795D01*
X333988097Y-243885795D02*
X334178573Y-243790557D01*
X334178573Y-243790557D02*
X334654764Y-243790557D01*
X334654764Y-243790557D02*
X334845240Y-243695319D01*
X335797621Y-244552462D02*
X335797621Y-243219128D01*
X335797621Y-243600081D02*
X335892859Y-243409604D01*
X335892859Y-243409604D02*
X335988097Y-243314366D01*
X335988097Y-243314366D02*
X336178573Y-243219128D01*
X336178573Y-243219128D02*
X336369050Y-243219128D01*
X337892859Y-244552462D02*
X337892859Y-242552462D01*
X337892859Y-244457224D02*
X337702383Y-244552462D01*
X337702383Y-244552462D02*
X337321430Y-244552462D01*
X337321430Y-244552462D02*
X337130954Y-244457224D01*
X337130954Y-244457224D02*
X337035716Y-244361985D01*
X337035716Y-244361985D02*
X336940478Y-244171509D01*
X336940478Y-244171509D02*
X336940478Y-243600081D01*
X336940478Y-243600081D02*
X337035716Y-243409604D01*
X337035716Y-243409604D02*
X337130954Y-243314366D01*
X337130954Y-243314366D02*
X337321430Y-243219128D01*
X337321430Y-243219128D02*
X337702383Y-243219128D01*
X337702383Y-243219128D02*
X337892859Y-243314366D01*
X340273812Y-242742938D02*
X340369050Y-242647700D01*
X340369050Y-242647700D02*
X340559526Y-242552462D01*
X340559526Y-242552462D02*
X341035717Y-242552462D01*
X341035717Y-242552462D02*
X341226193Y-242647700D01*
X341226193Y-242647700D02*
X341321431Y-242742938D01*
X341321431Y-242742938D02*
X341416669Y-242933414D01*
X341416669Y-242933414D02*
X341416669Y-243123890D01*
X341416669Y-243123890D02*
X341321431Y-243409604D01*
X341321431Y-243409604D02*
X340178574Y-244552462D01*
X340178574Y-244552462D02*
X341416669Y-244552462D01*
X295511903Y-245772350D02*
X295511903Y-247391397D01*
X295511903Y-247391397D02*
X295607141Y-247581873D01*
X295607141Y-247581873D02*
X295702379Y-247677112D01*
X295702379Y-247677112D02*
X295892855Y-247772350D01*
X295892855Y-247772350D02*
X296273808Y-247772350D01*
X296273808Y-247772350D02*
X296464284Y-247677112D01*
X296464284Y-247677112D02*
X296559522Y-247581873D01*
X296559522Y-247581873D02*
X296654760Y-247391397D01*
X296654760Y-247391397D02*
X296654760Y-245772350D01*
X297607141Y-246439016D02*
X297607141Y-247772350D01*
X297607141Y-246629492D02*
X297702379Y-246534254D01*
X297702379Y-246534254D02*
X297892855Y-246439016D01*
X297892855Y-246439016D02*
X298178570Y-246439016D01*
X298178570Y-246439016D02*
X298369046Y-246534254D01*
X298369046Y-246534254D02*
X298464284Y-246724731D01*
X298464284Y-246724731D02*
X298464284Y-247772350D01*
X299416665Y-247772350D02*
X299416665Y-246439016D01*
X299416665Y-245772350D02*
X299321427Y-245867588D01*
X299321427Y-245867588D02*
X299416665Y-245962826D01*
X299416665Y-245962826D02*
X299511903Y-245867588D01*
X299511903Y-245867588D02*
X299416665Y-245772350D01*
X299416665Y-245772350D02*
X299416665Y-245962826D01*
X300178570Y-246439016D02*
X300654760Y-247772350D01*
X300654760Y-247772350D02*
X301130951Y-246439016D01*
X302654761Y-247677112D02*
X302464285Y-247772350D01*
X302464285Y-247772350D02*
X302083332Y-247772350D01*
X302083332Y-247772350D02*
X301892856Y-247677112D01*
X301892856Y-247677112D02*
X301797618Y-247486635D01*
X301797618Y-247486635D02*
X301797618Y-246724731D01*
X301797618Y-246724731D02*
X301892856Y-246534254D01*
X301892856Y-246534254D02*
X302083332Y-246439016D01*
X302083332Y-246439016D02*
X302464285Y-246439016D01*
X302464285Y-246439016D02*
X302654761Y-246534254D01*
X302654761Y-246534254D02*
X302749999Y-246724731D01*
X302749999Y-246724731D02*
X302749999Y-246915207D01*
X302749999Y-246915207D02*
X301797618Y-247105683D01*
X303607142Y-247772350D02*
X303607142Y-246439016D01*
X303607142Y-246819969D02*
X303702380Y-246629492D01*
X303702380Y-246629492D02*
X303797618Y-246534254D01*
X303797618Y-246534254D02*
X303988094Y-246439016D01*
X303988094Y-246439016D02*
X304178571Y-246439016D01*
X304749999Y-247677112D02*
X304940475Y-247772350D01*
X304940475Y-247772350D02*
X305321427Y-247772350D01*
X305321427Y-247772350D02*
X305511904Y-247677112D01*
X305511904Y-247677112D02*
X305607142Y-247486635D01*
X305607142Y-247486635D02*
X305607142Y-247391397D01*
X305607142Y-247391397D02*
X305511904Y-247200921D01*
X305511904Y-247200921D02*
X305321427Y-247105683D01*
X305321427Y-247105683D02*
X305035713Y-247105683D01*
X305035713Y-247105683D02*
X304845237Y-247010445D01*
X304845237Y-247010445D02*
X304749999Y-246819969D01*
X304749999Y-246819969D02*
X304749999Y-246724731D01*
X304749999Y-246724731D02*
X304845237Y-246534254D01*
X304845237Y-246534254D02*
X305035713Y-246439016D01*
X305035713Y-246439016D02*
X305321427Y-246439016D01*
X305321427Y-246439016D02*
X305511904Y-246534254D01*
X306464285Y-247772350D02*
X306464285Y-246439016D01*
X306464285Y-245772350D02*
X306369047Y-245867588D01*
X306369047Y-245867588D02*
X306464285Y-245962826D01*
X306464285Y-245962826D02*
X306559523Y-245867588D01*
X306559523Y-245867588D02*
X306464285Y-245772350D01*
X306464285Y-245772350D02*
X306464285Y-245962826D01*
X307130952Y-246439016D02*
X307892856Y-246439016D01*
X307416666Y-245772350D02*
X307416666Y-247486635D01*
X307416666Y-247486635D02*
X307511904Y-247677112D01*
X307511904Y-247677112D02*
X307702380Y-247772350D01*
X307702380Y-247772350D02*
X307892856Y-247772350D01*
X308369047Y-246439016D02*
X308845237Y-247772350D01*
X309321428Y-246439016D02*
X308845237Y-247772350D01*
X308845237Y-247772350D02*
X308654761Y-248248540D01*
X308654761Y-248248540D02*
X308559523Y-248343778D01*
X308559523Y-248343778D02*
X308369047Y-248439016D01*
X311892857Y-247772350D02*
X311702381Y-247677112D01*
X311702381Y-247677112D02*
X311607143Y-247581873D01*
X311607143Y-247581873D02*
X311511905Y-247391397D01*
X311511905Y-247391397D02*
X311511905Y-246819969D01*
X311511905Y-246819969D02*
X311607143Y-246629492D01*
X311607143Y-246629492D02*
X311702381Y-246534254D01*
X311702381Y-246534254D02*
X311892857Y-246439016D01*
X311892857Y-246439016D02*
X312178572Y-246439016D01*
X312178572Y-246439016D02*
X312369048Y-246534254D01*
X312369048Y-246534254D02*
X312464286Y-246629492D01*
X312464286Y-246629492D02*
X312559524Y-246819969D01*
X312559524Y-246819969D02*
X312559524Y-247391397D01*
X312559524Y-247391397D02*
X312464286Y-247581873D01*
X312464286Y-247581873D02*
X312369048Y-247677112D01*
X312369048Y-247677112D02*
X312178572Y-247772350D01*
X312178572Y-247772350D02*
X311892857Y-247772350D01*
X313130953Y-246439016D02*
X313892857Y-246439016D01*
X313416667Y-247772350D02*
X313416667Y-246058064D01*
X313416667Y-246058064D02*
X313511905Y-245867588D01*
X313511905Y-245867588D02*
X313702381Y-245772350D01*
X313702381Y-245772350D02*
X313892857Y-245772350D01*
X315892858Y-245772350D02*
X316369048Y-247772350D01*
X316369048Y-247772350D02*
X316750001Y-246343778D01*
X316750001Y-246343778D02*
X317130953Y-247772350D01*
X317130953Y-247772350D02*
X317607144Y-245772350D01*
X319226191Y-247772350D02*
X319226191Y-246724731D01*
X319226191Y-246724731D02*
X319130953Y-246534254D01*
X319130953Y-246534254D02*
X318940477Y-246439016D01*
X318940477Y-246439016D02*
X318559524Y-246439016D01*
X318559524Y-246439016D02*
X318369048Y-246534254D01*
X319226191Y-247677112D02*
X319035715Y-247772350D01*
X319035715Y-247772350D02*
X318559524Y-247772350D01*
X318559524Y-247772350D02*
X318369048Y-247677112D01*
X318369048Y-247677112D02*
X318273810Y-247486635D01*
X318273810Y-247486635D02*
X318273810Y-247296159D01*
X318273810Y-247296159D02*
X318369048Y-247105683D01*
X318369048Y-247105683D02*
X318559524Y-247010445D01*
X318559524Y-247010445D02*
X319035715Y-247010445D01*
X319035715Y-247010445D02*
X319226191Y-246915207D01*
X320083334Y-247677112D02*
X320273810Y-247772350D01*
X320273810Y-247772350D02*
X320654762Y-247772350D01*
X320654762Y-247772350D02*
X320845239Y-247677112D01*
X320845239Y-247677112D02*
X320940477Y-247486635D01*
X320940477Y-247486635D02*
X320940477Y-247391397D01*
X320940477Y-247391397D02*
X320845239Y-247200921D01*
X320845239Y-247200921D02*
X320654762Y-247105683D01*
X320654762Y-247105683D02*
X320369048Y-247105683D01*
X320369048Y-247105683D02*
X320178572Y-247010445D01*
X320178572Y-247010445D02*
X320083334Y-246819969D01*
X320083334Y-246819969D02*
X320083334Y-246724731D01*
X320083334Y-246724731D02*
X320178572Y-246534254D01*
X320178572Y-246534254D02*
X320369048Y-246439016D01*
X320369048Y-246439016D02*
X320654762Y-246439016D01*
X320654762Y-246439016D02*
X320845239Y-246534254D01*
X321797620Y-247772350D02*
X321797620Y-245772350D01*
X322654763Y-247772350D02*
X322654763Y-246724731D01*
X322654763Y-246724731D02*
X322559525Y-246534254D01*
X322559525Y-246534254D02*
X322369049Y-246439016D01*
X322369049Y-246439016D02*
X322083334Y-246439016D01*
X322083334Y-246439016D02*
X321892858Y-246534254D01*
X321892858Y-246534254D02*
X321797620Y-246629492D01*
X323607144Y-247772350D02*
X323607144Y-246439016D01*
X323607144Y-245772350D02*
X323511906Y-245867588D01*
X323511906Y-245867588D02*
X323607144Y-245962826D01*
X323607144Y-245962826D02*
X323702382Y-245867588D01*
X323702382Y-245867588D02*
X323607144Y-245772350D01*
X323607144Y-245772350D02*
X323607144Y-245962826D01*
X324559525Y-246439016D02*
X324559525Y-247772350D01*
X324559525Y-246629492D02*
X324654763Y-246534254D01*
X324654763Y-246534254D02*
X324845239Y-246439016D01*
X324845239Y-246439016D02*
X325130954Y-246439016D01*
X325130954Y-246439016D02*
X325321430Y-246534254D01*
X325321430Y-246534254D02*
X325416668Y-246724731D01*
X325416668Y-246724731D02*
X325416668Y-247772350D01*
X327226192Y-246439016D02*
X327226192Y-248058064D01*
X327226192Y-248058064D02*
X327130954Y-248248540D01*
X327130954Y-248248540D02*
X327035716Y-248343778D01*
X327035716Y-248343778D02*
X326845239Y-248439016D01*
X326845239Y-248439016D02*
X326559525Y-248439016D01*
X326559525Y-248439016D02*
X326369049Y-248343778D01*
X327226192Y-247677112D02*
X327035716Y-247772350D01*
X327035716Y-247772350D02*
X326654763Y-247772350D01*
X326654763Y-247772350D02*
X326464287Y-247677112D01*
X326464287Y-247677112D02*
X326369049Y-247581873D01*
X326369049Y-247581873D02*
X326273811Y-247391397D01*
X326273811Y-247391397D02*
X326273811Y-246819969D01*
X326273811Y-246819969D02*
X326369049Y-246629492D01*
X326369049Y-246629492D02*
X326464287Y-246534254D01*
X326464287Y-246534254D02*
X326654763Y-246439016D01*
X326654763Y-246439016D02*
X327035716Y-246439016D01*
X327035716Y-246439016D02*
X327226192Y-246534254D01*
X327892859Y-246439016D02*
X328654763Y-246439016D01*
X328178573Y-245772350D02*
X328178573Y-247486635D01*
X328178573Y-247486635D02*
X328273811Y-247677112D01*
X328273811Y-247677112D02*
X328464287Y-247772350D01*
X328464287Y-247772350D02*
X328654763Y-247772350D01*
X329607144Y-247772350D02*
X329416668Y-247677112D01*
X329416668Y-247677112D02*
X329321430Y-247581873D01*
X329321430Y-247581873D02*
X329226192Y-247391397D01*
X329226192Y-247391397D02*
X329226192Y-246819969D01*
X329226192Y-246819969D02*
X329321430Y-246629492D01*
X329321430Y-246629492D02*
X329416668Y-246534254D01*
X329416668Y-246534254D02*
X329607144Y-246439016D01*
X329607144Y-246439016D02*
X329892859Y-246439016D01*
X329892859Y-246439016D02*
X330083335Y-246534254D01*
X330083335Y-246534254D02*
X330178573Y-246629492D01*
X330178573Y-246629492D02*
X330273811Y-246819969D01*
X330273811Y-246819969D02*
X330273811Y-247391397D01*
X330273811Y-247391397D02*
X330178573Y-247581873D01*
X330178573Y-247581873D02*
X330083335Y-247677112D01*
X330083335Y-247677112D02*
X329892859Y-247772350D01*
X329892859Y-247772350D02*
X329607144Y-247772350D01*
X331130954Y-246439016D02*
X331130954Y-247772350D01*
X331130954Y-246629492D02*
X331226192Y-246534254D01*
X331226192Y-246534254D02*
X331416668Y-246439016D01*
X331416668Y-246439016D02*
X331702383Y-246439016D01*
X331702383Y-246439016D02*
X331892859Y-246534254D01*
X331892859Y-246534254D02*
X331988097Y-246724731D01*
X331988097Y-246724731D02*
X331988097Y-247772350D01*
X294559522Y-250992238D02*
X294559522Y-248992238D01*
X294559522Y-249944619D02*
X295702379Y-249944619D01*
X295702379Y-250992238D02*
X295702379Y-248992238D01*
X297511903Y-249658904D02*
X297511903Y-250992238D01*
X296654760Y-249658904D02*
X296654760Y-250706523D01*
X296654760Y-250706523D02*
X296749998Y-250897000D01*
X296749998Y-250897000D02*
X296940474Y-250992238D01*
X296940474Y-250992238D02*
X297226189Y-250992238D01*
X297226189Y-250992238D02*
X297416665Y-250897000D01*
X297416665Y-250897000D02*
X297511903Y-250801761D01*
X298369046Y-250897000D02*
X298559522Y-250992238D01*
X298559522Y-250992238D02*
X298940474Y-250992238D01*
X298940474Y-250992238D02*
X299130951Y-250897000D01*
X299130951Y-250897000D02*
X299226189Y-250706523D01*
X299226189Y-250706523D02*
X299226189Y-250611285D01*
X299226189Y-250611285D02*
X299130951Y-250420809D01*
X299130951Y-250420809D02*
X298940474Y-250325571D01*
X298940474Y-250325571D02*
X298654760Y-250325571D01*
X298654760Y-250325571D02*
X298464284Y-250230333D01*
X298464284Y-250230333D02*
X298369046Y-250039857D01*
X298369046Y-250039857D02*
X298369046Y-249944619D01*
X298369046Y-249944619D02*
X298464284Y-249754142D01*
X298464284Y-249754142D02*
X298654760Y-249658904D01*
X298654760Y-249658904D02*
X298940474Y-249658904D01*
X298940474Y-249658904D02*
X299130951Y-249754142D01*
X300083332Y-250992238D02*
X300083332Y-248992238D01*
X300273808Y-250230333D02*
X300845237Y-250992238D01*
X300845237Y-249658904D02*
X300083332Y-250420809D01*
X301511904Y-249658904D02*
X301988094Y-250992238D01*
X302464285Y-249658904D02*
X301988094Y-250992238D01*
X301988094Y-250992238D02*
X301797618Y-251468428D01*
X301797618Y-251468428D02*
X301702380Y-251563666D01*
X301702380Y-251563666D02*
X301511904Y-251658904D01*
X304654762Y-250897000D02*
X304940476Y-250992238D01*
X304940476Y-250992238D02*
X305416667Y-250992238D01*
X305416667Y-250992238D02*
X305607143Y-250897000D01*
X305607143Y-250897000D02*
X305702381Y-250801761D01*
X305702381Y-250801761D02*
X305797619Y-250611285D01*
X305797619Y-250611285D02*
X305797619Y-250420809D01*
X305797619Y-250420809D02*
X305702381Y-250230333D01*
X305702381Y-250230333D02*
X305607143Y-250135095D01*
X305607143Y-250135095D02*
X305416667Y-250039857D01*
X305416667Y-250039857D02*
X305035714Y-249944619D01*
X305035714Y-249944619D02*
X304845238Y-249849380D01*
X304845238Y-249849380D02*
X304750000Y-249754142D01*
X304750000Y-249754142D02*
X304654762Y-249563666D01*
X304654762Y-249563666D02*
X304654762Y-249373190D01*
X304654762Y-249373190D02*
X304750000Y-249182714D01*
X304750000Y-249182714D02*
X304845238Y-249087476D01*
X304845238Y-249087476D02*
X305035714Y-248992238D01*
X305035714Y-248992238D02*
X305511905Y-248992238D01*
X305511905Y-248992238D02*
X305797619Y-249087476D01*
X307511905Y-250992238D02*
X307511905Y-249944619D01*
X307511905Y-249944619D02*
X307416667Y-249754142D01*
X307416667Y-249754142D02*
X307226191Y-249658904D01*
X307226191Y-249658904D02*
X306845238Y-249658904D01*
X306845238Y-249658904D02*
X306654762Y-249754142D01*
X307511905Y-250897000D02*
X307321429Y-250992238D01*
X307321429Y-250992238D02*
X306845238Y-250992238D01*
X306845238Y-250992238D02*
X306654762Y-250897000D01*
X306654762Y-250897000D02*
X306559524Y-250706523D01*
X306559524Y-250706523D02*
X306559524Y-250516047D01*
X306559524Y-250516047D02*
X306654762Y-250325571D01*
X306654762Y-250325571D02*
X306845238Y-250230333D01*
X306845238Y-250230333D02*
X307321429Y-250230333D01*
X307321429Y-250230333D02*
X307511905Y-250135095D01*
X308178572Y-249658904D02*
X308940476Y-249658904D01*
X308464286Y-248992238D02*
X308464286Y-250706523D01*
X308464286Y-250706523D02*
X308559524Y-250897000D01*
X308559524Y-250897000D02*
X308750000Y-250992238D01*
X308750000Y-250992238D02*
X308940476Y-250992238D01*
X310369048Y-250897000D02*
X310178572Y-250992238D01*
X310178572Y-250992238D02*
X309797619Y-250992238D01*
X309797619Y-250992238D02*
X309607143Y-250897000D01*
X309607143Y-250897000D02*
X309511905Y-250706523D01*
X309511905Y-250706523D02*
X309511905Y-249944619D01*
X309511905Y-249944619D02*
X309607143Y-249754142D01*
X309607143Y-249754142D02*
X309797619Y-249658904D01*
X309797619Y-249658904D02*
X310178572Y-249658904D01*
X310178572Y-249658904D02*
X310369048Y-249754142D01*
X310369048Y-249754142D02*
X310464286Y-249944619D01*
X310464286Y-249944619D02*
X310464286Y-250135095D01*
X310464286Y-250135095D02*
X309511905Y-250325571D01*
X311607143Y-250992238D02*
X311416667Y-250897000D01*
X311416667Y-250897000D02*
X311321429Y-250706523D01*
X311321429Y-250706523D02*
X311321429Y-248992238D01*
X312654762Y-250992238D02*
X312464286Y-250897000D01*
X312464286Y-250897000D02*
X312369048Y-250706523D01*
X312369048Y-250706523D02*
X312369048Y-248992238D01*
X313416667Y-250992238D02*
X313416667Y-249658904D01*
X313416667Y-248992238D02*
X313321429Y-249087476D01*
X313321429Y-249087476D02*
X313416667Y-249182714D01*
X313416667Y-249182714D02*
X313511905Y-249087476D01*
X313511905Y-249087476D02*
X313416667Y-248992238D01*
X313416667Y-248992238D02*
X313416667Y-249182714D01*
X314083334Y-249658904D02*
X314845238Y-249658904D01*
X314369048Y-248992238D02*
X314369048Y-250706523D01*
X314369048Y-250706523D02*
X314464286Y-250897000D01*
X314464286Y-250897000D02*
X314654762Y-250992238D01*
X314654762Y-250992238D02*
X314845238Y-250992238D01*
X316273810Y-250897000D02*
X316083334Y-250992238D01*
X316083334Y-250992238D02*
X315702381Y-250992238D01*
X315702381Y-250992238D02*
X315511905Y-250897000D01*
X315511905Y-250897000D02*
X315416667Y-250706523D01*
X315416667Y-250706523D02*
X315416667Y-249944619D01*
X315416667Y-249944619D02*
X315511905Y-249754142D01*
X315511905Y-249754142D02*
X315702381Y-249658904D01*
X315702381Y-249658904D02*
X316083334Y-249658904D01*
X316083334Y-249658904D02*
X316273810Y-249754142D01*
X316273810Y-249754142D02*
X316369048Y-249944619D01*
X316369048Y-249944619D02*
X316369048Y-250135095D01*
X316369048Y-250135095D02*
X315416667Y-250325571D01*
X319702382Y-250992238D02*
X318750001Y-250992238D01*
X318750001Y-250992238D02*
X318750001Y-248992238D01*
X321226192Y-250992238D02*
X321226192Y-249944619D01*
X321226192Y-249944619D02*
X321130954Y-249754142D01*
X321130954Y-249754142D02*
X320940478Y-249658904D01*
X320940478Y-249658904D02*
X320559525Y-249658904D01*
X320559525Y-249658904D02*
X320369049Y-249754142D01*
X321226192Y-250897000D02*
X321035716Y-250992238D01*
X321035716Y-250992238D02*
X320559525Y-250992238D01*
X320559525Y-250992238D02*
X320369049Y-250897000D01*
X320369049Y-250897000D02*
X320273811Y-250706523D01*
X320273811Y-250706523D02*
X320273811Y-250516047D01*
X320273811Y-250516047D02*
X320369049Y-250325571D01*
X320369049Y-250325571D02*
X320559525Y-250230333D01*
X320559525Y-250230333D02*
X321035716Y-250230333D01*
X321035716Y-250230333D02*
X321226192Y-250135095D01*
X322178573Y-250992238D02*
X322178573Y-248992238D01*
X322178573Y-249754142D02*
X322369049Y-249658904D01*
X322369049Y-249658904D02*
X322750002Y-249658904D01*
X322750002Y-249658904D02*
X322940478Y-249754142D01*
X322940478Y-249754142D02*
X323035716Y-249849380D01*
X323035716Y-249849380D02*
X323130954Y-250039857D01*
X323130954Y-250039857D02*
X323130954Y-250611285D01*
X323130954Y-250611285D02*
X323035716Y-250801761D01*
X323035716Y-250801761D02*
X322940478Y-250897000D01*
X322940478Y-250897000D02*
X322750002Y-250992238D01*
X322750002Y-250992238D02*
X322369049Y-250992238D01*
X322369049Y-250992238D02*
X322178573Y-250897000D01*
X325511907Y-250992238D02*
X325511907Y-248992238D01*
X325511907Y-249944619D02*
X326654764Y-249944619D01*
X326654764Y-250992238D02*
X326654764Y-248992238D01*
X327511907Y-250897000D02*
X327797621Y-250992238D01*
X327797621Y-250992238D02*
X328273812Y-250992238D01*
X328273812Y-250992238D02*
X328464288Y-250897000D01*
X328464288Y-250897000D02*
X328559526Y-250801761D01*
X328559526Y-250801761D02*
X328654764Y-250611285D01*
X328654764Y-250611285D02*
X328654764Y-250420809D01*
X328654764Y-250420809D02*
X328559526Y-250230333D01*
X328559526Y-250230333D02*
X328464288Y-250135095D01*
X328464288Y-250135095D02*
X328273812Y-250039857D01*
X328273812Y-250039857D02*
X327892859Y-249944619D01*
X327892859Y-249944619D02*
X327702383Y-249849380D01*
X327702383Y-249849380D02*
X327607145Y-249754142D01*
X327607145Y-249754142D02*
X327511907Y-249563666D01*
X327511907Y-249563666D02*
X327511907Y-249373190D01*
X327511907Y-249373190D02*
X327607145Y-249182714D01*
X327607145Y-249182714D02*
X327702383Y-249087476D01*
X327702383Y-249087476D02*
X327892859Y-248992238D01*
X327892859Y-248992238D02*
X328369050Y-248992238D01*
X328369050Y-248992238D02*
X328654764Y-249087476D01*
X329511907Y-250230333D02*
X331035717Y-250230333D01*
X331892859Y-249182714D02*
X331988097Y-249087476D01*
X331988097Y-249087476D02*
X332178573Y-248992238D01*
X332178573Y-248992238D02*
X332654764Y-248992238D01*
X332654764Y-248992238D02*
X332845240Y-249087476D01*
X332845240Y-249087476D02*
X332940478Y-249182714D01*
X332940478Y-249182714D02*
X333035716Y-249373190D01*
X333035716Y-249373190D02*
X333035716Y-249563666D01*
X333035716Y-249563666D02*
X332940478Y-249849380D01*
X332940478Y-249849380D02*
X331797621Y-250992238D01*
X331797621Y-250992238D02*
X333035716Y-250992238D01*
X82428568Y-270802462D02*
X82428568Y-268802462D01*
X82428568Y-268802462D02*
X83190473Y-268802462D01*
X83190473Y-268802462D02*
X83380949Y-268897700D01*
X83380949Y-268897700D02*
X83476187Y-268992938D01*
X83476187Y-268992938D02*
X83571425Y-269183414D01*
X83571425Y-269183414D02*
X83571425Y-269469128D01*
X83571425Y-269469128D02*
X83476187Y-269659604D01*
X83476187Y-269659604D02*
X83380949Y-269754843D01*
X83380949Y-269754843D02*
X83190473Y-269850081D01*
X83190473Y-269850081D02*
X82428568Y-269850081D01*
X84428568Y-270802462D02*
X84428568Y-269469128D01*
X84428568Y-269850081D02*
X84523806Y-269659604D01*
X84523806Y-269659604D02*
X84619044Y-269564366D01*
X84619044Y-269564366D02*
X84809520Y-269469128D01*
X84809520Y-269469128D02*
X84999997Y-269469128D01*
X85952377Y-270802462D02*
X85761901Y-270707224D01*
X85761901Y-270707224D02*
X85666663Y-270611985D01*
X85666663Y-270611985D02*
X85571425Y-270421509D01*
X85571425Y-270421509D02*
X85571425Y-269850081D01*
X85571425Y-269850081D02*
X85666663Y-269659604D01*
X85666663Y-269659604D02*
X85761901Y-269564366D01*
X85761901Y-269564366D02*
X85952377Y-269469128D01*
X85952377Y-269469128D02*
X86238092Y-269469128D01*
X86238092Y-269469128D02*
X86428568Y-269564366D01*
X86428568Y-269564366D02*
X86523806Y-269659604D01*
X86523806Y-269659604D02*
X86619044Y-269850081D01*
X86619044Y-269850081D02*
X86619044Y-270421509D01*
X86619044Y-270421509D02*
X86523806Y-270611985D01*
X86523806Y-270611985D02*
X86428568Y-270707224D01*
X86428568Y-270707224D02*
X86238092Y-270802462D01*
X86238092Y-270802462D02*
X85952377Y-270802462D01*
X87190473Y-269469128D02*
X87952377Y-269469128D01*
X87476187Y-268802462D02*
X87476187Y-270516747D01*
X87476187Y-270516747D02*
X87571425Y-270707224D01*
X87571425Y-270707224D02*
X87761901Y-270802462D01*
X87761901Y-270802462D02*
X87952377Y-270802462D01*
X88904758Y-270802462D02*
X88714282Y-270707224D01*
X88714282Y-270707224D02*
X88619044Y-270611985D01*
X88619044Y-270611985D02*
X88523806Y-270421509D01*
X88523806Y-270421509D02*
X88523806Y-269850081D01*
X88523806Y-269850081D02*
X88619044Y-269659604D01*
X88619044Y-269659604D02*
X88714282Y-269564366D01*
X88714282Y-269564366D02*
X88904758Y-269469128D01*
X88904758Y-269469128D02*
X89190473Y-269469128D01*
X89190473Y-269469128D02*
X89380949Y-269564366D01*
X89380949Y-269564366D02*
X89476187Y-269659604D01*
X89476187Y-269659604D02*
X89571425Y-269850081D01*
X89571425Y-269850081D02*
X89571425Y-270421509D01*
X89571425Y-270421509D02*
X89476187Y-270611985D01*
X89476187Y-270611985D02*
X89380949Y-270707224D01*
X89380949Y-270707224D02*
X89190473Y-270802462D01*
X89190473Y-270802462D02*
X88904758Y-270802462D01*
X90238092Y-269469128D02*
X90714282Y-270802462D01*
X91190473Y-269469128D02*
X90714282Y-270802462D01*
X90714282Y-270802462D02*
X90523806Y-271278652D01*
X90523806Y-271278652D02*
X90428568Y-271373890D01*
X90428568Y-271373890D02*
X90238092Y-271469128D01*
X91952378Y-269469128D02*
X91952378Y-271469128D01*
X91952378Y-269564366D02*
X92142854Y-269469128D01*
X92142854Y-269469128D02*
X92523807Y-269469128D01*
X92523807Y-269469128D02*
X92714283Y-269564366D01*
X92714283Y-269564366D02*
X92809521Y-269659604D01*
X92809521Y-269659604D02*
X92904759Y-269850081D01*
X92904759Y-269850081D02*
X92904759Y-270421509D01*
X92904759Y-270421509D02*
X92809521Y-270611985D01*
X92809521Y-270611985D02*
X92714283Y-270707224D01*
X92714283Y-270707224D02*
X92523807Y-270802462D01*
X92523807Y-270802462D02*
X92142854Y-270802462D01*
X92142854Y-270802462D02*
X91952378Y-270707224D01*
X94523807Y-270707224D02*
X94333331Y-270802462D01*
X94333331Y-270802462D02*
X93952378Y-270802462D01*
X93952378Y-270802462D02*
X93761902Y-270707224D01*
X93761902Y-270707224D02*
X93666664Y-270516747D01*
X93666664Y-270516747D02*
X93666664Y-269754843D01*
X93666664Y-269754843D02*
X93761902Y-269564366D01*
X93761902Y-269564366D02*
X93952378Y-269469128D01*
X93952378Y-269469128D02*
X94333331Y-269469128D01*
X94333331Y-269469128D02*
X94523807Y-269564366D01*
X94523807Y-269564366D02*
X94619045Y-269754843D01*
X94619045Y-269754843D02*
X94619045Y-269945319D01*
X94619045Y-269945319D02*
X93666664Y-270135795D01*
X96904760Y-270707224D02*
X97190474Y-270802462D01*
X97190474Y-270802462D02*
X97666665Y-270802462D01*
X97666665Y-270802462D02*
X97857141Y-270707224D01*
X97857141Y-270707224D02*
X97952379Y-270611985D01*
X97952379Y-270611985D02*
X98047617Y-270421509D01*
X98047617Y-270421509D02*
X98047617Y-270231033D01*
X98047617Y-270231033D02*
X97952379Y-270040557D01*
X97952379Y-270040557D02*
X97857141Y-269945319D01*
X97857141Y-269945319D02*
X97666665Y-269850081D01*
X97666665Y-269850081D02*
X97285712Y-269754843D01*
X97285712Y-269754843D02*
X97095236Y-269659604D01*
X97095236Y-269659604D02*
X96999998Y-269564366D01*
X96999998Y-269564366D02*
X96904760Y-269373890D01*
X96904760Y-269373890D02*
X96904760Y-269183414D01*
X96904760Y-269183414D02*
X96999998Y-268992938D01*
X96999998Y-268992938D02*
X97095236Y-268897700D01*
X97095236Y-268897700D02*
X97285712Y-268802462D01*
X97285712Y-268802462D02*
X97761903Y-268802462D01*
X97761903Y-268802462D02*
X98047617Y-268897700D01*
X99190474Y-270802462D02*
X98999998Y-270707224D01*
X98999998Y-270707224D02*
X98904760Y-270611985D01*
X98904760Y-270611985D02*
X98809522Y-270421509D01*
X98809522Y-270421509D02*
X98809522Y-269850081D01*
X98809522Y-269850081D02*
X98904760Y-269659604D01*
X98904760Y-269659604D02*
X98999998Y-269564366D01*
X98999998Y-269564366D02*
X99190474Y-269469128D01*
X99190474Y-269469128D02*
X99476189Y-269469128D01*
X99476189Y-269469128D02*
X99666665Y-269564366D01*
X99666665Y-269564366D02*
X99761903Y-269659604D01*
X99761903Y-269659604D02*
X99857141Y-269850081D01*
X99857141Y-269850081D02*
X99857141Y-270421509D01*
X99857141Y-270421509D02*
X99761903Y-270611985D01*
X99761903Y-270611985D02*
X99666665Y-270707224D01*
X99666665Y-270707224D02*
X99476189Y-270802462D01*
X99476189Y-270802462D02*
X99190474Y-270802462D01*
X100999998Y-270802462D02*
X100809522Y-270707224D01*
X100809522Y-270707224D02*
X100714284Y-270516747D01*
X100714284Y-270516747D02*
X100714284Y-268802462D01*
X102619046Y-270802462D02*
X102619046Y-269754843D01*
X102619046Y-269754843D02*
X102523808Y-269564366D01*
X102523808Y-269564366D02*
X102333332Y-269469128D01*
X102333332Y-269469128D02*
X101952379Y-269469128D01*
X101952379Y-269469128D02*
X101761903Y-269564366D01*
X102619046Y-270707224D02*
X102428570Y-270802462D01*
X102428570Y-270802462D02*
X101952379Y-270802462D01*
X101952379Y-270802462D02*
X101761903Y-270707224D01*
X101761903Y-270707224D02*
X101666665Y-270516747D01*
X101666665Y-270516747D02*
X101666665Y-270326271D01*
X101666665Y-270326271D02*
X101761903Y-270135795D01*
X101761903Y-270135795D02*
X101952379Y-270040557D01*
X101952379Y-270040557D02*
X102428570Y-270040557D01*
X102428570Y-270040557D02*
X102619046Y-269945319D01*
X103571427Y-270802462D02*
X103571427Y-269469128D01*
X103571427Y-269850081D02*
X103666665Y-269659604D01*
X103666665Y-269659604D02*
X103761903Y-269564366D01*
X103761903Y-269564366D02*
X103952379Y-269469128D01*
X103952379Y-269469128D02*
X104142856Y-269469128D01*
X106333332Y-270802462D02*
X106333332Y-268802462D01*
X106333332Y-268802462D02*
X107095237Y-268802462D01*
X107095237Y-268802462D02*
X107285713Y-268897700D01*
X107285713Y-268897700D02*
X107380951Y-268992938D01*
X107380951Y-268992938D02*
X107476189Y-269183414D01*
X107476189Y-269183414D02*
X107476189Y-269469128D01*
X107476189Y-269469128D02*
X107380951Y-269659604D01*
X107380951Y-269659604D02*
X107285713Y-269754843D01*
X107285713Y-269754843D02*
X107095237Y-269850081D01*
X107095237Y-269850081D02*
X106333332Y-269850081D01*
X109190475Y-270802462D02*
X109190475Y-269754843D01*
X109190475Y-269754843D02*
X109095237Y-269564366D01*
X109095237Y-269564366D02*
X108904761Y-269469128D01*
X108904761Y-269469128D02*
X108523808Y-269469128D01*
X108523808Y-269469128D02*
X108333332Y-269564366D01*
X109190475Y-270707224D02*
X108999999Y-270802462D01*
X108999999Y-270802462D02*
X108523808Y-270802462D01*
X108523808Y-270802462D02*
X108333332Y-270707224D01*
X108333332Y-270707224D02*
X108238094Y-270516747D01*
X108238094Y-270516747D02*
X108238094Y-270326271D01*
X108238094Y-270326271D02*
X108333332Y-270135795D01*
X108333332Y-270135795D02*
X108523808Y-270040557D01*
X108523808Y-270040557D02*
X108999999Y-270040557D01*
X108999999Y-270040557D02*
X109190475Y-269945319D01*
X110142856Y-269469128D02*
X110142856Y-270802462D01*
X110142856Y-269659604D02*
X110238094Y-269564366D01*
X110238094Y-269564366D02*
X110428570Y-269469128D01*
X110428570Y-269469128D02*
X110714285Y-269469128D01*
X110714285Y-269469128D02*
X110904761Y-269564366D01*
X110904761Y-269564366D02*
X110999999Y-269754843D01*
X110999999Y-269754843D02*
X110999999Y-270802462D01*
X112714285Y-270707224D02*
X112523809Y-270802462D01*
X112523809Y-270802462D02*
X112142856Y-270802462D01*
X112142856Y-270802462D02*
X111952380Y-270707224D01*
X111952380Y-270707224D02*
X111857142Y-270516747D01*
X111857142Y-270516747D02*
X111857142Y-269754843D01*
X111857142Y-269754843D02*
X111952380Y-269564366D01*
X111952380Y-269564366D02*
X112142856Y-269469128D01*
X112142856Y-269469128D02*
X112523809Y-269469128D01*
X112523809Y-269469128D02*
X112714285Y-269564366D01*
X112714285Y-269564366D02*
X112809523Y-269754843D01*
X112809523Y-269754843D02*
X112809523Y-269945319D01*
X112809523Y-269945319D02*
X111857142Y-270135795D01*
X113952380Y-270802462D02*
X113761904Y-270707224D01*
X113761904Y-270707224D02*
X113666666Y-270516747D01*
X113666666Y-270516747D02*
X113666666Y-268802462D01*
X114619047Y-270707224D02*
X114809523Y-270802462D01*
X114809523Y-270802462D02*
X115190475Y-270802462D01*
X115190475Y-270802462D02*
X115380952Y-270707224D01*
X115380952Y-270707224D02*
X115476190Y-270516747D01*
X115476190Y-270516747D02*
X115476190Y-270421509D01*
X115476190Y-270421509D02*
X115380952Y-270231033D01*
X115380952Y-270231033D02*
X115190475Y-270135795D01*
X115190475Y-270135795D02*
X114904761Y-270135795D01*
X114904761Y-270135795D02*
X114714285Y-270040557D01*
X114714285Y-270040557D02*
X114619047Y-269850081D01*
X114619047Y-269850081D02*
X114619047Y-269754843D01*
X114619047Y-269754843D02*
X114714285Y-269564366D01*
X114714285Y-269564366D02*
X114904761Y-269469128D01*
X114904761Y-269469128D02*
X115190475Y-269469128D01*
X115190475Y-269469128D02*
X115380952Y-269564366D01*
X118714286Y-269469128D02*
X118714286Y-270802462D01*
X118238095Y-268707224D02*
X117761905Y-270135795D01*
X117761905Y-270135795D02*
X119000000Y-270135795D01*
X119666667Y-270707224D02*
X119857143Y-270802462D01*
X119857143Y-270802462D02*
X120238095Y-270802462D01*
X120238095Y-270802462D02*
X120428572Y-270707224D01*
X120428572Y-270707224D02*
X120523810Y-270516747D01*
X120523810Y-270516747D02*
X120523810Y-270421509D01*
X120523810Y-270421509D02*
X120428572Y-270231033D01*
X120428572Y-270231033D02*
X120238095Y-270135795D01*
X120238095Y-270135795D02*
X119952381Y-270135795D01*
X119952381Y-270135795D02*
X119761905Y-270040557D01*
X119761905Y-270040557D02*
X119666667Y-269850081D01*
X119666667Y-269850081D02*
X119666667Y-269754843D01*
X119666667Y-269754843D02*
X119761905Y-269564366D01*
X119761905Y-269564366D02*
X119952381Y-269469128D01*
X119952381Y-269469128D02*
X120238095Y-269469128D01*
X120238095Y-269469128D02*
X120428572Y-269564366D01*
X122333334Y-268802462D02*
X121380953Y-268802462D01*
X121380953Y-268802462D02*
X121285715Y-269754843D01*
X121285715Y-269754843D02*
X121380953Y-269659604D01*
X121380953Y-269659604D02*
X121571429Y-269564366D01*
X121571429Y-269564366D02*
X122047620Y-269564366D01*
X122047620Y-269564366D02*
X122238096Y-269659604D01*
X122238096Y-269659604D02*
X122333334Y-269754843D01*
X122333334Y-269754843D02*
X122428572Y-269945319D01*
X122428572Y-269945319D02*
X122428572Y-270421509D01*
X122428572Y-270421509D02*
X122333334Y-270611985D01*
X122333334Y-270611985D02*
X122238096Y-270707224D01*
X122238096Y-270707224D02*
X122047620Y-270802462D01*
X122047620Y-270802462D02*
X121571429Y-270802462D01*
X121571429Y-270802462D02*
X121380953Y-270707224D01*
X121380953Y-270707224D02*
X121285715Y-270611985D01*
X123285715Y-269469128D02*
X123285715Y-271469128D01*
X123285715Y-269564366D02*
X123476191Y-269469128D01*
X123476191Y-269469128D02*
X123857144Y-269469128D01*
X123857144Y-269469128D02*
X124047620Y-269564366D01*
X124047620Y-269564366D02*
X124142858Y-269659604D01*
X124142858Y-269659604D02*
X124238096Y-269850081D01*
X124238096Y-269850081D02*
X124238096Y-270421509D01*
X124238096Y-270421509D02*
X124142858Y-270611985D01*
X124142858Y-270611985D02*
X124047620Y-270707224D01*
X124047620Y-270707224D02*
X123857144Y-270802462D01*
X123857144Y-270802462D02*
X123476191Y-270802462D01*
X123476191Y-270802462D02*
X123285715Y-270707224D01*
X126619049Y-270802462D02*
X126619049Y-268802462D01*
X126619049Y-269564366D02*
X126809525Y-269469128D01*
X126809525Y-269469128D02*
X127190478Y-269469128D01*
X127190478Y-269469128D02*
X127380954Y-269564366D01*
X127380954Y-269564366D02*
X127476192Y-269659604D01*
X127476192Y-269659604D02*
X127571430Y-269850081D01*
X127571430Y-269850081D02*
X127571430Y-270421509D01*
X127571430Y-270421509D02*
X127476192Y-270611985D01*
X127476192Y-270611985D02*
X127380954Y-270707224D01*
X127380954Y-270707224D02*
X127190478Y-270802462D01*
X127190478Y-270802462D02*
X126809525Y-270802462D01*
X126809525Y-270802462D02*
X126619049Y-270707224D01*
X128714287Y-270802462D02*
X128523811Y-270707224D01*
X128523811Y-270707224D02*
X128428573Y-270611985D01*
X128428573Y-270611985D02*
X128333335Y-270421509D01*
X128333335Y-270421509D02*
X128333335Y-269850081D01*
X128333335Y-269850081D02*
X128428573Y-269659604D01*
X128428573Y-269659604D02*
X128523811Y-269564366D01*
X128523811Y-269564366D02*
X128714287Y-269469128D01*
X128714287Y-269469128D02*
X129000002Y-269469128D01*
X129000002Y-269469128D02*
X129190478Y-269564366D01*
X129190478Y-269564366D02*
X129285716Y-269659604D01*
X129285716Y-269659604D02*
X129380954Y-269850081D01*
X129380954Y-269850081D02*
X129380954Y-270421509D01*
X129380954Y-270421509D02*
X129285716Y-270611985D01*
X129285716Y-270611985D02*
X129190478Y-270707224D01*
X129190478Y-270707224D02*
X129000002Y-270802462D01*
X129000002Y-270802462D02*
X128714287Y-270802462D01*
X131095240Y-270802462D02*
X131095240Y-269754843D01*
X131095240Y-269754843D02*
X131000002Y-269564366D01*
X131000002Y-269564366D02*
X130809526Y-269469128D01*
X130809526Y-269469128D02*
X130428573Y-269469128D01*
X130428573Y-269469128D02*
X130238097Y-269564366D01*
X131095240Y-270707224D02*
X130904764Y-270802462D01*
X130904764Y-270802462D02*
X130428573Y-270802462D01*
X130428573Y-270802462D02*
X130238097Y-270707224D01*
X130238097Y-270707224D02*
X130142859Y-270516747D01*
X130142859Y-270516747D02*
X130142859Y-270326271D01*
X130142859Y-270326271D02*
X130238097Y-270135795D01*
X130238097Y-270135795D02*
X130428573Y-270040557D01*
X130428573Y-270040557D02*
X130904764Y-270040557D01*
X130904764Y-270040557D02*
X131095240Y-269945319D01*
X132047621Y-270802462D02*
X132047621Y-269469128D01*
X132047621Y-269850081D02*
X132142859Y-269659604D01*
X132142859Y-269659604D02*
X132238097Y-269564366D01*
X132238097Y-269564366D02*
X132428573Y-269469128D01*
X132428573Y-269469128D02*
X132619050Y-269469128D01*
X134142859Y-270802462D02*
X134142859Y-268802462D01*
X134142859Y-270707224D02*
X133952383Y-270802462D01*
X133952383Y-270802462D02*
X133571430Y-270802462D01*
X133571430Y-270802462D02*
X133380954Y-270707224D01*
X133380954Y-270707224D02*
X133285716Y-270611985D01*
X133285716Y-270611985D02*
X133190478Y-270421509D01*
X133190478Y-270421509D02*
X133190478Y-269850081D01*
X133190478Y-269850081D02*
X133285716Y-269659604D01*
X133285716Y-269659604D02*
X133380954Y-269564366D01*
X133380954Y-269564366D02*
X133571430Y-269469128D01*
X133571430Y-269469128D02*
X133952383Y-269469128D01*
X133952383Y-269469128D02*
X134142859Y-269564366D01*
X137666669Y-270802462D02*
X136523812Y-270802462D01*
X137095240Y-270802462D02*
X137095240Y-268802462D01*
X137095240Y-268802462D02*
X136904764Y-269088176D01*
X136904764Y-269088176D02*
X136714288Y-269278652D01*
X136714288Y-269278652D02*
X136523812Y-269373890D01*
X91761903Y-272022350D02*
X91761903Y-273641397D01*
X91761903Y-273641397D02*
X91857141Y-273831873D01*
X91857141Y-273831873D02*
X91952379Y-273927112D01*
X91952379Y-273927112D02*
X92142855Y-274022350D01*
X92142855Y-274022350D02*
X92523808Y-274022350D01*
X92523808Y-274022350D02*
X92714284Y-273927112D01*
X92714284Y-273927112D02*
X92809522Y-273831873D01*
X92809522Y-273831873D02*
X92904760Y-273641397D01*
X92904760Y-273641397D02*
X92904760Y-272022350D01*
X93857141Y-272689016D02*
X93857141Y-274022350D01*
X93857141Y-272879492D02*
X93952379Y-272784254D01*
X93952379Y-272784254D02*
X94142855Y-272689016D01*
X94142855Y-272689016D02*
X94428570Y-272689016D01*
X94428570Y-272689016D02*
X94619046Y-272784254D01*
X94619046Y-272784254D02*
X94714284Y-272974731D01*
X94714284Y-272974731D02*
X94714284Y-274022350D01*
X95666665Y-274022350D02*
X95666665Y-272689016D01*
X95666665Y-272022350D02*
X95571427Y-272117588D01*
X95571427Y-272117588D02*
X95666665Y-272212826D01*
X95666665Y-272212826D02*
X95761903Y-272117588D01*
X95761903Y-272117588D02*
X95666665Y-272022350D01*
X95666665Y-272022350D02*
X95666665Y-272212826D01*
X96428570Y-272689016D02*
X96904760Y-274022350D01*
X96904760Y-274022350D02*
X97380951Y-272689016D01*
X98904761Y-273927112D02*
X98714285Y-274022350D01*
X98714285Y-274022350D02*
X98333332Y-274022350D01*
X98333332Y-274022350D02*
X98142856Y-273927112D01*
X98142856Y-273927112D02*
X98047618Y-273736635D01*
X98047618Y-273736635D02*
X98047618Y-272974731D01*
X98047618Y-272974731D02*
X98142856Y-272784254D01*
X98142856Y-272784254D02*
X98333332Y-272689016D01*
X98333332Y-272689016D02*
X98714285Y-272689016D01*
X98714285Y-272689016D02*
X98904761Y-272784254D01*
X98904761Y-272784254D02*
X98999999Y-272974731D01*
X98999999Y-272974731D02*
X98999999Y-273165207D01*
X98999999Y-273165207D02*
X98047618Y-273355683D01*
X99857142Y-274022350D02*
X99857142Y-272689016D01*
X99857142Y-273069969D02*
X99952380Y-272879492D01*
X99952380Y-272879492D02*
X100047618Y-272784254D01*
X100047618Y-272784254D02*
X100238094Y-272689016D01*
X100238094Y-272689016D02*
X100428571Y-272689016D01*
X100999999Y-273927112D02*
X101190475Y-274022350D01*
X101190475Y-274022350D02*
X101571427Y-274022350D01*
X101571427Y-274022350D02*
X101761904Y-273927112D01*
X101761904Y-273927112D02*
X101857142Y-273736635D01*
X101857142Y-273736635D02*
X101857142Y-273641397D01*
X101857142Y-273641397D02*
X101761904Y-273450921D01*
X101761904Y-273450921D02*
X101571427Y-273355683D01*
X101571427Y-273355683D02*
X101285713Y-273355683D01*
X101285713Y-273355683D02*
X101095237Y-273260445D01*
X101095237Y-273260445D02*
X100999999Y-273069969D01*
X100999999Y-273069969D02*
X100999999Y-272974731D01*
X100999999Y-272974731D02*
X101095237Y-272784254D01*
X101095237Y-272784254D02*
X101285713Y-272689016D01*
X101285713Y-272689016D02*
X101571427Y-272689016D01*
X101571427Y-272689016D02*
X101761904Y-272784254D01*
X102714285Y-274022350D02*
X102714285Y-272689016D01*
X102714285Y-272022350D02*
X102619047Y-272117588D01*
X102619047Y-272117588D02*
X102714285Y-272212826D01*
X102714285Y-272212826D02*
X102809523Y-272117588D01*
X102809523Y-272117588D02*
X102714285Y-272022350D01*
X102714285Y-272022350D02*
X102714285Y-272212826D01*
X103380952Y-272689016D02*
X104142856Y-272689016D01*
X103666666Y-272022350D02*
X103666666Y-273736635D01*
X103666666Y-273736635D02*
X103761904Y-273927112D01*
X103761904Y-273927112D02*
X103952380Y-274022350D01*
X103952380Y-274022350D02*
X104142856Y-274022350D01*
X104619047Y-272689016D02*
X105095237Y-274022350D01*
X105571428Y-272689016D02*
X105095237Y-274022350D01*
X105095237Y-274022350D02*
X104904761Y-274498540D01*
X104904761Y-274498540D02*
X104809523Y-274593778D01*
X104809523Y-274593778D02*
X104619047Y-274689016D01*
X108142857Y-274022350D02*
X107952381Y-273927112D01*
X107952381Y-273927112D02*
X107857143Y-273831873D01*
X107857143Y-273831873D02*
X107761905Y-273641397D01*
X107761905Y-273641397D02*
X107761905Y-273069969D01*
X107761905Y-273069969D02*
X107857143Y-272879492D01*
X107857143Y-272879492D02*
X107952381Y-272784254D01*
X107952381Y-272784254D02*
X108142857Y-272689016D01*
X108142857Y-272689016D02*
X108428572Y-272689016D01*
X108428572Y-272689016D02*
X108619048Y-272784254D01*
X108619048Y-272784254D02*
X108714286Y-272879492D01*
X108714286Y-272879492D02*
X108809524Y-273069969D01*
X108809524Y-273069969D02*
X108809524Y-273641397D01*
X108809524Y-273641397D02*
X108714286Y-273831873D01*
X108714286Y-273831873D02*
X108619048Y-273927112D01*
X108619048Y-273927112D02*
X108428572Y-274022350D01*
X108428572Y-274022350D02*
X108142857Y-274022350D01*
X109380953Y-272689016D02*
X110142857Y-272689016D01*
X109666667Y-274022350D02*
X109666667Y-272308064D01*
X109666667Y-272308064D02*
X109761905Y-272117588D01*
X109761905Y-272117588D02*
X109952381Y-272022350D01*
X109952381Y-272022350D02*
X110142857Y-272022350D01*
X112142858Y-272022350D02*
X112619048Y-274022350D01*
X112619048Y-274022350D02*
X113000001Y-272593778D01*
X113000001Y-272593778D02*
X113380953Y-274022350D01*
X113380953Y-274022350D02*
X113857144Y-272022350D01*
X115476191Y-274022350D02*
X115476191Y-272974731D01*
X115476191Y-272974731D02*
X115380953Y-272784254D01*
X115380953Y-272784254D02*
X115190477Y-272689016D01*
X115190477Y-272689016D02*
X114809524Y-272689016D01*
X114809524Y-272689016D02*
X114619048Y-272784254D01*
X115476191Y-273927112D02*
X115285715Y-274022350D01*
X115285715Y-274022350D02*
X114809524Y-274022350D01*
X114809524Y-274022350D02*
X114619048Y-273927112D01*
X114619048Y-273927112D02*
X114523810Y-273736635D01*
X114523810Y-273736635D02*
X114523810Y-273546159D01*
X114523810Y-273546159D02*
X114619048Y-273355683D01*
X114619048Y-273355683D02*
X114809524Y-273260445D01*
X114809524Y-273260445D02*
X115285715Y-273260445D01*
X115285715Y-273260445D02*
X115476191Y-273165207D01*
X116333334Y-273927112D02*
X116523810Y-274022350D01*
X116523810Y-274022350D02*
X116904762Y-274022350D01*
X116904762Y-274022350D02*
X117095239Y-273927112D01*
X117095239Y-273927112D02*
X117190477Y-273736635D01*
X117190477Y-273736635D02*
X117190477Y-273641397D01*
X117190477Y-273641397D02*
X117095239Y-273450921D01*
X117095239Y-273450921D02*
X116904762Y-273355683D01*
X116904762Y-273355683D02*
X116619048Y-273355683D01*
X116619048Y-273355683D02*
X116428572Y-273260445D01*
X116428572Y-273260445D02*
X116333334Y-273069969D01*
X116333334Y-273069969D02*
X116333334Y-272974731D01*
X116333334Y-272974731D02*
X116428572Y-272784254D01*
X116428572Y-272784254D02*
X116619048Y-272689016D01*
X116619048Y-272689016D02*
X116904762Y-272689016D01*
X116904762Y-272689016D02*
X117095239Y-272784254D01*
X118047620Y-274022350D02*
X118047620Y-272022350D01*
X118904763Y-274022350D02*
X118904763Y-272974731D01*
X118904763Y-272974731D02*
X118809525Y-272784254D01*
X118809525Y-272784254D02*
X118619049Y-272689016D01*
X118619049Y-272689016D02*
X118333334Y-272689016D01*
X118333334Y-272689016D02*
X118142858Y-272784254D01*
X118142858Y-272784254D02*
X118047620Y-272879492D01*
X119857144Y-274022350D02*
X119857144Y-272689016D01*
X119857144Y-272022350D02*
X119761906Y-272117588D01*
X119761906Y-272117588D02*
X119857144Y-272212826D01*
X119857144Y-272212826D02*
X119952382Y-272117588D01*
X119952382Y-272117588D02*
X119857144Y-272022350D01*
X119857144Y-272022350D02*
X119857144Y-272212826D01*
X120809525Y-272689016D02*
X120809525Y-274022350D01*
X120809525Y-272879492D02*
X120904763Y-272784254D01*
X120904763Y-272784254D02*
X121095239Y-272689016D01*
X121095239Y-272689016D02*
X121380954Y-272689016D01*
X121380954Y-272689016D02*
X121571430Y-272784254D01*
X121571430Y-272784254D02*
X121666668Y-272974731D01*
X121666668Y-272974731D02*
X121666668Y-274022350D01*
X123476192Y-272689016D02*
X123476192Y-274308064D01*
X123476192Y-274308064D02*
X123380954Y-274498540D01*
X123380954Y-274498540D02*
X123285716Y-274593778D01*
X123285716Y-274593778D02*
X123095239Y-274689016D01*
X123095239Y-274689016D02*
X122809525Y-274689016D01*
X122809525Y-274689016D02*
X122619049Y-274593778D01*
X123476192Y-273927112D02*
X123285716Y-274022350D01*
X123285716Y-274022350D02*
X122904763Y-274022350D01*
X122904763Y-274022350D02*
X122714287Y-273927112D01*
X122714287Y-273927112D02*
X122619049Y-273831873D01*
X122619049Y-273831873D02*
X122523811Y-273641397D01*
X122523811Y-273641397D02*
X122523811Y-273069969D01*
X122523811Y-273069969D02*
X122619049Y-272879492D01*
X122619049Y-272879492D02*
X122714287Y-272784254D01*
X122714287Y-272784254D02*
X122904763Y-272689016D01*
X122904763Y-272689016D02*
X123285716Y-272689016D01*
X123285716Y-272689016D02*
X123476192Y-272784254D01*
X124142859Y-272689016D02*
X124904763Y-272689016D01*
X124428573Y-272022350D02*
X124428573Y-273736635D01*
X124428573Y-273736635D02*
X124523811Y-273927112D01*
X124523811Y-273927112D02*
X124714287Y-274022350D01*
X124714287Y-274022350D02*
X124904763Y-274022350D01*
X125857144Y-274022350D02*
X125666668Y-273927112D01*
X125666668Y-273927112D02*
X125571430Y-273831873D01*
X125571430Y-273831873D02*
X125476192Y-273641397D01*
X125476192Y-273641397D02*
X125476192Y-273069969D01*
X125476192Y-273069969D02*
X125571430Y-272879492D01*
X125571430Y-272879492D02*
X125666668Y-272784254D01*
X125666668Y-272784254D02*
X125857144Y-272689016D01*
X125857144Y-272689016D02*
X126142859Y-272689016D01*
X126142859Y-272689016D02*
X126333335Y-272784254D01*
X126333335Y-272784254D02*
X126428573Y-272879492D01*
X126428573Y-272879492D02*
X126523811Y-273069969D01*
X126523811Y-273069969D02*
X126523811Y-273641397D01*
X126523811Y-273641397D02*
X126428573Y-273831873D01*
X126428573Y-273831873D02*
X126333335Y-273927112D01*
X126333335Y-273927112D02*
X126142859Y-274022350D01*
X126142859Y-274022350D02*
X125857144Y-274022350D01*
X127380954Y-272689016D02*
X127380954Y-274022350D01*
X127380954Y-272879492D02*
X127476192Y-272784254D01*
X127476192Y-272784254D02*
X127666668Y-272689016D01*
X127666668Y-272689016D02*
X127952383Y-272689016D01*
X127952383Y-272689016D02*
X128142859Y-272784254D01*
X128142859Y-272784254D02*
X128238097Y-272974731D01*
X128238097Y-272974731D02*
X128238097Y-274022350D01*
X90809522Y-277242238D02*
X90809522Y-275242238D01*
X90809522Y-276194619D02*
X91952379Y-276194619D01*
X91952379Y-277242238D02*
X91952379Y-275242238D01*
X93761903Y-275908904D02*
X93761903Y-277242238D01*
X92904760Y-275908904D02*
X92904760Y-276956523D01*
X92904760Y-276956523D02*
X92999998Y-277147000D01*
X92999998Y-277147000D02*
X93190474Y-277242238D01*
X93190474Y-277242238D02*
X93476189Y-277242238D01*
X93476189Y-277242238D02*
X93666665Y-277147000D01*
X93666665Y-277147000D02*
X93761903Y-277051761D01*
X94619046Y-277147000D02*
X94809522Y-277242238D01*
X94809522Y-277242238D02*
X95190474Y-277242238D01*
X95190474Y-277242238D02*
X95380951Y-277147000D01*
X95380951Y-277147000D02*
X95476189Y-276956523D01*
X95476189Y-276956523D02*
X95476189Y-276861285D01*
X95476189Y-276861285D02*
X95380951Y-276670809D01*
X95380951Y-276670809D02*
X95190474Y-276575571D01*
X95190474Y-276575571D02*
X94904760Y-276575571D01*
X94904760Y-276575571D02*
X94714284Y-276480333D01*
X94714284Y-276480333D02*
X94619046Y-276289857D01*
X94619046Y-276289857D02*
X94619046Y-276194619D01*
X94619046Y-276194619D02*
X94714284Y-276004142D01*
X94714284Y-276004142D02*
X94904760Y-275908904D01*
X94904760Y-275908904D02*
X95190474Y-275908904D01*
X95190474Y-275908904D02*
X95380951Y-276004142D01*
X96333332Y-277242238D02*
X96333332Y-275242238D01*
X96523808Y-276480333D02*
X97095237Y-277242238D01*
X97095237Y-275908904D02*
X96333332Y-276670809D01*
X97761904Y-275908904D02*
X98238094Y-277242238D01*
X98714285Y-275908904D02*
X98238094Y-277242238D01*
X98238094Y-277242238D02*
X98047618Y-277718428D01*
X98047618Y-277718428D02*
X97952380Y-277813666D01*
X97952380Y-277813666D02*
X97761904Y-277908904D01*
X100904762Y-277147000D02*
X101190476Y-277242238D01*
X101190476Y-277242238D02*
X101666667Y-277242238D01*
X101666667Y-277242238D02*
X101857143Y-277147000D01*
X101857143Y-277147000D02*
X101952381Y-277051761D01*
X101952381Y-277051761D02*
X102047619Y-276861285D01*
X102047619Y-276861285D02*
X102047619Y-276670809D01*
X102047619Y-276670809D02*
X101952381Y-276480333D01*
X101952381Y-276480333D02*
X101857143Y-276385095D01*
X101857143Y-276385095D02*
X101666667Y-276289857D01*
X101666667Y-276289857D02*
X101285714Y-276194619D01*
X101285714Y-276194619D02*
X101095238Y-276099380D01*
X101095238Y-276099380D02*
X101000000Y-276004142D01*
X101000000Y-276004142D02*
X100904762Y-275813666D01*
X100904762Y-275813666D02*
X100904762Y-275623190D01*
X100904762Y-275623190D02*
X101000000Y-275432714D01*
X101000000Y-275432714D02*
X101095238Y-275337476D01*
X101095238Y-275337476D02*
X101285714Y-275242238D01*
X101285714Y-275242238D02*
X101761905Y-275242238D01*
X101761905Y-275242238D02*
X102047619Y-275337476D01*
X103761905Y-277242238D02*
X103761905Y-276194619D01*
X103761905Y-276194619D02*
X103666667Y-276004142D01*
X103666667Y-276004142D02*
X103476191Y-275908904D01*
X103476191Y-275908904D02*
X103095238Y-275908904D01*
X103095238Y-275908904D02*
X102904762Y-276004142D01*
X103761905Y-277147000D02*
X103571429Y-277242238D01*
X103571429Y-277242238D02*
X103095238Y-277242238D01*
X103095238Y-277242238D02*
X102904762Y-277147000D01*
X102904762Y-277147000D02*
X102809524Y-276956523D01*
X102809524Y-276956523D02*
X102809524Y-276766047D01*
X102809524Y-276766047D02*
X102904762Y-276575571D01*
X102904762Y-276575571D02*
X103095238Y-276480333D01*
X103095238Y-276480333D02*
X103571429Y-276480333D01*
X103571429Y-276480333D02*
X103761905Y-276385095D01*
X104428572Y-275908904D02*
X105190476Y-275908904D01*
X104714286Y-275242238D02*
X104714286Y-276956523D01*
X104714286Y-276956523D02*
X104809524Y-277147000D01*
X104809524Y-277147000D02*
X105000000Y-277242238D01*
X105000000Y-277242238D02*
X105190476Y-277242238D01*
X106619048Y-277147000D02*
X106428572Y-277242238D01*
X106428572Y-277242238D02*
X106047619Y-277242238D01*
X106047619Y-277242238D02*
X105857143Y-277147000D01*
X105857143Y-277147000D02*
X105761905Y-276956523D01*
X105761905Y-276956523D02*
X105761905Y-276194619D01*
X105761905Y-276194619D02*
X105857143Y-276004142D01*
X105857143Y-276004142D02*
X106047619Y-275908904D01*
X106047619Y-275908904D02*
X106428572Y-275908904D01*
X106428572Y-275908904D02*
X106619048Y-276004142D01*
X106619048Y-276004142D02*
X106714286Y-276194619D01*
X106714286Y-276194619D02*
X106714286Y-276385095D01*
X106714286Y-276385095D02*
X105761905Y-276575571D01*
X107857143Y-277242238D02*
X107666667Y-277147000D01*
X107666667Y-277147000D02*
X107571429Y-276956523D01*
X107571429Y-276956523D02*
X107571429Y-275242238D01*
X108904762Y-277242238D02*
X108714286Y-277147000D01*
X108714286Y-277147000D02*
X108619048Y-276956523D01*
X108619048Y-276956523D02*
X108619048Y-275242238D01*
X109666667Y-277242238D02*
X109666667Y-275908904D01*
X109666667Y-275242238D02*
X109571429Y-275337476D01*
X109571429Y-275337476D02*
X109666667Y-275432714D01*
X109666667Y-275432714D02*
X109761905Y-275337476D01*
X109761905Y-275337476D02*
X109666667Y-275242238D01*
X109666667Y-275242238D02*
X109666667Y-275432714D01*
X110333334Y-275908904D02*
X111095238Y-275908904D01*
X110619048Y-275242238D02*
X110619048Y-276956523D01*
X110619048Y-276956523D02*
X110714286Y-277147000D01*
X110714286Y-277147000D02*
X110904762Y-277242238D01*
X110904762Y-277242238D02*
X111095238Y-277242238D01*
X112523810Y-277147000D02*
X112333334Y-277242238D01*
X112333334Y-277242238D02*
X111952381Y-277242238D01*
X111952381Y-277242238D02*
X111761905Y-277147000D01*
X111761905Y-277147000D02*
X111666667Y-276956523D01*
X111666667Y-276956523D02*
X111666667Y-276194619D01*
X111666667Y-276194619D02*
X111761905Y-276004142D01*
X111761905Y-276004142D02*
X111952381Y-275908904D01*
X111952381Y-275908904D02*
X112333334Y-275908904D01*
X112333334Y-275908904D02*
X112523810Y-276004142D01*
X112523810Y-276004142D02*
X112619048Y-276194619D01*
X112619048Y-276194619D02*
X112619048Y-276385095D01*
X112619048Y-276385095D02*
X111666667Y-276575571D01*
X115952382Y-277242238D02*
X115000001Y-277242238D01*
X115000001Y-277242238D02*
X115000001Y-275242238D01*
X117476192Y-277242238D02*
X117476192Y-276194619D01*
X117476192Y-276194619D02*
X117380954Y-276004142D01*
X117380954Y-276004142D02*
X117190478Y-275908904D01*
X117190478Y-275908904D02*
X116809525Y-275908904D01*
X116809525Y-275908904D02*
X116619049Y-276004142D01*
X117476192Y-277147000D02*
X117285716Y-277242238D01*
X117285716Y-277242238D02*
X116809525Y-277242238D01*
X116809525Y-277242238D02*
X116619049Y-277147000D01*
X116619049Y-277147000D02*
X116523811Y-276956523D01*
X116523811Y-276956523D02*
X116523811Y-276766047D01*
X116523811Y-276766047D02*
X116619049Y-276575571D01*
X116619049Y-276575571D02*
X116809525Y-276480333D01*
X116809525Y-276480333D02*
X117285716Y-276480333D01*
X117285716Y-276480333D02*
X117476192Y-276385095D01*
X118428573Y-277242238D02*
X118428573Y-275242238D01*
X118428573Y-276004142D02*
X118619049Y-275908904D01*
X118619049Y-275908904D02*
X119000002Y-275908904D01*
X119000002Y-275908904D02*
X119190478Y-276004142D01*
X119190478Y-276004142D02*
X119285716Y-276099380D01*
X119285716Y-276099380D02*
X119380954Y-276289857D01*
X119380954Y-276289857D02*
X119380954Y-276861285D01*
X119380954Y-276861285D02*
X119285716Y-277051761D01*
X119285716Y-277051761D02*
X119190478Y-277147000D01*
X119190478Y-277147000D02*
X119000002Y-277242238D01*
X119000002Y-277242238D02*
X118619049Y-277242238D01*
X118619049Y-277242238D02*
X118428573Y-277147000D01*
X121761907Y-277242238D02*
X121761907Y-275242238D01*
X121761907Y-276194619D02*
X122904764Y-276194619D01*
X122904764Y-277242238D02*
X122904764Y-275242238D01*
X123761907Y-277147000D02*
X124047621Y-277242238D01*
X124047621Y-277242238D02*
X124523812Y-277242238D01*
X124523812Y-277242238D02*
X124714288Y-277147000D01*
X124714288Y-277147000D02*
X124809526Y-277051761D01*
X124809526Y-277051761D02*
X124904764Y-276861285D01*
X124904764Y-276861285D02*
X124904764Y-276670809D01*
X124904764Y-276670809D02*
X124809526Y-276480333D01*
X124809526Y-276480333D02*
X124714288Y-276385095D01*
X124714288Y-276385095D02*
X124523812Y-276289857D01*
X124523812Y-276289857D02*
X124142859Y-276194619D01*
X124142859Y-276194619D02*
X123952383Y-276099380D01*
X123952383Y-276099380D02*
X123857145Y-276004142D01*
X123857145Y-276004142D02*
X123761907Y-275813666D01*
X123761907Y-275813666D02*
X123761907Y-275623190D01*
X123761907Y-275623190D02*
X123857145Y-275432714D01*
X123857145Y-275432714D02*
X123952383Y-275337476D01*
X123952383Y-275337476D02*
X124142859Y-275242238D01*
X124142859Y-275242238D02*
X124619050Y-275242238D01*
X124619050Y-275242238D02*
X124904764Y-275337476D01*
X125761907Y-276480333D02*
X127285717Y-276480333D01*
X128142859Y-275432714D02*
X128238097Y-275337476D01*
X128238097Y-275337476D02*
X128428573Y-275242238D01*
X128428573Y-275242238D02*
X128904764Y-275242238D01*
X128904764Y-275242238D02*
X129095240Y-275337476D01*
X129095240Y-275337476D02*
X129190478Y-275432714D01*
X129190478Y-275432714D02*
X129285716Y-275623190D01*
X129285716Y-275623190D02*
X129285716Y-275813666D01*
X129285716Y-275813666D02*
X129190478Y-276099380D01*
X129190478Y-276099380D02*
X128047621Y-277242238D01*
X128047621Y-277242238D02*
X129285716Y-277242238D01*
D11*
X157011905Y-76159800D02*
X157154762Y-76207419D01*
X157154762Y-76207419D02*
X157392857Y-76207419D01*
X157392857Y-76207419D02*
X157488095Y-76159800D01*
X157488095Y-76159800D02*
X157535714Y-76112180D01*
X157535714Y-76112180D02*
X157583333Y-76016942D01*
X157583333Y-76016942D02*
X157583333Y-75921704D01*
X157583333Y-75921704D02*
X157535714Y-75826466D01*
X157535714Y-75826466D02*
X157488095Y-75778847D01*
X157488095Y-75778847D02*
X157392857Y-75731228D01*
X157392857Y-75731228D02*
X157202381Y-75683609D01*
X157202381Y-75683609D02*
X157107143Y-75635990D01*
X157107143Y-75635990D02*
X157059524Y-75588371D01*
X157059524Y-75588371D02*
X157011905Y-75493133D01*
X157011905Y-75493133D02*
X157011905Y-75397895D01*
X157011905Y-75397895D02*
X157059524Y-75302657D01*
X157059524Y-75302657D02*
X157107143Y-75255038D01*
X157107143Y-75255038D02*
X157202381Y-75207419D01*
X157202381Y-75207419D02*
X157440476Y-75207419D01*
X157440476Y-75207419D02*
X157583333Y-75255038D01*
X158583333Y-76112180D02*
X158535714Y-76159800D01*
X158535714Y-76159800D02*
X158392857Y-76207419D01*
X158392857Y-76207419D02*
X158297619Y-76207419D01*
X158297619Y-76207419D02*
X158154762Y-76159800D01*
X158154762Y-76159800D02*
X158059524Y-76064561D01*
X158059524Y-76064561D02*
X158011905Y-75969323D01*
X158011905Y-75969323D02*
X157964286Y-75778847D01*
X157964286Y-75778847D02*
X157964286Y-75635990D01*
X157964286Y-75635990D02*
X158011905Y-75445514D01*
X158011905Y-75445514D02*
X158059524Y-75350276D01*
X158059524Y-75350276D02*
X158154762Y-75255038D01*
X158154762Y-75255038D02*
X158297619Y-75207419D01*
X158297619Y-75207419D02*
X158392857Y-75207419D01*
X158392857Y-75207419D02*
X158535714Y-75255038D01*
X158535714Y-75255038D02*
X158583333Y-75302657D01*
X159535714Y-76207419D02*
X158964286Y-76207419D01*
X159250000Y-76207419D02*
X159250000Y-75207419D01*
X159250000Y-75207419D02*
X159154762Y-75350276D01*
X159154762Y-75350276D02*
X159059524Y-75445514D01*
X159059524Y-75445514D02*
X158964286Y-75493133D01*
X160154762Y-75207419D02*
X160250000Y-75207419D01*
X160250000Y-75207419D02*
X160345238Y-75255038D01*
X160345238Y-75255038D02*
X160392857Y-75302657D01*
X160392857Y-75302657D02*
X160440476Y-75397895D01*
X160440476Y-75397895D02*
X160488095Y-75588371D01*
X160488095Y-75588371D02*
X160488095Y-75826466D01*
X160488095Y-75826466D02*
X160440476Y-76016942D01*
X160440476Y-76016942D02*
X160392857Y-76112180D01*
X160392857Y-76112180D02*
X160345238Y-76159800D01*
X160345238Y-76159800D02*
X160250000Y-76207419D01*
X160250000Y-76207419D02*
X160154762Y-76207419D01*
X160154762Y-76207419D02*
X160059524Y-76159800D01*
X160059524Y-76159800D02*
X160011905Y-76112180D01*
X160011905Y-76112180D02*
X159964286Y-76016942D01*
X159964286Y-76016942D02*
X159916667Y-75826466D01*
X159916667Y-75826466D02*
X159916667Y-75588371D01*
X159916667Y-75588371D02*
X159964286Y-75397895D01*
X159964286Y-75397895D02*
X160011905Y-75302657D01*
X160011905Y-75302657D02*
X160059524Y-75255038D01*
X160059524Y-75255038D02*
X160154762Y-75207419D01*
X355761905Y-219909800D02*
X355904762Y-219957419D01*
X355904762Y-219957419D02*
X356142857Y-219957419D01*
X356142857Y-219957419D02*
X356238095Y-219909800D01*
X356238095Y-219909800D02*
X356285714Y-219862180D01*
X356285714Y-219862180D02*
X356333333Y-219766942D01*
X356333333Y-219766942D02*
X356333333Y-219671704D01*
X356333333Y-219671704D02*
X356285714Y-219576466D01*
X356285714Y-219576466D02*
X356238095Y-219528847D01*
X356238095Y-219528847D02*
X356142857Y-219481228D01*
X356142857Y-219481228D02*
X355952381Y-219433609D01*
X355952381Y-219433609D02*
X355857143Y-219385990D01*
X355857143Y-219385990D02*
X355809524Y-219338371D01*
X355809524Y-219338371D02*
X355761905Y-219243133D01*
X355761905Y-219243133D02*
X355761905Y-219147895D01*
X355761905Y-219147895D02*
X355809524Y-219052657D01*
X355809524Y-219052657D02*
X355857143Y-219005038D01*
X355857143Y-219005038D02*
X355952381Y-218957419D01*
X355952381Y-218957419D02*
X356190476Y-218957419D01*
X356190476Y-218957419D02*
X356333333Y-219005038D01*
X357333333Y-219862180D02*
X357285714Y-219909800D01*
X357285714Y-219909800D02*
X357142857Y-219957419D01*
X357142857Y-219957419D02*
X357047619Y-219957419D01*
X357047619Y-219957419D02*
X356904762Y-219909800D01*
X356904762Y-219909800D02*
X356809524Y-219814561D01*
X356809524Y-219814561D02*
X356761905Y-219719323D01*
X356761905Y-219719323D02*
X356714286Y-219528847D01*
X356714286Y-219528847D02*
X356714286Y-219385990D01*
X356714286Y-219385990D02*
X356761905Y-219195514D01*
X356761905Y-219195514D02*
X356809524Y-219100276D01*
X356809524Y-219100276D02*
X356904762Y-219005038D01*
X356904762Y-219005038D02*
X357047619Y-218957419D01*
X357047619Y-218957419D02*
X357142857Y-218957419D01*
X357142857Y-218957419D02*
X357285714Y-219005038D01*
X357285714Y-219005038D02*
X357333333Y-219052657D01*
X357714286Y-219052657D02*
X357761905Y-219005038D01*
X357761905Y-219005038D02*
X357857143Y-218957419D01*
X357857143Y-218957419D02*
X358095238Y-218957419D01*
X358095238Y-218957419D02*
X358190476Y-219005038D01*
X358190476Y-219005038D02*
X358238095Y-219052657D01*
X358238095Y-219052657D02*
X358285714Y-219147895D01*
X358285714Y-219147895D02*
X358285714Y-219243133D01*
X358285714Y-219243133D02*
X358238095Y-219385990D01*
X358238095Y-219385990D02*
X357666667Y-219957419D01*
X357666667Y-219957419D02*
X358285714Y-219957419D01*
X358904762Y-218957419D02*
X359000000Y-218957419D01*
X359000000Y-218957419D02*
X359095238Y-219005038D01*
X359095238Y-219005038D02*
X359142857Y-219052657D01*
X359142857Y-219052657D02*
X359190476Y-219147895D01*
X359190476Y-219147895D02*
X359238095Y-219338371D01*
X359238095Y-219338371D02*
X359238095Y-219576466D01*
X359238095Y-219576466D02*
X359190476Y-219766942D01*
X359190476Y-219766942D02*
X359142857Y-219862180D01*
X359142857Y-219862180D02*
X359095238Y-219909800D01*
X359095238Y-219909800D02*
X359000000Y-219957419D01*
X359000000Y-219957419D02*
X358904762Y-219957419D01*
X358904762Y-219957419D02*
X358809524Y-219909800D01*
X358809524Y-219909800D02*
X358761905Y-219862180D01*
X358761905Y-219862180D02*
X358714286Y-219766942D01*
X358714286Y-219766942D02*
X358666667Y-219576466D01*
X358666667Y-219576466D02*
X358666667Y-219338371D01*
X358666667Y-219338371D02*
X358714286Y-219147895D01*
X358714286Y-219147895D02*
X358761905Y-219052657D01*
X358761905Y-219052657D02*
X358809524Y-219005038D01*
X358809524Y-219005038D02*
X358904762Y-218957419D01*
D12*
X397988095Y-20454819D02*
X397988095Y-19454819D01*
X397988095Y-19931009D02*
X398559523Y-19931009D01*
X398559523Y-20454819D02*
X398559523Y-19454819D01*
X399464285Y-19454819D02*
X399273809Y-19454819D01*
X399273809Y-19454819D02*
X399178571Y-19502438D01*
X399178571Y-19502438D02*
X399130952Y-19550057D01*
X399130952Y-19550057D02*
X399035714Y-19692914D01*
X399035714Y-19692914D02*
X398988095Y-19883390D01*
X398988095Y-19883390D02*
X398988095Y-20264342D01*
X398988095Y-20264342D02*
X399035714Y-20359580D01*
X399035714Y-20359580D02*
X399083333Y-20407200D01*
X399083333Y-20407200D02*
X399178571Y-20454819D01*
X399178571Y-20454819D02*
X399369047Y-20454819D01*
X399369047Y-20454819D02*
X399464285Y-20407200D01*
X399464285Y-20407200D02*
X399511904Y-20359580D01*
X399511904Y-20359580D02*
X399559523Y-20264342D01*
X399559523Y-20264342D02*
X399559523Y-20026247D01*
X399559523Y-20026247D02*
X399511904Y-19931009D01*
X399511904Y-19931009D02*
X399464285Y-19883390D01*
X399464285Y-19883390D02*
X399369047Y-19835771D01*
X399369047Y-19835771D02*
X399178571Y-19835771D01*
X399178571Y-19835771D02*
X399083333Y-19883390D01*
X399083333Y-19883390D02*
X399035714Y-19931009D01*
X399035714Y-19931009D02*
X398988095Y-20026247D01*
X199238095Y-45454819D02*
X199238095Y-44454819D01*
X199238095Y-44931009D02*
X199809523Y-44931009D01*
X199809523Y-45454819D02*
X199809523Y-44454819D01*
X200238095Y-44550057D02*
X200285714Y-44502438D01*
X200285714Y-44502438D02*
X200380952Y-44454819D01*
X200380952Y-44454819D02*
X200619047Y-44454819D01*
X200619047Y-44454819D02*
X200714285Y-44502438D01*
X200714285Y-44502438D02*
X200761904Y-44550057D01*
X200761904Y-44550057D02*
X200809523Y-44645295D01*
X200809523Y-44645295D02*
X200809523Y-44740533D01*
X200809523Y-44740533D02*
X200761904Y-44883390D01*
X200761904Y-44883390D02*
X200190476Y-45454819D01*
X200190476Y-45454819D02*
X200809523Y-45454819D01*
D11*
X157488095Y-203659800D02*
X157630952Y-203707419D01*
X157630952Y-203707419D02*
X157869047Y-203707419D01*
X157869047Y-203707419D02*
X157964285Y-203659800D01*
X157964285Y-203659800D02*
X158011904Y-203612180D01*
X158011904Y-203612180D02*
X158059523Y-203516942D01*
X158059523Y-203516942D02*
X158059523Y-203421704D01*
X158059523Y-203421704D02*
X158011904Y-203326466D01*
X158011904Y-203326466D02*
X157964285Y-203278847D01*
X157964285Y-203278847D02*
X157869047Y-203231228D01*
X157869047Y-203231228D02*
X157678571Y-203183609D01*
X157678571Y-203183609D02*
X157583333Y-203135990D01*
X157583333Y-203135990D02*
X157535714Y-203088371D01*
X157535714Y-203088371D02*
X157488095Y-202993133D01*
X157488095Y-202993133D02*
X157488095Y-202897895D01*
X157488095Y-202897895D02*
X157535714Y-202802657D01*
X157535714Y-202802657D02*
X157583333Y-202755038D01*
X157583333Y-202755038D02*
X157678571Y-202707419D01*
X157678571Y-202707419D02*
X157916666Y-202707419D01*
X157916666Y-202707419D02*
X158059523Y-202755038D01*
X159059523Y-203612180D02*
X159011904Y-203659800D01*
X159011904Y-203659800D02*
X158869047Y-203707419D01*
X158869047Y-203707419D02*
X158773809Y-203707419D01*
X158773809Y-203707419D02*
X158630952Y-203659800D01*
X158630952Y-203659800D02*
X158535714Y-203564561D01*
X158535714Y-203564561D02*
X158488095Y-203469323D01*
X158488095Y-203469323D02*
X158440476Y-203278847D01*
X158440476Y-203278847D02*
X158440476Y-203135990D01*
X158440476Y-203135990D02*
X158488095Y-202945514D01*
X158488095Y-202945514D02*
X158535714Y-202850276D01*
X158535714Y-202850276D02*
X158630952Y-202755038D01*
X158630952Y-202755038D02*
X158773809Y-202707419D01*
X158773809Y-202707419D02*
X158869047Y-202707419D01*
X158869047Y-202707419D02*
X159011904Y-202755038D01*
X159011904Y-202755038D02*
X159059523Y-202802657D01*
X159392857Y-202707419D02*
X160059523Y-202707419D01*
X160059523Y-202707419D02*
X159630952Y-203707419D01*
X355761905Y-92409800D02*
X355904762Y-92457419D01*
X355904762Y-92457419D02*
X356142857Y-92457419D01*
X356142857Y-92457419D02*
X356238095Y-92409800D01*
X356238095Y-92409800D02*
X356285714Y-92362180D01*
X356285714Y-92362180D02*
X356333333Y-92266942D01*
X356333333Y-92266942D02*
X356333333Y-92171704D01*
X356333333Y-92171704D02*
X356285714Y-92076466D01*
X356285714Y-92076466D02*
X356238095Y-92028847D01*
X356238095Y-92028847D02*
X356142857Y-91981228D01*
X356142857Y-91981228D02*
X355952381Y-91933609D01*
X355952381Y-91933609D02*
X355857143Y-91885990D01*
X355857143Y-91885990D02*
X355809524Y-91838371D01*
X355809524Y-91838371D02*
X355761905Y-91743133D01*
X355761905Y-91743133D02*
X355761905Y-91647895D01*
X355761905Y-91647895D02*
X355809524Y-91552657D01*
X355809524Y-91552657D02*
X355857143Y-91505038D01*
X355857143Y-91505038D02*
X355952381Y-91457419D01*
X355952381Y-91457419D02*
X356190476Y-91457419D01*
X356190476Y-91457419D02*
X356333333Y-91505038D01*
X357333333Y-92362180D02*
X357285714Y-92409800D01*
X357285714Y-92409800D02*
X357142857Y-92457419D01*
X357142857Y-92457419D02*
X357047619Y-92457419D01*
X357047619Y-92457419D02*
X356904762Y-92409800D01*
X356904762Y-92409800D02*
X356809524Y-92314561D01*
X356809524Y-92314561D02*
X356761905Y-92219323D01*
X356761905Y-92219323D02*
X356714286Y-92028847D01*
X356714286Y-92028847D02*
X356714286Y-91885990D01*
X356714286Y-91885990D02*
X356761905Y-91695514D01*
X356761905Y-91695514D02*
X356809524Y-91600276D01*
X356809524Y-91600276D02*
X356904762Y-91505038D01*
X356904762Y-91505038D02*
X357047619Y-91457419D01*
X357047619Y-91457419D02*
X357142857Y-91457419D01*
X357142857Y-91457419D02*
X357285714Y-91505038D01*
X357285714Y-91505038D02*
X357333333Y-91552657D01*
X358285714Y-92457419D02*
X357714286Y-92457419D01*
X358000000Y-92457419D02*
X358000000Y-91457419D01*
X358000000Y-91457419D02*
X357904762Y-91600276D01*
X357904762Y-91600276D02*
X357809524Y-91695514D01*
X357809524Y-91695514D02*
X357714286Y-91743133D01*
X358619048Y-91457419D02*
X359285714Y-91457419D01*
X359285714Y-91457419D02*
X358857143Y-92457419D01*
X64988095Y-118659800D02*
X65130952Y-118707419D01*
X65130952Y-118707419D02*
X65369047Y-118707419D01*
X65369047Y-118707419D02*
X65464285Y-118659800D01*
X65464285Y-118659800D02*
X65511904Y-118612180D01*
X65511904Y-118612180D02*
X65559523Y-118516942D01*
X65559523Y-118516942D02*
X65559523Y-118421704D01*
X65559523Y-118421704D02*
X65511904Y-118326466D01*
X65511904Y-118326466D02*
X65464285Y-118278847D01*
X65464285Y-118278847D02*
X65369047Y-118231228D01*
X65369047Y-118231228D02*
X65178571Y-118183609D01*
X65178571Y-118183609D02*
X65083333Y-118135990D01*
X65083333Y-118135990D02*
X65035714Y-118088371D01*
X65035714Y-118088371D02*
X64988095Y-117993133D01*
X64988095Y-117993133D02*
X64988095Y-117897895D01*
X64988095Y-117897895D02*
X65035714Y-117802657D01*
X65035714Y-117802657D02*
X65083333Y-117755038D01*
X65083333Y-117755038D02*
X65178571Y-117707419D01*
X65178571Y-117707419D02*
X65416666Y-117707419D01*
X65416666Y-117707419D02*
X65559523Y-117755038D01*
X66559523Y-118612180D02*
X66511904Y-118659800D01*
X66511904Y-118659800D02*
X66369047Y-118707419D01*
X66369047Y-118707419D02*
X66273809Y-118707419D01*
X66273809Y-118707419D02*
X66130952Y-118659800D01*
X66130952Y-118659800D02*
X66035714Y-118564561D01*
X66035714Y-118564561D02*
X65988095Y-118469323D01*
X65988095Y-118469323D02*
X65940476Y-118278847D01*
X65940476Y-118278847D02*
X65940476Y-118135990D01*
X65940476Y-118135990D02*
X65988095Y-117945514D01*
X65988095Y-117945514D02*
X66035714Y-117850276D01*
X66035714Y-117850276D02*
X66130952Y-117755038D01*
X66130952Y-117755038D02*
X66273809Y-117707419D01*
X66273809Y-117707419D02*
X66369047Y-117707419D01*
X66369047Y-117707419D02*
X66511904Y-117755038D01*
X66511904Y-117755038D02*
X66559523Y-117802657D01*
X67511904Y-118707419D02*
X66940476Y-118707419D01*
X67226190Y-118707419D02*
X67226190Y-117707419D01*
X67226190Y-117707419D02*
X67130952Y-117850276D01*
X67130952Y-117850276D02*
X67035714Y-117945514D01*
X67035714Y-117945514D02*
X66940476Y-117993133D01*
D12*
X222988095Y-242954819D02*
X222988095Y-241954819D01*
X222988095Y-242431009D02*
X223559523Y-242431009D01*
X223559523Y-242954819D02*
X223559523Y-241954819D01*
X223940476Y-241954819D02*
X224607142Y-241954819D01*
X224607142Y-241954819D02*
X224178571Y-242954819D01*
X177904761Y-45704819D02*
X178095237Y-45704819D01*
X178095237Y-45704819D02*
X178190475Y-45752438D01*
X178190475Y-45752438D02*
X178285713Y-45847676D01*
X178285713Y-45847676D02*
X178333332Y-46038152D01*
X178333332Y-46038152D02*
X178333332Y-46371485D01*
X178333332Y-46371485D02*
X178285713Y-46561961D01*
X178285713Y-46561961D02*
X178190475Y-46657200D01*
X178190475Y-46657200D02*
X178095237Y-46704819D01*
X178095237Y-46704819D02*
X177904761Y-46704819D01*
X177904761Y-46704819D02*
X177809523Y-46657200D01*
X177809523Y-46657200D02*
X177714285Y-46561961D01*
X177714285Y-46561961D02*
X177666666Y-46371485D01*
X177666666Y-46371485D02*
X177666666Y-46038152D01*
X177666666Y-46038152D02*
X177714285Y-45847676D01*
X177714285Y-45847676D02*
X177809523Y-45752438D01*
X177809523Y-45752438D02*
X177904761Y-45704819D01*
X178619047Y-46038152D02*
X178999999Y-46038152D01*
X178761904Y-45704819D02*
X178761904Y-46561961D01*
X178761904Y-46561961D02*
X178809523Y-46657200D01*
X178809523Y-46657200D02*
X178904761Y-46704819D01*
X178904761Y-46704819D02*
X178999999Y-46704819D01*
X179333333Y-46704819D02*
X179333333Y-45704819D01*
X179761904Y-46704819D02*
X179761904Y-46181009D01*
X179761904Y-46181009D02*
X179714285Y-46085771D01*
X179714285Y-46085771D02*
X179619047Y-46038152D01*
X179619047Y-46038152D02*
X179476190Y-46038152D01*
X179476190Y-46038152D02*
X179380952Y-46085771D01*
X179380952Y-46085771D02*
X179333333Y-46133390D01*
X180619047Y-46657200D02*
X180523809Y-46704819D01*
X180523809Y-46704819D02*
X180333333Y-46704819D01*
X180333333Y-46704819D02*
X180238095Y-46657200D01*
X180238095Y-46657200D02*
X180190476Y-46561961D01*
X180190476Y-46561961D02*
X180190476Y-46181009D01*
X180190476Y-46181009D02*
X180238095Y-46085771D01*
X180238095Y-46085771D02*
X180333333Y-46038152D01*
X180333333Y-46038152D02*
X180523809Y-46038152D01*
X180523809Y-46038152D02*
X180619047Y-46085771D01*
X180619047Y-46085771D02*
X180666666Y-46181009D01*
X180666666Y-46181009D02*
X180666666Y-46276247D01*
X180666666Y-46276247D02*
X180190476Y-46371485D01*
X181095238Y-46704819D02*
X181095238Y-46038152D01*
X181095238Y-46228628D02*
X181142857Y-46133390D01*
X181142857Y-46133390D02*
X181190476Y-46085771D01*
X181190476Y-46085771D02*
X181285714Y-46038152D01*
X181285714Y-46038152D02*
X181380952Y-46038152D01*
X181476191Y-46800057D02*
X182238095Y-46800057D01*
X182809524Y-46181009D02*
X182952381Y-46228628D01*
X182952381Y-46228628D02*
X183000000Y-46276247D01*
X183000000Y-46276247D02*
X183047619Y-46371485D01*
X183047619Y-46371485D02*
X183047619Y-46514342D01*
X183047619Y-46514342D02*
X183000000Y-46609580D01*
X183000000Y-46609580D02*
X182952381Y-46657200D01*
X182952381Y-46657200D02*
X182857143Y-46704819D01*
X182857143Y-46704819D02*
X182476191Y-46704819D01*
X182476191Y-46704819D02*
X182476191Y-45704819D01*
X182476191Y-45704819D02*
X182809524Y-45704819D01*
X182809524Y-45704819D02*
X182904762Y-45752438D01*
X182904762Y-45752438D02*
X182952381Y-45800057D01*
X182952381Y-45800057D02*
X183000000Y-45895295D01*
X183000000Y-45895295D02*
X183000000Y-45990533D01*
X183000000Y-45990533D02*
X182952381Y-46085771D01*
X182952381Y-46085771D02*
X182904762Y-46133390D01*
X182904762Y-46133390D02*
X182809524Y-46181009D01*
X182809524Y-46181009D02*
X182476191Y-46181009D01*
X183619048Y-46704819D02*
X183523810Y-46657200D01*
X183523810Y-46657200D02*
X183476191Y-46609580D01*
X183476191Y-46609580D02*
X183428572Y-46514342D01*
X183428572Y-46514342D02*
X183428572Y-46228628D01*
X183428572Y-46228628D02*
X183476191Y-46133390D01*
X183476191Y-46133390D02*
X183523810Y-46085771D01*
X183523810Y-46085771D02*
X183619048Y-46038152D01*
X183619048Y-46038152D02*
X183761905Y-46038152D01*
X183761905Y-46038152D02*
X183857143Y-46085771D01*
X183857143Y-46085771D02*
X183904762Y-46133390D01*
X183904762Y-46133390D02*
X183952381Y-46228628D01*
X183952381Y-46228628D02*
X183952381Y-46514342D01*
X183952381Y-46514342D02*
X183904762Y-46609580D01*
X183904762Y-46609580D02*
X183857143Y-46657200D01*
X183857143Y-46657200D02*
X183761905Y-46704819D01*
X183761905Y-46704819D02*
X183619048Y-46704819D01*
X184809524Y-46704819D02*
X184809524Y-46181009D01*
X184809524Y-46181009D02*
X184761905Y-46085771D01*
X184761905Y-46085771D02*
X184666667Y-46038152D01*
X184666667Y-46038152D02*
X184476191Y-46038152D01*
X184476191Y-46038152D02*
X184380953Y-46085771D01*
X184809524Y-46657200D02*
X184714286Y-46704819D01*
X184714286Y-46704819D02*
X184476191Y-46704819D01*
X184476191Y-46704819D02*
X184380953Y-46657200D01*
X184380953Y-46657200D02*
X184333334Y-46561961D01*
X184333334Y-46561961D02*
X184333334Y-46466723D01*
X184333334Y-46466723D02*
X184380953Y-46371485D01*
X184380953Y-46371485D02*
X184476191Y-46323866D01*
X184476191Y-46323866D02*
X184714286Y-46323866D01*
X184714286Y-46323866D02*
X184809524Y-46276247D01*
X185285715Y-46704819D02*
X185285715Y-46038152D01*
X185285715Y-46228628D02*
X185333334Y-46133390D01*
X185333334Y-46133390D02*
X185380953Y-46085771D01*
X185380953Y-46085771D02*
X185476191Y-46038152D01*
X185476191Y-46038152D02*
X185571429Y-46038152D01*
X186333334Y-46704819D02*
X186333334Y-45704819D01*
X186333334Y-46657200D02*
X186238096Y-46704819D01*
X186238096Y-46704819D02*
X186047620Y-46704819D01*
X186047620Y-46704819D02*
X185952382Y-46657200D01*
X185952382Y-46657200D02*
X185904763Y-46609580D01*
X185904763Y-46609580D02*
X185857144Y-46514342D01*
X185857144Y-46514342D02*
X185857144Y-46228628D01*
X185857144Y-46228628D02*
X185904763Y-46133390D01*
X185904763Y-46133390D02*
X185952382Y-46085771D01*
X185952382Y-46085771D02*
X186047620Y-46038152D01*
X186047620Y-46038152D02*
X186238096Y-46038152D01*
X186238096Y-46038152D02*
X186333334Y-46085771D01*
X187333334Y-46704819D02*
X186761906Y-46704819D01*
X187047620Y-46704819D02*
X187047620Y-45704819D01*
X187047620Y-45704819D02*
X186952382Y-45847676D01*
X186952382Y-45847676D02*
X186857144Y-45942914D01*
X186857144Y-45942914D02*
X186761906Y-45990533D01*
D11*
X64988095Y-203659800D02*
X65130952Y-203707419D01*
X65130952Y-203707419D02*
X65369047Y-203707419D01*
X65369047Y-203707419D02*
X65464285Y-203659800D01*
X65464285Y-203659800D02*
X65511904Y-203612180D01*
X65511904Y-203612180D02*
X65559523Y-203516942D01*
X65559523Y-203516942D02*
X65559523Y-203421704D01*
X65559523Y-203421704D02*
X65511904Y-203326466D01*
X65511904Y-203326466D02*
X65464285Y-203278847D01*
X65464285Y-203278847D02*
X65369047Y-203231228D01*
X65369047Y-203231228D02*
X65178571Y-203183609D01*
X65178571Y-203183609D02*
X65083333Y-203135990D01*
X65083333Y-203135990D02*
X65035714Y-203088371D01*
X65035714Y-203088371D02*
X64988095Y-202993133D01*
X64988095Y-202993133D02*
X64988095Y-202897895D01*
X64988095Y-202897895D02*
X65035714Y-202802657D01*
X65035714Y-202802657D02*
X65083333Y-202755038D01*
X65083333Y-202755038D02*
X65178571Y-202707419D01*
X65178571Y-202707419D02*
X65416666Y-202707419D01*
X65416666Y-202707419D02*
X65559523Y-202755038D01*
X66559523Y-203612180D02*
X66511904Y-203659800D01*
X66511904Y-203659800D02*
X66369047Y-203707419D01*
X66369047Y-203707419D02*
X66273809Y-203707419D01*
X66273809Y-203707419D02*
X66130952Y-203659800D01*
X66130952Y-203659800D02*
X66035714Y-203564561D01*
X66035714Y-203564561D02*
X65988095Y-203469323D01*
X65988095Y-203469323D02*
X65940476Y-203278847D01*
X65940476Y-203278847D02*
X65940476Y-203135990D01*
X65940476Y-203135990D02*
X65988095Y-202945514D01*
X65988095Y-202945514D02*
X66035714Y-202850276D01*
X66035714Y-202850276D02*
X66130952Y-202755038D01*
X66130952Y-202755038D02*
X66273809Y-202707419D01*
X66273809Y-202707419D02*
X66369047Y-202707419D01*
X66369047Y-202707419D02*
X66511904Y-202755038D01*
X66511904Y-202755038D02*
X66559523Y-202802657D01*
X66892857Y-202707419D02*
X67511904Y-202707419D01*
X67511904Y-202707419D02*
X67178571Y-203088371D01*
X67178571Y-203088371D02*
X67321428Y-203088371D01*
X67321428Y-203088371D02*
X67416666Y-203135990D01*
X67416666Y-203135990D02*
X67464285Y-203183609D01*
X67464285Y-203183609D02*
X67511904Y-203278847D01*
X67511904Y-203278847D02*
X67511904Y-203516942D01*
X67511904Y-203516942D02*
X67464285Y-203612180D01*
X67464285Y-203612180D02*
X67416666Y-203659800D01*
X67416666Y-203659800D02*
X67321428Y-203707419D01*
X67321428Y-203707419D02*
X67035714Y-203707419D01*
X67035714Y-203707419D02*
X66940476Y-203659800D01*
X66940476Y-203659800D02*
X66892857Y-203612180D01*
D12*
X24238095Y-269204819D02*
X24238095Y-268204819D01*
X24238095Y-268681009D02*
X24809523Y-268681009D01*
X24809523Y-269204819D02*
X24809523Y-268204819D01*
X25190476Y-268204819D02*
X25809523Y-268204819D01*
X25809523Y-268204819D02*
X25476190Y-268585771D01*
X25476190Y-268585771D02*
X25619047Y-268585771D01*
X25619047Y-268585771D02*
X25714285Y-268633390D01*
X25714285Y-268633390D02*
X25761904Y-268681009D01*
X25761904Y-268681009D02*
X25809523Y-268776247D01*
X25809523Y-268776247D02*
X25809523Y-269014342D01*
X25809523Y-269014342D02*
X25761904Y-269109580D01*
X25761904Y-269109580D02*
X25714285Y-269157200D01*
X25714285Y-269157200D02*
X25619047Y-269204819D01*
X25619047Y-269204819D02*
X25333333Y-269204819D01*
X25333333Y-269204819D02*
X25238095Y-269157200D01*
X25238095Y-269157200D02*
X25190476Y-269109580D01*
D11*
X355761905Y-134909800D02*
X355904762Y-134957419D01*
X355904762Y-134957419D02*
X356142857Y-134957419D01*
X356142857Y-134957419D02*
X356238095Y-134909800D01*
X356238095Y-134909800D02*
X356285714Y-134862180D01*
X356285714Y-134862180D02*
X356333333Y-134766942D01*
X356333333Y-134766942D02*
X356333333Y-134671704D01*
X356333333Y-134671704D02*
X356285714Y-134576466D01*
X356285714Y-134576466D02*
X356238095Y-134528847D01*
X356238095Y-134528847D02*
X356142857Y-134481228D01*
X356142857Y-134481228D02*
X355952381Y-134433609D01*
X355952381Y-134433609D02*
X355857143Y-134385990D01*
X355857143Y-134385990D02*
X355809524Y-134338371D01*
X355809524Y-134338371D02*
X355761905Y-134243133D01*
X355761905Y-134243133D02*
X355761905Y-134147895D01*
X355761905Y-134147895D02*
X355809524Y-134052657D01*
X355809524Y-134052657D02*
X355857143Y-134005038D01*
X355857143Y-134005038D02*
X355952381Y-133957419D01*
X355952381Y-133957419D02*
X356190476Y-133957419D01*
X356190476Y-133957419D02*
X356333333Y-134005038D01*
X357333333Y-134862180D02*
X357285714Y-134909800D01*
X357285714Y-134909800D02*
X357142857Y-134957419D01*
X357142857Y-134957419D02*
X357047619Y-134957419D01*
X357047619Y-134957419D02*
X356904762Y-134909800D01*
X356904762Y-134909800D02*
X356809524Y-134814561D01*
X356809524Y-134814561D02*
X356761905Y-134719323D01*
X356761905Y-134719323D02*
X356714286Y-134528847D01*
X356714286Y-134528847D02*
X356714286Y-134385990D01*
X356714286Y-134385990D02*
X356761905Y-134195514D01*
X356761905Y-134195514D02*
X356809524Y-134100276D01*
X356809524Y-134100276D02*
X356904762Y-134005038D01*
X356904762Y-134005038D02*
X357047619Y-133957419D01*
X357047619Y-133957419D02*
X357142857Y-133957419D01*
X357142857Y-133957419D02*
X357285714Y-134005038D01*
X357285714Y-134005038D02*
X357333333Y-134052657D01*
X358285714Y-134957419D02*
X357714286Y-134957419D01*
X358000000Y-134957419D02*
X358000000Y-133957419D01*
X358000000Y-133957419D02*
X357904762Y-134100276D01*
X357904762Y-134100276D02*
X357809524Y-134195514D01*
X357809524Y-134195514D02*
X357714286Y-134243133D01*
X358857143Y-134385990D02*
X358761905Y-134338371D01*
X358761905Y-134338371D02*
X358714286Y-134290752D01*
X358714286Y-134290752D02*
X358666667Y-134195514D01*
X358666667Y-134195514D02*
X358666667Y-134147895D01*
X358666667Y-134147895D02*
X358714286Y-134052657D01*
X358714286Y-134052657D02*
X358761905Y-134005038D01*
X358761905Y-134005038D02*
X358857143Y-133957419D01*
X358857143Y-133957419D02*
X359047619Y-133957419D01*
X359047619Y-133957419D02*
X359142857Y-134005038D01*
X359142857Y-134005038D02*
X359190476Y-134052657D01*
X359190476Y-134052657D02*
X359238095Y-134147895D01*
X359238095Y-134147895D02*
X359238095Y-134195514D01*
X359238095Y-134195514D02*
X359190476Y-134290752D01*
X359190476Y-134290752D02*
X359142857Y-134338371D01*
X359142857Y-134338371D02*
X359047619Y-134385990D01*
X359047619Y-134385990D02*
X358857143Y-134385990D01*
X358857143Y-134385990D02*
X358761905Y-134433609D01*
X358761905Y-134433609D02*
X358714286Y-134481228D01*
X358714286Y-134481228D02*
X358666667Y-134576466D01*
X358666667Y-134576466D02*
X358666667Y-134766942D01*
X358666667Y-134766942D02*
X358714286Y-134862180D01*
X358714286Y-134862180D02*
X358761905Y-134909800D01*
X358761905Y-134909800D02*
X358857143Y-134957419D01*
X358857143Y-134957419D02*
X359047619Y-134957419D01*
X359047619Y-134957419D02*
X359142857Y-134909800D01*
X359142857Y-134909800D02*
X359190476Y-134862180D01*
X359190476Y-134862180D02*
X359238095Y-134766942D01*
X359238095Y-134766942D02*
X359238095Y-134576466D01*
X359238095Y-134576466D02*
X359190476Y-134481228D01*
X359190476Y-134481228D02*
X359142857Y-134433609D01*
X359142857Y-134433609D02*
X359047619Y-134385990D01*
D12*
X397988095Y-242954819D02*
X397988095Y-241954819D01*
X397988095Y-242431009D02*
X398559523Y-242431009D01*
X398559523Y-242954819D02*
X398559523Y-241954819D01*
X399178571Y-242383390D02*
X399083333Y-242335771D01*
X399083333Y-242335771D02*
X399035714Y-242288152D01*
X399035714Y-242288152D02*
X398988095Y-242192914D01*
X398988095Y-242192914D02*
X398988095Y-242145295D01*
X398988095Y-242145295D02*
X399035714Y-242050057D01*
X399035714Y-242050057D02*
X399083333Y-242002438D01*
X399083333Y-242002438D02*
X399178571Y-241954819D01*
X399178571Y-241954819D02*
X399369047Y-241954819D01*
X399369047Y-241954819D02*
X399464285Y-242002438D01*
X399464285Y-242002438D02*
X399511904Y-242050057D01*
X399511904Y-242050057D02*
X399559523Y-242145295D01*
X399559523Y-242145295D02*
X399559523Y-242192914D01*
X399559523Y-242192914D02*
X399511904Y-242288152D01*
X399511904Y-242288152D02*
X399464285Y-242335771D01*
X399464285Y-242335771D02*
X399369047Y-242383390D01*
X399369047Y-242383390D02*
X399178571Y-242383390D01*
X399178571Y-242383390D02*
X399083333Y-242431009D01*
X399083333Y-242431009D02*
X399035714Y-242478628D01*
X399035714Y-242478628D02*
X398988095Y-242573866D01*
X398988095Y-242573866D02*
X398988095Y-242764342D01*
X398988095Y-242764342D02*
X399035714Y-242859580D01*
X399035714Y-242859580D02*
X399083333Y-242907200D01*
X399083333Y-242907200D02*
X399178571Y-242954819D01*
X399178571Y-242954819D02*
X399369047Y-242954819D01*
X399369047Y-242954819D02*
X399464285Y-242907200D01*
X399464285Y-242907200D02*
X399511904Y-242859580D01*
X399511904Y-242859580D02*
X399559523Y-242764342D01*
X399559523Y-242764342D02*
X399559523Y-242573866D01*
X399559523Y-242573866D02*
X399511904Y-242478628D01*
X399511904Y-242478628D02*
X399464285Y-242431009D01*
X399464285Y-242431009D02*
X399369047Y-242383390D01*
D11*
X263261905Y-134909800D02*
X263404762Y-134957419D01*
X263404762Y-134957419D02*
X263642857Y-134957419D01*
X263642857Y-134957419D02*
X263738095Y-134909800D01*
X263738095Y-134909800D02*
X263785714Y-134862180D01*
X263785714Y-134862180D02*
X263833333Y-134766942D01*
X263833333Y-134766942D02*
X263833333Y-134671704D01*
X263833333Y-134671704D02*
X263785714Y-134576466D01*
X263785714Y-134576466D02*
X263738095Y-134528847D01*
X263738095Y-134528847D02*
X263642857Y-134481228D01*
X263642857Y-134481228D02*
X263452381Y-134433609D01*
X263452381Y-134433609D02*
X263357143Y-134385990D01*
X263357143Y-134385990D02*
X263309524Y-134338371D01*
X263309524Y-134338371D02*
X263261905Y-134243133D01*
X263261905Y-134243133D02*
X263261905Y-134147895D01*
X263261905Y-134147895D02*
X263309524Y-134052657D01*
X263309524Y-134052657D02*
X263357143Y-134005038D01*
X263357143Y-134005038D02*
X263452381Y-133957419D01*
X263452381Y-133957419D02*
X263690476Y-133957419D01*
X263690476Y-133957419D02*
X263833333Y-134005038D01*
X264833333Y-134862180D02*
X264785714Y-134909800D01*
X264785714Y-134909800D02*
X264642857Y-134957419D01*
X264642857Y-134957419D02*
X264547619Y-134957419D01*
X264547619Y-134957419D02*
X264404762Y-134909800D01*
X264404762Y-134909800D02*
X264309524Y-134814561D01*
X264309524Y-134814561D02*
X264261905Y-134719323D01*
X264261905Y-134719323D02*
X264214286Y-134528847D01*
X264214286Y-134528847D02*
X264214286Y-134385990D01*
X264214286Y-134385990D02*
X264261905Y-134195514D01*
X264261905Y-134195514D02*
X264309524Y-134100276D01*
X264309524Y-134100276D02*
X264404762Y-134005038D01*
X264404762Y-134005038D02*
X264547619Y-133957419D01*
X264547619Y-133957419D02*
X264642857Y-133957419D01*
X264642857Y-133957419D02*
X264785714Y-134005038D01*
X264785714Y-134005038D02*
X264833333Y-134052657D01*
X265785714Y-134957419D02*
X265214286Y-134957419D01*
X265500000Y-134957419D02*
X265500000Y-133957419D01*
X265500000Y-133957419D02*
X265404762Y-134100276D01*
X265404762Y-134100276D02*
X265309524Y-134195514D01*
X265309524Y-134195514D02*
X265214286Y-134243133D01*
X266642857Y-134290752D02*
X266642857Y-134957419D01*
X266404762Y-133909800D02*
X266166667Y-134624085D01*
X266166667Y-134624085D02*
X266785714Y-134624085D01*
D12*
X288454819Y-25333333D02*
X289169104Y-25333333D01*
X289169104Y-25333333D02*
X289311961Y-25380952D01*
X289311961Y-25380952D02*
X289407200Y-25476190D01*
X289407200Y-25476190D02*
X289454819Y-25619047D01*
X289454819Y-25619047D02*
X289454819Y-25714285D01*
X288550057Y-24904761D02*
X288502438Y-24857142D01*
X288502438Y-24857142D02*
X288454819Y-24761904D01*
X288454819Y-24761904D02*
X288454819Y-24523809D01*
X288454819Y-24523809D02*
X288502438Y-24428571D01*
X288502438Y-24428571D02*
X288550057Y-24380952D01*
X288550057Y-24380952D02*
X288645295Y-24333333D01*
X288645295Y-24333333D02*
X288740533Y-24333333D01*
X288740533Y-24333333D02*
X288883390Y-24380952D01*
X288883390Y-24380952D02*
X289454819Y-24952380D01*
X289454819Y-24952380D02*
X289454819Y-24333333D01*
D11*
X64988095Y-161159800D02*
X65130952Y-161207419D01*
X65130952Y-161207419D02*
X65369047Y-161207419D01*
X65369047Y-161207419D02*
X65464285Y-161159800D01*
X65464285Y-161159800D02*
X65511904Y-161112180D01*
X65511904Y-161112180D02*
X65559523Y-161016942D01*
X65559523Y-161016942D02*
X65559523Y-160921704D01*
X65559523Y-160921704D02*
X65511904Y-160826466D01*
X65511904Y-160826466D02*
X65464285Y-160778847D01*
X65464285Y-160778847D02*
X65369047Y-160731228D01*
X65369047Y-160731228D02*
X65178571Y-160683609D01*
X65178571Y-160683609D02*
X65083333Y-160635990D01*
X65083333Y-160635990D02*
X65035714Y-160588371D01*
X65035714Y-160588371D02*
X64988095Y-160493133D01*
X64988095Y-160493133D02*
X64988095Y-160397895D01*
X64988095Y-160397895D02*
X65035714Y-160302657D01*
X65035714Y-160302657D02*
X65083333Y-160255038D01*
X65083333Y-160255038D02*
X65178571Y-160207419D01*
X65178571Y-160207419D02*
X65416666Y-160207419D01*
X65416666Y-160207419D02*
X65559523Y-160255038D01*
X66559523Y-161112180D02*
X66511904Y-161159800D01*
X66511904Y-161159800D02*
X66369047Y-161207419D01*
X66369047Y-161207419D02*
X66273809Y-161207419D01*
X66273809Y-161207419D02*
X66130952Y-161159800D01*
X66130952Y-161159800D02*
X66035714Y-161064561D01*
X66035714Y-161064561D02*
X65988095Y-160969323D01*
X65988095Y-160969323D02*
X65940476Y-160778847D01*
X65940476Y-160778847D02*
X65940476Y-160635990D01*
X65940476Y-160635990D02*
X65988095Y-160445514D01*
X65988095Y-160445514D02*
X66035714Y-160350276D01*
X66035714Y-160350276D02*
X66130952Y-160255038D01*
X66130952Y-160255038D02*
X66273809Y-160207419D01*
X66273809Y-160207419D02*
X66369047Y-160207419D01*
X66369047Y-160207419D02*
X66511904Y-160255038D01*
X66511904Y-160255038D02*
X66559523Y-160302657D01*
X66940476Y-160302657D02*
X66988095Y-160255038D01*
X66988095Y-160255038D02*
X67083333Y-160207419D01*
X67083333Y-160207419D02*
X67321428Y-160207419D01*
X67321428Y-160207419D02*
X67416666Y-160255038D01*
X67416666Y-160255038D02*
X67464285Y-160302657D01*
X67464285Y-160302657D02*
X67511904Y-160397895D01*
X67511904Y-160397895D02*
X67511904Y-160493133D01*
X67511904Y-160493133D02*
X67464285Y-160635990D01*
X67464285Y-160635990D02*
X66892857Y-161207419D01*
X66892857Y-161207419D02*
X67511904Y-161207419D01*
X157488095Y-118659800D02*
X157630952Y-118707419D01*
X157630952Y-118707419D02*
X157869047Y-118707419D01*
X157869047Y-118707419D02*
X157964285Y-118659800D01*
X157964285Y-118659800D02*
X158011904Y-118612180D01*
X158011904Y-118612180D02*
X158059523Y-118516942D01*
X158059523Y-118516942D02*
X158059523Y-118421704D01*
X158059523Y-118421704D02*
X158011904Y-118326466D01*
X158011904Y-118326466D02*
X157964285Y-118278847D01*
X157964285Y-118278847D02*
X157869047Y-118231228D01*
X157869047Y-118231228D02*
X157678571Y-118183609D01*
X157678571Y-118183609D02*
X157583333Y-118135990D01*
X157583333Y-118135990D02*
X157535714Y-118088371D01*
X157535714Y-118088371D02*
X157488095Y-117993133D01*
X157488095Y-117993133D02*
X157488095Y-117897895D01*
X157488095Y-117897895D02*
X157535714Y-117802657D01*
X157535714Y-117802657D02*
X157583333Y-117755038D01*
X157583333Y-117755038D02*
X157678571Y-117707419D01*
X157678571Y-117707419D02*
X157916666Y-117707419D01*
X157916666Y-117707419D02*
X158059523Y-117755038D01*
X159059523Y-118612180D02*
X159011904Y-118659800D01*
X159011904Y-118659800D02*
X158869047Y-118707419D01*
X158869047Y-118707419D02*
X158773809Y-118707419D01*
X158773809Y-118707419D02*
X158630952Y-118659800D01*
X158630952Y-118659800D02*
X158535714Y-118564561D01*
X158535714Y-118564561D02*
X158488095Y-118469323D01*
X158488095Y-118469323D02*
X158440476Y-118278847D01*
X158440476Y-118278847D02*
X158440476Y-118135990D01*
X158440476Y-118135990D02*
X158488095Y-117945514D01*
X158488095Y-117945514D02*
X158535714Y-117850276D01*
X158535714Y-117850276D02*
X158630952Y-117755038D01*
X158630952Y-117755038D02*
X158773809Y-117707419D01*
X158773809Y-117707419D02*
X158869047Y-117707419D01*
X158869047Y-117707419D02*
X159011904Y-117755038D01*
X159011904Y-117755038D02*
X159059523Y-117802657D01*
X159964285Y-117707419D02*
X159488095Y-117707419D01*
X159488095Y-117707419D02*
X159440476Y-118183609D01*
X159440476Y-118183609D02*
X159488095Y-118135990D01*
X159488095Y-118135990D02*
X159583333Y-118088371D01*
X159583333Y-118088371D02*
X159821428Y-118088371D01*
X159821428Y-118088371D02*
X159916666Y-118135990D01*
X159916666Y-118135990D02*
X159964285Y-118183609D01*
X159964285Y-118183609D02*
X160011904Y-118278847D01*
X160011904Y-118278847D02*
X160011904Y-118516942D01*
X160011904Y-118516942D02*
X159964285Y-118612180D01*
X159964285Y-118612180D02*
X159916666Y-118659800D01*
X159916666Y-118659800D02*
X159821428Y-118707419D01*
X159821428Y-118707419D02*
X159583333Y-118707419D01*
X159583333Y-118707419D02*
X159488095Y-118659800D01*
X159488095Y-118659800D02*
X159440476Y-118612180D01*
X64988095Y-76159800D02*
X65130952Y-76207419D01*
X65130952Y-76207419D02*
X65369047Y-76207419D01*
X65369047Y-76207419D02*
X65464285Y-76159800D01*
X65464285Y-76159800D02*
X65511904Y-76112180D01*
X65511904Y-76112180D02*
X65559523Y-76016942D01*
X65559523Y-76016942D02*
X65559523Y-75921704D01*
X65559523Y-75921704D02*
X65511904Y-75826466D01*
X65511904Y-75826466D02*
X65464285Y-75778847D01*
X65464285Y-75778847D02*
X65369047Y-75731228D01*
X65369047Y-75731228D02*
X65178571Y-75683609D01*
X65178571Y-75683609D02*
X65083333Y-75635990D01*
X65083333Y-75635990D02*
X65035714Y-75588371D01*
X65035714Y-75588371D02*
X64988095Y-75493133D01*
X64988095Y-75493133D02*
X64988095Y-75397895D01*
X64988095Y-75397895D02*
X65035714Y-75302657D01*
X65035714Y-75302657D02*
X65083333Y-75255038D01*
X65083333Y-75255038D02*
X65178571Y-75207419D01*
X65178571Y-75207419D02*
X65416666Y-75207419D01*
X65416666Y-75207419D02*
X65559523Y-75255038D01*
X66559523Y-76112180D02*
X66511904Y-76159800D01*
X66511904Y-76159800D02*
X66369047Y-76207419D01*
X66369047Y-76207419D02*
X66273809Y-76207419D01*
X66273809Y-76207419D02*
X66130952Y-76159800D01*
X66130952Y-76159800D02*
X66035714Y-76064561D01*
X66035714Y-76064561D02*
X65988095Y-75969323D01*
X65988095Y-75969323D02*
X65940476Y-75778847D01*
X65940476Y-75778847D02*
X65940476Y-75635990D01*
X65940476Y-75635990D02*
X65988095Y-75445514D01*
X65988095Y-75445514D02*
X66035714Y-75350276D01*
X66035714Y-75350276D02*
X66130952Y-75255038D01*
X66130952Y-75255038D02*
X66273809Y-75207419D01*
X66273809Y-75207419D02*
X66369047Y-75207419D01*
X66369047Y-75207419D02*
X66511904Y-75255038D01*
X66511904Y-75255038D02*
X66559523Y-75302657D01*
X67035714Y-76207419D02*
X67226190Y-76207419D01*
X67226190Y-76207419D02*
X67321428Y-76159800D01*
X67321428Y-76159800D02*
X67369047Y-76112180D01*
X67369047Y-76112180D02*
X67464285Y-75969323D01*
X67464285Y-75969323D02*
X67511904Y-75778847D01*
X67511904Y-75778847D02*
X67511904Y-75397895D01*
X67511904Y-75397895D02*
X67464285Y-75302657D01*
X67464285Y-75302657D02*
X67416666Y-75255038D01*
X67416666Y-75255038D02*
X67321428Y-75207419D01*
X67321428Y-75207419D02*
X67130952Y-75207419D01*
X67130952Y-75207419D02*
X67035714Y-75255038D01*
X67035714Y-75255038D02*
X66988095Y-75302657D01*
X66988095Y-75302657D02*
X66940476Y-75397895D01*
X66940476Y-75397895D02*
X66940476Y-75635990D01*
X66940476Y-75635990D02*
X66988095Y-75731228D01*
X66988095Y-75731228D02*
X67035714Y-75778847D01*
X67035714Y-75778847D02*
X67130952Y-75826466D01*
X67130952Y-75826466D02*
X67321428Y-75826466D01*
X67321428Y-75826466D02*
X67416666Y-75778847D01*
X67416666Y-75778847D02*
X67464285Y-75731228D01*
X67464285Y-75731228D02*
X67511904Y-75635990D01*
X64988095Y-246159800D02*
X65130952Y-246207419D01*
X65130952Y-246207419D02*
X65369047Y-246207419D01*
X65369047Y-246207419D02*
X65464285Y-246159800D01*
X65464285Y-246159800D02*
X65511904Y-246112180D01*
X65511904Y-246112180D02*
X65559523Y-246016942D01*
X65559523Y-246016942D02*
X65559523Y-245921704D01*
X65559523Y-245921704D02*
X65511904Y-245826466D01*
X65511904Y-245826466D02*
X65464285Y-245778847D01*
X65464285Y-245778847D02*
X65369047Y-245731228D01*
X65369047Y-245731228D02*
X65178571Y-245683609D01*
X65178571Y-245683609D02*
X65083333Y-245635990D01*
X65083333Y-245635990D02*
X65035714Y-245588371D01*
X65035714Y-245588371D02*
X64988095Y-245493133D01*
X64988095Y-245493133D02*
X64988095Y-245397895D01*
X64988095Y-245397895D02*
X65035714Y-245302657D01*
X65035714Y-245302657D02*
X65083333Y-245255038D01*
X65083333Y-245255038D02*
X65178571Y-245207419D01*
X65178571Y-245207419D02*
X65416666Y-245207419D01*
X65416666Y-245207419D02*
X65559523Y-245255038D01*
X66559523Y-246112180D02*
X66511904Y-246159800D01*
X66511904Y-246159800D02*
X66369047Y-246207419D01*
X66369047Y-246207419D02*
X66273809Y-246207419D01*
X66273809Y-246207419D02*
X66130952Y-246159800D01*
X66130952Y-246159800D02*
X66035714Y-246064561D01*
X66035714Y-246064561D02*
X65988095Y-245969323D01*
X65988095Y-245969323D02*
X65940476Y-245778847D01*
X65940476Y-245778847D02*
X65940476Y-245635990D01*
X65940476Y-245635990D02*
X65988095Y-245445514D01*
X65988095Y-245445514D02*
X66035714Y-245350276D01*
X66035714Y-245350276D02*
X66130952Y-245255038D01*
X66130952Y-245255038D02*
X66273809Y-245207419D01*
X66273809Y-245207419D02*
X66369047Y-245207419D01*
X66369047Y-245207419D02*
X66511904Y-245255038D01*
X66511904Y-245255038D02*
X66559523Y-245302657D01*
X67416666Y-245540752D02*
X67416666Y-246207419D01*
X67178571Y-245159800D02*
X66940476Y-245874085D01*
X66940476Y-245874085D02*
X67559523Y-245874085D01*
X263261905Y-219909800D02*
X263404762Y-219957419D01*
X263404762Y-219957419D02*
X263642857Y-219957419D01*
X263642857Y-219957419D02*
X263738095Y-219909800D01*
X263738095Y-219909800D02*
X263785714Y-219862180D01*
X263785714Y-219862180D02*
X263833333Y-219766942D01*
X263833333Y-219766942D02*
X263833333Y-219671704D01*
X263833333Y-219671704D02*
X263785714Y-219576466D01*
X263785714Y-219576466D02*
X263738095Y-219528847D01*
X263738095Y-219528847D02*
X263642857Y-219481228D01*
X263642857Y-219481228D02*
X263452381Y-219433609D01*
X263452381Y-219433609D02*
X263357143Y-219385990D01*
X263357143Y-219385990D02*
X263309524Y-219338371D01*
X263309524Y-219338371D02*
X263261905Y-219243133D01*
X263261905Y-219243133D02*
X263261905Y-219147895D01*
X263261905Y-219147895D02*
X263309524Y-219052657D01*
X263309524Y-219052657D02*
X263357143Y-219005038D01*
X263357143Y-219005038D02*
X263452381Y-218957419D01*
X263452381Y-218957419D02*
X263690476Y-218957419D01*
X263690476Y-218957419D02*
X263833333Y-219005038D01*
X264833333Y-219862180D02*
X264785714Y-219909800D01*
X264785714Y-219909800D02*
X264642857Y-219957419D01*
X264642857Y-219957419D02*
X264547619Y-219957419D01*
X264547619Y-219957419D02*
X264404762Y-219909800D01*
X264404762Y-219909800D02*
X264309524Y-219814561D01*
X264309524Y-219814561D02*
X264261905Y-219719323D01*
X264261905Y-219719323D02*
X264214286Y-219528847D01*
X264214286Y-219528847D02*
X264214286Y-219385990D01*
X264214286Y-219385990D02*
X264261905Y-219195514D01*
X264261905Y-219195514D02*
X264309524Y-219100276D01*
X264309524Y-219100276D02*
X264404762Y-219005038D01*
X264404762Y-219005038D02*
X264547619Y-218957419D01*
X264547619Y-218957419D02*
X264642857Y-218957419D01*
X264642857Y-218957419D02*
X264785714Y-219005038D01*
X264785714Y-219005038D02*
X264833333Y-219052657D01*
X265785714Y-219957419D02*
X265214286Y-219957419D01*
X265500000Y-219957419D02*
X265500000Y-218957419D01*
X265500000Y-218957419D02*
X265404762Y-219100276D01*
X265404762Y-219100276D02*
X265309524Y-219195514D01*
X265309524Y-219195514D02*
X265214286Y-219243133D01*
X266642857Y-218957419D02*
X266452381Y-218957419D01*
X266452381Y-218957419D02*
X266357143Y-219005038D01*
X266357143Y-219005038D02*
X266309524Y-219052657D01*
X266309524Y-219052657D02*
X266214286Y-219195514D01*
X266214286Y-219195514D02*
X266166667Y-219385990D01*
X266166667Y-219385990D02*
X266166667Y-219766942D01*
X266166667Y-219766942D02*
X266214286Y-219862180D01*
X266214286Y-219862180D02*
X266261905Y-219909800D01*
X266261905Y-219909800D02*
X266357143Y-219957419D01*
X266357143Y-219957419D02*
X266547619Y-219957419D01*
X266547619Y-219957419D02*
X266642857Y-219909800D01*
X266642857Y-219909800D02*
X266690476Y-219862180D01*
X266690476Y-219862180D02*
X266738095Y-219766942D01*
X266738095Y-219766942D02*
X266738095Y-219528847D01*
X266738095Y-219528847D02*
X266690476Y-219433609D01*
X266690476Y-219433609D02*
X266642857Y-219385990D01*
X266642857Y-219385990D02*
X266547619Y-219338371D01*
X266547619Y-219338371D02*
X266357143Y-219338371D01*
X266357143Y-219338371D02*
X266261905Y-219385990D01*
X266261905Y-219385990D02*
X266214286Y-219433609D01*
X266214286Y-219433609D02*
X266166667Y-219528847D01*
X355761905Y-49909800D02*
X355904762Y-49957419D01*
X355904762Y-49957419D02*
X356142857Y-49957419D01*
X356142857Y-49957419D02*
X356238095Y-49909800D01*
X356238095Y-49909800D02*
X356285714Y-49862180D01*
X356285714Y-49862180D02*
X356333333Y-49766942D01*
X356333333Y-49766942D02*
X356333333Y-49671704D01*
X356333333Y-49671704D02*
X356285714Y-49576466D01*
X356285714Y-49576466D02*
X356238095Y-49528847D01*
X356238095Y-49528847D02*
X356142857Y-49481228D01*
X356142857Y-49481228D02*
X355952381Y-49433609D01*
X355952381Y-49433609D02*
X355857143Y-49385990D01*
X355857143Y-49385990D02*
X355809524Y-49338371D01*
X355809524Y-49338371D02*
X355761905Y-49243133D01*
X355761905Y-49243133D02*
X355761905Y-49147895D01*
X355761905Y-49147895D02*
X355809524Y-49052657D01*
X355809524Y-49052657D02*
X355857143Y-49005038D01*
X355857143Y-49005038D02*
X355952381Y-48957419D01*
X355952381Y-48957419D02*
X356190476Y-48957419D01*
X356190476Y-48957419D02*
X356333333Y-49005038D01*
X357333333Y-49862180D02*
X357285714Y-49909800D01*
X357285714Y-49909800D02*
X357142857Y-49957419D01*
X357142857Y-49957419D02*
X357047619Y-49957419D01*
X357047619Y-49957419D02*
X356904762Y-49909800D01*
X356904762Y-49909800D02*
X356809524Y-49814561D01*
X356809524Y-49814561D02*
X356761905Y-49719323D01*
X356761905Y-49719323D02*
X356714286Y-49528847D01*
X356714286Y-49528847D02*
X356714286Y-49385990D01*
X356714286Y-49385990D02*
X356761905Y-49195514D01*
X356761905Y-49195514D02*
X356809524Y-49100276D01*
X356809524Y-49100276D02*
X356904762Y-49005038D01*
X356904762Y-49005038D02*
X357047619Y-48957419D01*
X357047619Y-48957419D02*
X357142857Y-48957419D01*
X357142857Y-48957419D02*
X357285714Y-49005038D01*
X357285714Y-49005038D02*
X357333333Y-49052657D01*
X358285714Y-49957419D02*
X357714286Y-49957419D01*
X358000000Y-49957419D02*
X358000000Y-48957419D01*
X358000000Y-48957419D02*
X357904762Y-49100276D01*
X357904762Y-49100276D02*
X357809524Y-49195514D01*
X357809524Y-49195514D02*
X357714286Y-49243133D01*
X358666667Y-49052657D02*
X358714286Y-49005038D01*
X358714286Y-49005038D02*
X358809524Y-48957419D01*
X358809524Y-48957419D02*
X359047619Y-48957419D01*
X359047619Y-48957419D02*
X359142857Y-49005038D01*
X359142857Y-49005038D02*
X359190476Y-49052657D01*
X359190476Y-49052657D02*
X359238095Y-49147895D01*
X359238095Y-49147895D02*
X359238095Y-49243133D01*
X359238095Y-49243133D02*
X359190476Y-49385990D01*
X359190476Y-49385990D02*
X358619048Y-49957419D01*
X358619048Y-49957419D02*
X359238095Y-49957419D01*
X263261905Y-92409800D02*
X263404762Y-92457419D01*
X263404762Y-92457419D02*
X263642857Y-92457419D01*
X263642857Y-92457419D02*
X263738095Y-92409800D01*
X263738095Y-92409800D02*
X263785714Y-92362180D01*
X263785714Y-92362180D02*
X263833333Y-92266942D01*
X263833333Y-92266942D02*
X263833333Y-92171704D01*
X263833333Y-92171704D02*
X263785714Y-92076466D01*
X263785714Y-92076466D02*
X263738095Y-92028847D01*
X263738095Y-92028847D02*
X263642857Y-91981228D01*
X263642857Y-91981228D02*
X263452381Y-91933609D01*
X263452381Y-91933609D02*
X263357143Y-91885990D01*
X263357143Y-91885990D02*
X263309524Y-91838371D01*
X263309524Y-91838371D02*
X263261905Y-91743133D01*
X263261905Y-91743133D02*
X263261905Y-91647895D01*
X263261905Y-91647895D02*
X263309524Y-91552657D01*
X263309524Y-91552657D02*
X263357143Y-91505038D01*
X263357143Y-91505038D02*
X263452381Y-91457419D01*
X263452381Y-91457419D02*
X263690476Y-91457419D01*
X263690476Y-91457419D02*
X263833333Y-91505038D01*
X264833333Y-92362180D02*
X264785714Y-92409800D01*
X264785714Y-92409800D02*
X264642857Y-92457419D01*
X264642857Y-92457419D02*
X264547619Y-92457419D01*
X264547619Y-92457419D02*
X264404762Y-92409800D01*
X264404762Y-92409800D02*
X264309524Y-92314561D01*
X264309524Y-92314561D02*
X264261905Y-92219323D01*
X264261905Y-92219323D02*
X264214286Y-92028847D01*
X264214286Y-92028847D02*
X264214286Y-91885990D01*
X264214286Y-91885990D02*
X264261905Y-91695514D01*
X264261905Y-91695514D02*
X264309524Y-91600276D01*
X264309524Y-91600276D02*
X264404762Y-91505038D01*
X264404762Y-91505038D02*
X264547619Y-91457419D01*
X264547619Y-91457419D02*
X264642857Y-91457419D01*
X264642857Y-91457419D02*
X264785714Y-91505038D01*
X264785714Y-91505038D02*
X264833333Y-91552657D01*
X265785714Y-92457419D02*
X265214286Y-92457419D01*
X265500000Y-92457419D02*
X265500000Y-91457419D01*
X265500000Y-91457419D02*
X265404762Y-91600276D01*
X265404762Y-91600276D02*
X265309524Y-91695514D01*
X265309524Y-91695514D02*
X265214286Y-91743133D01*
X266119048Y-91457419D02*
X266738095Y-91457419D01*
X266738095Y-91457419D02*
X266404762Y-91838371D01*
X266404762Y-91838371D02*
X266547619Y-91838371D01*
X266547619Y-91838371D02*
X266642857Y-91885990D01*
X266642857Y-91885990D02*
X266690476Y-91933609D01*
X266690476Y-91933609D02*
X266738095Y-92028847D01*
X266738095Y-92028847D02*
X266738095Y-92266942D01*
X266738095Y-92266942D02*
X266690476Y-92362180D01*
X266690476Y-92362180D02*
X266642857Y-92409800D01*
X266642857Y-92409800D02*
X266547619Y-92457419D01*
X266547619Y-92457419D02*
X266261905Y-92457419D01*
X266261905Y-92457419D02*
X266166667Y-92409800D01*
X266166667Y-92409800D02*
X266119048Y-92362180D01*
X263261905Y-177409800D02*
X263404762Y-177457419D01*
X263404762Y-177457419D02*
X263642857Y-177457419D01*
X263642857Y-177457419D02*
X263738095Y-177409800D01*
X263738095Y-177409800D02*
X263785714Y-177362180D01*
X263785714Y-177362180D02*
X263833333Y-177266942D01*
X263833333Y-177266942D02*
X263833333Y-177171704D01*
X263833333Y-177171704D02*
X263785714Y-177076466D01*
X263785714Y-177076466D02*
X263738095Y-177028847D01*
X263738095Y-177028847D02*
X263642857Y-176981228D01*
X263642857Y-176981228D02*
X263452381Y-176933609D01*
X263452381Y-176933609D02*
X263357143Y-176885990D01*
X263357143Y-176885990D02*
X263309524Y-176838371D01*
X263309524Y-176838371D02*
X263261905Y-176743133D01*
X263261905Y-176743133D02*
X263261905Y-176647895D01*
X263261905Y-176647895D02*
X263309524Y-176552657D01*
X263309524Y-176552657D02*
X263357143Y-176505038D01*
X263357143Y-176505038D02*
X263452381Y-176457419D01*
X263452381Y-176457419D02*
X263690476Y-176457419D01*
X263690476Y-176457419D02*
X263833333Y-176505038D01*
X264833333Y-177362180D02*
X264785714Y-177409800D01*
X264785714Y-177409800D02*
X264642857Y-177457419D01*
X264642857Y-177457419D02*
X264547619Y-177457419D01*
X264547619Y-177457419D02*
X264404762Y-177409800D01*
X264404762Y-177409800D02*
X264309524Y-177314561D01*
X264309524Y-177314561D02*
X264261905Y-177219323D01*
X264261905Y-177219323D02*
X264214286Y-177028847D01*
X264214286Y-177028847D02*
X264214286Y-176885990D01*
X264214286Y-176885990D02*
X264261905Y-176695514D01*
X264261905Y-176695514D02*
X264309524Y-176600276D01*
X264309524Y-176600276D02*
X264404762Y-176505038D01*
X264404762Y-176505038D02*
X264547619Y-176457419D01*
X264547619Y-176457419D02*
X264642857Y-176457419D01*
X264642857Y-176457419D02*
X264785714Y-176505038D01*
X264785714Y-176505038D02*
X264833333Y-176552657D01*
X265785714Y-177457419D02*
X265214286Y-177457419D01*
X265500000Y-177457419D02*
X265500000Y-176457419D01*
X265500000Y-176457419D02*
X265404762Y-176600276D01*
X265404762Y-176600276D02*
X265309524Y-176695514D01*
X265309524Y-176695514D02*
X265214286Y-176743133D01*
X266690476Y-176457419D02*
X266214286Y-176457419D01*
X266214286Y-176457419D02*
X266166667Y-176933609D01*
X266166667Y-176933609D02*
X266214286Y-176885990D01*
X266214286Y-176885990D02*
X266309524Y-176838371D01*
X266309524Y-176838371D02*
X266547619Y-176838371D01*
X266547619Y-176838371D02*
X266642857Y-176885990D01*
X266642857Y-176885990D02*
X266690476Y-176933609D01*
X266690476Y-176933609D02*
X266738095Y-177028847D01*
X266738095Y-177028847D02*
X266738095Y-177266942D01*
X266738095Y-177266942D02*
X266690476Y-177362180D01*
X266690476Y-177362180D02*
X266642857Y-177409800D01*
X266642857Y-177409800D02*
X266547619Y-177457419D01*
X266547619Y-177457419D02*
X266309524Y-177457419D01*
X266309524Y-177457419D02*
X266214286Y-177409800D01*
X266214286Y-177409800D02*
X266166667Y-177362180D01*
D12*
X222988095Y-20454819D02*
X222988095Y-19454819D01*
X222988095Y-19931009D02*
X223559523Y-19931009D01*
X223559523Y-20454819D02*
X223559523Y-19454819D01*
X224511904Y-19454819D02*
X224035714Y-19454819D01*
X224035714Y-19454819D02*
X223988095Y-19931009D01*
X223988095Y-19931009D02*
X224035714Y-19883390D01*
X224035714Y-19883390D02*
X224130952Y-19835771D01*
X224130952Y-19835771D02*
X224369047Y-19835771D01*
X224369047Y-19835771D02*
X224464285Y-19883390D01*
X224464285Y-19883390D02*
X224511904Y-19931009D01*
X224511904Y-19931009D02*
X224559523Y-20026247D01*
X224559523Y-20026247D02*
X224559523Y-20264342D01*
X224559523Y-20264342D02*
X224511904Y-20359580D01*
X224511904Y-20359580D02*
X224464285Y-20407200D01*
X224464285Y-20407200D02*
X224369047Y-20454819D01*
X224369047Y-20454819D02*
X224130952Y-20454819D01*
X224130952Y-20454819D02*
X224035714Y-20407200D01*
X224035714Y-20407200D02*
X223988095Y-20359580D01*
D11*
X355761905Y-177409800D02*
X355904762Y-177457419D01*
X355904762Y-177457419D02*
X356142857Y-177457419D01*
X356142857Y-177457419D02*
X356238095Y-177409800D01*
X356238095Y-177409800D02*
X356285714Y-177362180D01*
X356285714Y-177362180D02*
X356333333Y-177266942D01*
X356333333Y-177266942D02*
X356333333Y-177171704D01*
X356333333Y-177171704D02*
X356285714Y-177076466D01*
X356285714Y-177076466D02*
X356238095Y-177028847D01*
X356238095Y-177028847D02*
X356142857Y-176981228D01*
X356142857Y-176981228D02*
X355952381Y-176933609D01*
X355952381Y-176933609D02*
X355857143Y-176885990D01*
X355857143Y-176885990D02*
X355809524Y-176838371D01*
X355809524Y-176838371D02*
X355761905Y-176743133D01*
X355761905Y-176743133D02*
X355761905Y-176647895D01*
X355761905Y-176647895D02*
X355809524Y-176552657D01*
X355809524Y-176552657D02*
X355857143Y-176505038D01*
X355857143Y-176505038D02*
X355952381Y-176457419D01*
X355952381Y-176457419D02*
X356190476Y-176457419D01*
X356190476Y-176457419D02*
X356333333Y-176505038D01*
X357333333Y-177362180D02*
X357285714Y-177409800D01*
X357285714Y-177409800D02*
X357142857Y-177457419D01*
X357142857Y-177457419D02*
X357047619Y-177457419D01*
X357047619Y-177457419D02*
X356904762Y-177409800D01*
X356904762Y-177409800D02*
X356809524Y-177314561D01*
X356809524Y-177314561D02*
X356761905Y-177219323D01*
X356761905Y-177219323D02*
X356714286Y-177028847D01*
X356714286Y-177028847D02*
X356714286Y-176885990D01*
X356714286Y-176885990D02*
X356761905Y-176695514D01*
X356761905Y-176695514D02*
X356809524Y-176600276D01*
X356809524Y-176600276D02*
X356904762Y-176505038D01*
X356904762Y-176505038D02*
X357047619Y-176457419D01*
X357047619Y-176457419D02*
X357142857Y-176457419D01*
X357142857Y-176457419D02*
X357285714Y-176505038D01*
X357285714Y-176505038D02*
X357333333Y-176552657D01*
X358285714Y-177457419D02*
X357714286Y-177457419D01*
X358000000Y-177457419D02*
X358000000Y-176457419D01*
X358000000Y-176457419D02*
X357904762Y-176600276D01*
X357904762Y-176600276D02*
X357809524Y-176695514D01*
X357809524Y-176695514D02*
X357714286Y-176743133D01*
X358761905Y-177457419D02*
X358952381Y-177457419D01*
X358952381Y-177457419D02*
X359047619Y-177409800D01*
X359047619Y-177409800D02*
X359095238Y-177362180D01*
X359095238Y-177362180D02*
X359190476Y-177219323D01*
X359190476Y-177219323D02*
X359238095Y-177028847D01*
X359238095Y-177028847D02*
X359238095Y-176647895D01*
X359238095Y-176647895D02*
X359190476Y-176552657D01*
X359190476Y-176552657D02*
X359142857Y-176505038D01*
X359142857Y-176505038D02*
X359047619Y-176457419D01*
X359047619Y-176457419D02*
X358857143Y-176457419D01*
X358857143Y-176457419D02*
X358761905Y-176505038D01*
X358761905Y-176505038D02*
X358714286Y-176552657D01*
X358714286Y-176552657D02*
X358666667Y-176647895D01*
X358666667Y-176647895D02*
X358666667Y-176885990D01*
X358666667Y-176885990D02*
X358714286Y-176981228D01*
X358714286Y-176981228D02*
X358761905Y-177028847D01*
X358761905Y-177028847D02*
X358857143Y-177076466D01*
X358857143Y-177076466D02*
X359047619Y-177076466D01*
X359047619Y-177076466D02*
X359142857Y-177028847D01*
X359142857Y-177028847D02*
X359190476Y-176981228D01*
X359190476Y-176981228D02*
X359238095Y-176885990D01*
X157488095Y-246159800D02*
X157630952Y-246207419D01*
X157630952Y-246207419D02*
X157869047Y-246207419D01*
X157869047Y-246207419D02*
X157964285Y-246159800D01*
X157964285Y-246159800D02*
X158011904Y-246112180D01*
X158011904Y-246112180D02*
X158059523Y-246016942D01*
X158059523Y-246016942D02*
X158059523Y-245921704D01*
X158059523Y-245921704D02*
X158011904Y-245826466D01*
X158011904Y-245826466D02*
X157964285Y-245778847D01*
X157964285Y-245778847D02*
X157869047Y-245731228D01*
X157869047Y-245731228D02*
X157678571Y-245683609D01*
X157678571Y-245683609D02*
X157583333Y-245635990D01*
X157583333Y-245635990D02*
X157535714Y-245588371D01*
X157535714Y-245588371D02*
X157488095Y-245493133D01*
X157488095Y-245493133D02*
X157488095Y-245397895D01*
X157488095Y-245397895D02*
X157535714Y-245302657D01*
X157535714Y-245302657D02*
X157583333Y-245255038D01*
X157583333Y-245255038D02*
X157678571Y-245207419D01*
X157678571Y-245207419D02*
X157916666Y-245207419D01*
X157916666Y-245207419D02*
X158059523Y-245255038D01*
X159059523Y-246112180D02*
X159011904Y-246159800D01*
X159011904Y-246159800D02*
X158869047Y-246207419D01*
X158869047Y-246207419D02*
X158773809Y-246207419D01*
X158773809Y-246207419D02*
X158630952Y-246159800D01*
X158630952Y-246159800D02*
X158535714Y-246064561D01*
X158535714Y-246064561D02*
X158488095Y-245969323D01*
X158488095Y-245969323D02*
X158440476Y-245778847D01*
X158440476Y-245778847D02*
X158440476Y-245635990D01*
X158440476Y-245635990D02*
X158488095Y-245445514D01*
X158488095Y-245445514D02*
X158535714Y-245350276D01*
X158535714Y-245350276D02*
X158630952Y-245255038D01*
X158630952Y-245255038D02*
X158773809Y-245207419D01*
X158773809Y-245207419D02*
X158869047Y-245207419D01*
X158869047Y-245207419D02*
X159011904Y-245255038D01*
X159011904Y-245255038D02*
X159059523Y-245302657D01*
X159630952Y-245635990D02*
X159535714Y-245588371D01*
X159535714Y-245588371D02*
X159488095Y-245540752D01*
X159488095Y-245540752D02*
X159440476Y-245445514D01*
X159440476Y-245445514D02*
X159440476Y-245397895D01*
X159440476Y-245397895D02*
X159488095Y-245302657D01*
X159488095Y-245302657D02*
X159535714Y-245255038D01*
X159535714Y-245255038D02*
X159630952Y-245207419D01*
X159630952Y-245207419D02*
X159821428Y-245207419D01*
X159821428Y-245207419D02*
X159916666Y-245255038D01*
X159916666Y-245255038D02*
X159964285Y-245302657D01*
X159964285Y-245302657D02*
X160011904Y-245397895D01*
X160011904Y-245397895D02*
X160011904Y-245445514D01*
X160011904Y-245445514D02*
X159964285Y-245540752D01*
X159964285Y-245540752D02*
X159916666Y-245588371D01*
X159916666Y-245588371D02*
X159821428Y-245635990D01*
X159821428Y-245635990D02*
X159630952Y-245635990D01*
X159630952Y-245635990D02*
X159535714Y-245683609D01*
X159535714Y-245683609D02*
X159488095Y-245731228D01*
X159488095Y-245731228D02*
X159440476Y-245826466D01*
X159440476Y-245826466D02*
X159440476Y-246016942D01*
X159440476Y-246016942D02*
X159488095Y-246112180D01*
X159488095Y-246112180D02*
X159535714Y-246159800D01*
X159535714Y-246159800D02*
X159630952Y-246207419D01*
X159630952Y-246207419D02*
X159821428Y-246207419D01*
X159821428Y-246207419D02*
X159916666Y-246159800D01*
X159916666Y-246159800D02*
X159964285Y-246112180D01*
X159964285Y-246112180D02*
X160011904Y-246016942D01*
X160011904Y-246016942D02*
X160011904Y-245826466D01*
X160011904Y-245826466D02*
X159964285Y-245731228D01*
X159964285Y-245731228D02*
X159916666Y-245683609D01*
X159916666Y-245683609D02*
X159821428Y-245635990D01*
X157488095Y-161159800D02*
X157630952Y-161207419D01*
X157630952Y-161207419D02*
X157869047Y-161207419D01*
X157869047Y-161207419D02*
X157964285Y-161159800D01*
X157964285Y-161159800D02*
X158011904Y-161112180D01*
X158011904Y-161112180D02*
X158059523Y-161016942D01*
X158059523Y-161016942D02*
X158059523Y-160921704D01*
X158059523Y-160921704D02*
X158011904Y-160826466D01*
X158011904Y-160826466D02*
X157964285Y-160778847D01*
X157964285Y-160778847D02*
X157869047Y-160731228D01*
X157869047Y-160731228D02*
X157678571Y-160683609D01*
X157678571Y-160683609D02*
X157583333Y-160635990D01*
X157583333Y-160635990D02*
X157535714Y-160588371D01*
X157535714Y-160588371D02*
X157488095Y-160493133D01*
X157488095Y-160493133D02*
X157488095Y-160397895D01*
X157488095Y-160397895D02*
X157535714Y-160302657D01*
X157535714Y-160302657D02*
X157583333Y-160255038D01*
X157583333Y-160255038D02*
X157678571Y-160207419D01*
X157678571Y-160207419D02*
X157916666Y-160207419D01*
X157916666Y-160207419D02*
X158059523Y-160255038D01*
X159059523Y-161112180D02*
X159011904Y-161159800D01*
X159011904Y-161159800D02*
X158869047Y-161207419D01*
X158869047Y-161207419D02*
X158773809Y-161207419D01*
X158773809Y-161207419D02*
X158630952Y-161159800D01*
X158630952Y-161159800D02*
X158535714Y-161064561D01*
X158535714Y-161064561D02*
X158488095Y-160969323D01*
X158488095Y-160969323D02*
X158440476Y-160778847D01*
X158440476Y-160778847D02*
X158440476Y-160635990D01*
X158440476Y-160635990D02*
X158488095Y-160445514D01*
X158488095Y-160445514D02*
X158535714Y-160350276D01*
X158535714Y-160350276D02*
X158630952Y-160255038D01*
X158630952Y-160255038D02*
X158773809Y-160207419D01*
X158773809Y-160207419D02*
X158869047Y-160207419D01*
X158869047Y-160207419D02*
X159011904Y-160255038D01*
X159011904Y-160255038D02*
X159059523Y-160302657D01*
X159916666Y-160207419D02*
X159726190Y-160207419D01*
X159726190Y-160207419D02*
X159630952Y-160255038D01*
X159630952Y-160255038D02*
X159583333Y-160302657D01*
X159583333Y-160302657D02*
X159488095Y-160445514D01*
X159488095Y-160445514D02*
X159440476Y-160635990D01*
X159440476Y-160635990D02*
X159440476Y-161016942D01*
X159440476Y-161016942D02*
X159488095Y-161112180D01*
X159488095Y-161112180D02*
X159535714Y-161159800D01*
X159535714Y-161159800D02*
X159630952Y-161207419D01*
X159630952Y-161207419D02*
X159821428Y-161207419D01*
X159821428Y-161207419D02*
X159916666Y-161159800D01*
X159916666Y-161159800D02*
X159964285Y-161112180D01*
X159964285Y-161112180D02*
X160011904Y-161016942D01*
X160011904Y-161016942D02*
X160011904Y-160778847D01*
X160011904Y-160778847D02*
X159964285Y-160683609D01*
X159964285Y-160683609D02*
X159916666Y-160635990D01*
X159916666Y-160635990D02*
X159821428Y-160588371D01*
X159821428Y-160588371D02*
X159630952Y-160588371D01*
X159630952Y-160588371D02*
X159535714Y-160635990D01*
X159535714Y-160635990D02*
X159488095Y-160683609D01*
X159488095Y-160683609D02*
X159440476Y-160778847D01*
D12*
X24238095Y-45454819D02*
X24238095Y-44454819D01*
X24238095Y-44931009D02*
X24809523Y-44931009D01*
X24809523Y-45454819D02*
X24809523Y-44454819D01*
X25809523Y-45454819D02*
X25238095Y-45454819D01*
X25523809Y-45454819D02*
X25523809Y-44454819D01*
X25523809Y-44454819D02*
X25428571Y-44597676D01*
X25428571Y-44597676D02*
X25333333Y-44692914D01*
X25333333Y-44692914D02*
X25238095Y-44740533D01*
X89704819Y-51583333D02*
X90419104Y-51583333D01*
X90419104Y-51583333D02*
X90561961Y-51630952D01*
X90561961Y-51630952D02*
X90657200Y-51726190D01*
X90657200Y-51726190D02*
X90704819Y-51869047D01*
X90704819Y-51869047D02*
X90704819Y-51964285D01*
X90704819Y-50583333D02*
X90704819Y-51154761D01*
X90704819Y-50869047D02*
X89704819Y-50869047D01*
X89704819Y-50869047D02*
X89847676Y-50964285D01*
X89847676Y-50964285D02*
X89942914Y-51059523D01*
X89942914Y-51059523D02*
X89990533Y-51154761D01*
X199238095Y-269204819D02*
X199238095Y-268204819D01*
X199238095Y-268681009D02*
X199809523Y-268681009D01*
X199809523Y-269204819D02*
X199809523Y-268204819D01*
X200714285Y-268538152D02*
X200714285Y-269204819D01*
X200476190Y-268157200D02*
X200238095Y-268871485D01*
X200238095Y-268871485D02*
X200857142Y-268871485D01*
D11*
X263261905Y-49909800D02*
X263404762Y-49957419D01*
X263404762Y-49957419D02*
X263642857Y-49957419D01*
X263642857Y-49957419D02*
X263738095Y-49909800D01*
X263738095Y-49909800D02*
X263785714Y-49862180D01*
X263785714Y-49862180D02*
X263833333Y-49766942D01*
X263833333Y-49766942D02*
X263833333Y-49671704D01*
X263833333Y-49671704D02*
X263785714Y-49576466D01*
X263785714Y-49576466D02*
X263738095Y-49528847D01*
X263738095Y-49528847D02*
X263642857Y-49481228D01*
X263642857Y-49481228D02*
X263452381Y-49433609D01*
X263452381Y-49433609D02*
X263357143Y-49385990D01*
X263357143Y-49385990D02*
X263309524Y-49338371D01*
X263309524Y-49338371D02*
X263261905Y-49243133D01*
X263261905Y-49243133D02*
X263261905Y-49147895D01*
X263261905Y-49147895D02*
X263309524Y-49052657D01*
X263309524Y-49052657D02*
X263357143Y-49005038D01*
X263357143Y-49005038D02*
X263452381Y-48957419D01*
X263452381Y-48957419D02*
X263690476Y-48957419D01*
X263690476Y-48957419D02*
X263833333Y-49005038D01*
X264833333Y-49862180D02*
X264785714Y-49909800D01*
X264785714Y-49909800D02*
X264642857Y-49957419D01*
X264642857Y-49957419D02*
X264547619Y-49957419D01*
X264547619Y-49957419D02*
X264404762Y-49909800D01*
X264404762Y-49909800D02*
X264309524Y-49814561D01*
X264309524Y-49814561D02*
X264261905Y-49719323D01*
X264261905Y-49719323D02*
X264214286Y-49528847D01*
X264214286Y-49528847D02*
X264214286Y-49385990D01*
X264214286Y-49385990D02*
X264261905Y-49195514D01*
X264261905Y-49195514D02*
X264309524Y-49100276D01*
X264309524Y-49100276D02*
X264404762Y-49005038D01*
X264404762Y-49005038D02*
X264547619Y-48957419D01*
X264547619Y-48957419D02*
X264642857Y-48957419D01*
X264642857Y-48957419D02*
X264785714Y-49005038D01*
X264785714Y-49005038D02*
X264833333Y-49052657D01*
X265785714Y-49957419D02*
X265214286Y-49957419D01*
X265500000Y-49957419D02*
X265500000Y-48957419D01*
X265500000Y-48957419D02*
X265404762Y-49100276D01*
X265404762Y-49100276D02*
X265309524Y-49195514D01*
X265309524Y-49195514D02*
X265214286Y-49243133D01*
X266738095Y-49957419D02*
X266166667Y-49957419D01*
X266452381Y-49957419D02*
X266452381Y-48957419D01*
X266452381Y-48957419D02*
X266357143Y-49100276D01*
X266357143Y-49100276D02*
X266261905Y-49195514D01*
X266261905Y-49195514D02*
X266166667Y-49243133D01*
%TO.C,SC10*%
X113750000Y-56250000D02*
X203750000Y-56250000D01*
X203750000Y-96250000D01*
X113750000Y-96250000D01*
X113750000Y-56250000D01*
%TO.C,SC20*%
X312500000Y-200000000D02*
X402500000Y-200000000D01*
X402500000Y-240000000D01*
X312500000Y-240000000D01*
X312500000Y-200000000D01*
%TO.C,SC7*%
X113750000Y-183750000D02*
X203750000Y-183750000D01*
X203750000Y-223750000D01*
X113750000Y-223750000D01*
X113750000Y-183750000D01*
%TO.C,SC17*%
X312500000Y-72500000D02*
X402500000Y-72500000D01*
X402500000Y-112500000D01*
X312500000Y-112500000D01*
X312500000Y-72500000D01*
%TO.C,SC1*%
X21250000Y-98750000D02*
X111250000Y-98750000D01*
X111250000Y-138750000D01*
X21250000Y-138750000D01*
X21250000Y-98750000D01*
%TO.C,SC3*%
X21250000Y-183750000D02*
X111250000Y-183750000D01*
X111250000Y-223750000D01*
X21250000Y-223750000D01*
X21250000Y-183750000D01*
%TO.C,SC18*%
X312500000Y-115000000D02*
X402500000Y-115000000D01*
X402500000Y-155000000D01*
X312500000Y-155000000D01*
X312500000Y-115000000D01*
%TO.C,SC14*%
X220000000Y-115000000D02*
X310000000Y-115000000D01*
X310000000Y-155000000D01*
X220000000Y-155000000D01*
X220000000Y-115000000D01*
%TO.C,SC2*%
X21250000Y-141250000D02*
X111250000Y-141250000D01*
X111250000Y-181250000D01*
X21250000Y-181250000D01*
X21250000Y-141250000D01*
%TO.C,SC5*%
X113750000Y-98750000D02*
X203750000Y-98750000D01*
X203750000Y-138750000D01*
X113750000Y-138750000D01*
X113750000Y-98750000D01*
%TO.C,SC9*%
X21250000Y-56250000D02*
X111250000Y-56250000D01*
X111250000Y-96250000D01*
X21250000Y-96250000D01*
X21250000Y-56250000D01*
%TO.C,SC4*%
X21250000Y-226250000D02*
X111250000Y-226250000D01*
X111250000Y-266250000D01*
X21250000Y-266250000D01*
X21250000Y-226250000D01*
%TO.C,SC16*%
X220000000Y-200000000D02*
X310000000Y-200000000D01*
X310000000Y-240000000D01*
X220000000Y-240000000D01*
X220000000Y-200000000D01*
%TO.C,SC12*%
X312500000Y-30000000D02*
X402500000Y-30000000D01*
X402500000Y-70000000D01*
X312500000Y-70000000D01*
X312500000Y-30000000D01*
%TO.C,SC13*%
X220000000Y-72500000D02*
X310000000Y-72500000D01*
X310000000Y-112500000D01*
X220000000Y-112500000D01*
X220000000Y-72500000D01*
%TO.C,SC15*%
X220000000Y-157500000D02*
X310000000Y-157500000D01*
X310000000Y-197500000D01*
X220000000Y-197500000D01*
X220000000Y-157500000D01*
%TO.C,SC19*%
X312500000Y-157500000D02*
X402500000Y-157500000D01*
X402500000Y-197500000D01*
X312500000Y-197500000D01*
X312500000Y-157500000D01*
%TO.C,SC8*%
X113750000Y-226250000D02*
X203750000Y-226250000D01*
X203750000Y-266250000D01*
X113750000Y-266250000D01*
X113750000Y-226250000D01*
%TO.C,SC6*%
X113750000Y-141250000D02*
X203750000Y-141250000D01*
X203750000Y-181250000D01*
X113750000Y-181250000D01*
X113750000Y-141250000D01*
%TO.C,SC11*%
X220000000Y-30000000D02*
X310000000Y-30000000D01*
X310000000Y-70000000D01*
X220000000Y-70000000D01*
X220000000Y-30000000D01*
%TD*%
M02*
