M48
; DRILL file {KiCad 9.0.5} date 2025-11-13T21:58:03-0800
; FORMAT={-:-/ absolute / metric / decimal}
; #@! TF.CreationDate,2025-11-13T21:58:03-08:00
; #@! TF.GenerationSoftware,Kicad,Pcbnew,9.0.5
; #@! TF.FileFunction,Plated,1,2,PTH
FMAT,2
METRIC
; #@! TA.AperFunction,Plated,PTH,ComponentDrill
T1C1.600
; #@! TA.AperFunction,Plated,PTH,ComponentDrill
T2C2.000
; #@! TA.AperFunction,Plated,PTH,ComponentDrill
T3C3.200
%
G90
G05
T1
X34.88Y-50.0
X50.12Y-50.0
X59.88Y-50.0
X75.12Y-50.0
X151.13Y-51.25
X166.37Y-51.25
X242.01Y-25.0
X257.25Y-25.0
X352.38Y-25.0
X367.62Y-25.0
T2
X31.25Y-76.25
X31.25Y-118.75
X31.25Y-161.25
X31.25Y-203.75
X31.25Y-246.25
X101.25Y-76.25
X101.25Y-118.75
X101.25Y-161.25
X101.25Y-203.75
X101.25Y-246.25
X123.75Y-76.25
X123.75Y-118.75
X123.75Y-161.25
X123.75Y-203.75
X123.75Y-246.25
X193.75Y-76.25
X193.75Y-118.75
X193.75Y-161.25
X193.75Y-203.75
X193.75Y-246.25
X230.0Y-50.0
X230.0Y-92.5
X230.0Y-135.0
X230.0Y-177.5
X230.0Y-220.0
X300.0Y-50.0
X300.0Y-92.5
X300.0Y-135.0
X300.0Y-177.5
X300.0Y-220.0
X322.5Y-50.0
X322.5Y-92.5
X322.5Y-135.0
X322.5Y-177.5
X322.5Y-220.0
X392.5Y-50.0
X392.5Y-92.5
X392.5Y-135.0
X392.5Y-177.5
X392.5Y-220.0
T3
X25.0Y-50.0
X25.0Y-272.5
X200.0Y-50.0
X200.0Y-272.5
X223.75Y-23.75
X223.75Y-246.25
X398.75Y-23.75
X398.75Y-246.25
M30
