%TF.GenerationSoftware,KiCad,Pcbnew,9.0.5*%
%TF.CreationDate,2025-11-13T21:56:36-08:00*%
%TF.ProjectId,IXOLAR,49584f4c-4152-42e6-9b69-6361645f7063,rev?*%
%TF.SameCoordinates,Original*%
%TF.FileFunction,Copper,L2,Bot*%
%TF.FilePolarity,Positive*%
%FSLAX46Y46*%
G04 Gerber Fmt 4.6, Leading zero omitted, Abs format (unit mm)*
G04 Created by KiCad (PCBNEW 9.0.5) date 2025-11-13 21:56:36*
%MOMM*%
%LPD*%
G01*
G04 APERTURE LIST*
G04 Aperture macros list*
%AMRoundRect*
0 Rectangle with rounded corners*
0 $1 Rounding radius*
0 $2 $3 $4 $5 $6 $7 $8 $9 X,Y pos of 4 corners*
0 Add a 4 corners polygon primitive as box body*
4,1,4,$2,$3,$4,$5,$6,$7,$8,$9,$2,$3,0*
0 Add four circle primitives for the rounded corners*
1,1,$1+$1,$2,$3*
1,1,$1+$1,$4,$5*
1,1,$1+$1,$6,$7*
1,1,$1+$1,$8,$9*
0 Add four rect primitives between the rounded corners*
20,1,$1+$1,$2,$3,$4,$5,0*
20,1,$1+$1,$4,$5,$6,$7,0*
20,1,$1+$1,$6,$7,$8,$9,0*
20,1,$1+$1,$8,$9,$2,$3,0*%
G04 Aperture macros list end*
%TA.AperFunction,ComponentPad*%
%ADD10C,3.000000*%
%TD*%
%TA.AperFunction,ComponentPad*%
%ADD11C,5.600000*%
%TD*%
%TA.AperFunction,SMDPad,CuDef*%
%ADD12RoundRect,0.750000X4.250000X-1.750000X4.250000X1.750000X-4.250000X1.750000X-4.250000X-1.750000X0*%
%TD*%
%TA.AperFunction,ComponentPad*%
%ADD13RoundRect,0.250000X1.350000X1.350000X-1.350000X1.350000X-1.350000X-1.350000X1.350000X-1.350000X0*%
%TD*%
%TA.AperFunction,ComponentPad*%
%ADD14C,3.200000*%
%TD*%
%TA.AperFunction,ComponentPad*%
%ADD15RoundRect,0.250000X-1.350000X-1.350000X1.350000X-1.350000X1.350000X1.350000X-1.350000X1.350000X0*%
%TD*%
%TA.AperFunction,Conductor*%
%ADD16C,2.000000*%
%TD*%
G04 APERTURE END LIST*
D10*
%TO.P,SC10,1,+*%
%TO.N,Net-(SC10-+)*%
X123750000Y-76250000D03*
%TO.P,SC10,2,-*%
%TO.N,Net-(Other_Board1-Pin_1)*%
X193750000Y-76250000D03*
%TD*%
%TO.P,SC20,1,+*%
%TO.N,Net-(SC19--)*%
X322500000Y-220000000D03*
%TO.P,SC20,2,-*%
%TO.N,GND2*%
X392500000Y-220000000D03*
%TD*%
D11*
%TO.P,H6,1,1*%
%TO.N,GND2*%
X398750000Y-23750000D03*
%TD*%
%TO.P,H2,1,1*%
%TO.N,GND1*%
X200000000Y-50000000D03*
%TD*%
D10*
%TO.P,SC7,1,+*%
%TO.N,Net-(SC6--)*%
X123750000Y-203750000D03*
%TO.P,SC7,2,-*%
%TO.N,Net-(SC7--)*%
X193750000Y-203750000D03*
%TD*%
%TO.P,SC17,1,+*%
%TO.N,Net-(D5-A)*%
X322500000Y-92500000D03*
%TO.P,SC17,2,-*%
%TO.N,Net-(SC17--)*%
X392500000Y-92500000D03*
%TD*%
%TO.P,SC1,1,+*%
%TO.N,Net-(D1-A)*%
X31250000Y-118750000D03*
%TO.P,SC1,2,-*%
%TO.N,Net-(SC1--)*%
X101250000Y-118750000D03*
%TD*%
D11*
%TO.P,H7,1,1*%
%TO.N,GND2*%
X223750000Y-246250000D03*
%TD*%
D12*
%TO.P,Other_Board1,1,Pin_1*%
%TO.N,Net-(Other_Board1-Pin_1)*%
X182500000Y-51250000D03*
%TD*%
D10*
%TO.P,SC3,1,+*%
%TO.N,Net-(SC2--)*%
X31250000Y-203750000D03*
%TO.P,SC3,2,-*%
%TO.N,Net-(SC3--)*%
X101250000Y-203750000D03*
%TD*%
D11*
%TO.P,H3,1,1*%
%TO.N,GND1*%
X25000000Y-272500000D03*
%TD*%
D10*
%TO.P,SC18,1,+*%
%TO.N,Net-(SC17--)*%
X322500000Y-135000000D03*
%TO.P,SC18,2,-*%
%TO.N,Net-(SC18--)*%
X392500000Y-135000000D03*
%TD*%
D11*
%TO.P,H8,1,1*%
%TO.N,GND2*%
X398750000Y-246250000D03*
%TD*%
D10*
%TO.P,SC14,1,+*%
%TO.N,Net-(SC13--)*%
X230000000Y-135000000D03*
%TO.P,SC14,2,-*%
%TO.N,Net-(SC14--)*%
X300000000Y-135000000D03*
%TD*%
D12*
%TO.P,J2,1,Pin_1*%
%TO.N,Net-(D4-K)*%
X295000000Y-25000000D03*
%TD*%
D10*
%TO.P,SC2,1,+*%
%TO.N,Net-(SC1--)*%
X31250000Y-161250000D03*
%TO.P,SC2,2,-*%
%TO.N,Net-(SC2--)*%
X101250000Y-161250000D03*
%TD*%
%TO.P,SC5,1,+*%
%TO.N,Net-(D2-A)*%
X123750000Y-118750000D03*
%TO.P,SC5,2,-*%
%TO.N,Net-(SC5--)*%
X193750000Y-118750000D03*
%TD*%
%TO.P,SC9,1,+*%
%TO.N,Net-(D3-A)*%
X31250000Y-76250000D03*
%TO.P,SC9,2,-*%
%TO.N,Net-(SC10-+)*%
X101250000Y-76250000D03*
%TD*%
%TO.P,SC4,1,+*%
%TO.N,Net-(SC3--)*%
X31250000Y-246250000D03*
%TO.P,SC4,2,-*%
%TO.N,GND1*%
X101250000Y-246250000D03*
%TD*%
%TO.P,SC16,1,+*%
%TO.N,Net-(SC15--)*%
X230000000Y-220000000D03*
%TO.P,SC16,2,-*%
%TO.N,GND2*%
X300000000Y-220000000D03*
%TD*%
%TO.P,SC12,1,+*%
%TO.N,Net-(SC11--)*%
X322500000Y-50000000D03*
%TO.P,SC12,2,-*%
%TO.N,GND2*%
X392500000Y-50000000D03*
%TD*%
%TO.P,SC13,1,+*%
%TO.N,Net-(D4-A)*%
X230000000Y-92500000D03*
%TO.P,SC13,2,-*%
%TO.N,Net-(SC13--)*%
X300000000Y-92500000D03*
%TD*%
%TO.P,SC15,1,+*%
%TO.N,Net-(SC14--)*%
X230000000Y-177500000D03*
%TO.P,SC15,2,-*%
%TO.N,Net-(SC15--)*%
X300000000Y-177500000D03*
%TD*%
D11*
%TO.P,H5,1,1*%
%TO.N,GND2*%
X223750000Y-23750000D03*
%TD*%
D10*
%TO.P,SC19,1,+*%
%TO.N,Net-(SC18--)*%
X322500000Y-177500000D03*
%TO.P,SC19,2,-*%
%TO.N,Net-(SC19--)*%
X392500000Y-177500000D03*
%TD*%
%TO.P,SC8,1,+*%
%TO.N,Net-(SC7--)*%
X123750000Y-246250000D03*
%TO.P,SC8,2,-*%
%TO.N,GND1*%
X193750000Y-246250000D03*
%TD*%
%TO.P,SC6,1,+*%
%TO.N,Net-(SC5--)*%
X123750000Y-161250000D03*
%TO.P,SC6,2,-*%
%TO.N,Net-(SC6--)*%
X193750000Y-161250000D03*
%TD*%
D11*
%TO.P,H1,1,1*%
%TO.N,GND1*%
X25000000Y-50000000D03*
%TD*%
D12*
%TO.P,J1,1,Pin_1*%
%TO.N,Net-(D1-K)*%
X96250000Y-51250000D03*
%TD*%
D11*
%TO.P,H4,1,1*%
%TO.N,GND1*%
X200000000Y-272500000D03*
%TD*%
D10*
%TO.P,SC11,1,+*%
%TO.N,Net-(Other_Board2-Pin_1)*%
X230000000Y-50000000D03*
%TO.P,SC11,2,-*%
%TO.N,Net-(SC11--)*%
X300000000Y-50000000D03*
%TD*%
D13*
%TO.P,D3,1,K*%
%TO.N,Net-(D1-K)*%
X50120000Y-50000000D03*
D14*
%TO.P,D3,2,A*%
%TO.N,Net-(D3-A)*%
X34880000Y-50000000D03*
%TD*%
D12*
%TO.P,gnd_connector1,1,Pin_1*%
%TO.N,GND1*%
X128750000Y-51250000D03*
%TD*%
D13*
%TO.P,D4,1,K*%
%TO.N,Net-(D4-K)*%
X257250000Y-25000000D03*
D14*
%TO.P,D4,2,A*%
%TO.N,Net-(D4-A)*%
X242010000Y-25000000D03*
%TD*%
D15*
%TO.P,D2,1,K*%
%TO.N,Net-(D1-K)*%
X151130000Y-51250000D03*
D14*
%TO.P,D2,2,A*%
%TO.N,Net-(D2-A)*%
X166370000Y-51250000D03*
%TD*%
D15*
%TO.P,D5,1,K*%
%TO.N,Net-(D4-K)*%
X352380000Y-25000000D03*
D14*
%TO.P,D5,2,A*%
%TO.N,Net-(D5-A)*%
X367620000Y-25000000D03*
%TD*%
D12*
%TO.P,Other_Board2,1,Pin_1*%
%TO.N,Net-(Other_Board2-Pin_1)*%
X278750000Y-25000000D03*
%TD*%
D13*
%TO.P,D1,1,K*%
%TO.N,Net-(D1-K)*%
X75120000Y-50000000D03*
D14*
%TO.P,D1,2,A*%
%TO.N,Net-(D1-A)*%
X59880000Y-50000000D03*
%TD*%
D12*
%TO.P,gnd_connector2,1,Pin_1*%
%TO.N,GND2*%
X327500000Y-25000000D03*
%TD*%
D16*
%TO.N,Net-(D1-K)*%
X102751000Y-57751000D02*
X96250000Y-51250000D01*
X69519000Y-44399000D02*
X75120000Y-50000000D01*
X69519000Y-44399000D02*
X55721000Y-44399000D01*
X92500000Y-50000000D02*
X75120000Y-50000000D01*
X93750000Y-51250000D02*
X92500000Y-50000000D01*
X144629000Y-57751000D02*
X151130000Y-51250000D01*
X102751000Y-57751000D02*
X144629000Y-57751000D01*
X96250000Y-51250000D02*
X93750000Y-51250000D01*
X55721000Y-44399000D02*
X50120000Y-50000000D01*
%TO.N,Net-(D2-A)*%
X166370000Y-51250000D02*
X123750000Y-93870000D01*
X123750000Y-93870000D02*
X123750000Y-118750000D01*
%TO.N,Net-(D3-A)*%
X34880000Y-50000000D02*
X31250000Y-53630000D01*
X31250000Y-53630000D02*
X31250000Y-76250000D01*
%TO.N,Net-(D4-A)*%
X223999000Y-43011000D02*
X223999000Y-86499000D01*
X223999000Y-86499000D02*
X230000000Y-92500000D01*
X242010000Y-25000000D02*
X223999000Y-43011000D01*
%TO.N,Net-(D5-A)*%
X330120000Y-92500000D02*
X330120000Y-62500000D01*
X330120000Y-62500000D02*
X367620000Y-25000000D01*
X330120000Y-92500000D02*
X322500000Y-92500000D01*
%TO.N,Net-(D4-K)*%
X301501000Y-18499000D02*
X345879000Y-18499000D01*
X345879000Y-18499000D02*
X352380000Y-25000000D01*
X257250000Y-25000000D02*
X263751000Y-18499000D01*
X288499000Y-18499000D02*
X295000000Y-25000000D01*
X295000000Y-25000000D02*
X301501000Y-18499000D01*
X263751000Y-18499000D02*
X288499000Y-18499000D01*
%TO.N,Net-(Other_Board1-Pin_1)*%
X182500000Y-65000000D02*
X193750000Y-76250000D01*
X182500000Y-51250000D02*
X182500000Y-65000000D01*
%TO.N,Net-(Other_Board2-Pin_1)*%
X230000000Y-50000000D02*
X253750000Y-50000000D01*
X253750000Y-50000000D02*
X278750000Y-25000000D01*
%TD*%
%TA.AperFunction,Conductor*%
%TO.N,GND2*%
G36*
X257610114Y-18769685D02*
G01*
X257655869Y-18822489D01*
X257665813Y-18891647D01*
X257636788Y-18955203D01*
X257630756Y-18961681D01*
X256229255Y-20363181D01*
X256167932Y-20396666D01*
X256141574Y-20399500D01*
X255756551Y-20399500D01*
X255675907Y-20402278D01*
X255319985Y-20446644D01*
X255319976Y-20446645D01*
X255026978Y-20516561D01*
X254971104Y-20529894D01*
X254971102Y-20529894D01*
X254971092Y-20529897D01*
X254633505Y-20651016D01*
X254633497Y-20651020D01*
X254311277Y-20808544D01*
X254008339Y-21000561D01*
X253728364Y-21224736D01*
X253728354Y-21224745D01*
X253474745Y-21478354D01*
X253474736Y-21478364D01*
X253250561Y-21758339D01*
X253058544Y-22061277D01*
X252901020Y-22383497D01*
X252901016Y-22383505D01*
X252779897Y-22721092D01*
X252779894Y-22721102D01*
X252779894Y-22721104D01*
X252771616Y-22755796D01*
X252696645Y-23069976D01*
X252696644Y-23069985D01*
X252652278Y-23425908D01*
X252649500Y-23506551D01*
X252649500Y-26493448D01*
X252652278Y-26574092D01*
X252696644Y-26930014D01*
X252696645Y-26930023D01*
X252711340Y-26991604D01*
X252771615Y-27244202D01*
X252779897Y-27278907D01*
X252901016Y-27616494D01*
X252901020Y-27616502D01*
X253058544Y-27938722D01*
X253173366Y-28119872D01*
X253250562Y-28241662D01*
X253474741Y-28521641D01*
X253728359Y-28775259D01*
X254008338Y-28999438D01*
X254196030Y-29118406D01*
X254311277Y-29191455D01*
X254633497Y-29348979D01*
X254633505Y-29348983D01*
X254971092Y-29470102D01*
X254971094Y-29470102D01*
X254971104Y-29470106D01*
X255319979Y-29553355D01*
X255675895Y-29597720D01*
X255675903Y-29597720D01*
X255675909Y-29597721D01*
X255675906Y-29597721D01*
X255719890Y-29599236D01*
X255756565Y-29600500D01*
X258743434Y-29600499D01*
X258743448Y-29600499D01*
X258824092Y-29597721D01*
X258824098Y-29597720D01*
X258824105Y-29597720D01*
X259180021Y-29553355D01*
X259528896Y-29470106D01*
X259866495Y-29348983D01*
X260188721Y-29191456D01*
X260491662Y-28999438D01*
X260771641Y-28775259D01*
X261025259Y-28521641D01*
X261249438Y-28241662D01*
X261441456Y-27938721D01*
X261598983Y-27616495D01*
X261720106Y-27278896D01*
X261803355Y-26930021D01*
X261847720Y-26574105D01*
X261847720Y-26574096D01*
X261847721Y-26574091D01*
X261849065Y-26535068D01*
X261850500Y-26493435D01*
X261850499Y-26108422D01*
X261870183Y-26041384D01*
X261886813Y-26020747D01*
X265371743Y-22535819D01*
X265433066Y-22502334D01*
X265459424Y-22499500D01*
X270672266Y-22499500D01*
X270739305Y-22519185D01*
X270785060Y-22571989D01*
X270795433Y-22637836D01*
X270789719Y-22686931D01*
X270752300Y-23008395D01*
X270752300Y-23008396D01*
X270752300Y-23008397D01*
X270752300Y-23008401D01*
X270750318Y-23069976D01*
X270749500Y-23095370D01*
X270749500Y-26904630D01*
X270752300Y-26991604D01*
X270781703Y-27244202D01*
X270769902Y-27313068D01*
X270746216Y-27346220D01*
X252129257Y-45963181D01*
X252067934Y-45996666D01*
X252041576Y-45999500D01*
X232097481Y-45999500D01*
X232045077Y-45987882D01*
X231723908Y-45838119D01*
X231354616Y-45703707D01*
X231113960Y-45639223D01*
X230975016Y-45601993D01*
X230975005Y-45601991D01*
X230587997Y-45533751D01*
X230196500Y-45499500D01*
X230196496Y-45499500D01*
X229803504Y-45499500D01*
X229803499Y-45499500D01*
X229412004Y-45533751D01*
X229412000Y-45533751D01*
X229024994Y-45601991D01*
X229024983Y-45601993D01*
X228821555Y-45656502D01*
X228645384Y-45703707D01*
X228645381Y-45703708D01*
X228645380Y-45703708D01*
X228456504Y-45772454D01*
X228357934Y-45808331D01*
X228276087Y-45838121D01*
X228175904Y-45884837D01*
X228106826Y-45895328D01*
X228043043Y-45866808D01*
X228004804Y-45808331D01*
X227999500Y-45772454D01*
X227999500Y-44719422D01*
X228019185Y-44652383D01*
X228035814Y-44631746D01*
X243208789Y-29458770D01*
X243264374Y-29426679D01*
X243343324Y-29405525D01*
X243394702Y-29391759D01*
X243394707Y-29391757D01*
X243394715Y-29391755D01*
X243772212Y-29254357D01*
X244136298Y-29084581D01*
X244484202Y-28883719D01*
X244813275Y-28653299D01*
X245121014Y-28395076D01*
X245405076Y-28111014D01*
X245663299Y-27803275D01*
X245893719Y-27474202D01*
X246094581Y-27126298D01*
X246264357Y-26762212D01*
X246401755Y-26384715D01*
X246505729Y-25996679D01*
X246575488Y-25601058D01*
X246610500Y-25200862D01*
X246610500Y-24799138D01*
X246575488Y-24398942D01*
X246505729Y-24003321D01*
X246401755Y-23615285D01*
X246264357Y-23237788D01*
X246094581Y-22873702D01*
X245893719Y-22525798D01*
X245663299Y-22196725D01*
X245663298Y-22196724D01*
X245663294Y-22196718D01*
X245405073Y-21888983D01*
X245121016Y-21604926D01*
X244813281Y-21346705D01*
X244484208Y-21116285D01*
X244484205Y-21116283D01*
X244484202Y-21116281D01*
X244380843Y-21056606D01*
X244136304Y-20915422D01*
X244136289Y-20915414D01*
X243772221Y-20745647D01*
X243772219Y-20745646D01*
X243772212Y-20745643D01*
X243394715Y-20608245D01*
X243394714Y-20608244D01*
X243394704Y-20608241D01*
X243006686Y-20504273D01*
X243006689Y-20504273D01*
X243006679Y-20504271D01*
X242950824Y-20494422D01*
X242611060Y-20434512D01*
X242210866Y-20399500D01*
X242210862Y-20399500D01*
X241809138Y-20399500D01*
X241809133Y-20399500D01*
X241408939Y-20434512D01*
X241013326Y-20504270D01*
X241013323Y-20504270D01*
X241013321Y-20504271D01*
X241013316Y-20504272D01*
X241013313Y-20504273D01*
X240625295Y-20608241D01*
X240507773Y-20651016D01*
X240247788Y-20745643D01*
X240247784Y-20745644D01*
X240247778Y-20745647D01*
X239883710Y-20915414D01*
X239883695Y-20915422D01*
X239535806Y-21116276D01*
X239535791Y-21116285D01*
X239206718Y-21346705D01*
X238898983Y-21604926D01*
X238614926Y-21888983D01*
X238356705Y-22196718D01*
X238126285Y-22525791D01*
X238126276Y-22525806D01*
X237925422Y-22873695D01*
X237925414Y-22873710D01*
X237755647Y-23237778D01*
X237618246Y-23615281D01*
X237618241Y-23615299D01*
X237583319Y-23745625D01*
X237551226Y-23801211D01*
X221031254Y-40321182D01*
X220781897Y-40625025D01*
X220781887Y-40625039D01*
X220563522Y-40951844D01*
X220563511Y-40951862D01*
X220378232Y-41298495D01*
X220378230Y-41298500D01*
X220227810Y-41661645D01*
X220113706Y-42037795D01*
X220113703Y-42037806D01*
X220037028Y-42423291D01*
X220037025Y-42423308D01*
X219998500Y-42814471D01*
X219998500Y-86695528D01*
X220037025Y-87086691D01*
X220037028Y-87086708D01*
X220113703Y-87472193D01*
X220113706Y-87472204D01*
X220113708Y-87472213D01*
X220113709Y-87472214D01*
X220227810Y-87848353D01*
X220368526Y-88188073D01*
X220378230Y-88211499D01*
X220378232Y-88211504D01*
X220563511Y-88558137D01*
X220563522Y-88558155D01*
X220778058Y-88879229D01*
X220778061Y-88879234D01*
X220781889Y-88884964D01*
X220781894Y-88884970D01*
X221031254Y-89188817D01*
X225688073Y-93845635D01*
X225716914Y-93890905D01*
X225833966Y-94212499D01*
X225838124Y-94223921D01*
X226004195Y-94580062D01*
X226004207Y-94580086D01*
X226200695Y-94920412D01*
X226200704Y-94920427D01*
X226426115Y-95242347D01*
X226615247Y-95467745D01*
X226678722Y-95543391D01*
X226956609Y-95821278D01*
X227063738Y-95911170D01*
X227257652Y-96073884D01*
X227257658Y-96073888D01*
X227257659Y-96073889D01*
X227579579Y-96299300D01*
X227919920Y-96495796D01*
X227919934Y-96495802D01*
X227919937Y-96495804D01*
X228276078Y-96661875D01*
X228276083Y-96661876D01*
X228276092Y-96661881D01*
X228645384Y-96796293D01*
X229024985Y-96898007D01*
X229412007Y-96966249D01*
X229803502Y-97000499D01*
X229803503Y-97000500D01*
X229803504Y-97000500D01*
X230196497Y-97000500D01*
X230196497Y-97000499D01*
X230587993Y-96966249D01*
X230975015Y-96898007D01*
X231354616Y-96796293D01*
X231723908Y-96661881D01*
X232080080Y-96495796D01*
X232420421Y-96299300D01*
X232742341Y-96073889D01*
X233043391Y-95821278D01*
X233321278Y-95543391D01*
X233573889Y-95242341D01*
X233799300Y-94920421D01*
X233995796Y-94580080D01*
X234161881Y-94223908D01*
X234296293Y-93854616D01*
X234398007Y-93475015D01*
X234466249Y-93087993D01*
X234500500Y-92696496D01*
X234500500Y-92303504D01*
X234500500Y-92303499D01*
X295499500Y-92303499D01*
X295499500Y-92696500D01*
X295533751Y-93087995D01*
X295533751Y-93087999D01*
X295601991Y-93475005D01*
X295601993Y-93475015D01*
X295703707Y-93854616D01*
X295833968Y-94212504D01*
X295838124Y-94223921D01*
X296004195Y-94580062D01*
X296004207Y-94580086D01*
X296200695Y-94920412D01*
X296200704Y-94920427D01*
X296426115Y-95242347D01*
X296615247Y-95467745D01*
X296678722Y-95543391D01*
X296956609Y-95821278D01*
X297063738Y-95911170D01*
X297257652Y-96073884D01*
X297257658Y-96073888D01*
X297257659Y-96073889D01*
X297579579Y-96299300D01*
X297919920Y-96495796D01*
X297919934Y-96495802D01*
X297919937Y-96495804D01*
X298276078Y-96661875D01*
X298276083Y-96661876D01*
X298276092Y-96661881D01*
X298645384Y-96796293D01*
X299024985Y-96898007D01*
X299412007Y-96966249D01*
X299803502Y-97000499D01*
X299803503Y-97000500D01*
X299803504Y-97000500D01*
X300196497Y-97000500D01*
X300196497Y-97000499D01*
X300587993Y-96966249D01*
X300975015Y-96898007D01*
X301354616Y-96796293D01*
X301723908Y-96661881D01*
X302080080Y-96495796D01*
X302420421Y-96299300D01*
X302742341Y-96073889D01*
X303043391Y-95821278D01*
X303321278Y-95543391D01*
X303573889Y-95242341D01*
X303799300Y-94920421D01*
X303995796Y-94580080D01*
X304161881Y-94223908D01*
X304296293Y-93854616D01*
X304398007Y-93475015D01*
X304466249Y-93087993D01*
X304500500Y-92696496D01*
X304500500Y-92303504D01*
X304500500Y-92303499D01*
X317999500Y-92303499D01*
X317999500Y-92696500D01*
X318033751Y-93087995D01*
X318033751Y-93087999D01*
X318101991Y-93475005D01*
X318101993Y-93475015D01*
X318203707Y-93854616D01*
X318333968Y-94212504D01*
X318338124Y-94223921D01*
X318504195Y-94580062D01*
X318504207Y-94580086D01*
X318700695Y-94920412D01*
X318700704Y-94920427D01*
X318926115Y-95242347D01*
X319115247Y-95467745D01*
X319178722Y-95543391D01*
X319456609Y-95821278D01*
X319563738Y-95911170D01*
X319757652Y-96073884D01*
X319757658Y-96073888D01*
X319757659Y-96073889D01*
X320079579Y-96299300D01*
X320419920Y-96495796D01*
X320419934Y-96495802D01*
X320419937Y-96495804D01*
X320776078Y-96661875D01*
X320776083Y-96661876D01*
X320776092Y-96661881D01*
X321145384Y-96796293D01*
X321524985Y-96898007D01*
X321912007Y-96966249D01*
X322303502Y-97000499D01*
X322303503Y-97000500D01*
X322303504Y-97000500D01*
X322696497Y-97000500D01*
X322696497Y-97000499D01*
X323087993Y-96966249D01*
X323475015Y-96898007D01*
X323854616Y-96796293D01*
X324223908Y-96661881D01*
X324545077Y-96512117D01*
X324597481Y-96500500D01*
X330316529Y-96500500D01*
X330316532Y-96500500D01*
X330707703Y-96461973D01*
X330782748Y-96447045D01*
X331093194Y-96385295D01*
X331093205Y-96385292D01*
X331093205Y-96385291D01*
X331093215Y-96385290D01*
X331469353Y-96271190D01*
X331832497Y-96120771D01*
X332179149Y-95935482D01*
X332505969Y-95717107D01*
X332809812Y-95467750D01*
X333087750Y-95189812D01*
X333337107Y-94885969D01*
X333555482Y-94559149D01*
X333740771Y-94212497D01*
X333891190Y-93849353D01*
X334005290Y-93473215D01*
X334005292Y-93473205D01*
X334005295Y-93473194D01*
X334081973Y-93087702D01*
X334120500Y-92696528D01*
X334120500Y-92303499D01*
X387999500Y-92303499D01*
X387999500Y-92696500D01*
X388033751Y-93087995D01*
X388033751Y-93087999D01*
X388101991Y-93475005D01*
X388101993Y-93475015D01*
X388203707Y-93854616D01*
X388333968Y-94212504D01*
X388338124Y-94223921D01*
X388504195Y-94580062D01*
X388504207Y-94580086D01*
X388700695Y-94920412D01*
X388700704Y-94920427D01*
X388926115Y-95242347D01*
X389115247Y-95467745D01*
X389178722Y-95543391D01*
X389456609Y-95821278D01*
X389563738Y-95911170D01*
X389757652Y-96073884D01*
X389757658Y-96073888D01*
X389757659Y-96073889D01*
X390079579Y-96299300D01*
X390419920Y-96495796D01*
X390419934Y-96495802D01*
X390419937Y-96495804D01*
X390776078Y-96661875D01*
X390776083Y-96661876D01*
X390776092Y-96661881D01*
X391145384Y-96796293D01*
X391524985Y-96898007D01*
X391912007Y-96966249D01*
X392303502Y-97000499D01*
X392303503Y-97000500D01*
X392303504Y-97000500D01*
X392696497Y-97000500D01*
X392696497Y-97000499D01*
X393087993Y-96966249D01*
X393475015Y-96898007D01*
X393854616Y-96796293D01*
X394223908Y-96661881D01*
X394580080Y-96495796D01*
X394920421Y-96299300D01*
X395242341Y-96073889D01*
X395543391Y-95821278D01*
X395821278Y-95543391D01*
X396073889Y-95242341D01*
X396299300Y-94920421D01*
X396495796Y-94580080D01*
X396661881Y-94223908D01*
X396796293Y-93854616D01*
X396898007Y-93475015D01*
X396966249Y-93087993D01*
X397000500Y-92696496D01*
X397000500Y-92303504D01*
X396966249Y-91912007D01*
X396898007Y-91524985D01*
X396796293Y-91145384D01*
X396661881Y-90776092D01*
X396661876Y-90776083D01*
X396661875Y-90776078D01*
X396495804Y-90419937D01*
X396495792Y-90419913D01*
X396483455Y-90398546D01*
X396299300Y-90079579D01*
X396073889Y-89757659D01*
X396073888Y-89757658D01*
X396073884Y-89757652D01*
X395821275Y-89456606D01*
X395543393Y-89178724D01*
X395242347Y-88926115D01*
X394920427Y-88700704D01*
X394920424Y-88700702D01*
X394920421Y-88700700D01*
X394673526Y-88558155D01*
X394580086Y-88504207D01*
X394580062Y-88504195D01*
X394223921Y-88338124D01*
X394223910Y-88338120D01*
X394223908Y-88338119D01*
X393854616Y-88203707D01*
X393613960Y-88139223D01*
X393475016Y-88101993D01*
X393475005Y-88101991D01*
X393087997Y-88033751D01*
X392696500Y-87999500D01*
X392696496Y-87999500D01*
X392303504Y-87999500D01*
X392303499Y-87999500D01*
X391912004Y-88033751D01*
X391912000Y-88033751D01*
X391524994Y-88101991D01*
X391524983Y-88101993D01*
X391321555Y-88156502D01*
X391145384Y-88203707D01*
X391145381Y-88203708D01*
X391145380Y-88203708D01*
X390776078Y-88338124D01*
X390419937Y-88504195D01*
X390419913Y-88504207D01*
X390079587Y-88700695D01*
X390079572Y-88700704D01*
X389757652Y-88926115D01*
X389456606Y-89178724D01*
X389178724Y-89456606D01*
X388926115Y-89757652D01*
X388700704Y-90079572D01*
X388700695Y-90079587D01*
X388504207Y-90419913D01*
X388504195Y-90419937D01*
X388338124Y-90776078D01*
X388203708Y-91145380D01*
X388203708Y-91145382D01*
X388101993Y-91524983D01*
X388101991Y-91524994D01*
X388033751Y-91912000D01*
X388033751Y-91912004D01*
X387999500Y-92303499D01*
X334120500Y-92303499D01*
X334120500Y-64208422D01*
X334140185Y-64141383D01*
X334156814Y-64120746D01*
X348408655Y-49868905D01*
X390500000Y-49868905D01*
X390500000Y-50131094D01*
X390534220Y-50391009D01*
X390534222Y-50391020D01*
X390602075Y-50644255D01*
X390702404Y-50886471D01*
X390702409Y-50886482D01*
X390833488Y-51113516D01*
X390833494Y-51113524D01*
X390920080Y-51226365D01*
X391637425Y-50509019D01*
X391723249Y-50637463D01*
X391862537Y-50776751D01*
X391990978Y-50862573D01*
X391273633Y-51579917D01*
X391273633Y-51579918D01*
X391386475Y-51666505D01*
X391386483Y-51666511D01*
X391613517Y-51797590D01*
X391613528Y-51797595D01*
X391855744Y-51897924D01*
X392108979Y-51965777D01*
X392108990Y-51965779D01*
X392368905Y-51999999D01*
X392368920Y-52000000D01*
X392631080Y-52000000D01*
X392631094Y-51999999D01*
X392891009Y-51965779D01*
X392891020Y-51965777D01*
X393144255Y-51897924D01*
X393386471Y-51797595D01*
X393386482Y-51797590D01*
X393613516Y-51666511D01*
X393613534Y-51666499D01*
X393726365Y-51579919D01*
X393726365Y-51579917D01*
X393009020Y-50862573D01*
X393137463Y-50776751D01*
X393276751Y-50637463D01*
X393362573Y-50509021D01*
X394079917Y-51226365D01*
X394079919Y-51226365D01*
X394166499Y-51113534D01*
X394166511Y-51113516D01*
X394297590Y-50886482D01*
X394297595Y-50886471D01*
X394397924Y-50644255D01*
X394465777Y-50391020D01*
X394465779Y-50391009D01*
X394499999Y-50131094D01*
X394500000Y-50131080D01*
X394500000Y-49868919D01*
X394499999Y-49868905D01*
X394465779Y-49608990D01*
X394465777Y-49608979D01*
X394397924Y-49355744D01*
X394297595Y-49113528D01*
X394297590Y-49113517D01*
X394166511Y-48886483D01*
X394166505Y-48886475D01*
X394079918Y-48773633D01*
X394079917Y-48773633D01*
X393362572Y-49490977D01*
X393276751Y-49362537D01*
X393137463Y-49223249D01*
X393009019Y-49137425D01*
X393726365Y-48420080D01*
X393613524Y-48333494D01*
X393613516Y-48333488D01*
X393386482Y-48202409D01*
X393386471Y-48202404D01*
X393144255Y-48102075D01*
X392891020Y-48034222D01*
X392891009Y-48034220D01*
X392631094Y-48000000D01*
X392368905Y-48000000D01*
X392108990Y-48034220D01*
X392108979Y-48034222D01*
X391855744Y-48102075D01*
X391613528Y-48202404D01*
X391613517Y-48202409D01*
X391386471Y-48333496D01*
X391273633Y-48420079D01*
X391273633Y-48420080D01*
X391990979Y-49137426D01*
X391862537Y-49223249D01*
X391723249Y-49362537D01*
X391637426Y-49490979D01*
X390920080Y-48773633D01*
X390920079Y-48773633D01*
X390833496Y-48886471D01*
X390702409Y-49113517D01*
X390702404Y-49113528D01*
X390602075Y-49355744D01*
X390534222Y-49608979D01*
X390534220Y-49608990D01*
X390500000Y-49868905D01*
X348408655Y-49868905D01*
X368818789Y-29458770D01*
X368874374Y-29426679D01*
X368953324Y-29405525D01*
X369004702Y-29391759D01*
X369004707Y-29391757D01*
X369004715Y-29391755D01*
X369382212Y-29254357D01*
X369746298Y-29084581D01*
X370094202Y-28883719D01*
X370423275Y-28653299D01*
X370731014Y-28395076D01*
X371015076Y-28111014D01*
X371273299Y-27803275D01*
X371503719Y-27474202D01*
X371704581Y-27126298D01*
X371874357Y-26762212D01*
X372011755Y-26384715D01*
X372115729Y-25996679D01*
X372185488Y-25601058D01*
X372220500Y-25200862D01*
X372220500Y-24799138D01*
X372185488Y-24398942D01*
X372115729Y-24003321D01*
X372011755Y-23615285D01*
X371874357Y-23237788D01*
X371704581Y-22873702D01*
X371503719Y-22525798D01*
X371273299Y-22196725D01*
X371273298Y-22196724D01*
X371273294Y-22196718D01*
X371015073Y-21888983D01*
X370731016Y-21604926D01*
X370423281Y-21346705D01*
X370094208Y-21116285D01*
X370094205Y-21116283D01*
X370094202Y-21116281D01*
X369990843Y-21056606D01*
X369746304Y-20915422D01*
X369746289Y-20915414D01*
X369382221Y-20745647D01*
X369382219Y-20745646D01*
X369382212Y-20745643D01*
X369004715Y-20608245D01*
X369004714Y-20608244D01*
X369004704Y-20608241D01*
X368616686Y-20504273D01*
X368616689Y-20504273D01*
X368616679Y-20504271D01*
X368560824Y-20494422D01*
X368221060Y-20434512D01*
X367820866Y-20399500D01*
X367820862Y-20399500D01*
X367419138Y-20399500D01*
X367419133Y-20399500D01*
X367018939Y-20434512D01*
X366623326Y-20504270D01*
X366623323Y-20504270D01*
X366623321Y-20504271D01*
X366623316Y-20504272D01*
X366623313Y-20504273D01*
X366235295Y-20608241D01*
X366117773Y-20651016D01*
X365857788Y-20745643D01*
X365857784Y-20745644D01*
X365857778Y-20745647D01*
X365493710Y-20915414D01*
X365493695Y-20915422D01*
X365145806Y-21116276D01*
X365145791Y-21116285D01*
X364816718Y-21346705D01*
X364508983Y-21604926D01*
X364224926Y-21888983D01*
X363966705Y-22196718D01*
X363736285Y-22525791D01*
X363736276Y-22525806D01*
X363535422Y-22873695D01*
X363535414Y-22873710D01*
X363365647Y-23237778D01*
X363228246Y-23615281D01*
X363228241Y-23615299D01*
X363193319Y-23745625D01*
X363161226Y-23801211D01*
X327152254Y-59810182D01*
X326902897Y-60114025D01*
X326902887Y-60114039D01*
X326684522Y-60440844D01*
X326684511Y-60440862D01*
X326499232Y-60787495D01*
X326499230Y-60787500D01*
X326348810Y-61150645D01*
X326234706Y-61526795D01*
X326234703Y-61526806D01*
X326158028Y-61912291D01*
X326158025Y-61912308D01*
X326119500Y-62303471D01*
X326119500Y-88375500D01*
X326099815Y-88442539D01*
X326047011Y-88488294D01*
X325995500Y-88499500D01*
X324597481Y-88499500D01*
X324545077Y-88487882D01*
X324223908Y-88338119D01*
X323854616Y-88203707D01*
X323613960Y-88139223D01*
X323475016Y-88101993D01*
X323475005Y-88101991D01*
X323087997Y-88033751D01*
X322696500Y-87999500D01*
X322696496Y-87999500D01*
X322303504Y-87999500D01*
X322303499Y-87999500D01*
X321912004Y-88033751D01*
X321912000Y-88033751D01*
X321524994Y-88101991D01*
X321524983Y-88101993D01*
X321321555Y-88156502D01*
X321145384Y-88203707D01*
X321145381Y-88203708D01*
X321145380Y-88203708D01*
X320776078Y-88338124D01*
X320419937Y-88504195D01*
X320419913Y-88504207D01*
X320079587Y-88700695D01*
X320079572Y-88700704D01*
X319757652Y-88926115D01*
X319456606Y-89178724D01*
X319178724Y-89456606D01*
X318926115Y-89757652D01*
X318700704Y-90079572D01*
X318700695Y-90079587D01*
X318504207Y-90419913D01*
X318504195Y-90419937D01*
X318338124Y-90776078D01*
X318203708Y-91145380D01*
X318203708Y-91145382D01*
X318101993Y-91524983D01*
X318101991Y-91524994D01*
X318033751Y-91912000D01*
X318033751Y-91912004D01*
X317999500Y-92303499D01*
X304500500Y-92303499D01*
X304466249Y-91912007D01*
X304398007Y-91524985D01*
X304296293Y-91145384D01*
X304161881Y-90776092D01*
X304161876Y-90776083D01*
X304161875Y-90776078D01*
X303995804Y-90419937D01*
X303995792Y-90419913D01*
X303983455Y-90398546D01*
X303799300Y-90079579D01*
X303573889Y-89757659D01*
X303573888Y-89757658D01*
X303573884Y-89757652D01*
X303321275Y-89456606D01*
X303043393Y-89178724D01*
X302742347Y-88926115D01*
X302420427Y-88700704D01*
X302420424Y-88700702D01*
X302420421Y-88700700D01*
X302173526Y-88558155D01*
X302080086Y-88504207D01*
X302080062Y-88504195D01*
X301723921Y-88338124D01*
X301723910Y-88338120D01*
X301723908Y-88338119D01*
X301354616Y-88203707D01*
X301113960Y-88139223D01*
X300975016Y-88101993D01*
X300975005Y-88101991D01*
X300587997Y-88033751D01*
X300196500Y-87999500D01*
X300196496Y-87999500D01*
X299803504Y-87999500D01*
X299803499Y-87999500D01*
X299412004Y-88033751D01*
X299412000Y-88033751D01*
X299024994Y-88101991D01*
X299024983Y-88101993D01*
X298821555Y-88156502D01*
X298645384Y-88203707D01*
X298645381Y-88203708D01*
X298645380Y-88203708D01*
X298276078Y-88338124D01*
X297919937Y-88504195D01*
X297919913Y-88504207D01*
X297579587Y-88700695D01*
X297579572Y-88700704D01*
X297257652Y-88926115D01*
X296956606Y-89178724D01*
X296678724Y-89456606D01*
X296426115Y-89757652D01*
X296200704Y-90079572D01*
X296200695Y-90079587D01*
X296004207Y-90419913D01*
X296004195Y-90419937D01*
X295838124Y-90776078D01*
X295703708Y-91145380D01*
X295703708Y-91145382D01*
X295601993Y-91524983D01*
X295601991Y-91524994D01*
X295533751Y-91912000D01*
X295533751Y-91912004D01*
X295499500Y-92303499D01*
X234500500Y-92303499D01*
X234466249Y-91912007D01*
X234398007Y-91524985D01*
X234296293Y-91145384D01*
X234161881Y-90776092D01*
X234161876Y-90776083D01*
X234161875Y-90776078D01*
X233995804Y-90419937D01*
X233995792Y-90419913D01*
X233983455Y-90398546D01*
X233799300Y-90079579D01*
X233573889Y-89757659D01*
X233573888Y-89757658D01*
X233573884Y-89757652D01*
X233321275Y-89456606D01*
X233043393Y-89178724D01*
X232742347Y-88926115D01*
X232420427Y-88700704D01*
X232420424Y-88700702D01*
X232420421Y-88700700D01*
X232173526Y-88558155D01*
X232080086Y-88504207D01*
X232080062Y-88504195D01*
X231723921Y-88338124D01*
X231723910Y-88338120D01*
X231723908Y-88338119D01*
X231600704Y-88293276D01*
X231390905Y-88216914D01*
X231345635Y-88188073D01*
X228035819Y-84878257D01*
X228002334Y-84816934D01*
X227999500Y-84790576D01*
X227999500Y-54227545D01*
X228019185Y-54160506D01*
X228071989Y-54114751D01*
X228141147Y-54104807D01*
X228175905Y-54115163D01*
X228276074Y-54161873D01*
X228276078Y-54161874D01*
X228276092Y-54161881D01*
X228645384Y-54296293D01*
X229024985Y-54398007D01*
X229412007Y-54466249D01*
X229803502Y-54500499D01*
X229803503Y-54500500D01*
X229803504Y-54500500D01*
X230196497Y-54500500D01*
X230196497Y-54500499D01*
X230587993Y-54466249D01*
X230975015Y-54398007D01*
X231354616Y-54296293D01*
X231723908Y-54161881D01*
X232045077Y-54012117D01*
X232097481Y-54000500D01*
X253946529Y-54000500D01*
X253946532Y-54000500D01*
X254337703Y-53961973D01*
X254549695Y-53919805D01*
X254723193Y-53885296D01*
X254723204Y-53885293D01*
X254723204Y-53885292D01*
X254723214Y-53885291D01*
X255099353Y-53771190D01*
X255462497Y-53620771D01*
X255550207Y-53573889D01*
X255809149Y-53435482D01*
X256135969Y-53217107D01*
X256439812Y-52967750D01*
X256717750Y-52689812D01*
X259604063Y-49803499D01*
X295499500Y-49803499D01*
X295499500Y-50196500D01*
X295533751Y-50587995D01*
X295533751Y-50587999D01*
X295586380Y-50886471D01*
X295601993Y-50975015D01*
X295703707Y-51354616D01*
X295703708Y-51354618D01*
X295703708Y-51354619D01*
X295838124Y-51723921D01*
X296004195Y-52080062D01*
X296004207Y-52080086D01*
X296200695Y-52420412D01*
X296200704Y-52420427D01*
X296426115Y-52742347D01*
X296615247Y-52967745D01*
X296678722Y-53043391D01*
X296956609Y-53321278D01*
X297063738Y-53411170D01*
X297257652Y-53573884D01*
X297257658Y-53573888D01*
X297257659Y-53573889D01*
X297579579Y-53799300D01*
X297919920Y-53995796D01*
X297919934Y-53995802D01*
X297919937Y-53995804D01*
X298276078Y-54161875D01*
X298276083Y-54161876D01*
X298276092Y-54161881D01*
X298645384Y-54296293D01*
X299024985Y-54398007D01*
X299412007Y-54466249D01*
X299803502Y-54500499D01*
X299803503Y-54500500D01*
X299803504Y-54500500D01*
X300196497Y-54500500D01*
X300196497Y-54500499D01*
X300587993Y-54466249D01*
X300975015Y-54398007D01*
X301354616Y-54296293D01*
X301723908Y-54161881D01*
X302080080Y-53995796D01*
X302420421Y-53799300D01*
X302742341Y-53573889D01*
X303043391Y-53321278D01*
X303321278Y-53043391D01*
X303573889Y-52742341D01*
X303799300Y-52420421D01*
X303995796Y-52080080D01*
X304161881Y-51723908D01*
X304296293Y-51354616D01*
X304398007Y-50975015D01*
X304466249Y-50587993D01*
X304500500Y-50196496D01*
X304500500Y-49803504D01*
X304500500Y-49803499D01*
X317999500Y-49803499D01*
X317999500Y-50196500D01*
X318033751Y-50587995D01*
X318033751Y-50587999D01*
X318086380Y-50886471D01*
X318101993Y-50975015D01*
X318203707Y-51354616D01*
X318203708Y-51354618D01*
X318203708Y-51354619D01*
X318338124Y-51723921D01*
X318504195Y-52080062D01*
X318504207Y-52080086D01*
X318700695Y-52420412D01*
X318700704Y-52420427D01*
X318926115Y-52742347D01*
X319115247Y-52967745D01*
X319178722Y-53043391D01*
X319456609Y-53321278D01*
X319563738Y-53411170D01*
X319757652Y-53573884D01*
X319757658Y-53573888D01*
X319757659Y-53573889D01*
X320079579Y-53799300D01*
X320419920Y-53995796D01*
X320419934Y-53995802D01*
X320419937Y-53995804D01*
X320776078Y-54161875D01*
X320776083Y-54161876D01*
X320776092Y-54161881D01*
X321145384Y-54296293D01*
X321524985Y-54398007D01*
X321912007Y-54466249D01*
X322303502Y-54500499D01*
X322303503Y-54500500D01*
X322303504Y-54500500D01*
X322696497Y-54500500D01*
X322696497Y-54500499D01*
X323087993Y-54466249D01*
X323475015Y-54398007D01*
X323854616Y-54296293D01*
X324223908Y-54161881D01*
X324580080Y-53995796D01*
X324920421Y-53799300D01*
X325242341Y-53573889D01*
X325543391Y-53321278D01*
X325821278Y-53043391D01*
X326073889Y-52742341D01*
X326299300Y-52420421D01*
X326495796Y-52080080D01*
X326661881Y-51723908D01*
X326796293Y-51354616D01*
X326898007Y-50975015D01*
X326966249Y-50587993D01*
X327000500Y-50196496D01*
X327000500Y-49803504D01*
X326966249Y-49412007D01*
X326898007Y-49024985D01*
X326796293Y-48645384D01*
X326661881Y-48276092D01*
X326661876Y-48276083D01*
X326661875Y-48276078D01*
X326495804Y-47919937D01*
X326495792Y-47919913D01*
X326483455Y-47898546D01*
X326299300Y-47579579D01*
X326073889Y-47257659D01*
X326073888Y-47257658D01*
X326073884Y-47257652D01*
X325821275Y-46956606D01*
X325543393Y-46678724D01*
X325242347Y-46426115D01*
X324920427Y-46200704D01*
X324920424Y-46200702D01*
X324920421Y-46200700D01*
X324819305Y-46142320D01*
X324580086Y-46004207D01*
X324580062Y-46004195D01*
X324223921Y-45838124D01*
X324223910Y-45838120D01*
X324223908Y-45838119D01*
X323854616Y-45703707D01*
X323613960Y-45639223D01*
X323475016Y-45601993D01*
X323475005Y-45601991D01*
X323087997Y-45533751D01*
X322696500Y-45499500D01*
X322696496Y-45499500D01*
X322303504Y-45499500D01*
X322303499Y-45499500D01*
X321912004Y-45533751D01*
X321912000Y-45533751D01*
X321524994Y-45601991D01*
X321524983Y-45601993D01*
X321321555Y-45656502D01*
X321145384Y-45703707D01*
X321145381Y-45703708D01*
X321145380Y-45703708D01*
X320776078Y-45838124D01*
X320419937Y-46004195D01*
X320419913Y-46004207D01*
X320079587Y-46200695D01*
X320079572Y-46200704D01*
X319757652Y-46426115D01*
X319456606Y-46678724D01*
X319178724Y-46956606D01*
X318926115Y-47257652D01*
X318700704Y-47579572D01*
X318700695Y-47579587D01*
X318504207Y-47919913D01*
X318504195Y-47919937D01*
X318338124Y-48276078D01*
X318203708Y-48645380D01*
X318203708Y-48645382D01*
X318101993Y-49024983D01*
X318101991Y-49024994D01*
X318033751Y-49412000D01*
X318033751Y-49412004D01*
X317999500Y-49803499D01*
X304500500Y-49803499D01*
X304466249Y-49412007D01*
X304398007Y-49024985D01*
X304296293Y-48645384D01*
X304161881Y-48276092D01*
X304161876Y-48276083D01*
X304161875Y-48276078D01*
X303995804Y-47919937D01*
X303995792Y-47919913D01*
X303983455Y-47898546D01*
X303799300Y-47579579D01*
X303573889Y-47257659D01*
X303573888Y-47257658D01*
X303573884Y-47257652D01*
X303321275Y-46956606D01*
X303043393Y-46678724D01*
X302742347Y-46426115D01*
X302420427Y-46200704D01*
X302420424Y-46200702D01*
X302420421Y-46200700D01*
X302319305Y-46142320D01*
X302080086Y-46004207D01*
X302080062Y-46004195D01*
X301723921Y-45838124D01*
X301723910Y-45838120D01*
X301723908Y-45838119D01*
X301354616Y-45703707D01*
X301113960Y-45639223D01*
X300975016Y-45601993D01*
X300975005Y-45601991D01*
X300587997Y-45533751D01*
X300196500Y-45499500D01*
X300196496Y-45499500D01*
X299803504Y-45499500D01*
X299803499Y-45499500D01*
X299412004Y-45533751D01*
X299412000Y-45533751D01*
X299024994Y-45601991D01*
X299024983Y-45601993D01*
X298821555Y-45656502D01*
X298645384Y-45703707D01*
X298645381Y-45703708D01*
X298645380Y-45703708D01*
X298276078Y-45838124D01*
X297919937Y-46004195D01*
X297919913Y-46004207D01*
X297579587Y-46200695D01*
X297579572Y-46200704D01*
X297257652Y-46426115D01*
X296956606Y-46678724D01*
X296678724Y-46956606D01*
X296426115Y-47257652D01*
X296200704Y-47579572D01*
X296200695Y-47579587D01*
X296004207Y-47919913D01*
X296004195Y-47919937D01*
X295838124Y-48276078D01*
X295703708Y-48645380D01*
X295703708Y-48645382D01*
X295601993Y-49024983D01*
X295601991Y-49024994D01*
X295533751Y-49412000D01*
X295533751Y-49412004D01*
X295499500Y-49803499D01*
X259604063Y-49803499D01*
X268109059Y-41298503D01*
X278870743Y-30536818D01*
X278932066Y-30503333D01*
X278958424Y-30500499D01*
X283154630Y-30500499D01*
X283154636Y-30500499D01*
X283241599Y-30497700D01*
X283625661Y-30452995D01*
X284003090Y-30369037D01*
X284369887Y-30246717D01*
X284722162Y-30087331D01*
X285056182Y-29892568D01*
X285368406Y-29664494D01*
X285655525Y-29405525D01*
X285914494Y-29118406D01*
X286142568Y-28806182D01*
X286337331Y-28472162D01*
X286496717Y-28119887D01*
X286619037Y-27753090D01*
X286702995Y-27375661D01*
X286747700Y-26991599D01*
X286750500Y-26904637D01*
X286750499Y-23095364D01*
X286747700Y-23008401D01*
X286709461Y-22679889D01*
X286714372Y-22651229D01*
X286716447Y-22622219D01*
X286720203Y-22617201D01*
X286721262Y-22611024D01*
X286740890Y-22589566D01*
X286758319Y-22566286D01*
X286764191Y-22564095D01*
X286768422Y-22559471D01*
X286796535Y-22552032D01*
X286823783Y-22541869D01*
X286829907Y-22543201D01*
X286835967Y-22541598D01*
X286863639Y-22550539D01*
X286892056Y-22556721D01*
X286899106Y-22561999D01*
X286902452Y-22563080D01*
X286920310Y-22577872D01*
X286996216Y-22653778D01*
X287029701Y-22715101D01*
X287031703Y-22755796D01*
X287002300Y-23008394D01*
X287002300Y-23008396D01*
X287002300Y-23008397D01*
X287002300Y-23008401D01*
X287000318Y-23069976D01*
X286999500Y-23095370D01*
X286999500Y-26904630D01*
X287002300Y-26991604D01*
X287047004Y-27375655D01*
X287047007Y-27375674D01*
X287130959Y-27753076D01*
X287130966Y-27753102D01*
X287253277Y-28119872D01*
X287253281Y-28119882D01*
X287253283Y-28119887D01*
X287412669Y-28472162D01*
X287607432Y-28806182D01*
X287835504Y-29118403D01*
X287835512Y-29118413D01*
X288094474Y-29405525D01*
X288381586Y-29664487D01*
X288381594Y-29664494D01*
X288693818Y-29892568D01*
X289027838Y-30087331D01*
X289380113Y-30246717D01*
X289380122Y-30246720D01*
X289380127Y-30246722D01*
X289746897Y-30369033D01*
X289746902Y-30369034D01*
X289746910Y-30369037D01*
X289746920Y-30369039D01*
X289746923Y-30369040D01*
X290124325Y-30452992D01*
X290124326Y-30452992D01*
X290124339Y-30452995D01*
X290508401Y-30497700D01*
X290595363Y-30500500D01*
X299404636Y-30500499D01*
X299491599Y-30497700D01*
X299875661Y-30452995D01*
X300253090Y-30369037D01*
X300619887Y-30246717D01*
X300972162Y-30087331D01*
X301306182Y-29892568D01*
X301618406Y-29664494D01*
X301905525Y-29405525D01*
X302164494Y-29118406D01*
X302392568Y-28806182D01*
X302587331Y-28472162D01*
X302746717Y-28119887D01*
X302869037Y-27753090D01*
X302952995Y-27375661D01*
X302997700Y-26991599D01*
X303000500Y-26904637D01*
X303000500Y-26814197D01*
X322000001Y-26814197D01*
X322010400Y-26946332D01*
X322065377Y-27164519D01*
X322158428Y-27369374D01*
X322158431Y-27369380D01*
X322286559Y-27554323D01*
X322286569Y-27554335D01*
X322445664Y-27713430D01*
X322445676Y-27713440D01*
X322630619Y-27841568D01*
X322630625Y-27841571D01*
X322835480Y-27934622D01*
X323053667Y-27989599D01*
X323185809Y-27999999D01*
X327249999Y-27999999D01*
X327750000Y-27999999D01*
X331814182Y-27999999D01*
X331814197Y-27999998D01*
X331946332Y-27989599D01*
X332164519Y-27934622D01*
X332369374Y-27841571D01*
X332369380Y-27841568D01*
X332554323Y-27713440D01*
X332554335Y-27713430D01*
X332713430Y-27554335D01*
X332713440Y-27554323D01*
X332841568Y-27369380D01*
X332841571Y-27369374D01*
X332934622Y-27164519D01*
X332989599Y-26946332D01*
X332999999Y-26814196D01*
X333000000Y-26814184D01*
X333000000Y-25250000D01*
X327750000Y-25250000D01*
X327750000Y-27999999D01*
X327249999Y-27999999D01*
X327250000Y-27999998D01*
X327250000Y-25250000D01*
X322000001Y-25250000D01*
X322000001Y-26814197D01*
X303000500Y-26814197D01*
X303000499Y-24799138D01*
X303000499Y-23095369D01*
X302999682Y-23069979D01*
X302997700Y-23008401D01*
X302968295Y-22755793D01*
X302968777Y-22752981D01*
X302967779Y-22750304D01*
X302974644Y-22718744D01*
X302980096Y-22686931D01*
X302982208Y-22683974D01*
X302982631Y-22682031D01*
X303003779Y-22653781D01*
X303121744Y-22535818D01*
X303183067Y-22502334D01*
X303209424Y-22499500D01*
X322025473Y-22499500D01*
X322092512Y-22519185D01*
X322138267Y-22571989D01*
X322148211Y-22641147D01*
X322138372Y-22674782D01*
X322065377Y-22835483D01*
X322010400Y-23053667D01*
X322000000Y-23185803D01*
X322000000Y-24750000D01*
X332999999Y-24750000D01*
X332999999Y-23185817D01*
X332999998Y-23185802D01*
X332989599Y-23053667D01*
X332934622Y-22835483D01*
X332861628Y-22674782D01*
X332851825Y-22605603D01*
X332880980Y-22542107D01*
X332939834Y-22504452D01*
X332974527Y-22499500D01*
X344170576Y-22499500D01*
X344237615Y-22519185D01*
X344258257Y-22535819D01*
X347743181Y-26020743D01*
X347776666Y-26082066D01*
X347779500Y-26108424D01*
X347779500Y-26493448D01*
X347782278Y-26574092D01*
X347826644Y-26930014D01*
X347826645Y-26930023D01*
X347841340Y-26991604D01*
X347901615Y-27244202D01*
X347909897Y-27278907D01*
X348031016Y-27616494D01*
X348031020Y-27616502D01*
X348188544Y-27938722D01*
X348303366Y-28119872D01*
X348380562Y-28241662D01*
X348604741Y-28521641D01*
X348858359Y-28775259D01*
X349138338Y-28999438D01*
X349326030Y-29118406D01*
X349441277Y-29191455D01*
X349763497Y-29348979D01*
X349763505Y-29348983D01*
X350101092Y-29470102D01*
X350101094Y-29470102D01*
X350101104Y-29470106D01*
X350449979Y-29553355D01*
X350805895Y-29597720D01*
X350805903Y-29597720D01*
X350805909Y-29597721D01*
X350805906Y-29597721D01*
X350849890Y-29599236D01*
X350886565Y-29600500D01*
X353873434Y-29600499D01*
X353873448Y-29600499D01*
X353954092Y-29597721D01*
X353954098Y-29597720D01*
X353954105Y-29597720D01*
X354310021Y-29553355D01*
X354658896Y-29470106D01*
X354996495Y-29348983D01*
X355318721Y-29191456D01*
X355621662Y-28999438D01*
X355901641Y-28775259D01*
X356155259Y-28521641D01*
X356379438Y-28241662D01*
X356571456Y-27938721D01*
X356728983Y-27616495D01*
X356850106Y-27278896D01*
X356933355Y-26930021D01*
X356977720Y-26574105D01*
X356977720Y-26574096D01*
X356977721Y-26574091D01*
X356979065Y-26535068D01*
X356980500Y-26493435D01*
X356980499Y-23506566D01*
X356980499Y-23506565D01*
X356980499Y-23506551D01*
X356977721Y-23425907D01*
X356947792Y-23185802D01*
X356933355Y-23069979D01*
X356850106Y-22721104D01*
X356849259Y-22718744D01*
X356728983Y-22383505D01*
X356728979Y-22383497D01*
X356571455Y-22061277D01*
X356514439Y-21971326D01*
X356379438Y-21758338D01*
X356155259Y-21478359D01*
X355901641Y-21224741D01*
X355621662Y-21000562D01*
X355487339Y-20915422D01*
X355318722Y-20808544D01*
X354996502Y-20651020D01*
X354996494Y-20651016D01*
X354658907Y-20529897D01*
X354658899Y-20529895D01*
X354658896Y-20529894D01*
X354505354Y-20493255D01*
X354310023Y-20446645D01*
X354310014Y-20446644D01*
X353954090Y-20402278D01*
X353954093Y-20402278D01*
X353873448Y-20399500D01*
X353873435Y-20399500D01*
X353488424Y-20399500D01*
X353421385Y-20379815D01*
X353400743Y-20363181D01*
X351999243Y-18961681D01*
X351965758Y-18900358D01*
X351970742Y-18830666D01*
X352012614Y-18774733D01*
X352078078Y-18750316D01*
X352086924Y-18750000D01*
X403626000Y-18750000D01*
X403693039Y-18769685D01*
X403738794Y-18822489D01*
X403750000Y-18874000D01*
X403750000Y-251126000D01*
X403730315Y-251193039D01*
X403677511Y-251238794D01*
X403626000Y-251250000D01*
X218874000Y-251250000D01*
X218806961Y-251230315D01*
X218761206Y-251177511D01*
X218750000Y-251126000D01*
X218750000Y-219803499D01*
X225499500Y-219803499D01*
X225499500Y-220196500D01*
X225533751Y-220587995D01*
X225533751Y-220587999D01*
X225586380Y-220886471D01*
X225601993Y-220975015D01*
X225703707Y-221354616D01*
X225703708Y-221354618D01*
X225703708Y-221354619D01*
X225838124Y-221723921D01*
X226004195Y-222080062D01*
X226004207Y-222080086D01*
X226200695Y-222420412D01*
X226200704Y-222420427D01*
X226426115Y-222742347D01*
X226618793Y-222971971D01*
X226678722Y-223043391D01*
X226956609Y-223321278D01*
X227063738Y-223411170D01*
X227257652Y-223573884D01*
X227257658Y-223573888D01*
X227257659Y-223573889D01*
X227579579Y-223799300D01*
X227919920Y-223995796D01*
X227919934Y-223995802D01*
X227919937Y-223995804D01*
X228276078Y-224161875D01*
X228276083Y-224161876D01*
X228276092Y-224161881D01*
X228645384Y-224296293D01*
X229024985Y-224398007D01*
X229412007Y-224466249D01*
X229803502Y-224500499D01*
X229803503Y-224500500D01*
X229803504Y-224500500D01*
X230196497Y-224500500D01*
X230196497Y-224500499D01*
X230587993Y-224466249D01*
X230975015Y-224398007D01*
X231354616Y-224296293D01*
X231723908Y-224161881D01*
X232080080Y-223995796D01*
X232420421Y-223799300D01*
X232742341Y-223573889D01*
X233043391Y-223321278D01*
X233321278Y-223043391D01*
X233573889Y-222742341D01*
X233799300Y-222420421D01*
X233995796Y-222080080D01*
X234161881Y-221723908D01*
X234296293Y-221354616D01*
X234398007Y-220975015D01*
X234466249Y-220587993D01*
X234500500Y-220196496D01*
X234500500Y-219868905D01*
X298000000Y-219868905D01*
X298000000Y-220131094D01*
X298034220Y-220391009D01*
X298034222Y-220391020D01*
X298102075Y-220644255D01*
X298202404Y-220886471D01*
X298202409Y-220886482D01*
X298333488Y-221113516D01*
X298333494Y-221113524D01*
X298420080Y-221226365D01*
X299137425Y-220509019D01*
X299223249Y-220637463D01*
X299362537Y-220776751D01*
X299490978Y-220862573D01*
X298773633Y-221579917D01*
X298773633Y-221579918D01*
X298886475Y-221666505D01*
X298886483Y-221666511D01*
X299113517Y-221797590D01*
X299113528Y-221797595D01*
X299355744Y-221897924D01*
X299608979Y-221965777D01*
X299608990Y-221965779D01*
X299868905Y-221999999D01*
X299868920Y-222000000D01*
X300131080Y-222000000D01*
X300131094Y-221999999D01*
X300391009Y-221965779D01*
X300391020Y-221965777D01*
X300644255Y-221897924D01*
X300886471Y-221797595D01*
X300886482Y-221797590D01*
X301113516Y-221666511D01*
X301113534Y-221666499D01*
X301226365Y-221579919D01*
X301226365Y-221579917D01*
X300509020Y-220862573D01*
X300637463Y-220776751D01*
X300776751Y-220637463D01*
X300862573Y-220509021D01*
X301579917Y-221226365D01*
X301579919Y-221226365D01*
X301666499Y-221113534D01*
X301666511Y-221113516D01*
X301797590Y-220886482D01*
X301797595Y-220886471D01*
X301897924Y-220644255D01*
X301965777Y-220391020D01*
X301965779Y-220391009D01*
X301999999Y-220131094D01*
X302000000Y-220131080D01*
X302000000Y-219868919D01*
X301999999Y-219868905D01*
X301993163Y-219816984D01*
X301993163Y-219816983D01*
X301991388Y-219803499D01*
X317999500Y-219803499D01*
X317999500Y-220196500D01*
X318033751Y-220587995D01*
X318033751Y-220587999D01*
X318086380Y-220886471D01*
X318101993Y-220975015D01*
X318203707Y-221354616D01*
X318203708Y-221354618D01*
X318203708Y-221354619D01*
X318338124Y-221723921D01*
X318504195Y-222080062D01*
X318504207Y-222080086D01*
X318700695Y-222420412D01*
X318700704Y-222420427D01*
X318926115Y-222742347D01*
X319118793Y-222971971D01*
X319178722Y-223043391D01*
X319456609Y-223321278D01*
X319563738Y-223411170D01*
X319757652Y-223573884D01*
X319757658Y-223573888D01*
X319757659Y-223573889D01*
X320079579Y-223799300D01*
X320419920Y-223995796D01*
X320419934Y-223995802D01*
X320419937Y-223995804D01*
X320776078Y-224161875D01*
X320776083Y-224161876D01*
X320776092Y-224161881D01*
X321145384Y-224296293D01*
X321524985Y-224398007D01*
X321912007Y-224466249D01*
X322303502Y-224500499D01*
X322303503Y-224500500D01*
X322303504Y-224500500D01*
X322696497Y-224500500D01*
X322696497Y-224500499D01*
X323087993Y-224466249D01*
X323475015Y-224398007D01*
X323854616Y-224296293D01*
X324223908Y-224161881D01*
X324580080Y-223995796D01*
X324920421Y-223799300D01*
X325242341Y-223573889D01*
X325543391Y-223321278D01*
X325821278Y-223043391D01*
X326073889Y-222742341D01*
X326299300Y-222420421D01*
X326495796Y-222080080D01*
X326661881Y-221723908D01*
X326796293Y-221354616D01*
X326898007Y-220975015D01*
X326966249Y-220587993D01*
X327000500Y-220196496D01*
X327000500Y-219868905D01*
X390500000Y-219868905D01*
X390500000Y-220131094D01*
X390534220Y-220391009D01*
X390534222Y-220391020D01*
X390602075Y-220644255D01*
X390702404Y-220886471D01*
X390702409Y-220886482D01*
X390833488Y-221113516D01*
X390833494Y-221113524D01*
X390920080Y-221226365D01*
X391637425Y-220509019D01*
X391723249Y-220637463D01*
X391862537Y-220776751D01*
X391990978Y-220862573D01*
X391273633Y-221579917D01*
X391273633Y-221579918D01*
X391386475Y-221666505D01*
X391386483Y-221666511D01*
X391613517Y-221797590D01*
X391613528Y-221797595D01*
X391855744Y-221897924D01*
X392108979Y-221965777D01*
X392108990Y-221965779D01*
X392368905Y-221999999D01*
X392368920Y-222000000D01*
X392631080Y-222000000D01*
X392631094Y-221999999D01*
X392891009Y-221965779D01*
X392891020Y-221965777D01*
X393144255Y-221897924D01*
X393386471Y-221797595D01*
X393386482Y-221797590D01*
X393613516Y-221666511D01*
X393613534Y-221666499D01*
X393726365Y-221579919D01*
X393726365Y-221579917D01*
X393009020Y-220862573D01*
X393137463Y-220776751D01*
X393276751Y-220637463D01*
X393362573Y-220509021D01*
X394079917Y-221226365D01*
X394079919Y-221226365D01*
X394166499Y-221113534D01*
X394166511Y-221113516D01*
X394297590Y-220886482D01*
X394297595Y-220886471D01*
X394397924Y-220644255D01*
X394465777Y-220391020D01*
X394465779Y-220391009D01*
X394499999Y-220131094D01*
X394500000Y-220131080D01*
X394500000Y-219868919D01*
X394499999Y-219868905D01*
X394465779Y-219608990D01*
X394465777Y-219608979D01*
X394397924Y-219355744D01*
X394297595Y-219113528D01*
X394297590Y-219113517D01*
X394166511Y-218886483D01*
X394166505Y-218886475D01*
X394079918Y-218773633D01*
X394079917Y-218773633D01*
X393362572Y-219490977D01*
X393276751Y-219362537D01*
X393137463Y-219223249D01*
X393009019Y-219137425D01*
X393726365Y-218420080D01*
X393613524Y-218333494D01*
X393613516Y-218333488D01*
X393386482Y-218202409D01*
X393386471Y-218202404D01*
X393144255Y-218102075D01*
X392891020Y-218034222D01*
X392891009Y-218034220D01*
X392631094Y-218000000D01*
X392368905Y-218000000D01*
X392108990Y-218034220D01*
X392108979Y-218034222D01*
X391855744Y-218102075D01*
X391613528Y-218202404D01*
X391613517Y-218202409D01*
X391386471Y-218333496D01*
X391273633Y-218420079D01*
X391273633Y-218420080D01*
X391990979Y-219137426D01*
X391862537Y-219223249D01*
X391723249Y-219362537D01*
X391637426Y-219490979D01*
X390920080Y-218773633D01*
X390920079Y-218773633D01*
X390833496Y-218886471D01*
X390702409Y-219113517D01*
X390702404Y-219113528D01*
X390602075Y-219355744D01*
X390534222Y-219608979D01*
X390534220Y-219608990D01*
X390500000Y-219868905D01*
X327000500Y-219868905D01*
X327000500Y-219803504D01*
X326966249Y-219412007D01*
X326898007Y-219024985D01*
X326796293Y-218645384D01*
X326661881Y-218276092D01*
X326661876Y-218276083D01*
X326661875Y-218276078D01*
X326495804Y-217919937D01*
X326495792Y-217919913D01*
X326483455Y-217898546D01*
X326299300Y-217579579D01*
X326073889Y-217257659D01*
X326073888Y-217257658D01*
X326073884Y-217257652D01*
X325821275Y-216956606D01*
X325543393Y-216678724D01*
X325242347Y-216426115D01*
X324920427Y-216200704D01*
X324920424Y-216200702D01*
X324920421Y-216200700D01*
X324819305Y-216142320D01*
X324580086Y-216004207D01*
X324580062Y-216004195D01*
X324223921Y-215838124D01*
X324223910Y-215838120D01*
X324223908Y-215838119D01*
X323854616Y-215703707D01*
X323613960Y-215639223D01*
X323475016Y-215601993D01*
X323475005Y-215601991D01*
X323087997Y-215533751D01*
X322696500Y-215499500D01*
X322696496Y-215499500D01*
X322303504Y-215499500D01*
X322303499Y-215499500D01*
X321912004Y-215533751D01*
X321912000Y-215533751D01*
X321524994Y-215601991D01*
X321524983Y-215601993D01*
X321321555Y-215656502D01*
X321145384Y-215703707D01*
X321145381Y-215703708D01*
X321145380Y-215703708D01*
X320776078Y-215838124D01*
X320419937Y-216004195D01*
X320419913Y-216004207D01*
X320079587Y-216200695D01*
X320079572Y-216200704D01*
X319757652Y-216426115D01*
X319456606Y-216678724D01*
X319178724Y-216956606D01*
X318926115Y-217257652D01*
X318700704Y-217579572D01*
X318700695Y-217579587D01*
X318504207Y-217919913D01*
X318504195Y-217919937D01*
X318338124Y-218276078D01*
X318203708Y-218645380D01*
X318203708Y-218645382D01*
X318101993Y-219024983D01*
X318101991Y-219024994D01*
X318033751Y-219412000D01*
X318033751Y-219412004D01*
X317999500Y-219803499D01*
X301991388Y-219803499D01*
X301965780Y-219608992D01*
X301965777Y-219608979D01*
X301897924Y-219355744D01*
X301797595Y-219113528D01*
X301797590Y-219113517D01*
X301666511Y-218886483D01*
X301666505Y-218886475D01*
X301579918Y-218773633D01*
X301579917Y-218773633D01*
X300862572Y-219490977D01*
X300776751Y-219362537D01*
X300637463Y-219223249D01*
X300509019Y-219137425D01*
X301226365Y-218420080D01*
X301113524Y-218333494D01*
X301113516Y-218333488D01*
X300886482Y-218202409D01*
X300886471Y-218202404D01*
X300644255Y-218102075D01*
X300391020Y-218034222D01*
X300391009Y-218034220D01*
X300131094Y-218000000D01*
X299868905Y-218000000D01*
X299608990Y-218034220D01*
X299608979Y-218034222D01*
X299355744Y-218102075D01*
X299113528Y-218202404D01*
X299113517Y-218202409D01*
X298886471Y-218333496D01*
X298773633Y-218420079D01*
X298773633Y-218420080D01*
X299490979Y-219137426D01*
X299362537Y-219223249D01*
X299223249Y-219362537D01*
X299137426Y-219490979D01*
X298420080Y-218773633D01*
X298420079Y-218773633D01*
X298333496Y-218886471D01*
X298202409Y-219113517D01*
X298202404Y-219113528D01*
X298102075Y-219355744D01*
X298034222Y-219608979D01*
X298034220Y-219608990D01*
X298000000Y-219868905D01*
X234500500Y-219868905D01*
X234500500Y-219803504D01*
X234466249Y-219412007D01*
X234398007Y-219024985D01*
X234296293Y-218645384D01*
X234161881Y-218276092D01*
X234161876Y-218276083D01*
X234161875Y-218276078D01*
X233995804Y-217919937D01*
X233995792Y-217919913D01*
X233983455Y-217898546D01*
X233799300Y-217579579D01*
X233573889Y-217257659D01*
X233573888Y-217257658D01*
X233573884Y-217257652D01*
X233321275Y-216956606D01*
X233043393Y-216678724D01*
X232742347Y-216426115D01*
X232420427Y-216200704D01*
X232420424Y-216200702D01*
X232420421Y-216200700D01*
X232319305Y-216142320D01*
X232080086Y-216004207D01*
X232080062Y-216004195D01*
X231723921Y-215838124D01*
X231723910Y-215838120D01*
X231723908Y-215838119D01*
X231354616Y-215703707D01*
X231113960Y-215639223D01*
X230975016Y-215601993D01*
X230975005Y-215601991D01*
X230587997Y-215533751D01*
X230196500Y-215499500D01*
X230196496Y-215499500D01*
X229803504Y-215499500D01*
X229803499Y-215499500D01*
X229412004Y-215533751D01*
X229412000Y-215533751D01*
X229024994Y-215601991D01*
X229024983Y-215601993D01*
X228821555Y-215656502D01*
X228645384Y-215703707D01*
X228645381Y-215703708D01*
X228645380Y-215703708D01*
X228276078Y-215838124D01*
X227919937Y-216004195D01*
X227919913Y-216004207D01*
X227579587Y-216200695D01*
X227579572Y-216200704D01*
X227257652Y-216426115D01*
X226956606Y-216678724D01*
X226678724Y-216956606D01*
X226426115Y-217257652D01*
X226200704Y-217579572D01*
X226200695Y-217579587D01*
X226004207Y-217919913D01*
X226004195Y-217919937D01*
X225838124Y-218276078D01*
X225703708Y-218645380D01*
X225703708Y-218645382D01*
X225601993Y-219024983D01*
X225601991Y-219024994D01*
X225533751Y-219412000D01*
X225533751Y-219412004D01*
X225499500Y-219803499D01*
X218750000Y-219803499D01*
X218750000Y-177303499D01*
X225499500Y-177303499D01*
X225499500Y-177696500D01*
X225533751Y-178087995D01*
X225533751Y-178087999D01*
X225601991Y-178475005D01*
X225601993Y-178475015D01*
X225703707Y-178854616D01*
X225703708Y-178854618D01*
X225703708Y-178854619D01*
X225838124Y-179223921D01*
X226004195Y-179580062D01*
X226004207Y-179580086D01*
X226200695Y-179920412D01*
X226200704Y-179920427D01*
X226426115Y-180242347D01*
X226618793Y-180471971D01*
X226678722Y-180543391D01*
X226956609Y-180821278D01*
X227063738Y-180911170D01*
X227257652Y-181073884D01*
X227257658Y-181073888D01*
X227257659Y-181073889D01*
X227579579Y-181299300D01*
X227919920Y-181495796D01*
X227919934Y-181495802D01*
X227919937Y-181495804D01*
X228276078Y-181661875D01*
X228276083Y-181661876D01*
X228276092Y-181661881D01*
X228645384Y-181796293D01*
X229024985Y-181898007D01*
X229412007Y-181966249D01*
X229803502Y-182000499D01*
X229803503Y-182000500D01*
X229803504Y-182000500D01*
X230196497Y-182000500D01*
X230196497Y-182000499D01*
X230587993Y-181966249D01*
X230975015Y-181898007D01*
X231354616Y-181796293D01*
X231723908Y-181661881D01*
X232080080Y-181495796D01*
X232420421Y-181299300D01*
X232742341Y-181073889D01*
X233043391Y-180821278D01*
X233321278Y-180543391D01*
X233573889Y-180242341D01*
X233799300Y-179920421D01*
X233995796Y-179580080D01*
X234161881Y-179223908D01*
X234296293Y-178854616D01*
X234398007Y-178475015D01*
X234466249Y-178087993D01*
X234500500Y-177696496D01*
X234500500Y-177303504D01*
X234500500Y-177303499D01*
X295499500Y-177303499D01*
X295499500Y-177696500D01*
X295533751Y-178087995D01*
X295533751Y-178087999D01*
X295601991Y-178475005D01*
X295601993Y-178475015D01*
X295703707Y-178854616D01*
X295703708Y-178854618D01*
X295703708Y-178854619D01*
X295838124Y-179223921D01*
X296004195Y-179580062D01*
X296004207Y-179580086D01*
X296200695Y-179920412D01*
X296200704Y-179920427D01*
X296426115Y-180242347D01*
X296618793Y-180471971D01*
X296678722Y-180543391D01*
X296956609Y-180821278D01*
X297063738Y-180911170D01*
X297257652Y-181073884D01*
X297257658Y-181073888D01*
X297257659Y-181073889D01*
X297579579Y-181299300D01*
X297919920Y-181495796D01*
X297919934Y-181495802D01*
X297919937Y-181495804D01*
X298276078Y-181661875D01*
X298276083Y-181661876D01*
X298276092Y-181661881D01*
X298645384Y-181796293D01*
X299024985Y-181898007D01*
X299412007Y-181966249D01*
X299803502Y-182000499D01*
X299803503Y-182000500D01*
X299803504Y-182000500D01*
X300196497Y-182000500D01*
X300196497Y-182000499D01*
X300587993Y-181966249D01*
X300975015Y-181898007D01*
X301354616Y-181796293D01*
X301723908Y-181661881D01*
X302080080Y-181495796D01*
X302420421Y-181299300D01*
X302742341Y-181073889D01*
X303043391Y-180821278D01*
X303321278Y-180543391D01*
X303573889Y-180242341D01*
X303799300Y-179920421D01*
X303995796Y-179580080D01*
X304161881Y-179223908D01*
X304296293Y-178854616D01*
X304398007Y-178475015D01*
X304466249Y-178087993D01*
X304500500Y-177696496D01*
X304500500Y-177303504D01*
X304500500Y-177303499D01*
X317999500Y-177303499D01*
X317999500Y-177696500D01*
X318033751Y-178087995D01*
X318033751Y-178087999D01*
X318101991Y-178475005D01*
X318101993Y-178475015D01*
X318203707Y-178854616D01*
X318203708Y-178854618D01*
X318203708Y-178854619D01*
X318338124Y-179223921D01*
X318504195Y-179580062D01*
X318504207Y-179580086D01*
X318700695Y-179920412D01*
X318700704Y-179920427D01*
X318926115Y-180242347D01*
X319118793Y-180471971D01*
X319178722Y-180543391D01*
X319456609Y-180821278D01*
X319563738Y-180911170D01*
X319757652Y-181073884D01*
X319757658Y-181073888D01*
X319757659Y-181073889D01*
X320079579Y-181299300D01*
X320419920Y-181495796D01*
X320419934Y-181495802D01*
X320419937Y-181495804D01*
X320776078Y-181661875D01*
X320776083Y-181661876D01*
X320776092Y-181661881D01*
X321145384Y-181796293D01*
X321524985Y-181898007D01*
X321912007Y-181966249D01*
X322303502Y-182000499D01*
X322303503Y-182000500D01*
X322303504Y-182000500D01*
X322696497Y-182000500D01*
X322696497Y-182000499D01*
X323087993Y-181966249D01*
X323475015Y-181898007D01*
X323854616Y-181796293D01*
X324223908Y-181661881D01*
X324580080Y-181495796D01*
X324920421Y-181299300D01*
X325242341Y-181073889D01*
X325543391Y-180821278D01*
X325821278Y-180543391D01*
X326073889Y-180242341D01*
X326299300Y-179920421D01*
X326495796Y-179580080D01*
X326661881Y-179223908D01*
X326796293Y-178854616D01*
X326898007Y-178475015D01*
X326966249Y-178087993D01*
X327000500Y-177696496D01*
X327000500Y-177303504D01*
X327000500Y-177303499D01*
X387999500Y-177303499D01*
X387999500Y-177696500D01*
X388033751Y-178087995D01*
X388033751Y-178087999D01*
X388101991Y-178475005D01*
X388101993Y-178475015D01*
X388203707Y-178854616D01*
X388203708Y-178854618D01*
X388203708Y-178854619D01*
X388338124Y-179223921D01*
X388504195Y-179580062D01*
X388504207Y-179580086D01*
X388700695Y-179920412D01*
X388700704Y-179920427D01*
X388926115Y-180242347D01*
X389118793Y-180471971D01*
X389178722Y-180543391D01*
X389456609Y-180821278D01*
X389563738Y-180911170D01*
X389757652Y-181073884D01*
X389757658Y-181073888D01*
X389757659Y-181073889D01*
X390079579Y-181299300D01*
X390419920Y-181495796D01*
X390419934Y-181495802D01*
X390419937Y-181495804D01*
X390776078Y-181661875D01*
X390776083Y-181661876D01*
X390776092Y-181661881D01*
X391145384Y-181796293D01*
X391524985Y-181898007D01*
X391912007Y-181966249D01*
X392303502Y-182000499D01*
X392303503Y-182000500D01*
X392303504Y-182000500D01*
X392696497Y-182000500D01*
X392696497Y-182000499D01*
X393087993Y-181966249D01*
X393475015Y-181898007D01*
X393854616Y-181796293D01*
X394223908Y-181661881D01*
X394580080Y-181495796D01*
X394920421Y-181299300D01*
X395242341Y-181073889D01*
X395543391Y-180821278D01*
X395821278Y-180543391D01*
X396073889Y-180242341D01*
X396299300Y-179920421D01*
X396495796Y-179580080D01*
X396661881Y-179223908D01*
X396796293Y-178854616D01*
X396898007Y-178475015D01*
X396966249Y-178087993D01*
X397000500Y-177696496D01*
X397000500Y-177303504D01*
X396966249Y-176912007D01*
X396898007Y-176524985D01*
X396796293Y-176145384D01*
X396661881Y-175776092D01*
X396661876Y-175776083D01*
X396661875Y-175776078D01*
X396495804Y-175419937D01*
X396495792Y-175419913D01*
X396483455Y-175398546D01*
X396299300Y-175079579D01*
X396073889Y-174757659D01*
X396073888Y-174757658D01*
X396073884Y-174757652D01*
X395821275Y-174456606D01*
X395543393Y-174178724D01*
X395242347Y-173926115D01*
X394920427Y-173700704D01*
X394920424Y-173700702D01*
X394920421Y-173700700D01*
X394819305Y-173642320D01*
X394580086Y-173504207D01*
X394580062Y-173504195D01*
X394223921Y-173338124D01*
X394223910Y-173338120D01*
X394223908Y-173338119D01*
X393854616Y-173203707D01*
X393613960Y-173139223D01*
X393475016Y-173101993D01*
X393475005Y-173101991D01*
X393087997Y-173033751D01*
X392696500Y-172999500D01*
X392696496Y-172999500D01*
X392303504Y-172999500D01*
X392303499Y-172999500D01*
X391912004Y-173033751D01*
X391912000Y-173033751D01*
X391524994Y-173101991D01*
X391524983Y-173101993D01*
X391321555Y-173156502D01*
X391145384Y-173203707D01*
X391145381Y-173203708D01*
X391145380Y-173203708D01*
X390776078Y-173338124D01*
X390419937Y-173504195D01*
X390419913Y-173504207D01*
X390079587Y-173700695D01*
X390079572Y-173700704D01*
X389757652Y-173926115D01*
X389456606Y-174178724D01*
X389178724Y-174456606D01*
X388926115Y-174757652D01*
X388700704Y-175079572D01*
X388700695Y-175079587D01*
X388504207Y-175419913D01*
X388504195Y-175419937D01*
X388338124Y-175776078D01*
X388203708Y-176145380D01*
X388203708Y-176145382D01*
X388101993Y-176524983D01*
X388101991Y-176524994D01*
X388033751Y-176912000D01*
X388033751Y-176912004D01*
X387999500Y-177303499D01*
X327000500Y-177303499D01*
X326966249Y-176912007D01*
X326898007Y-176524985D01*
X326796293Y-176145384D01*
X326661881Y-175776092D01*
X326661876Y-175776083D01*
X326661875Y-175776078D01*
X326495804Y-175419937D01*
X326495792Y-175419913D01*
X326483455Y-175398546D01*
X326299300Y-175079579D01*
X326073889Y-174757659D01*
X326073888Y-174757658D01*
X326073884Y-174757652D01*
X325821275Y-174456606D01*
X325543393Y-174178724D01*
X325242347Y-173926115D01*
X324920427Y-173700704D01*
X324920424Y-173700702D01*
X324920421Y-173700700D01*
X324819305Y-173642320D01*
X324580086Y-173504207D01*
X324580062Y-173504195D01*
X324223921Y-173338124D01*
X324223910Y-173338120D01*
X324223908Y-173338119D01*
X323854616Y-173203707D01*
X323613960Y-173139223D01*
X323475016Y-173101993D01*
X323475005Y-173101991D01*
X323087997Y-173033751D01*
X322696500Y-172999500D01*
X322696496Y-172999500D01*
X322303504Y-172999500D01*
X322303499Y-172999500D01*
X321912004Y-173033751D01*
X321912000Y-173033751D01*
X321524994Y-173101991D01*
X321524983Y-173101993D01*
X321321555Y-173156502D01*
X321145384Y-173203707D01*
X321145381Y-173203708D01*
X321145380Y-173203708D01*
X320776078Y-173338124D01*
X320419937Y-173504195D01*
X320419913Y-173504207D01*
X320079587Y-173700695D01*
X320079572Y-173700704D01*
X319757652Y-173926115D01*
X319456606Y-174178724D01*
X319178724Y-174456606D01*
X318926115Y-174757652D01*
X318700704Y-175079572D01*
X318700695Y-175079587D01*
X318504207Y-175419913D01*
X318504195Y-175419937D01*
X318338124Y-175776078D01*
X318203708Y-176145380D01*
X318203708Y-176145382D01*
X318101993Y-176524983D01*
X318101991Y-176524994D01*
X318033751Y-176912000D01*
X318033751Y-176912004D01*
X317999500Y-177303499D01*
X304500500Y-177303499D01*
X304466249Y-176912007D01*
X304398007Y-176524985D01*
X304296293Y-176145384D01*
X304161881Y-175776092D01*
X304161876Y-175776083D01*
X304161875Y-175776078D01*
X303995804Y-175419937D01*
X303995792Y-175419913D01*
X303983455Y-175398546D01*
X303799300Y-175079579D01*
X303573889Y-174757659D01*
X303573888Y-174757658D01*
X303573884Y-174757652D01*
X303321275Y-174456606D01*
X303043393Y-174178724D01*
X302742347Y-173926115D01*
X302420427Y-173700704D01*
X302420424Y-173700702D01*
X302420421Y-173700700D01*
X302319305Y-173642320D01*
X302080086Y-173504207D01*
X302080062Y-173504195D01*
X301723921Y-173338124D01*
X301723910Y-173338120D01*
X301723908Y-173338119D01*
X301354616Y-173203707D01*
X301113960Y-173139223D01*
X300975016Y-173101993D01*
X300975005Y-173101991D01*
X300587997Y-173033751D01*
X300196500Y-172999500D01*
X300196496Y-172999500D01*
X299803504Y-172999500D01*
X299803499Y-172999500D01*
X299412004Y-173033751D01*
X299412000Y-173033751D01*
X299024994Y-173101991D01*
X299024983Y-173101993D01*
X298821555Y-173156502D01*
X298645384Y-173203707D01*
X298645381Y-173203708D01*
X298645380Y-173203708D01*
X298276078Y-173338124D01*
X297919937Y-173504195D01*
X297919913Y-173504207D01*
X297579587Y-173700695D01*
X297579572Y-173700704D01*
X297257652Y-173926115D01*
X296956606Y-174178724D01*
X296678724Y-174456606D01*
X296426115Y-174757652D01*
X296200704Y-175079572D01*
X296200695Y-175079587D01*
X296004207Y-175419913D01*
X296004195Y-175419937D01*
X295838124Y-175776078D01*
X295703708Y-176145380D01*
X295703708Y-176145382D01*
X295601993Y-176524983D01*
X295601991Y-176524994D01*
X295533751Y-176912000D01*
X295533751Y-176912004D01*
X295499500Y-177303499D01*
X234500500Y-177303499D01*
X234466249Y-176912007D01*
X234398007Y-176524985D01*
X234296293Y-176145384D01*
X234161881Y-175776092D01*
X234161876Y-175776083D01*
X234161875Y-175776078D01*
X233995804Y-175419937D01*
X233995792Y-175419913D01*
X233983455Y-175398546D01*
X233799300Y-175079579D01*
X233573889Y-174757659D01*
X233573888Y-174757658D01*
X233573884Y-174757652D01*
X233321275Y-174456606D01*
X233043393Y-174178724D01*
X232742347Y-173926115D01*
X232420427Y-173700704D01*
X232420424Y-173700702D01*
X232420421Y-173700700D01*
X232319305Y-173642320D01*
X232080086Y-173504207D01*
X232080062Y-173504195D01*
X231723921Y-173338124D01*
X231723910Y-173338120D01*
X231723908Y-173338119D01*
X231354616Y-173203707D01*
X231113960Y-173139223D01*
X230975016Y-173101993D01*
X230975005Y-173101991D01*
X230587997Y-173033751D01*
X230196500Y-172999500D01*
X230196496Y-172999500D01*
X229803504Y-172999500D01*
X229803499Y-172999500D01*
X229412004Y-173033751D01*
X229412000Y-173033751D01*
X229024994Y-173101991D01*
X229024983Y-173101993D01*
X228821555Y-173156502D01*
X228645384Y-173203707D01*
X228645381Y-173203708D01*
X228645380Y-173203708D01*
X228276078Y-173338124D01*
X227919937Y-173504195D01*
X227919913Y-173504207D01*
X227579587Y-173700695D01*
X227579572Y-173700704D01*
X227257652Y-173926115D01*
X226956606Y-174178724D01*
X226678724Y-174456606D01*
X226426115Y-174757652D01*
X226200704Y-175079572D01*
X226200695Y-175079587D01*
X226004207Y-175419913D01*
X226004195Y-175419937D01*
X225838124Y-175776078D01*
X225703708Y-176145380D01*
X225703708Y-176145382D01*
X225601993Y-176524983D01*
X225601991Y-176524994D01*
X225533751Y-176912000D01*
X225533751Y-176912004D01*
X225499500Y-177303499D01*
X218750000Y-177303499D01*
X218750000Y-134803499D01*
X225499500Y-134803499D01*
X225499500Y-135196500D01*
X225533751Y-135587995D01*
X225533751Y-135587999D01*
X225601991Y-135975005D01*
X225601993Y-135975015D01*
X225703707Y-136354616D01*
X225703708Y-136354618D01*
X225703708Y-136354619D01*
X225838124Y-136723921D01*
X226004195Y-137080062D01*
X226004207Y-137080086D01*
X226200695Y-137420412D01*
X226200704Y-137420427D01*
X226426115Y-137742347D01*
X226618793Y-137971971D01*
X226678722Y-138043391D01*
X226956609Y-138321278D01*
X227063738Y-138411170D01*
X227257652Y-138573884D01*
X227257658Y-138573888D01*
X227257659Y-138573889D01*
X227579579Y-138799300D01*
X227919920Y-138995796D01*
X227919934Y-138995802D01*
X227919937Y-138995804D01*
X228276078Y-139161875D01*
X228276083Y-139161876D01*
X228276092Y-139161881D01*
X228645384Y-139296293D01*
X229024985Y-139398007D01*
X229412007Y-139466249D01*
X229803502Y-139500499D01*
X229803503Y-139500500D01*
X229803504Y-139500500D01*
X230196497Y-139500500D01*
X230196497Y-139500499D01*
X230587993Y-139466249D01*
X230975015Y-139398007D01*
X231354616Y-139296293D01*
X231723908Y-139161881D01*
X232080080Y-138995796D01*
X232420421Y-138799300D01*
X232742341Y-138573889D01*
X233043391Y-138321278D01*
X233321278Y-138043391D01*
X233573889Y-137742341D01*
X233799300Y-137420421D01*
X233995796Y-137080080D01*
X234161881Y-136723908D01*
X234296293Y-136354616D01*
X234398007Y-135975015D01*
X234466249Y-135587993D01*
X234500500Y-135196496D01*
X234500500Y-134803504D01*
X234500500Y-134803499D01*
X295499500Y-134803499D01*
X295499500Y-135196500D01*
X295533751Y-135587995D01*
X295533751Y-135587999D01*
X295601991Y-135975005D01*
X295601993Y-135975015D01*
X295703707Y-136354616D01*
X295703708Y-136354618D01*
X295703708Y-136354619D01*
X295838124Y-136723921D01*
X296004195Y-137080062D01*
X296004207Y-137080086D01*
X296200695Y-137420412D01*
X296200704Y-137420427D01*
X296426115Y-137742347D01*
X296618793Y-137971971D01*
X296678722Y-138043391D01*
X296956609Y-138321278D01*
X297063738Y-138411170D01*
X297257652Y-138573884D01*
X297257658Y-138573888D01*
X297257659Y-138573889D01*
X297579579Y-138799300D01*
X297919920Y-138995796D01*
X297919934Y-138995802D01*
X297919937Y-138995804D01*
X298276078Y-139161875D01*
X298276083Y-139161876D01*
X298276092Y-139161881D01*
X298645384Y-139296293D01*
X299024985Y-139398007D01*
X299412007Y-139466249D01*
X299803502Y-139500499D01*
X299803503Y-139500500D01*
X299803504Y-139500500D01*
X300196497Y-139500500D01*
X300196497Y-139500499D01*
X300587993Y-139466249D01*
X300975015Y-139398007D01*
X301354616Y-139296293D01*
X301723908Y-139161881D01*
X302080080Y-138995796D01*
X302420421Y-138799300D01*
X302742341Y-138573889D01*
X303043391Y-138321278D01*
X303321278Y-138043391D01*
X303573889Y-137742341D01*
X303799300Y-137420421D01*
X303995796Y-137080080D01*
X304161881Y-136723908D01*
X304296293Y-136354616D01*
X304398007Y-135975015D01*
X304466249Y-135587993D01*
X304500500Y-135196496D01*
X304500500Y-134803504D01*
X304500500Y-134803499D01*
X317999500Y-134803499D01*
X317999500Y-135196500D01*
X318033751Y-135587995D01*
X318033751Y-135587999D01*
X318101991Y-135975005D01*
X318101993Y-135975015D01*
X318203707Y-136354616D01*
X318203708Y-136354618D01*
X318203708Y-136354619D01*
X318338124Y-136723921D01*
X318504195Y-137080062D01*
X318504207Y-137080086D01*
X318700695Y-137420412D01*
X318700704Y-137420427D01*
X318926115Y-137742347D01*
X319118793Y-137971971D01*
X319178722Y-138043391D01*
X319456609Y-138321278D01*
X319563738Y-138411170D01*
X319757652Y-138573884D01*
X319757658Y-138573888D01*
X319757659Y-138573889D01*
X320079579Y-138799300D01*
X320419920Y-138995796D01*
X320419934Y-138995802D01*
X320419937Y-138995804D01*
X320776078Y-139161875D01*
X320776083Y-139161876D01*
X320776092Y-139161881D01*
X321145384Y-139296293D01*
X321524985Y-139398007D01*
X321912007Y-139466249D01*
X322303502Y-139500499D01*
X322303503Y-139500500D01*
X322303504Y-139500500D01*
X322696497Y-139500500D01*
X322696497Y-139500499D01*
X323087993Y-139466249D01*
X323475015Y-139398007D01*
X323854616Y-139296293D01*
X324223908Y-139161881D01*
X324580080Y-138995796D01*
X324920421Y-138799300D01*
X325242341Y-138573889D01*
X325543391Y-138321278D01*
X325821278Y-138043391D01*
X326073889Y-137742341D01*
X326299300Y-137420421D01*
X326495796Y-137080080D01*
X326661881Y-136723908D01*
X326796293Y-136354616D01*
X326898007Y-135975015D01*
X326966249Y-135587993D01*
X327000500Y-135196496D01*
X327000500Y-134803504D01*
X327000500Y-134803499D01*
X387999500Y-134803499D01*
X387999500Y-135196500D01*
X388033751Y-135587995D01*
X388033751Y-135587999D01*
X388101991Y-135975005D01*
X388101993Y-135975015D01*
X388203707Y-136354616D01*
X388203708Y-136354618D01*
X388203708Y-136354619D01*
X388338124Y-136723921D01*
X388504195Y-137080062D01*
X388504207Y-137080086D01*
X388700695Y-137420412D01*
X388700704Y-137420427D01*
X388926115Y-137742347D01*
X389118793Y-137971971D01*
X389178722Y-138043391D01*
X389456609Y-138321278D01*
X389563738Y-138411170D01*
X389757652Y-138573884D01*
X389757658Y-138573888D01*
X389757659Y-138573889D01*
X390079579Y-138799300D01*
X390419920Y-138995796D01*
X390419934Y-138995802D01*
X390419937Y-138995804D01*
X390776078Y-139161875D01*
X390776083Y-139161876D01*
X390776092Y-139161881D01*
X391145384Y-139296293D01*
X391524985Y-139398007D01*
X391912007Y-139466249D01*
X392303502Y-139500499D01*
X392303503Y-139500500D01*
X392303504Y-139500500D01*
X392696497Y-139500500D01*
X392696497Y-139500499D01*
X393087993Y-139466249D01*
X393475015Y-139398007D01*
X393854616Y-139296293D01*
X394223908Y-139161881D01*
X394580080Y-138995796D01*
X394920421Y-138799300D01*
X395242341Y-138573889D01*
X395543391Y-138321278D01*
X395821278Y-138043391D01*
X396073889Y-137742341D01*
X396299300Y-137420421D01*
X396495796Y-137080080D01*
X396661881Y-136723908D01*
X396796293Y-136354616D01*
X396898007Y-135975015D01*
X396966249Y-135587993D01*
X397000500Y-135196496D01*
X397000500Y-134803504D01*
X396966249Y-134412007D01*
X396898007Y-134024985D01*
X396796293Y-133645384D01*
X396661881Y-133276092D01*
X396661876Y-133276083D01*
X396661875Y-133276078D01*
X396495804Y-132919937D01*
X396495792Y-132919913D01*
X396483455Y-132898546D01*
X396299300Y-132579579D01*
X396073889Y-132257659D01*
X396073888Y-132257658D01*
X396073884Y-132257652D01*
X395821275Y-131956606D01*
X395543393Y-131678724D01*
X395242347Y-131426115D01*
X394920427Y-131200704D01*
X394920424Y-131200702D01*
X394920421Y-131200700D01*
X394819305Y-131142320D01*
X394580086Y-131004207D01*
X394580062Y-131004195D01*
X394223921Y-130838124D01*
X394223910Y-130838120D01*
X394223908Y-130838119D01*
X393854616Y-130703707D01*
X393613960Y-130639223D01*
X393475016Y-130601993D01*
X393475005Y-130601991D01*
X393087997Y-130533751D01*
X392696500Y-130499500D01*
X392696496Y-130499500D01*
X392303504Y-130499500D01*
X392303499Y-130499500D01*
X391912004Y-130533751D01*
X391912000Y-130533751D01*
X391524994Y-130601991D01*
X391524983Y-130601993D01*
X391321555Y-130656502D01*
X391145384Y-130703707D01*
X391145381Y-130703708D01*
X391145380Y-130703708D01*
X390776078Y-130838124D01*
X390419937Y-131004195D01*
X390419913Y-131004207D01*
X390079587Y-131200695D01*
X390079572Y-131200704D01*
X389757652Y-131426115D01*
X389456606Y-131678724D01*
X389178724Y-131956606D01*
X388926115Y-132257652D01*
X388700704Y-132579572D01*
X388700695Y-132579587D01*
X388504207Y-132919913D01*
X388504195Y-132919937D01*
X388338124Y-133276078D01*
X388203708Y-133645380D01*
X388203708Y-133645382D01*
X388101993Y-134024983D01*
X388101991Y-134024994D01*
X388033751Y-134412000D01*
X388033751Y-134412004D01*
X387999500Y-134803499D01*
X327000500Y-134803499D01*
X326966249Y-134412007D01*
X326898007Y-134024985D01*
X326796293Y-133645384D01*
X326661881Y-133276092D01*
X326661876Y-133276083D01*
X326661875Y-133276078D01*
X326495804Y-132919937D01*
X326495792Y-132919913D01*
X326483455Y-132898546D01*
X326299300Y-132579579D01*
X326073889Y-132257659D01*
X326073888Y-132257658D01*
X326073884Y-132257652D01*
X325821275Y-131956606D01*
X325543393Y-131678724D01*
X325242347Y-131426115D01*
X324920427Y-131200704D01*
X324920424Y-131200702D01*
X324920421Y-131200700D01*
X324819305Y-131142320D01*
X324580086Y-131004207D01*
X324580062Y-131004195D01*
X324223921Y-130838124D01*
X324223910Y-130838120D01*
X324223908Y-130838119D01*
X323854616Y-130703707D01*
X323613960Y-130639223D01*
X323475016Y-130601993D01*
X323475005Y-130601991D01*
X323087997Y-130533751D01*
X322696500Y-130499500D01*
X322696496Y-130499500D01*
X322303504Y-130499500D01*
X322303499Y-130499500D01*
X321912004Y-130533751D01*
X321912000Y-130533751D01*
X321524994Y-130601991D01*
X321524983Y-130601993D01*
X321321555Y-130656502D01*
X321145384Y-130703707D01*
X321145381Y-130703708D01*
X321145380Y-130703708D01*
X320776078Y-130838124D01*
X320419937Y-131004195D01*
X320419913Y-131004207D01*
X320079587Y-131200695D01*
X320079572Y-131200704D01*
X319757652Y-131426115D01*
X319456606Y-131678724D01*
X319178724Y-131956606D01*
X318926115Y-132257652D01*
X318700704Y-132579572D01*
X318700695Y-132579587D01*
X318504207Y-132919913D01*
X318504195Y-132919937D01*
X318338124Y-133276078D01*
X318203708Y-133645380D01*
X318203708Y-133645382D01*
X318101993Y-134024983D01*
X318101991Y-134024994D01*
X318033751Y-134412000D01*
X318033751Y-134412004D01*
X317999500Y-134803499D01*
X304500500Y-134803499D01*
X304466249Y-134412007D01*
X304398007Y-134024985D01*
X304296293Y-133645384D01*
X304161881Y-133276092D01*
X304161876Y-133276083D01*
X304161875Y-133276078D01*
X303995804Y-132919937D01*
X303995792Y-132919913D01*
X303983455Y-132898546D01*
X303799300Y-132579579D01*
X303573889Y-132257659D01*
X303573888Y-132257658D01*
X303573884Y-132257652D01*
X303321275Y-131956606D01*
X303043393Y-131678724D01*
X302742347Y-131426115D01*
X302420427Y-131200704D01*
X302420424Y-131200702D01*
X302420421Y-131200700D01*
X302319305Y-131142320D01*
X302080086Y-131004207D01*
X302080062Y-131004195D01*
X301723921Y-130838124D01*
X301723910Y-130838120D01*
X301723908Y-130838119D01*
X301354616Y-130703707D01*
X301113960Y-130639223D01*
X300975016Y-130601993D01*
X300975005Y-130601991D01*
X300587997Y-130533751D01*
X300196500Y-130499500D01*
X300196496Y-130499500D01*
X299803504Y-130499500D01*
X299803499Y-130499500D01*
X299412004Y-130533751D01*
X299412000Y-130533751D01*
X299024994Y-130601991D01*
X299024983Y-130601993D01*
X298821555Y-130656502D01*
X298645384Y-130703707D01*
X298645381Y-130703708D01*
X298645380Y-130703708D01*
X298276078Y-130838124D01*
X297919937Y-131004195D01*
X297919913Y-131004207D01*
X297579587Y-131200695D01*
X297579572Y-131200704D01*
X297257652Y-131426115D01*
X296956606Y-131678724D01*
X296678724Y-131956606D01*
X296426115Y-132257652D01*
X296200704Y-132579572D01*
X296200695Y-132579587D01*
X296004207Y-132919913D01*
X296004195Y-132919937D01*
X295838124Y-133276078D01*
X295703708Y-133645380D01*
X295703708Y-133645382D01*
X295601993Y-134024983D01*
X295601991Y-134024994D01*
X295533751Y-134412000D01*
X295533751Y-134412004D01*
X295499500Y-134803499D01*
X234500500Y-134803499D01*
X234466249Y-134412007D01*
X234398007Y-134024985D01*
X234296293Y-133645384D01*
X234161881Y-133276092D01*
X234161876Y-133276083D01*
X234161875Y-133276078D01*
X233995804Y-132919937D01*
X233995792Y-132919913D01*
X233983455Y-132898546D01*
X233799300Y-132579579D01*
X233573889Y-132257659D01*
X233573888Y-132257658D01*
X233573884Y-132257652D01*
X233321275Y-131956606D01*
X233043393Y-131678724D01*
X232742347Y-131426115D01*
X232420427Y-131200704D01*
X232420424Y-131200702D01*
X232420421Y-131200700D01*
X232319305Y-131142320D01*
X232080086Y-131004207D01*
X232080062Y-131004195D01*
X231723921Y-130838124D01*
X231723910Y-130838120D01*
X231723908Y-130838119D01*
X231354616Y-130703707D01*
X231113960Y-130639223D01*
X230975016Y-130601993D01*
X230975005Y-130601991D01*
X230587997Y-130533751D01*
X230196500Y-130499500D01*
X230196496Y-130499500D01*
X229803504Y-130499500D01*
X229803499Y-130499500D01*
X229412004Y-130533751D01*
X229412000Y-130533751D01*
X229024994Y-130601991D01*
X229024983Y-130601993D01*
X228821555Y-130656502D01*
X228645384Y-130703707D01*
X228645381Y-130703708D01*
X228645380Y-130703708D01*
X228276078Y-130838124D01*
X227919937Y-131004195D01*
X227919913Y-131004207D01*
X227579587Y-131200695D01*
X227579572Y-131200704D01*
X227257652Y-131426115D01*
X226956606Y-131678724D01*
X226678724Y-131956606D01*
X226426115Y-132257652D01*
X226200704Y-132579572D01*
X226200695Y-132579587D01*
X226004207Y-132919913D01*
X226004195Y-132919937D01*
X225838124Y-133276078D01*
X225703708Y-133645380D01*
X225703708Y-133645382D01*
X225601993Y-134024983D01*
X225601991Y-134024994D01*
X225533751Y-134412000D01*
X225533751Y-134412004D01*
X225499500Y-134803499D01*
X218750000Y-134803499D01*
X218750000Y-18874000D01*
X218769685Y-18806961D01*
X218822489Y-18761206D01*
X218874000Y-18750000D01*
X257543075Y-18750000D01*
X257610114Y-18769685D01*
G37*
%TD.AperFunction*%
%TD*%
%TA.AperFunction,Conductor*%
%TO.N,GND1*%
G36*
X205467611Y-45019714D02*
G01*
X205513393Y-45072494D01*
X205524625Y-45124356D01*
X204976743Y-277357777D01*
X204956900Y-277424769D01*
X204903988Y-277470400D01*
X204852763Y-277481484D01*
X20461870Y-277511879D01*
X20394828Y-277492205D01*
X20349064Y-277439409D01*
X20337850Y-277388009D01*
X20337818Y-277357777D01*
X20304977Y-246053499D01*
X26749500Y-246053499D01*
X26749500Y-246446500D01*
X26783751Y-246837995D01*
X26783751Y-246837999D01*
X26836380Y-247136471D01*
X26851993Y-247225015D01*
X26953707Y-247604616D01*
X26953708Y-247604618D01*
X26953708Y-247604619D01*
X27088124Y-247973921D01*
X27254195Y-248330062D01*
X27254207Y-248330086D01*
X27450695Y-248670412D01*
X27450704Y-248670427D01*
X27676115Y-248992347D01*
X27868793Y-249221971D01*
X27928722Y-249293391D01*
X28206609Y-249571278D01*
X28313738Y-249661170D01*
X28507652Y-249823884D01*
X28507658Y-249823888D01*
X28507659Y-249823889D01*
X28829579Y-250049300D01*
X29169920Y-250245796D01*
X29169934Y-250245802D01*
X29169937Y-250245804D01*
X29526078Y-250411875D01*
X29526083Y-250411876D01*
X29526092Y-250411881D01*
X29895384Y-250546293D01*
X30274985Y-250648007D01*
X30662007Y-250716249D01*
X31053502Y-250750499D01*
X31053503Y-250750500D01*
X31053504Y-250750500D01*
X31446497Y-250750500D01*
X31446497Y-250750499D01*
X31837993Y-250716249D01*
X32225015Y-250648007D01*
X32604616Y-250546293D01*
X32973908Y-250411881D01*
X33330080Y-250245796D01*
X33670421Y-250049300D01*
X33992341Y-249823889D01*
X34293391Y-249571278D01*
X34571278Y-249293391D01*
X34823889Y-248992341D01*
X35049300Y-248670421D01*
X35245796Y-248330080D01*
X35411881Y-247973908D01*
X35546293Y-247604616D01*
X35648007Y-247225015D01*
X35716249Y-246837993D01*
X35750500Y-246446496D01*
X35750500Y-246118905D01*
X99250000Y-246118905D01*
X99250000Y-246381094D01*
X99284220Y-246641009D01*
X99284222Y-246641020D01*
X99352075Y-246894255D01*
X99452404Y-247136471D01*
X99452409Y-247136482D01*
X99583488Y-247363516D01*
X99583494Y-247363524D01*
X99670080Y-247476365D01*
X100387425Y-246759019D01*
X100473249Y-246887463D01*
X100612537Y-247026751D01*
X100740978Y-247112573D01*
X100023633Y-247829917D01*
X100023633Y-247829918D01*
X100136475Y-247916505D01*
X100136483Y-247916511D01*
X100363517Y-248047590D01*
X100363528Y-248047595D01*
X100605744Y-248147924D01*
X100858979Y-248215777D01*
X100858990Y-248215779D01*
X101118905Y-248249999D01*
X101118920Y-248250000D01*
X101381080Y-248250000D01*
X101381094Y-248249999D01*
X101641009Y-248215779D01*
X101641020Y-248215777D01*
X101894255Y-248147924D01*
X102136471Y-248047595D01*
X102136482Y-248047590D01*
X102363516Y-247916511D01*
X102363534Y-247916499D01*
X102476365Y-247829919D01*
X102476365Y-247829917D01*
X101759020Y-247112573D01*
X101887463Y-247026751D01*
X102026751Y-246887463D01*
X102112573Y-246759021D01*
X102829917Y-247476365D01*
X102829919Y-247476365D01*
X102916499Y-247363534D01*
X102916511Y-247363516D01*
X103047590Y-247136482D01*
X103047595Y-247136471D01*
X103147924Y-246894255D01*
X103215777Y-246641020D01*
X103215779Y-246641009D01*
X103249999Y-246381094D01*
X103250000Y-246381080D01*
X103250000Y-246118919D01*
X103249999Y-246118905D01*
X103243163Y-246066984D01*
X103243163Y-246066983D01*
X103241388Y-246053499D01*
X119249500Y-246053499D01*
X119249500Y-246446500D01*
X119283751Y-246837995D01*
X119283751Y-246837999D01*
X119336380Y-247136471D01*
X119351993Y-247225015D01*
X119453707Y-247604616D01*
X119453708Y-247604618D01*
X119453708Y-247604619D01*
X119588124Y-247973921D01*
X119754195Y-248330062D01*
X119754207Y-248330086D01*
X119950695Y-248670412D01*
X119950704Y-248670427D01*
X120176115Y-248992347D01*
X120368793Y-249221971D01*
X120428722Y-249293391D01*
X120706609Y-249571278D01*
X120813738Y-249661170D01*
X121007652Y-249823884D01*
X121007658Y-249823888D01*
X121007659Y-249823889D01*
X121329579Y-250049300D01*
X121669920Y-250245796D01*
X121669934Y-250245802D01*
X121669937Y-250245804D01*
X122026078Y-250411875D01*
X122026083Y-250411876D01*
X122026092Y-250411881D01*
X122395384Y-250546293D01*
X122774985Y-250648007D01*
X123162007Y-250716249D01*
X123553502Y-250750499D01*
X123553503Y-250750500D01*
X123553504Y-250750500D01*
X123946497Y-250750500D01*
X123946497Y-250750499D01*
X124337993Y-250716249D01*
X124725015Y-250648007D01*
X125104616Y-250546293D01*
X125473908Y-250411881D01*
X125830080Y-250245796D01*
X126170421Y-250049300D01*
X126492341Y-249823889D01*
X126793391Y-249571278D01*
X127071278Y-249293391D01*
X127323889Y-248992341D01*
X127549300Y-248670421D01*
X127745796Y-248330080D01*
X127911881Y-247973908D01*
X128046293Y-247604616D01*
X128148007Y-247225015D01*
X128216249Y-246837993D01*
X128250500Y-246446496D01*
X128250500Y-246118905D01*
X191750000Y-246118905D01*
X191750000Y-246381094D01*
X191784220Y-246641009D01*
X191784222Y-246641020D01*
X191852075Y-246894255D01*
X191952404Y-247136471D01*
X191952409Y-247136482D01*
X192083488Y-247363516D01*
X192083494Y-247363524D01*
X192170080Y-247476365D01*
X192887425Y-246759019D01*
X192973249Y-246887463D01*
X193112537Y-247026751D01*
X193240978Y-247112573D01*
X192523633Y-247829917D01*
X192523633Y-247829918D01*
X192636475Y-247916505D01*
X192636483Y-247916511D01*
X192863517Y-248047590D01*
X192863528Y-248047595D01*
X193105744Y-248147924D01*
X193358979Y-248215777D01*
X193358990Y-248215779D01*
X193618905Y-248249999D01*
X193618920Y-248250000D01*
X193881080Y-248250000D01*
X193881094Y-248249999D01*
X194141009Y-248215779D01*
X194141020Y-248215777D01*
X194394255Y-248147924D01*
X194636471Y-248047595D01*
X194636482Y-248047590D01*
X194863516Y-247916511D01*
X194863534Y-247916499D01*
X194976365Y-247829919D01*
X194976365Y-247829917D01*
X194259020Y-247112573D01*
X194387463Y-247026751D01*
X194526751Y-246887463D01*
X194612573Y-246759021D01*
X195329917Y-247476365D01*
X195329919Y-247476365D01*
X195416499Y-247363534D01*
X195416511Y-247363516D01*
X195547590Y-247136482D01*
X195547595Y-247136471D01*
X195647924Y-246894255D01*
X195715777Y-246641020D01*
X195715779Y-246641009D01*
X195749999Y-246381094D01*
X195750000Y-246381080D01*
X195750000Y-246118919D01*
X195749999Y-246118905D01*
X195715779Y-245858990D01*
X195715777Y-245858979D01*
X195647924Y-245605744D01*
X195547595Y-245363528D01*
X195547590Y-245363517D01*
X195416511Y-245136483D01*
X195416505Y-245136475D01*
X195329918Y-245023633D01*
X195329917Y-245023633D01*
X194612572Y-245740978D01*
X194526751Y-245612537D01*
X194387463Y-245473249D01*
X194259019Y-245387425D01*
X194976365Y-244670080D01*
X194863524Y-244583494D01*
X194863516Y-244583488D01*
X194636482Y-244452409D01*
X194636471Y-244452404D01*
X194394255Y-244352075D01*
X194141020Y-244284222D01*
X194141009Y-244284220D01*
X193881094Y-244250000D01*
X193618905Y-244250000D01*
X193358990Y-244284220D01*
X193358979Y-244284222D01*
X193105744Y-244352075D01*
X192863528Y-244452404D01*
X192863517Y-244452409D01*
X192636471Y-244583496D01*
X192523633Y-244670079D01*
X192523633Y-244670080D01*
X193240979Y-245387426D01*
X193112537Y-245473249D01*
X192973249Y-245612537D01*
X192887426Y-245740979D01*
X192170080Y-245023633D01*
X192170079Y-245023633D01*
X192083496Y-245136471D01*
X191952409Y-245363517D01*
X191952404Y-245363528D01*
X191852075Y-245605744D01*
X191784222Y-245858979D01*
X191784220Y-245858990D01*
X191750000Y-246118905D01*
X128250500Y-246118905D01*
X128250500Y-246053504D01*
X128216249Y-245662007D01*
X128148007Y-245274985D01*
X128046293Y-244895384D01*
X127911881Y-244526092D01*
X127911876Y-244526083D01*
X127911875Y-244526078D01*
X127745804Y-244169937D01*
X127745792Y-244169913D01*
X127733455Y-244148546D01*
X127549300Y-243829579D01*
X127323889Y-243507659D01*
X127323888Y-243507658D01*
X127323884Y-243507652D01*
X127071275Y-243206606D01*
X126793393Y-242928724D01*
X126492347Y-242676115D01*
X126170427Y-242450704D01*
X126170424Y-242450702D01*
X126170421Y-242450700D01*
X126069305Y-242392320D01*
X125830086Y-242254207D01*
X125830062Y-242254195D01*
X125473921Y-242088124D01*
X125473910Y-242088120D01*
X125473908Y-242088119D01*
X125104616Y-241953707D01*
X124863960Y-241889223D01*
X124725016Y-241851993D01*
X124725005Y-241851991D01*
X124337997Y-241783751D01*
X123946500Y-241749500D01*
X123946496Y-241749500D01*
X123553504Y-241749500D01*
X123553499Y-241749500D01*
X123162004Y-241783751D01*
X123162000Y-241783751D01*
X122774994Y-241851991D01*
X122774983Y-241851993D01*
X122571555Y-241906502D01*
X122395384Y-241953707D01*
X122395381Y-241953708D01*
X122395380Y-241953708D01*
X122026078Y-242088124D01*
X121669937Y-242254195D01*
X121669913Y-242254207D01*
X121329587Y-242450695D01*
X121329572Y-242450704D01*
X121007652Y-242676115D01*
X120706606Y-242928724D01*
X120428724Y-243206606D01*
X120176115Y-243507652D01*
X119950704Y-243829572D01*
X119950695Y-243829587D01*
X119754207Y-244169913D01*
X119754195Y-244169937D01*
X119588124Y-244526078D01*
X119453708Y-244895380D01*
X119453708Y-244895382D01*
X119351993Y-245274983D01*
X119351991Y-245274994D01*
X119283751Y-245662000D01*
X119283751Y-245662004D01*
X119249500Y-246053499D01*
X103241388Y-246053499D01*
X103215780Y-245858992D01*
X103215777Y-245858979D01*
X103147924Y-245605744D01*
X103047595Y-245363528D01*
X103047590Y-245363517D01*
X102916511Y-245136483D01*
X102916505Y-245136475D01*
X102829918Y-245023633D01*
X102829917Y-245023633D01*
X102112572Y-245740978D01*
X102026751Y-245612537D01*
X101887463Y-245473249D01*
X101759019Y-245387425D01*
X102476365Y-244670080D01*
X102363524Y-244583494D01*
X102363516Y-244583488D01*
X102136482Y-244452409D01*
X102136471Y-244452404D01*
X101894255Y-244352075D01*
X101641020Y-244284222D01*
X101641009Y-244284220D01*
X101381094Y-244250000D01*
X101118905Y-244250000D01*
X100858990Y-244284220D01*
X100858979Y-244284222D01*
X100605744Y-244352075D01*
X100363528Y-244452404D01*
X100363517Y-244452409D01*
X100136471Y-244583496D01*
X100023633Y-244670079D01*
X100023633Y-244670080D01*
X100740979Y-245387426D01*
X100612537Y-245473249D01*
X100473249Y-245612537D01*
X100387426Y-245740979D01*
X99670080Y-245023633D01*
X99670079Y-245023633D01*
X99583496Y-245136471D01*
X99452409Y-245363517D01*
X99452404Y-245363528D01*
X99352075Y-245605744D01*
X99284222Y-245858979D01*
X99284220Y-245858990D01*
X99250000Y-246118905D01*
X35750500Y-246118905D01*
X35750500Y-246053504D01*
X35716249Y-245662007D01*
X35648007Y-245274985D01*
X35546293Y-244895384D01*
X35411881Y-244526092D01*
X35411876Y-244526083D01*
X35411875Y-244526078D01*
X35245804Y-244169937D01*
X35245792Y-244169913D01*
X35233455Y-244148546D01*
X35049300Y-243829579D01*
X34823889Y-243507659D01*
X34823888Y-243507658D01*
X34823884Y-243507652D01*
X34571275Y-243206606D01*
X34293393Y-242928724D01*
X33992347Y-242676115D01*
X33670427Y-242450704D01*
X33670424Y-242450702D01*
X33670421Y-242450700D01*
X33569305Y-242392320D01*
X33330086Y-242254207D01*
X33330062Y-242254195D01*
X32973921Y-242088124D01*
X32973910Y-242088120D01*
X32973908Y-242088119D01*
X32604616Y-241953707D01*
X32363960Y-241889223D01*
X32225016Y-241851993D01*
X32225005Y-241851991D01*
X31837997Y-241783751D01*
X31446500Y-241749500D01*
X31446496Y-241749500D01*
X31053504Y-241749500D01*
X31053499Y-241749500D01*
X30662004Y-241783751D01*
X30662000Y-241783751D01*
X30274994Y-241851991D01*
X30274983Y-241851993D01*
X30071555Y-241906502D01*
X29895384Y-241953707D01*
X29895381Y-241953708D01*
X29895380Y-241953708D01*
X29526078Y-242088124D01*
X29169937Y-242254195D01*
X29169913Y-242254207D01*
X28829587Y-242450695D01*
X28829572Y-242450704D01*
X28507652Y-242676115D01*
X28206606Y-242928724D01*
X27928724Y-243206606D01*
X27676115Y-243507652D01*
X27450704Y-243829572D01*
X27450695Y-243829587D01*
X27254207Y-244169913D01*
X27254195Y-244169937D01*
X27088124Y-244526078D01*
X26953708Y-244895380D01*
X26953708Y-244895382D01*
X26851993Y-245274983D01*
X26851991Y-245274994D01*
X26783751Y-245662000D01*
X26783751Y-245662004D01*
X26749500Y-246053499D01*
X20304977Y-246053499D01*
X20260391Y-203553499D01*
X26749500Y-203553499D01*
X26749500Y-203946500D01*
X26783751Y-204337995D01*
X26783751Y-204337999D01*
X26851991Y-204725005D01*
X26851993Y-204725015D01*
X26953707Y-205104616D01*
X26953708Y-205104618D01*
X26953708Y-205104619D01*
X27088124Y-205473921D01*
X27254195Y-205830062D01*
X27254207Y-205830086D01*
X27450695Y-206170412D01*
X27450704Y-206170427D01*
X27676115Y-206492347D01*
X27868793Y-206721971D01*
X27928722Y-206793391D01*
X28206609Y-207071278D01*
X28313738Y-207161170D01*
X28507652Y-207323884D01*
X28507658Y-207323888D01*
X28507659Y-207323889D01*
X28829579Y-207549300D01*
X29169920Y-207745796D01*
X29169934Y-207745802D01*
X29169937Y-207745804D01*
X29526078Y-207911875D01*
X29526083Y-207911876D01*
X29526092Y-207911881D01*
X29895384Y-208046293D01*
X30274985Y-208148007D01*
X30662007Y-208216249D01*
X31053502Y-208250499D01*
X31053503Y-208250500D01*
X31053504Y-208250500D01*
X31446497Y-208250500D01*
X31446497Y-208250499D01*
X31837993Y-208216249D01*
X32225015Y-208148007D01*
X32604616Y-208046293D01*
X32973908Y-207911881D01*
X33330080Y-207745796D01*
X33670421Y-207549300D01*
X33992341Y-207323889D01*
X34293391Y-207071278D01*
X34571278Y-206793391D01*
X34823889Y-206492341D01*
X35049300Y-206170421D01*
X35245796Y-205830080D01*
X35411881Y-205473908D01*
X35546293Y-205104616D01*
X35648007Y-204725015D01*
X35716249Y-204337993D01*
X35750500Y-203946496D01*
X35750500Y-203553504D01*
X35750500Y-203553499D01*
X96749500Y-203553499D01*
X96749500Y-203946500D01*
X96783751Y-204337995D01*
X96783751Y-204337999D01*
X96851991Y-204725005D01*
X96851993Y-204725015D01*
X96953707Y-205104616D01*
X96953708Y-205104618D01*
X96953708Y-205104619D01*
X97088124Y-205473921D01*
X97254195Y-205830062D01*
X97254207Y-205830086D01*
X97450695Y-206170412D01*
X97450704Y-206170427D01*
X97676115Y-206492347D01*
X97868793Y-206721971D01*
X97928722Y-206793391D01*
X98206609Y-207071278D01*
X98313738Y-207161170D01*
X98507652Y-207323884D01*
X98507658Y-207323888D01*
X98507659Y-207323889D01*
X98829579Y-207549300D01*
X99169920Y-207745796D01*
X99169934Y-207745802D01*
X99169937Y-207745804D01*
X99526078Y-207911875D01*
X99526083Y-207911876D01*
X99526092Y-207911881D01*
X99895384Y-208046293D01*
X100274985Y-208148007D01*
X100662007Y-208216249D01*
X101053502Y-208250499D01*
X101053503Y-208250500D01*
X101053504Y-208250500D01*
X101446497Y-208250500D01*
X101446497Y-208250499D01*
X101837993Y-208216249D01*
X102225015Y-208148007D01*
X102604616Y-208046293D01*
X102973908Y-207911881D01*
X103330080Y-207745796D01*
X103670421Y-207549300D01*
X103992341Y-207323889D01*
X104293391Y-207071278D01*
X104571278Y-206793391D01*
X104823889Y-206492341D01*
X105049300Y-206170421D01*
X105245796Y-205830080D01*
X105411881Y-205473908D01*
X105546293Y-205104616D01*
X105648007Y-204725015D01*
X105716249Y-204337993D01*
X105750500Y-203946496D01*
X105750500Y-203553504D01*
X105750500Y-203553499D01*
X119249500Y-203553499D01*
X119249500Y-203946500D01*
X119283751Y-204337995D01*
X119283751Y-204337999D01*
X119351991Y-204725005D01*
X119351993Y-204725015D01*
X119453707Y-205104616D01*
X119453708Y-205104618D01*
X119453708Y-205104619D01*
X119588124Y-205473921D01*
X119754195Y-205830062D01*
X119754207Y-205830086D01*
X119950695Y-206170412D01*
X119950704Y-206170427D01*
X120176115Y-206492347D01*
X120368793Y-206721971D01*
X120428722Y-206793391D01*
X120706609Y-207071278D01*
X120813738Y-207161170D01*
X121007652Y-207323884D01*
X121007658Y-207323888D01*
X121007659Y-207323889D01*
X121329579Y-207549300D01*
X121669920Y-207745796D01*
X121669934Y-207745802D01*
X121669937Y-207745804D01*
X122026078Y-207911875D01*
X122026083Y-207911876D01*
X122026092Y-207911881D01*
X122395384Y-208046293D01*
X122774985Y-208148007D01*
X123162007Y-208216249D01*
X123553502Y-208250499D01*
X123553503Y-208250500D01*
X123553504Y-208250500D01*
X123946497Y-208250500D01*
X123946497Y-208250499D01*
X124337993Y-208216249D01*
X124725015Y-208148007D01*
X125104616Y-208046293D01*
X125473908Y-207911881D01*
X125830080Y-207745796D01*
X126170421Y-207549300D01*
X126492341Y-207323889D01*
X126793391Y-207071278D01*
X127071278Y-206793391D01*
X127323889Y-206492341D01*
X127549300Y-206170421D01*
X127745796Y-205830080D01*
X127911881Y-205473908D01*
X128046293Y-205104616D01*
X128148007Y-204725015D01*
X128216249Y-204337993D01*
X128250500Y-203946496D01*
X128250500Y-203553504D01*
X128250500Y-203553499D01*
X189249500Y-203553499D01*
X189249500Y-203946500D01*
X189283751Y-204337995D01*
X189283751Y-204337999D01*
X189351991Y-204725005D01*
X189351993Y-204725015D01*
X189453707Y-205104616D01*
X189453708Y-205104618D01*
X189453708Y-205104619D01*
X189588124Y-205473921D01*
X189754195Y-205830062D01*
X189754207Y-205830086D01*
X189950695Y-206170412D01*
X189950704Y-206170427D01*
X190176115Y-206492347D01*
X190368793Y-206721971D01*
X190428722Y-206793391D01*
X190706609Y-207071278D01*
X190813738Y-207161170D01*
X191007652Y-207323884D01*
X191007658Y-207323888D01*
X191007659Y-207323889D01*
X191329579Y-207549300D01*
X191669920Y-207745796D01*
X191669934Y-207745802D01*
X191669937Y-207745804D01*
X192026078Y-207911875D01*
X192026083Y-207911876D01*
X192026092Y-207911881D01*
X192395384Y-208046293D01*
X192774985Y-208148007D01*
X193162007Y-208216249D01*
X193553502Y-208250499D01*
X193553503Y-208250500D01*
X193553504Y-208250500D01*
X193946497Y-208250500D01*
X193946497Y-208250499D01*
X194337993Y-208216249D01*
X194725015Y-208148007D01*
X195104616Y-208046293D01*
X195473908Y-207911881D01*
X195830080Y-207745796D01*
X196170421Y-207549300D01*
X196492341Y-207323889D01*
X196793391Y-207071278D01*
X197071278Y-206793391D01*
X197323889Y-206492341D01*
X197549300Y-206170421D01*
X197745796Y-205830080D01*
X197911881Y-205473908D01*
X198046293Y-205104616D01*
X198148007Y-204725015D01*
X198216249Y-204337993D01*
X198250500Y-203946496D01*
X198250500Y-203553504D01*
X198216249Y-203162007D01*
X198148007Y-202774985D01*
X198046293Y-202395384D01*
X197911881Y-202026092D01*
X197911876Y-202026083D01*
X197911875Y-202026078D01*
X197745804Y-201669937D01*
X197745792Y-201669913D01*
X197733455Y-201648546D01*
X197549300Y-201329579D01*
X197323889Y-201007659D01*
X197323888Y-201007658D01*
X197323884Y-201007652D01*
X197071275Y-200706606D01*
X196793393Y-200428724D01*
X196492347Y-200176115D01*
X196170427Y-199950704D01*
X196170424Y-199950702D01*
X196170421Y-199950700D01*
X196069305Y-199892320D01*
X195830086Y-199754207D01*
X195830062Y-199754195D01*
X195473921Y-199588124D01*
X195473910Y-199588120D01*
X195473908Y-199588119D01*
X195104616Y-199453707D01*
X194863960Y-199389223D01*
X194725016Y-199351993D01*
X194725005Y-199351991D01*
X194337997Y-199283751D01*
X193946500Y-199249500D01*
X193946496Y-199249500D01*
X193553504Y-199249500D01*
X193553499Y-199249500D01*
X193162004Y-199283751D01*
X193162000Y-199283751D01*
X192774994Y-199351991D01*
X192774983Y-199351993D01*
X192571555Y-199406502D01*
X192395384Y-199453707D01*
X192395381Y-199453708D01*
X192395380Y-199453708D01*
X192026078Y-199588124D01*
X191669937Y-199754195D01*
X191669913Y-199754207D01*
X191329587Y-199950695D01*
X191329572Y-199950704D01*
X191007652Y-200176115D01*
X190706606Y-200428724D01*
X190428724Y-200706606D01*
X190176115Y-201007652D01*
X189950704Y-201329572D01*
X189950695Y-201329587D01*
X189754207Y-201669913D01*
X189754195Y-201669937D01*
X189588124Y-202026078D01*
X189453708Y-202395380D01*
X189453708Y-202395382D01*
X189351993Y-202774983D01*
X189351991Y-202774994D01*
X189283751Y-203162000D01*
X189283751Y-203162004D01*
X189249500Y-203553499D01*
X128250500Y-203553499D01*
X128216249Y-203162007D01*
X128148007Y-202774985D01*
X128046293Y-202395384D01*
X127911881Y-202026092D01*
X127911876Y-202026083D01*
X127911875Y-202026078D01*
X127745804Y-201669937D01*
X127745792Y-201669913D01*
X127733455Y-201648546D01*
X127549300Y-201329579D01*
X127323889Y-201007659D01*
X127323888Y-201007658D01*
X127323884Y-201007652D01*
X127071275Y-200706606D01*
X126793393Y-200428724D01*
X126492347Y-200176115D01*
X126170427Y-199950704D01*
X126170424Y-199950702D01*
X126170421Y-199950700D01*
X126069305Y-199892320D01*
X125830086Y-199754207D01*
X125830062Y-199754195D01*
X125473921Y-199588124D01*
X125473910Y-199588120D01*
X125473908Y-199588119D01*
X125104616Y-199453707D01*
X124863960Y-199389223D01*
X124725016Y-199351993D01*
X124725005Y-199351991D01*
X124337997Y-199283751D01*
X123946500Y-199249500D01*
X123946496Y-199249500D01*
X123553504Y-199249500D01*
X123553499Y-199249500D01*
X123162004Y-199283751D01*
X123162000Y-199283751D01*
X122774994Y-199351991D01*
X122774983Y-199351993D01*
X122571555Y-199406502D01*
X122395384Y-199453707D01*
X122395381Y-199453708D01*
X122395380Y-199453708D01*
X122026078Y-199588124D01*
X121669937Y-199754195D01*
X121669913Y-199754207D01*
X121329587Y-199950695D01*
X121329572Y-199950704D01*
X121007652Y-200176115D01*
X120706606Y-200428724D01*
X120428724Y-200706606D01*
X120176115Y-201007652D01*
X119950704Y-201329572D01*
X119950695Y-201329587D01*
X119754207Y-201669913D01*
X119754195Y-201669937D01*
X119588124Y-202026078D01*
X119453708Y-202395380D01*
X119453708Y-202395382D01*
X119351993Y-202774983D01*
X119351991Y-202774994D01*
X119283751Y-203162000D01*
X119283751Y-203162004D01*
X119249500Y-203553499D01*
X105750500Y-203553499D01*
X105716249Y-203162007D01*
X105648007Y-202774985D01*
X105546293Y-202395384D01*
X105411881Y-202026092D01*
X105411876Y-202026083D01*
X105411875Y-202026078D01*
X105245804Y-201669937D01*
X105245792Y-201669913D01*
X105233455Y-201648546D01*
X105049300Y-201329579D01*
X104823889Y-201007659D01*
X104823888Y-201007658D01*
X104823884Y-201007652D01*
X104571275Y-200706606D01*
X104293393Y-200428724D01*
X103992347Y-200176115D01*
X103670427Y-199950704D01*
X103670424Y-199950702D01*
X103670421Y-199950700D01*
X103569305Y-199892320D01*
X103330086Y-199754207D01*
X103330062Y-199754195D01*
X102973921Y-199588124D01*
X102973910Y-199588120D01*
X102973908Y-199588119D01*
X102604616Y-199453707D01*
X102363960Y-199389223D01*
X102225016Y-199351993D01*
X102225005Y-199351991D01*
X101837997Y-199283751D01*
X101446500Y-199249500D01*
X101446496Y-199249500D01*
X101053504Y-199249500D01*
X101053499Y-199249500D01*
X100662004Y-199283751D01*
X100662000Y-199283751D01*
X100274994Y-199351991D01*
X100274983Y-199351993D01*
X100071555Y-199406502D01*
X99895384Y-199453707D01*
X99895381Y-199453708D01*
X99895380Y-199453708D01*
X99526078Y-199588124D01*
X99169937Y-199754195D01*
X99169913Y-199754207D01*
X98829587Y-199950695D01*
X98829572Y-199950704D01*
X98507652Y-200176115D01*
X98206606Y-200428724D01*
X97928724Y-200706606D01*
X97676115Y-201007652D01*
X97450704Y-201329572D01*
X97450695Y-201329587D01*
X97254207Y-201669913D01*
X97254195Y-201669937D01*
X97088124Y-202026078D01*
X96953708Y-202395380D01*
X96953708Y-202395382D01*
X96851993Y-202774983D01*
X96851991Y-202774994D01*
X96783751Y-203162000D01*
X96783751Y-203162004D01*
X96749500Y-203553499D01*
X35750500Y-203553499D01*
X35716249Y-203162007D01*
X35648007Y-202774985D01*
X35546293Y-202395384D01*
X35411881Y-202026092D01*
X35411876Y-202026083D01*
X35411875Y-202026078D01*
X35245804Y-201669937D01*
X35245792Y-201669913D01*
X35233455Y-201648546D01*
X35049300Y-201329579D01*
X34823889Y-201007659D01*
X34823888Y-201007658D01*
X34823884Y-201007652D01*
X34571275Y-200706606D01*
X34293393Y-200428724D01*
X33992347Y-200176115D01*
X33670427Y-199950704D01*
X33670424Y-199950702D01*
X33670421Y-199950700D01*
X33569305Y-199892320D01*
X33330086Y-199754207D01*
X33330062Y-199754195D01*
X32973921Y-199588124D01*
X32973910Y-199588120D01*
X32973908Y-199588119D01*
X32604616Y-199453707D01*
X32363960Y-199389223D01*
X32225016Y-199351993D01*
X32225005Y-199351991D01*
X31837997Y-199283751D01*
X31446500Y-199249500D01*
X31446496Y-199249500D01*
X31053504Y-199249500D01*
X31053499Y-199249500D01*
X30662004Y-199283751D01*
X30662000Y-199283751D01*
X30274994Y-199351991D01*
X30274983Y-199351993D01*
X30071555Y-199406502D01*
X29895384Y-199453707D01*
X29895381Y-199453708D01*
X29895380Y-199453708D01*
X29526078Y-199588124D01*
X29169937Y-199754195D01*
X29169913Y-199754207D01*
X28829587Y-199950695D01*
X28829572Y-199950704D01*
X28507652Y-200176115D01*
X28206606Y-200428724D01*
X27928724Y-200706606D01*
X27676115Y-201007652D01*
X27450704Y-201329572D01*
X27450695Y-201329587D01*
X27254207Y-201669913D01*
X27254195Y-201669937D01*
X27088124Y-202026078D01*
X26953708Y-202395380D01*
X26953708Y-202395382D01*
X26851993Y-202774983D01*
X26851991Y-202774994D01*
X26783751Y-203162000D01*
X26783751Y-203162004D01*
X26749500Y-203553499D01*
X20260391Y-203553499D01*
X20215805Y-161053499D01*
X26749500Y-161053499D01*
X26749500Y-161446500D01*
X26783751Y-161837995D01*
X26783751Y-161837999D01*
X26851991Y-162225005D01*
X26851993Y-162225015D01*
X26953707Y-162604616D01*
X26953708Y-162604618D01*
X26953708Y-162604619D01*
X27088124Y-162973921D01*
X27254195Y-163330062D01*
X27254207Y-163330086D01*
X27450695Y-163670412D01*
X27450704Y-163670427D01*
X27676115Y-163992347D01*
X27868793Y-164221971D01*
X27928722Y-164293391D01*
X28206609Y-164571278D01*
X28313738Y-164661170D01*
X28507652Y-164823884D01*
X28507658Y-164823888D01*
X28507659Y-164823889D01*
X28829579Y-165049300D01*
X29169920Y-165245796D01*
X29169934Y-165245802D01*
X29169937Y-165245804D01*
X29526078Y-165411875D01*
X29526083Y-165411876D01*
X29526092Y-165411881D01*
X29895384Y-165546293D01*
X30274985Y-165648007D01*
X30662007Y-165716249D01*
X31053502Y-165750499D01*
X31053503Y-165750500D01*
X31053504Y-165750500D01*
X31446497Y-165750500D01*
X31446497Y-165750499D01*
X31837993Y-165716249D01*
X32225015Y-165648007D01*
X32604616Y-165546293D01*
X32973908Y-165411881D01*
X33330080Y-165245796D01*
X33670421Y-165049300D01*
X33992341Y-164823889D01*
X34293391Y-164571278D01*
X34571278Y-164293391D01*
X34823889Y-163992341D01*
X35049300Y-163670421D01*
X35245796Y-163330080D01*
X35411881Y-162973908D01*
X35546293Y-162604616D01*
X35648007Y-162225015D01*
X35716249Y-161837993D01*
X35750500Y-161446496D01*
X35750500Y-161053504D01*
X35750500Y-161053499D01*
X96749500Y-161053499D01*
X96749500Y-161446500D01*
X96783751Y-161837995D01*
X96783751Y-161837999D01*
X96851991Y-162225005D01*
X96851993Y-162225015D01*
X96953707Y-162604616D01*
X96953708Y-162604618D01*
X96953708Y-162604619D01*
X97088124Y-162973921D01*
X97254195Y-163330062D01*
X97254207Y-163330086D01*
X97450695Y-163670412D01*
X97450704Y-163670427D01*
X97676115Y-163992347D01*
X97868793Y-164221971D01*
X97928722Y-164293391D01*
X98206609Y-164571278D01*
X98313738Y-164661170D01*
X98507652Y-164823884D01*
X98507658Y-164823888D01*
X98507659Y-164823889D01*
X98829579Y-165049300D01*
X99169920Y-165245796D01*
X99169934Y-165245802D01*
X99169937Y-165245804D01*
X99526078Y-165411875D01*
X99526083Y-165411876D01*
X99526092Y-165411881D01*
X99895384Y-165546293D01*
X100274985Y-165648007D01*
X100662007Y-165716249D01*
X101053502Y-165750499D01*
X101053503Y-165750500D01*
X101053504Y-165750500D01*
X101446497Y-165750500D01*
X101446497Y-165750499D01*
X101837993Y-165716249D01*
X102225015Y-165648007D01*
X102604616Y-165546293D01*
X102973908Y-165411881D01*
X103330080Y-165245796D01*
X103670421Y-165049300D01*
X103992341Y-164823889D01*
X104293391Y-164571278D01*
X104571278Y-164293391D01*
X104823889Y-163992341D01*
X105049300Y-163670421D01*
X105245796Y-163330080D01*
X105411881Y-162973908D01*
X105546293Y-162604616D01*
X105648007Y-162225015D01*
X105716249Y-161837993D01*
X105750500Y-161446496D01*
X105750500Y-161053504D01*
X105750500Y-161053499D01*
X119249500Y-161053499D01*
X119249500Y-161446500D01*
X119283751Y-161837995D01*
X119283751Y-161837999D01*
X119351991Y-162225005D01*
X119351993Y-162225015D01*
X119453707Y-162604616D01*
X119453708Y-162604618D01*
X119453708Y-162604619D01*
X119588124Y-162973921D01*
X119754195Y-163330062D01*
X119754207Y-163330086D01*
X119950695Y-163670412D01*
X119950704Y-163670427D01*
X120176115Y-163992347D01*
X120368793Y-164221971D01*
X120428722Y-164293391D01*
X120706609Y-164571278D01*
X120813738Y-164661170D01*
X121007652Y-164823884D01*
X121007658Y-164823888D01*
X121007659Y-164823889D01*
X121329579Y-165049300D01*
X121669920Y-165245796D01*
X121669934Y-165245802D01*
X121669937Y-165245804D01*
X122026078Y-165411875D01*
X122026083Y-165411876D01*
X122026092Y-165411881D01*
X122395384Y-165546293D01*
X122774985Y-165648007D01*
X123162007Y-165716249D01*
X123553502Y-165750499D01*
X123553503Y-165750500D01*
X123553504Y-165750500D01*
X123946497Y-165750500D01*
X123946497Y-165750499D01*
X124337993Y-165716249D01*
X124725015Y-165648007D01*
X125104616Y-165546293D01*
X125473908Y-165411881D01*
X125830080Y-165245796D01*
X126170421Y-165049300D01*
X126492341Y-164823889D01*
X126793391Y-164571278D01*
X127071278Y-164293391D01*
X127323889Y-163992341D01*
X127549300Y-163670421D01*
X127745796Y-163330080D01*
X127911881Y-162973908D01*
X128046293Y-162604616D01*
X128148007Y-162225015D01*
X128216249Y-161837993D01*
X128250500Y-161446496D01*
X128250500Y-161053504D01*
X128250500Y-161053499D01*
X189249500Y-161053499D01*
X189249500Y-161446500D01*
X189283751Y-161837995D01*
X189283751Y-161837999D01*
X189351991Y-162225005D01*
X189351993Y-162225015D01*
X189453707Y-162604616D01*
X189453708Y-162604618D01*
X189453708Y-162604619D01*
X189588124Y-162973921D01*
X189754195Y-163330062D01*
X189754207Y-163330086D01*
X189950695Y-163670412D01*
X189950704Y-163670427D01*
X190176115Y-163992347D01*
X190368793Y-164221971D01*
X190428722Y-164293391D01*
X190706609Y-164571278D01*
X190813738Y-164661170D01*
X191007652Y-164823884D01*
X191007658Y-164823888D01*
X191007659Y-164823889D01*
X191329579Y-165049300D01*
X191669920Y-165245796D01*
X191669934Y-165245802D01*
X191669937Y-165245804D01*
X192026078Y-165411875D01*
X192026083Y-165411876D01*
X192026092Y-165411881D01*
X192395384Y-165546293D01*
X192774985Y-165648007D01*
X193162007Y-165716249D01*
X193553502Y-165750499D01*
X193553503Y-165750500D01*
X193553504Y-165750500D01*
X193946497Y-165750500D01*
X193946497Y-165750499D01*
X194337993Y-165716249D01*
X194725015Y-165648007D01*
X195104616Y-165546293D01*
X195473908Y-165411881D01*
X195830080Y-165245796D01*
X196170421Y-165049300D01*
X196492341Y-164823889D01*
X196793391Y-164571278D01*
X197071278Y-164293391D01*
X197323889Y-163992341D01*
X197549300Y-163670421D01*
X197745796Y-163330080D01*
X197911881Y-162973908D01*
X198046293Y-162604616D01*
X198148007Y-162225015D01*
X198216249Y-161837993D01*
X198250500Y-161446496D01*
X198250500Y-161053504D01*
X198216249Y-160662007D01*
X198148007Y-160274985D01*
X198046293Y-159895384D01*
X197911881Y-159526092D01*
X197911876Y-159526083D01*
X197911875Y-159526078D01*
X197745804Y-159169937D01*
X197745792Y-159169913D01*
X197733455Y-159148546D01*
X197549300Y-158829579D01*
X197323889Y-158507659D01*
X197323888Y-158507658D01*
X197323884Y-158507652D01*
X197071275Y-158206606D01*
X196793393Y-157928724D01*
X196492347Y-157676115D01*
X196170427Y-157450704D01*
X196170424Y-157450702D01*
X196170421Y-157450700D01*
X196069305Y-157392320D01*
X195830086Y-157254207D01*
X195830062Y-157254195D01*
X195473921Y-157088124D01*
X195473910Y-157088120D01*
X195473908Y-157088119D01*
X195104616Y-156953707D01*
X194863960Y-156889223D01*
X194725016Y-156851993D01*
X194725005Y-156851991D01*
X194337997Y-156783751D01*
X193946500Y-156749500D01*
X193946496Y-156749500D01*
X193553504Y-156749500D01*
X193553499Y-156749500D01*
X193162004Y-156783751D01*
X193162000Y-156783751D01*
X192774994Y-156851991D01*
X192774983Y-156851993D01*
X192571555Y-156906502D01*
X192395384Y-156953707D01*
X192395381Y-156953708D01*
X192395380Y-156953708D01*
X192026078Y-157088124D01*
X191669937Y-157254195D01*
X191669913Y-157254207D01*
X191329587Y-157450695D01*
X191329572Y-157450704D01*
X191007652Y-157676115D01*
X190706606Y-157928724D01*
X190428724Y-158206606D01*
X190176115Y-158507652D01*
X189950704Y-158829572D01*
X189950695Y-158829587D01*
X189754207Y-159169913D01*
X189754195Y-159169937D01*
X189588124Y-159526078D01*
X189453708Y-159895380D01*
X189453708Y-159895382D01*
X189351993Y-160274983D01*
X189351991Y-160274994D01*
X189283751Y-160662000D01*
X189283751Y-160662004D01*
X189249500Y-161053499D01*
X128250500Y-161053499D01*
X128216249Y-160662007D01*
X128148007Y-160274985D01*
X128046293Y-159895384D01*
X127911881Y-159526092D01*
X127911876Y-159526083D01*
X127911875Y-159526078D01*
X127745804Y-159169937D01*
X127745792Y-159169913D01*
X127733455Y-159148546D01*
X127549300Y-158829579D01*
X127323889Y-158507659D01*
X127323888Y-158507658D01*
X127323884Y-158507652D01*
X127071275Y-158206606D01*
X126793393Y-157928724D01*
X126492347Y-157676115D01*
X126170427Y-157450704D01*
X126170424Y-157450702D01*
X126170421Y-157450700D01*
X126069305Y-157392320D01*
X125830086Y-157254207D01*
X125830062Y-157254195D01*
X125473921Y-157088124D01*
X125473910Y-157088120D01*
X125473908Y-157088119D01*
X125104616Y-156953707D01*
X124863960Y-156889223D01*
X124725016Y-156851993D01*
X124725005Y-156851991D01*
X124337997Y-156783751D01*
X123946500Y-156749500D01*
X123946496Y-156749500D01*
X123553504Y-156749500D01*
X123553499Y-156749500D01*
X123162004Y-156783751D01*
X123162000Y-156783751D01*
X122774994Y-156851991D01*
X122774983Y-156851993D01*
X122571555Y-156906502D01*
X122395384Y-156953707D01*
X122395381Y-156953708D01*
X122395380Y-156953708D01*
X122026078Y-157088124D01*
X121669937Y-157254195D01*
X121669913Y-157254207D01*
X121329587Y-157450695D01*
X121329572Y-157450704D01*
X121007652Y-157676115D01*
X120706606Y-157928724D01*
X120428724Y-158206606D01*
X120176115Y-158507652D01*
X119950704Y-158829572D01*
X119950695Y-158829587D01*
X119754207Y-159169913D01*
X119754195Y-159169937D01*
X119588124Y-159526078D01*
X119453708Y-159895380D01*
X119453708Y-159895382D01*
X119351993Y-160274983D01*
X119351991Y-160274994D01*
X119283751Y-160662000D01*
X119283751Y-160662004D01*
X119249500Y-161053499D01*
X105750500Y-161053499D01*
X105716249Y-160662007D01*
X105648007Y-160274985D01*
X105546293Y-159895384D01*
X105411881Y-159526092D01*
X105411876Y-159526083D01*
X105411875Y-159526078D01*
X105245804Y-159169937D01*
X105245792Y-159169913D01*
X105233455Y-159148546D01*
X105049300Y-158829579D01*
X104823889Y-158507659D01*
X104823888Y-158507658D01*
X104823884Y-158507652D01*
X104571275Y-158206606D01*
X104293393Y-157928724D01*
X103992347Y-157676115D01*
X103670427Y-157450704D01*
X103670424Y-157450702D01*
X103670421Y-157450700D01*
X103569305Y-157392320D01*
X103330086Y-157254207D01*
X103330062Y-157254195D01*
X102973921Y-157088124D01*
X102973910Y-157088120D01*
X102973908Y-157088119D01*
X102604616Y-156953707D01*
X102363960Y-156889223D01*
X102225016Y-156851993D01*
X102225005Y-156851991D01*
X101837997Y-156783751D01*
X101446500Y-156749500D01*
X101446496Y-156749500D01*
X101053504Y-156749500D01*
X101053499Y-156749500D01*
X100662004Y-156783751D01*
X100662000Y-156783751D01*
X100274994Y-156851991D01*
X100274983Y-156851993D01*
X100071555Y-156906502D01*
X99895384Y-156953707D01*
X99895381Y-156953708D01*
X99895380Y-156953708D01*
X99526078Y-157088124D01*
X99169937Y-157254195D01*
X99169913Y-157254207D01*
X98829587Y-157450695D01*
X98829572Y-157450704D01*
X98507652Y-157676115D01*
X98206606Y-157928724D01*
X97928724Y-158206606D01*
X97676115Y-158507652D01*
X97450704Y-158829572D01*
X97450695Y-158829587D01*
X97254207Y-159169913D01*
X97254195Y-159169937D01*
X97088124Y-159526078D01*
X96953708Y-159895380D01*
X96953708Y-159895382D01*
X96851993Y-160274983D01*
X96851991Y-160274994D01*
X96783751Y-160662000D01*
X96783751Y-160662004D01*
X96749500Y-161053499D01*
X35750500Y-161053499D01*
X35716249Y-160662007D01*
X35648007Y-160274985D01*
X35546293Y-159895384D01*
X35411881Y-159526092D01*
X35411876Y-159526083D01*
X35411875Y-159526078D01*
X35245804Y-159169937D01*
X35245792Y-159169913D01*
X35233455Y-159148546D01*
X35049300Y-158829579D01*
X34823889Y-158507659D01*
X34823888Y-158507658D01*
X34823884Y-158507652D01*
X34571275Y-158206606D01*
X34293393Y-157928724D01*
X33992347Y-157676115D01*
X33670427Y-157450704D01*
X33670424Y-157450702D01*
X33670421Y-157450700D01*
X33569305Y-157392320D01*
X33330086Y-157254207D01*
X33330062Y-157254195D01*
X32973921Y-157088124D01*
X32973910Y-157088120D01*
X32973908Y-157088119D01*
X32604616Y-156953707D01*
X32363960Y-156889223D01*
X32225016Y-156851993D01*
X32225005Y-156851991D01*
X31837997Y-156783751D01*
X31446500Y-156749500D01*
X31446496Y-156749500D01*
X31053504Y-156749500D01*
X31053499Y-156749500D01*
X30662004Y-156783751D01*
X30662000Y-156783751D01*
X30274994Y-156851991D01*
X30274983Y-156851993D01*
X30071555Y-156906502D01*
X29895384Y-156953707D01*
X29895381Y-156953708D01*
X29895380Y-156953708D01*
X29526078Y-157088124D01*
X29169937Y-157254195D01*
X29169913Y-157254207D01*
X28829587Y-157450695D01*
X28829572Y-157450704D01*
X28507652Y-157676115D01*
X28206606Y-157928724D01*
X27928724Y-158206606D01*
X27676115Y-158507652D01*
X27450704Y-158829572D01*
X27450695Y-158829587D01*
X27254207Y-159169913D01*
X27254195Y-159169937D01*
X27088124Y-159526078D01*
X26953708Y-159895380D01*
X26953708Y-159895382D01*
X26851993Y-160274983D01*
X26851991Y-160274994D01*
X26783751Y-160662000D01*
X26783751Y-160662004D01*
X26749500Y-161053499D01*
X20215805Y-161053499D01*
X20171219Y-118553499D01*
X26749500Y-118553499D01*
X26749500Y-118946500D01*
X26783751Y-119337995D01*
X26783751Y-119337999D01*
X26851991Y-119725005D01*
X26851993Y-119725015D01*
X26953707Y-120104616D01*
X26953708Y-120104618D01*
X26953708Y-120104619D01*
X27088124Y-120473921D01*
X27254195Y-120830062D01*
X27254207Y-120830086D01*
X27450695Y-121170412D01*
X27450704Y-121170427D01*
X27676115Y-121492347D01*
X27868793Y-121721971D01*
X27928722Y-121793391D01*
X28206609Y-122071278D01*
X28313738Y-122161170D01*
X28507652Y-122323884D01*
X28507658Y-122323888D01*
X28507659Y-122323889D01*
X28829579Y-122549300D01*
X29169920Y-122745796D01*
X29169934Y-122745802D01*
X29169937Y-122745804D01*
X29526078Y-122911875D01*
X29526083Y-122911876D01*
X29526092Y-122911881D01*
X29895384Y-123046293D01*
X30274985Y-123148007D01*
X30662007Y-123216249D01*
X31053502Y-123250499D01*
X31053503Y-123250500D01*
X31053504Y-123250500D01*
X31446497Y-123250500D01*
X31446497Y-123250499D01*
X31837993Y-123216249D01*
X32225015Y-123148007D01*
X32604616Y-123046293D01*
X32973908Y-122911881D01*
X33330080Y-122745796D01*
X33670421Y-122549300D01*
X33992341Y-122323889D01*
X34293391Y-122071278D01*
X34571278Y-121793391D01*
X34823889Y-121492341D01*
X35049300Y-121170421D01*
X35245796Y-120830080D01*
X35411881Y-120473908D01*
X35546293Y-120104616D01*
X35648007Y-119725015D01*
X35716249Y-119337993D01*
X35750500Y-118946496D01*
X35750500Y-118553504D01*
X35750500Y-118553499D01*
X96749500Y-118553499D01*
X96749500Y-118946500D01*
X96783751Y-119337995D01*
X96783751Y-119337999D01*
X96851991Y-119725005D01*
X96851993Y-119725015D01*
X96953707Y-120104616D01*
X96953708Y-120104618D01*
X96953708Y-120104619D01*
X97088124Y-120473921D01*
X97254195Y-120830062D01*
X97254207Y-120830086D01*
X97450695Y-121170412D01*
X97450704Y-121170427D01*
X97676115Y-121492347D01*
X97868793Y-121721971D01*
X97928722Y-121793391D01*
X98206609Y-122071278D01*
X98313738Y-122161170D01*
X98507652Y-122323884D01*
X98507658Y-122323888D01*
X98507659Y-122323889D01*
X98829579Y-122549300D01*
X99169920Y-122745796D01*
X99169934Y-122745802D01*
X99169937Y-122745804D01*
X99526078Y-122911875D01*
X99526083Y-122911876D01*
X99526092Y-122911881D01*
X99895384Y-123046293D01*
X100274985Y-123148007D01*
X100662007Y-123216249D01*
X101053502Y-123250499D01*
X101053503Y-123250500D01*
X101053504Y-123250500D01*
X101446497Y-123250500D01*
X101446497Y-123250499D01*
X101837993Y-123216249D01*
X102225015Y-123148007D01*
X102604616Y-123046293D01*
X102973908Y-122911881D01*
X103330080Y-122745796D01*
X103670421Y-122549300D01*
X103992341Y-122323889D01*
X104293391Y-122071278D01*
X104571278Y-121793391D01*
X104823889Y-121492341D01*
X105049300Y-121170421D01*
X105245796Y-120830080D01*
X105411881Y-120473908D01*
X105546293Y-120104616D01*
X105648007Y-119725015D01*
X105716249Y-119337993D01*
X105750500Y-118946496D01*
X105750500Y-118553504D01*
X105750500Y-118553499D01*
X119249500Y-118553499D01*
X119249500Y-118946500D01*
X119283751Y-119337995D01*
X119283751Y-119337999D01*
X119351991Y-119725005D01*
X119351993Y-119725015D01*
X119453707Y-120104616D01*
X119453708Y-120104618D01*
X119453708Y-120104619D01*
X119588124Y-120473921D01*
X119754195Y-120830062D01*
X119754207Y-120830086D01*
X119950695Y-121170412D01*
X119950704Y-121170427D01*
X120176115Y-121492347D01*
X120368793Y-121721971D01*
X120428722Y-121793391D01*
X120706609Y-122071278D01*
X120813738Y-122161170D01*
X121007652Y-122323884D01*
X121007658Y-122323888D01*
X121007659Y-122323889D01*
X121329579Y-122549300D01*
X121669920Y-122745796D01*
X121669934Y-122745802D01*
X121669937Y-122745804D01*
X122026078Y-122911875D01*
X122026083Y-122911876D01*
X122026092Y-122911881D01*
X122395384Y-123046293D01*
X122774985Y-123148007D01*
X123162007Y-123216249D01*
X123553502Y-123250499D01*
X123553503Y-123250500D01*
X123553504Y-123250500D01*
X123946497Y-123250500D01*
X123946497Y-123250499D01*
X124337993Y-123216249D01*
X124725015Y-123148007D01*
X125104616Y-123046293D01*
X125473908Y-122911881D01*
X125830080Y-122745796D01*
X126170421Y-122549300D01*
X126492341Y-122323889D01*
X126793391Y-122071278D01*
X127071278Y-121793391D01*
X127323889Y-121492341D01*
X127549300Y-121170421D01*
X127745796Y-120830080D01*
X127911881Y-120473908D01*
X128046293Y-120104616D01*
X128148007Y-119725015D01*
X128216249Y-119337993D01*
X128250500Y-118946496D01*
X128250500Y-118553504D01*
X128250500Y-118553499D01*
X189249500Y-118553499D01*
X189249500Y-118946500D01*
X189283751Y-119337995D01*
X189283751Y-119337999D01*
X189351991Y-119725005D01*
X189351993Y-119725015D01*
X189453707Y-120104616D01*
X189453708Y-120104618D01*
X189453708Y-120104619D01*
X189588124Y-120473921D01*
X189754195Y-120830062D01*
X189754207Y-120830086D01*
X189950695Y-121170412D01*
X189950704Y-121170427D01*
X190176115Y-121492347D01*
X190368793Y-121721971D01*
X190428722Y-121793391D01*
X190706609Y-122071278D01*
X190813738Y-122161170D01*
X191007652Y-122323884D01*
X191007658Y-122323888D01*
X191007659Y-122323889D01*
X191329579Y-122549300D01*
X191669920Y-122745796D01*
X191669934Y-122745802D01*
X191669937Y-122745804D01*
X192026078Y-122911875D01*
X192026083Y-122911876D01*
X192026092Y-122911881D01*
X192395384Y-123046293D01*
X192774985Y-123148007D01*
X193162007Y-123216249D01*
X193553502Y-123250499D01*
X193553503Y-123250500D01*
X193553504Y-123250500D01*
X193946497Y-123250500D01*
X193946497Y-123250499D01*
X194337993Y-123216249D01*
X194725015Y-123148007D01*
X195104616Y-123046293D01*
X195473908Y-122911881D01*
X195830080Y-122745796D01*
X196170421Y-122549300D01*
X196492341Y-122323889D01*
X196793391Y-122071278D01*
X197071278Y-121793391D01*
X197323889Y-121492341D01*
X197549300Y-121170421D01*
X197745796Y-120830080D01*
X197911881Y-120473908D01*
X198046293Y-120104616D01*
X198148007Y-119725015D01*
X198216249Y-119337993D01*
X198250500Y-118946496D01*
X198250500Y-118553504D01*
X198216249Y-118162007D01*
X198148007Y-117774985D01*
X198046293Y-117395384D01*
X197911881Y-117026092D01*
X197911876Y-117026083D01*
X197911875Y-117026078D01*
X197745804Y-116669937D01*
X197745792Y-116669913D01*
X197733455Y-116648546D01*
X197549300Y-116329579D01*
X197323889Y-116007659D01*
X197323888Y-116007658D01*
X197323884Y-116007652D01*
X197071275Y-115706606D01*
X196793393Y-115428724D01*
X196492347Y-115176115D01*
X196170427Y-114950704D01*
X196170424Y-114950702D01*
X196170421Y-114950700D01*
X196069305Y-114892320D01*
X195830086Y-114754207D01*
X195830062Y-114754195D01*
X195473921Y-114588124D01*
X195473910Y-114588120D01*
X195473908Y-114588119D01*
X195104616Y-114453707D01*
X194863960Y-114389223D01*
X194725016Y-114351993D01*
X194725005Y-114351991D01*
X194337997Y-114283751D01*
X193946500Y-114249500D01*
X193946496Y-114249500D01*
X193553504Y-114249500D01*
X193553499Y-114249500D01*
X193162004Y-114283751D01*
X193162000Y-114283751D01*
X192774994Y-114351991D01*
X192774983Y-114351993D01*
X192571555Y-114406502D01*
X192395384Y-114453707D01*
X192395381Y-114453708D01*
X192395380Y-114453708D01*
X192026078Y-114588124D01*
X191669937Y-114754195D01*
X191669913Y-114754207D01*
X191329587Y-114950695D01*
X191329572Y-114950704D01*
X191007652Y-115176115D01*
X190706606Y-115428724D01*
X190428724Y-115706606D01*
X190176115Y-116007652D01*
X189950704Y-116329572D01*
X189950695Y-116329587D01*
X189754207Y-116669913D01*
X189754195Y-116669937D01*
X189588124Y-117026078D01*
X189453708Y-117395380D01*
X189453708Y-117395382D01*
X189351993Y-117774983D01*
X189351991Y-117774994D01*
X189283751Y-118162000D01*
X189283751Y-118162004D01*
X189249500Y-118553499D01*
X128250500Y-118553499D01*
X128216249Y-118162007D01*
X128148007Y-117774985D01*
X128046293Y-117395384D01*
X127911881Y-117026092D01*
X127911876Y-117026083D01*
X127911875Y-117026078D01*
X127762118Y-116704921D01*
X127750500Y-116652517D01*
X127750500Y-95578423D01*
X127770185Y-95511384D01*
X127786814Y-95490747D01*
X167568790Y-55708770D01*
X167624375Y-55676679D01*
X167703324Y-55655525D01*
X167754702Y-55641759D01*
X167754707Y-55641757D01*
X167754715Y-55641755D01*
X168132212Y-55504357D01*
X168496298Y-55334581D01*
X168844202Y-55133719D01*
X169173275Y-54903299D01*
X169481014Y-54645076D01*
X169765076Y-54361014D01*
X170023299Y-54053275D01*
X170253719Y-53724202D01*
X170454581Y-53376298D01*
X170624357Y-53012212D01*
X170761755Y-52634715D01*
X170865729Y-52246679D01*
X170935488Y-51851058D01*
X170970500Y-51450862D01*
X170970500Y-51049138D01*
X170935488Y-50648942D01*
X170865729Y-50253321D01*
X170761755Y-49865285D01*
X170624357Y-49487788D01*
X170557946Y-49345370D01*
X174499500Y-49345370D01*
X174499500Y-53154630D01*
X174502300Y-53241604D01*
X174547004Y-53625655D01*
X174547007Y-53625674D01*
X174630959Y-54003076D01*
X174630966Y-54003102D01*
X174753277Y-54369872D01*
X174753281Y-54369882D01*
X174753283Y-54369887D01*
X174912669Y-54722162D01*
X175107432Y-55056182D01*
X175313604Y-55338423D01*
X175335504Y-55368403D01*
X175335512Y-55368413D01*
X175594474Y-55655525D01*
X175881586Y-55914487D01*
X175881594Y-55914494D01*
X176193818Y-56142568D01*
X176527838Y-56337331D01*
X176880113Y-56496717D01*
X176880122Y-56496720D01*
X176880127Y-56496722D01*
X177246897Y-56619033D01*
X177246902Y-56619034D01*
X177246910Y-56619037D01*
X177246920Y-56619039D01*
X177246923Y-56619040D01*
X177624325Y-56702992D01*
X177624326Y-56702992D01*
X177624339Y-56702995D01*
X178008401Y-56747700D01*
X178095363Y-56750500D01*
X178375501Y-56750499D01*
X178442539Y-56770183D01*
X178488294Y-56822987D01*
X178499500Y-56874499D01*
X178499500Y-65196528D01*
X178538025Y-65587691D01*
X178538028Y-65587708D01*
X178614703Y-65973193D01*
X178614706Y-65973204D01*
X178728810Y-66349354D01*
X178879230Y-66712499D01*
X178879232Y-66712504D01*
X179064511Y-67059137D01*
X179064522Y-67059155D01*
X179282887Y-67385960D01*
X179282897Y-67385974D01*
X179532254Y-67689817D01*
X189438073Y-77595634D01*
X189466914Y-77640904D01*
X189588124Y-77973921D01*
X189754195Y-78330062D01*
X189754207Y-78330086D01*
X189950695Y-78670412D01*
X189950704Y-78670427D01*
X190176115Y-78992347D01*
X190368793Y-79221971D01*
X190428722Y-79293391D01*
X190706609Y-79571278D01*
X190813738Y-79661170D01*
X191007652Y-79823884D01*
X191007658Y-79823888D01*
X191007659Y-79823889D01*
X191329579Y-80049300D01*
X191669920Y-80245796D01*
X191669934Y-80245802D01*
X191669937Y-80245804D01*
X192026078Y-80411875D01*
X192026083Y-80411876D01*
X192026092Y-80411881D01*
X192395384Y-80546293D01*
X192774985Y-80648007D01*
X193162007Y-80716249D01*
X193553502Y-80750499D01*
X193553503Y-80750500D01*
X193553504Y-80750500D01*
X193946497Y-80750500D01*
X193946497Y-80750499D01*
X194337993Y-80716249D01*
X194725015Y-80648007D01*
X195104616Y-80546293D01*
X195473908Y-80411881D01*
X195830080Y-80245796D01*
X196170421Y-80049300D01*
X196492341Y-79823889D01*
X196793391Y-79571278D01*
X197071278Y-79293391D01*
X197323889Y-78992341D01*
X197549300Y-78670421D01*
X197745796Y-78330080D01*
X197911881Y-77973908D01*
X198046293Y-77604616D01*
X198148007Y-77225015D01*
X198216249Y-76837993D01*
X198250500Y-76446496D01*
X198250500Y-76053504D01*
X198216249Y-75662007D01*
X198148007Y-75274985D01*
X198046293Y-74895384D01*
X197911881Y-74526092D01*
X197911876Y-74526083D01*
X197911875Y-74526078D01*
X197745804Y-74169937D01*
X197745792Y-74169913D01*
X197733455Y-74148546D01*
X197549300Y-73829579D01*
X197323889Y-73507659D01*
X197323888Y-73507658D01*
X197323884Y-73507652D01*
X197071275Y-73206606D01*
X196793393Y-72928724D01*
X196492347Y-72676115D01*
X196170427Y-72450704D01*
X196170424Y-72450702D01*
X196170421Y-72450700D01*
X196069305Y-72392320D01*
X195830086Y-72254207D01*
X195830062Y-72254195D01*
X195473921Y-72088124D01*
X195473910Y-72088120D01*
X195473908Y-72088119D01*
X195346082Y-72041593D01*
X195140904Y-71966914D01*
X195095634Y-71938073D01*
X186536819Y-63379257D01*
X186503334Y-63317934D01*
X186500500Y-63291576D01*
X186500500Y-56874499D01*
X186520185Y-56807460D01*
X186572989Y-56761705D01*
X186624500Y-56750499D01*
X186904630Y-56750499D01*
X186904636Y-56750499D01*
X186991599Y-56747700D01*
X187375661Y-56702995D01*
X187753090Y-56619037D01*
X188119887Y-56496717D01*
X188472162Y-56337331D01*
X188806182Y-56142568D01*
X189118406Y-55914494D01*
X189405525Y-55655525D01*
X189664494Y-55368406D01*
X189892568Y-55056182D01*
X190087331Y-54722162D01*
X190246717Y-54369887D01*
X190369037Y-54003090D01*
X190452995Y-53625661D01*
X190497700Y-53241599D01*
X190500500Y-53154637D01*
X190500499Y-49345364D01*
X190497700Y-49258401D01*
X190452995Y-48874339D01*
X190431501Y-48777716D01*
X190369040Y-48496923D01*
X190369039Y-48496920D01*
X190369037Y-48496910D01*
X190352301Y-48446725D01*
X190246722Y-48130127D01*
X190246718Y-48130117D01*
X190246717Y-48130113D01*
X190087331Y-47777838D01*
X189892568Y-47443818D01*
X189664494Y-47131594D01*
X189541876Y-46995647D01*
X189405525Y-46844474D01*
X189118413Y-46585512D01*
X189118409Y-46585509D01*
X189118406Y-46585506D01*
X188806182Y-46357432D01*
X188472162Y-46162669D01*
X188119887Y-46003283D01*
X188119884Y-46003282D01*
X188119882Y-46003281D01*
X188119872Y-46003277D01*
X187753102Y-45880966D01*
X187753076Y-45880959D01*
X187375674Y-45797007D01*
X187375655Y-45797004D01*
X186991604Y-45752300D01*
X186958152Y-45751223D01*
X186904637Y-45749500D01*
X186904629Y-45749500D01*
X178095369Y-45749500D01*
X178008395Y-45752300D01*
X177624344Y-45797004D01*
X177624325Y-45797007D01*
X177246923Y-45880959D01*
X177246897Y-45880966D01*
X176880127Y-46003277D01*
X176880117Y-46003281D01*
X176527837Y-46162669D01*
X176193818Y-46357432D01*
X176193805Y-46357441D01*
X175881596Y-46585504D01*
X175881586Y-46585512D01*
X175594474Y-46844474D01*
X175335512Y-47131586D01*
X175335504Y-47131596D01*
X175107441Y-47443805D01*
X175107432Y-47443818D01*
X174912669Y-47777837D01*
X174753281Y-48130117D01*
X174753277Y-48130127D01*
X174630966Y-48496897D01*
X174630959Y-48496923D01*
X174547007Y-48874325D01*
X174547004Y-48874344D01*
X174502300Y-49258394D01*
X174502300Y-49258396D01*
X174502300Y-49258401D01*
X174500318Y-49319976D01*
X174499500Y-49345370D01*
X170557946Y-49345370D01*
X170454581Y-49123702D01*
X170253719Y-48775798D01*
X170023299Y-48446725D01*
X170023298Y-48446724D01*
X170023294Y-48446718D01*
X169856967Y-48248498D01*
X169765076Y-48138986D01*
X169481014Y-47854924D01*
X169389145Y-47777837D01*
X169173281Y-47596705D01*
X168844208Y-47366285D01*
X168844205Y-47366283D01*
X168844202Y-47366281D01*
X168740843Y-47306606D01*
X168496304Y-47165422D01*
X168496289Y-47165414D01*
X168132221Y-46995647D01*
X168132219Y-46995646D01*
X168132212Y-46995643D01*
X167754715Y-46858245D01*
X167754714Y-46858244D01*
X167754704Y-46858241D01*
X167366686Y-46754273D01*
X167366689Y-46754273D01*
X167366679Y-46754271D01*
X167310824Y-46744422D01*
X166971060Y-46684512D01*
X166570866Y-46649500D01*
X166570862Y-46649500D01*
X166169138Y-46649500D01*
X166169133Y-46649500D01*
X165768939Y-46684512D01*
X165373326Y-46754270D01*
X165373323Y-46754270D01*
X165373321Y-46754271D01*
X165373316Y-46754272D01*
X165373313Y-46754273D01*
X164985295Y-46858241D01*
X164867773Y-46901016D01*
X164607788Y-46995643D01*
X164607784Y-46995644D01*
X164607778Y-46995647D01*
X164243710Y-47165414D01*
X164243695Y-47165422D01*
X163895806Y-47366276D01*
X163895791Y-47366285D01*
X163566718Y-47596705D01*
X163258983Y-47854926D01*
X162974926Y-48138983D01*
X162716705Y-48446718D01*
X162486285Y-48775791D01*
X162486276Y-48775806D01*
X162285422Y-49123695D01*
X162285414Y-49123710D01*
X162115647Y-49487778D01*
X161978246Y-49865281D01*
X161978241Y-49865299D01*
X161943319Y-49995624D01*
X161911226Y-50051210D01*
X121060188Y-90902250D01*
X120782254Y-91180182D01*
X120532897Y-91484025D01*
X120532887Y-91484039D01*
X120314522Y-91810844D01*
X120314511Y-91810862D01*
X120129232Y-92157495D01*
X120129230Y-92157500D01*
X119978810Y-92520645D01*
X119864706Y-92896795D01*
X119864703Y-92896806D01*
X119788028Y-93282291D01*
X119788025Y-93282308D01*
X119749500Y-93673471D01*
X119749500Y-116652517D01*
X119737882Y-116704921D01*
X119588124Y-117026078D01*
X119453708Y-117395380D01*
X119453708Y-117395382D01*
X119351993Y-117774983D01*
X119351991Y-117774994D01*
X119283751Y-118162000D01*
X119283751Y-118162004D01*
X119249500Y-118553499D01*
X105750500Y-118553499D01*
X105716249Y-118162007D01*
X105648007Y-117774985D01*
X105546293Y-117395384D01*
X105411881Y-117026092D01*
X105411876Y-117026083D01*
X105411875Y-117026078D01*
X105245804Y-116669937D01*
X105245792Y-116669913D01*
X105233455Y-116648546D01*
X105049300Y-116329579D01*
X104823889Y-116007659D01*
X104823888Y-116007658D01*
X104823884Y-116007652D01*
X104571275Y-115706606D01*
X104293393Y-115428724D01*
X103992347Y-115176115D01*
X103670427Y-114950704D01*
X103670424Y-114950702D01*
X103670421Y-114950700D01*
X103569305Y-114892320D01*
X103330086Y-114754207D01*
X103330062Y-114754195D01*
X102973921Y-114588124D01*
X102973910Y-114588120D01*
X102973908Y-114588119D01*
X102604616Y-114453707D01*
X102363960Y-114389223D01*
X102225016Y-114351993D01*
X102225005Y-114351991D01*
X101837997Y-114283751D01*
X101446500Y-114249500D01*
X101446496Y-114249500D01*
X101053504Y-114249500D01*
X101053499Y-114249500D01*
X100662004Y-114283751D01*
X100662000Y-114283751D01*
X100274994Y-114351991D01*
X100274983Y-114351993D01*
X100071555Y-114406502D01*
X99895384Y-114453707D01*
X99895381Y-114453708D01*
X99895380Y-114453708D01*
X99526078Y-114588124D01*
X99169937Y-114754195D01*
X99169913Y-114754207D01*
X98829587Y-114950695D01*
X98829572Y-114950704D01*
X98507652Y-115176115D01*
X98206606Y-115428724D01*
X97928724Y-115706606D01*
X97676115Y-116007652D01*
X97450704Y-116329572D01*
X97450695Y-116329587D01*
X97254207Y-116669913D01*
X97254195Y-116669937D01*
X97088124Y-117026078D01*
X96953708Y-117395380D01*
X96953708Y-117395382D01*
X96851993Y-117774983D01*
X96851991Y-117774994D01*
X96783751Y-118162000D01*
X96783751Y-118162004D01*
X96749500Y-118553499D01*
X35750500Y-118553499D01*
X35716249Y-118162007D01*
X35648007Y-117774985D01*
X35546293Y-117395384D01*
X35411881Y-117026092D01*
X35411876Y-117026083D01*
X35411875Y-117026078D01*
X35245804Y-116669937D01*
X35245792Y-116669913D01*
X35233455Y-116648546D01*
X35049300Y-116329579D01*
X34823889Y-116007659D01*
X34823888Y-116007658D01*
X34823884Y-116007652D01*
X34571275Y-115706606D01*
X34293393Y-115428724D01*
X33992347Y-115176115D01*
X33670427Y-114950704D01*
X33670424Y-114950702D01*
X33670421Y-114950700D01*
X33569305Y-114892320D01*
X33330086Y-114754207D01*
X33330062Y-114754195D01*
X32973921Y-114588124D01*
X32973910Y-114588120D01*
X32973908Y-114588119D01*
X32604616Y-114453707D01*
X32363960Y-114389223D01*
X32225016Y-114351993D01*
X32225005Y-114351991D01*
X31837997Y-114283751D01*
X31446500Y-114249500D01*
X31446496Y-114249500D01*
X31053504Y-114249500D01*
X31053499Y-114249500D01*
X30662004Y-114283751D01*
X30662000Y-114283751D01*
X30274994Y-114351991D01*
X30274983Y-114351993D01*
X30071555Y-114406502D01*
X29895384Y-114453707D01*
X29895381Y-114453708D01*
X29895380Y-114453708D01*
X29526078Y-114588124D01*
X29169937Y-114754195D01*
X29169913Y-114754207D01*
X28829587Y-114950695D01*
X28829572Y-114950704D01*
X28507652Y-115176115D01*
X28206606Y-115428724D01*
X27928724Y-115706606D01*
X27676115Y-116007652D01*
X27450704Y-116329572D01*
X27450695Y-116329587D01*
X27254207Y-116669913D01*
X27254195Y-116669937D01*
X27088124Y-117026078D01*
X26953708Y-117395380D01*
X26953708Y-117395382D01*
X26851993Y-117774983D01*
X26851991Y-117774994D01*
X26783751Y-118162000D01*
X26783751Y-118162004D01*
X26749500Y-118553499D01*
X20171219Y-118553499D01*
X20126633Y-76053499D01*
X26749500Y-76053499D01*
X26749500Y-76446500D01*
X26783751Y-76837995D01*
X26783751Y-76837999D01*
X26851991Y-77225005D01*
X26851993Y-77225015D01*
X26953707Y-77604616D01*
X26953708Y-77604618D01*
X26953708Y-77604619D01*
X27088124Y-77973921D01*
X27254195Y-78330062D01*
X27254207Y-78330086D01*
X27450695Y-78670412D01*
X27450704Y-78670427D01*
X27676115Y-78992347D01*
X27868793Y-79221971D01*
X27928722Y-79293391D01*
X28206609Y-79571278D01*
X28313738Y-79661170D01*
X28507652Y-79823884D01*
X28507658Y-79823888D01*
X28507659Y-79823889D01*
X28829579Y-80049300D01*
X29169920Y-80245796D01*
X29169934Y-80245802D01*
X29169937Y-80245804D01*
X29526078Y-80411875D01*
X29526083Y-80411876D01*
X29526092Y-80411881D01*
X29895384Y-80546293D01*
X30274985Y-80648007D01*
X30662007Y-80716249D01*
X31053502Y-80750499D01*
X31053503Y-80750500D01*
X31053504Y-80750500D01*
X31446497Y-80750500D01*
X31446497Y-80750499D01*
X31837993Y-80716249D01*
X32225015Y-80648007D01*
X32604616Y-80546293D01*
X32973908Y-80411881D01*
X33330080Y-80245796D01*
X33670421Y-80049300D01*
X33992341Y-79823889D01*
X34293391Y-79571278D01*
X34571278Y-79293391D01*
X34823889Y-78992341D01*
X35049300Y-78670421D01*
X35245796Y-78330080D01*
X35411881Y-77973908D01*
X35546293Y-77604616D01*
X35648007Y-77225015D01*
X35716249Y-76837993D01*
X35750500Y-76446496D01*
X35750500Y-76053504D01*
X35750500Y-76053499D01*
X96749500Y-76053499D01*
X96749500Y-76446500D01*
X96783751Y-76837995D01*
X96783751Y-76837999D01*
X96851991Y-77225005D01*
X96851993Y-77225015D01*
X96953707Y-77604616D01*
X96953708Y-77604618D01*
X96953708Y-77604619D01*
X97088124Y-77973921D01*
X97254195Y-78330062D01*
X97254207Y-78330086D01*
X97450695Y-78670412D01*
X97450704Y-78670427D01*
X97676115Y-78992347D01*
X97868793Y-79221971D01*
X97928722Y-79293391D01*
X98206609Y-79571278D01*
X98313738Y-79661170D01*
X98507652Y-79823884D01*
X98507658Y-79823888D01*
X98507659Y-79823889D01*
X98829579Y-80049300D01*
X99169920Y-80245796D01*
X99169934Y-80245802D01*
X99169937Y-80245804D01*
X99526078Y-80411875D01*
X99526083Y-80411876D01*
X99526092Y-80411881D01*
X99895384Y-80546293D01*
X100274985Y-80648007D01*
X100662007Y-80716249D01*
X101053502Y-80750499D01*
X101053503Y-80750500D01*
X101053504Y-80750500D01*
X101446497Y-80750500D01*
X101446497Y-80750499D01*
X101837993Y-80716249D01*
X102225015Y-80648007D01*
X102604616Y-80546293D01*
X102973908Y-80411881D01*
X103330080Y-80245796D01*
X103670421Y-80049300D01*
X103992341Y-79823889D01*
X104293391Y-79571278D01*
X104571278Y-79293391D01*
X104823889Y-78992341D01*
X105049300Y-78670421D01*
X105245796Y-78330080D01*
X105411881Y-77973908D01*
X105546293Y-77604616D01*
X105648007Y-77225015D01*
X105716249Y-76837993D01*
X105750500Y-76446496D01*
X105750500Y-76053504D01*
X105750500Y-76053499D01*
X119249500Y-76053499D01*
X119249500Y-76446500D01*
X119283751Y-76837995D01*
X119283751Y-76837999D01*
X119351991Y-77225005D01*
X119351993Y-77225015D01*
X119453707Y-77604616D01*
X119453708Y-77604618D01*
X119453708Y-77604619D01*
X119588124Y-77973921D01*
X119754195Y-78330062D01*
X119754207Y-78330086D01*
X119950695Y-78670412D01*
X119950704Y-78670427D01*
X120176115Y-78992347D01*
X120368793Y-79221971D01*
X120428722Y-79293391D01*
X120706609Y-79571278D01*
X120813738Y-79661170D01*
X121007652Y-79823884D01*
X121007658Y-79823888D01*
X121007659Y-79823889D01*
X121329579Y-80049300D01*
X121669920Y-80245796D01*
X121669934Y-80245802D01*
X121669937Y-80245804D01*
X122026078Y-80411875D01*
X122026083Y-80411876D01*
X122026092Y-80411881D01*
X122395384Y-80546293D01*
X122774985Y-80648007D01*
X123162007Y-80716249D01*
X123553502Y-80750499D01*
X123553503Y-80750500D01*
X123553504Y-80750500D01*
X123946497Y-80750500D01*
X123946497Y-80750499D01*
X124337993Y-80716249D01*
X124725015Y-80648007D01*
X125104616Y-80546293D01*
X125473908Y-80411881D01*
X125830080Y-80245796D01*
X126170421Y-80049300D01*
X126492341Y-79823889D01*
X126793391Y-79571278D01*
X127071278Y-79293391D01*
X127323889Y-78992341D01*
X127549300Y-78670421D01*
X127745796Y-78330080D01*
X127911881Y-77973908D01*
X128046293Y-77604616D01*
X128148007Y-77225015D01*
X128216249Y-76837993D01*
X128250500Y-76446496D01*
X128250500Y-76053504D01*
X128216249Y-75662007D01*
X128148007Y-75274985D01*
X128046293Y-74895384D01*
X127911881Y-74526092D01*
X127911876Y-74526083D01*
X127911875Y-74526078D01*
X127745804Y-74169937D01*
X127745792Y-74169913D01*
X127733455Y-74148546D01*
X127549300Y-73829579D01*
X127323889Y-73507659D01*
X127323888Y-73507658D01*
X127323884Y-73507652D01*
X127071275Y-73206606D01*
X126793393Y-72928724D01*
X126492347Y-72676115D01*
X126170427Y-72450704D01*
X126170424Y-72450702D01*
X126170421Y-72450700D01*
X126069305Y-72392320D01*
X125830086Y-72254207D01*
X125830062Y-72254195D01*
X125473921Y-72088124D01*
X125473910Y-72088120D01*
X125473908Y-72088119D01*
X125104616Y-71953707D01*
X124863960Y-71889223D01*
X124725016Y-71851993D01*
X124725005Y-71851991D01*
X124337997Y-71783751D01*
X123946500Y-71749500D01*
X123946496Y-71749500D01*
X123553504Y-71749500D01*
X123553499Y-71749500D01*
X123162004Y-71783751D01*
X123162000Y-71783751D01*
X122774994Y-71851991D01*
X122774983Y-71851993D01*
X122571555Y-71906502D01*
X122395384Y-71953707D01*
X122395381Y-71953708D01*
X122395380Y-71953708D01*
X122026078Y-72088124D01*
X121669937Y-72254195D01*
X121669913Y-72254207D01*
X121329587Y-72450695D01*
X121329572Y-72450704D01*
X121007652Y-72676115D01*
X120706606Y-72928724D01*
X120428724Y-73206606D01*
X120176115Y-73507652D01*
X119950704Y-73829572D01*
X119950695Y-73829587D01*
X119754207Y-74169913D01*
X119754195Y-74169937D01*
X119588124Y-74526078D01*
X119453708Y-74895380D01*
X119453708Y-74895382D01*
X119351993Y-75274983D01*
X119351991Y-75274994D01*
X119283751Y-75662000D01*
X119283751Y-75662004D01*
X119249500Y-76053499D01*
X105750500Y-76053499D01*
X105716249Y-75662007D01*
X105648007Y-75274985D01*
X105546293Y-74895384D01*
X105411881Y-74526092D01*
X105411876Y-74526083D01*
X105411875Y-74526078D01*
X105245804Y-74169937D01*
X105245792Y-74169913D01*
X105233455Y-74148546D01*
X105049300Y-73829579D01*
X104823889Y-73507659D01*
X104823888Y-73507658D01*
X104823884Y-73507652D01*
X104571275Y-73206606D01*
X104293393Y-72928724D01*
X103992347Y-72676115D01*
X103670427Y-72450704D01*
X103670424Y-72450702D01*
X103670421Y-72450700D01*
X103569305Y-72392320D01*
X103330086Y-72254207D01*
X103330062Y-72254195D01*
X102973921Y-72088124D01*
X102973910Y-72088120D01*
X102973908Y-72088119D01*
X102604616Y-71953707D01*
X102363960Y-71889223D01*
X102225016Y-71851993D01*
X102225005Y-71851991D01*
X101837997Y-71783751D01*
X101446500Y-71749500D01*
X101446496Y-71749500D01*
X101053504Y-71749500D01*
X101053499Y-71749500D01*
X100662004Y-71783751D01*
X100662000Y-71783751D01*
X100274994Y-71851991D01*
X100274983Y-71851993D01*
X100071555Y-71906502D01*
X99895384Y-71953707D01*
X99895381Y-71953708D01*
X99895380Y-71953708D01*
X99526078Y-72088124D01*
X99169937Y-72254195D01*
X99169913Y-72254207D01*
X98829587Y-72450695D01*
X98829572Y-72450704D01*
X98507652Y-72676115D01*
X98206606Y-72928724D01*
X97928724Y-73206606D01*
X97676115Y-73507652D01*
X97450704Y-73829572D01*
X97450695Y-73829587D01*
X97254207Y-74169913D01*
X97254195Y-74169937D01*
X97088124Y-74526078D01*
X96953708Y-74895380D01*
X96953708Y-74895382D01*
X96851993Y-75274983D01*
X96851991Y-75274994D01*
X96783751Y-75662000D01*
X96783751Y-75662004D01*
X96749500Y-76053499D01*
X35750500Y-76053499D01*
X35716249Y-75662007D01*
X35648007Y-75274985D01*
X35546293Y-74895384D01*
X35411881Y-74526092D01*
X35411876Y-74526083D01*
X35411875Y-74526078D01*
X35262118Y-74204921D01*
X35250500Y-74152517D01*
X35250500Y-55338423D01*
X35270185Y-55271384D01*
X35286815Y-55250746D01*
X36078790Y-54458770D01*
X36134375Y-54426679D01*
X36201096Y-54408801D01*
X36264702Y-54391759D01*
X36264707Y-54391757D01*
X36264715Y-54391755D01*
X36642212Y-54254357D01*
X37006298Y-54084581D01*
X37354202Y-53883719D01*
X37683275Y-53653299D01*
X37991014Y-53395076D01*
X38275076Y-53111014D01*
X38533299Y-52803275D01*
X38763719Y-52474202D01*
X38964581Y-52126298D01*
X39134357Y-51762212D01*
X39271755Y-51384715D01*
X39375729Y-50996679D01*
X39445488Y-50601058D01*
X39480500Y-50200862D01*
X39480500Y-49799138D01*
X39445488Y-49398942D01*
X39375729Y-49003321D01*
X39271755Y-48615285D01*
X39134357Y-48237788D01*
X38964581Y-47873702D01*
X38763719Y-47525798D01*
X38533299Y-47196725D01*
X38533298Y-47196724D01*
X38533294Y-47196718D01*
X38364572Y-46995643D01*
X38275076Y-46888986D01*
X37991014Y-46604924D01*
X37918005Y-46543662D01*
X37683281Y-46346705D01*
X37354208Y-46116285D01*
X37354205Y-46116283D01*
X37354202Y-46116281D01*
X37250843Y-46056606D01*
X37006304Y-45915422D01*
X37006289Y-45915414D01*
X36642221Y-45745647D01*
X36642219Y-45745646D01*
X36642212Y-45745643D01*
X36264715Y-45608245D01*
X36264714Y-45608244D01*
X36264704Y-45608241D01*
X35876686Y-45504273D01*
X35876689Y-45504273D01*
X35876679Y-45504271D01*
X35820824Y-45494422D01*
X35481060Y-45434512D01*
X35080866Y-45399500D01*
X35080862Y-45399500D01*
X34679138Y-45399500D01*
X34679133Y-45399500D01*
X34278939Y-45434512D01*
X33883326Y-45504270D01*
X33883323Y-45504270D01*
X33883321Y-45504271D01*
X33883316Y-45504272D01*
X33883313Y-45504273D01*
X33495295Y-45608241D01*
X33377773Y-45651016D01*
X33117788Y-45745643D01*
X33117784Y-45745644D01*
X33117778Y-45745647D01*
X32753710Y-45915414D01*
X32753695Y-45915422D01*
X32405806Y-46116276D01*
X32405791Y-46116285D01*
X32076718Y-46346705D01*
X31768983Y-46604926D01*
X31484926Y-46888983D01*
X31226705Y-47196718D01*
X30996285Y-47525791D01*
X30996276Y-47525806D01*
X30795422Y-47873695D01*
X30795414Y-47873710D01*
X30625647Y-48237778D01*
X30625644Y-48237784D01*
X30625643Y-48237788D01*
X30597403Y-48315377D01*
X30488246Y-48615281D01*
X30488241Y-48615299D01*
X30453319Y-48745624D01*
X30421226Y-48801210D01*
X28560188Y-50662250D01*
X28282254Y-50940182D01*
X28032897Y-51244025D01*
X28032887Y-51244039D01*
X27814522Y-51570844D01*
X27814511Y-51570862D01*
X27712229Y-51762221D01*
X27671883Y-51837703D01*
X27664745Y-51851058D01*
X27629229Y-51917502D01*
X27478810Y-52280645D01*
X27364706Y-52656795D01*
X27364703Y-52656806D01*
X27303900Y-52962497D01*
X27288028Y-53042291D01*
X27288025Y-53042308D01*
X27249500Y-53433471D01*
X27249500Y-74152517D01*
X27237882Y-74204921D01*
X27088124Y-74526078D01*
X26953708Y-74895380D01*
X26953708Y-74895382D01*
X26851993Y-75274983D01*
X26851991Y-75274994D01*
X26783751Y-75662000D01*
X26783751Y-75662004D01*
X26749500Y-76053499D01*
X20126633Y-76053499D01*
X20094284Y-45218220D01*
X20113898Y-45151161D01*
X20166654Y-45105351D01*
X20218220Y-45094091D01*
X49083578Y-45079434D01*
X49104854Y-45085670D01*
X49126974Y-45087252D01*
X49137732Y-45095306D01*
X49150626Y-45099085D01*
X49165154Y-45115834D01*
X49182907Y-45129124D01*
X49187602Y-45141713D01*
X49196408Y-45151865D01*
X49199575Y-45173812D01*
X49207324Y-45194588D01*
X49204467Y-45207718D01*
X49206387Y-45221019D01*
X49197185Y-45241194D01*
X49192472Y-45262861D01*
X49179245Y-45280529D01*
X49177394Y-45284589D01*
X49171321Y-45291115D01*
X49099255Y-45363181D01*
X49037932Y-45396666D01*
X49011574Y-45399500D01*
X48626551Y-45399500D01*
X48545907Y-45402278D01*
X48189985Y-45446644D01*
X48189976Y-45446645D01*
X47896978Y-45516561D01*
X47841104Y-45529894D01*
X47841102Y-45529894D01*
X47841092Y-45529897D01*
X47503505Y-45651016D01*
X47503497Y-45651020D01*
X47181277Y-45808544D01*
X46878339Y-46000561D01*
X46598364Y-46224736D01*
X46598354Y-46224745D01*
X46344745Y-46478354D01*
X46344736Y-46478364D01*
X46120561Y-46758339D01*
X45928544Y-47061277D01*
X45771020Y-47383497D01*
X45771016Y-47383505D01*
X45649897Y-47721092D01*
X45566645Y-48069976D01*
X45566644Y-48069985D01*
X45522278Y-48425908D01*
X45519500Y-48506551D01*
X45519500Y-51493448D01*
X45522278Y-51574092D01*
X45566644Y-51930014D01*
X45566645Y-51930021D01*
X45642206Y-52246679D01*
X45649897Y-52278907D01*
X45771016Y-52616494D01*
X45771020Y-52616502D01*
X45928544Y-52938722D01*
X46063545Y-53151709D01*
X46120562Y-53241662D01*
X46344741Y-53521641D01*
X46598359Y-53775259D01*
X46878338Y-53999438D01*
X47012666Y-54084581D01*
X47181277Y-54191455D01*
X47503497Y-54348979D01*
X47503505Y-54348983D01*
X47841092Y-54470102D01*
X47841094Y-54470102D01*
X47841104Y-54470106D01*
X48189979Y-54553355D01*
X48545895Y-54597720D01*
X48545903Y-54597720D01*
X48545909Y-54597721D01*
X48545906Y-54597721D01*
X48589890Y-54599236D01*
X48626565Y-54600500D01*
X51613434Y-54600499D01*
X51613448Y-54600499D01*
X51694092Y-54597721D01*
X51694098Y-54597720D01*
X51694105Y-54597720D01*
X52050021Y-54553355D01*
X52398896Y-54470106D01*
X52736495Y-54348983D01*
X53058721Y-54191456D01*
X53361662Y-53999438D01*
X53641641Y-53775259D01*
X53895259Y-53521641D01*
X54119438Y-53241662D01*
X54311456Y-52938721D01*
X54468983Y-52616495D01*
X54590106Y-52278896D01*
X54673355Y-51930021D01*
X54717720Y-51574105D01*
X54717720Y-51574096D01*
X54717721Y-51574091D01*
X54719065Y-51535068D01*
X54720500Y-51493435D01*
X54720499Y-51108422D01*
X54740183Y-51041384D01*
X54756813Y-51020747D01*
X55125393Y-50652167D01*
X55186714Y-50618684D01*
X55256406Y-50623668D01*
X55312339Y-50665540D01*
X55335188Y-50718317D01*
X55384270Y-50996673D01*
X55384273Y-50996686D01*
X55488241Y-51384704D01*
X55488244Y-51384714D01*
X55488245Y-51384715D01*
X55625643Y-51762212D01*
X55625646Y-51762219D01*
X55625647Y-51762221D01*
X55795414Y-52126289D01*
X55795422Y-52126304D01*
X55996276Y-52474193D01*
X55996285Y-52474208D01*
X56226705Y-52803281D01*
X56402019Y-53012212D01*
X56484924Y-53111014D01*
X56768986Y-53395076D01*
X56878498Y-53486967D01*
X57076718Y-53653294D01*
X57076724Y-53653298D01*
X57076725Y-53653299D01*
X57405798Y-53883719D01*
X57612576Y-54003102D01*
X57753695Y-54084577D01*
X57753710Y-54084585D01*
X57915518Y-54160037D01*
X58117788Y-54254357D01*
X58495285Y-54391755D01*
X58495291Y-54391756D01*
X58495295Y-54391758D01*
X58600963Y-54420071D01*
X58883321Y-54495729D01*
X59278942Y-54565488D01*
X59679136Y-54600499D01*
X59679137Y-54600500D01*
X59679138Y-54600500D01*
X60080863Y-54600500D01*
X60080863Y-54600499D01*
X60481058Y-54565488D01*
X60876679Y-54495729D01*
X61264715Y-54391755D01*
X61642212Y-54254357D01*
X62006298Y-54084581D01*
X62354202Y-53883719D01*
X62683275Y-53653299D01*
X62991014Y-53395076D01*
X63275076Y-53111014D01*
X63533299Y-52803275D01*
X63763719Y-52474202D01*
X63964581Y-52126298D01*
X64134357Y-51762212D01*
X64271755Y-51384715D01*
X64375729Y-50996679D01*
X64445488Y-50601058D01*
X64480500Y-50200862D01*
X64480500Y-49799138D01*
X64445488Y-49398942D01*
X64375729Y-49003321D01*
X64271755Y-48615285D01*
X64253784Y-48565910D01*
X64249353Y-48496181D01*
X64283323Y-48435126D01*
X64344910Y-48402128D01*
X64370306Y-48399500D01*
X67810576Y-48399500D01*
X67877615Y-48419185D01*
X67898257Y-48435819D01*
X70483181Y-51020743D01*
X70516666Y-51082066D01*
X70519500Y-51108424D01*
X70519500Y-51493448D01*
X70522278Y-51574092D01*
X70566644Y-51930014D01*
X70566645Y-51930021D01*
X70642206Y-52246679D01*
X70649897Y-52278907D01*
X70771016Y-52616494D01*
X70771020Y-52616502D01*
X70928544Y-52938722D01*
X71063545Y-53151709D01*
X71120562Y-53241662D01*
X71344741Y-53521641D01*
X71598359Y-53775259D01*
X71878338Y-53999438D01*
X72012666Y-54084581D01*
X72181277Y-54191455D01*
X72503497Y-54348979D01*
X72503505Y-54348983D01*
X72841092Y-54470102D01*
X72841094Y-54470102D01*
X72841104Y-54470106D01*
X73189979Y-54553355D01*
X73545895Y-54597720D01*
X73545903Y-54597720D01*
X73545909Y-54597721D01*
X73545906Y-54597721D01*
X73589890Y-54599236D01*
X73626565Y-54600500D01*
X76613434Y-54600499D01*
X76613448Y-54600499D01*
X76694092Y-54597721D01*
X76694098Y-54597720D01*
X76694105Y-54597720D01*
X77050021Y-54553355D01*
X77398896Y-54470106D01*
X77736495Y-54348983D01*
X78058721Y-54191456D01*
X78329590Y-54019767D01*
X78395975Y-54000500D01*
X88290738Y-54000500D01*
X88357777Y-54020185D01*
X88403532Y-54072989D01*
X88408364Y-54085258D01*
X88503283Y-54369887D01*
X88662669Y-54722162D01*
X88857432Y-55056182D01*
X89063604Y-55338423D01*
X89085504Y-55368403D01*
X89085512Y-55368413D01*
X89344474Y-55655525D01*
X89631586Y-55914487D01*
X89631594Y-55914494D01*
X89943818Y-56142568D01*
X90277838Y-56337331D01*
X90630113Y-56496717D01*
X90630122Y-56496720D01*
X90630127Y-56496722D01*
X90996897Y-56619033D01*
X90996902Y-56619034D01*
X90996910Y-56619037D01*
X90996920Y-56619039D01*
X90996923Y-56619040D01*
X91374325Y-56702992D01*
X91374326Y-56702992D01*
X91374339Y-56702995D01*
X91758401Y-56747700D01*
X91845363Y-56750500D01*
X96041575Y-56750499D01*
X96108614Y-56770184D01*
X96129256Y-56786818D01*
X99783250Y-60440812D01*
X100061182Y-60718745D01*
X100061187Y-60718749D01*
X100061188Y-60718750D01*
X100365031Y-60968107D01*
X100691851Y-61186482D01*
X100691860Y-61186487D01*
X100691862Y-61186488D01*
X101038495Y-61371767D01*
X101038497Y-61371767D01*
X101038503Y-61371771D01*
X101251227Y-61459884D01*
X101401640Y-61522188D01*
X101401644Y-61522189D01*
X101401646Y-61522190D01*
X101777785Y-61636291D01*
X101777791Y-61636292D01*
X101777794Y-61636293D01*
X101777805Y-61636296D01*
X101993240Y-61679147D01*
X102163296Y-61712973D01*
X102554468Y-61751500D01*
X102554471Y-61751500D01*
X144825529Y-61751500D01*
X144825532Y-61751500D01*
X145216703Y-61712973D01*
X145428695Y-61670805D01*
X145602193Y-61636296D01*
X145602204Y-61636293D01*
X145602204Y-61636292D01*
X145602214Y-61636291D01*
X145978353Y-61522190D01*
X146341497Y-61371771D01*
X146341499Y-61371770D01*
X146688149Y-61186482D01*
X147014969Y-60968107D01*
X147318812Y-60718750D01*
X147596750Y-60440812D01*
X147596751Y-60440811D01*
X152150743Y-55886817D01*
X152212066Y-55853333D01*
X152238424Y-55850499D01*
X152623448Y-55850499D01*
X152704092Y-55847721D01*
X152704098Y-55847720D01*
X152704105Y-55847720D01*
X153060021Y-55803355D01*
X153408896Y-55720106D01*
X153746495Y-55598983D01*
X154068721Y-55441456D01*
X154371662Y-55249438D01*
X154651641Y-55025259D01*
X154905259Y-54771641D01*
X155129438Y-54491662D01*
X155321456Y-54188721D01*
X155478983Y-53866495D01*
X155600106Y-53528896D01*
X155683355Y-53180021D01*
X155727720Y-52824105D01*
X155727720Y-52824096D01*
X155727721Y-52824091D01*
X155729065Y-52785068D01*
X155730500Y-52743435D01*
X155730499Y-49756566D01*
X155730499Y-49756565D01*
X155730499Y-49756551D01*
X155727721Y-49675907D01*
X155697792Y-49435802D01*
X155683355Y-49319979D01*
X155600106Y-48971104D01*
X155530037Y-48775806D01*
X155478983Y-48633505D01*
X155478979Y-48633497D01*
X155321455Y-48311277D01*
X155264439Y-48221326D01*
X155129438Y-48008338D01*
X154905259Y-47728359D01*
X154651641Y-47474741D01*
X154371662Y-47250562D01*
X154237339Y-47165422D01*
X154068722Y-47058544D01*
X153746502Y-46901020D01*
X153746494Y-46901016D01*
X153408907Y-46779897D01*
X153408899Y-46779895D01*
X153408896Y-46779894D01*
X153255354Y-46743255D01*
X153060023Y-46696645D01*
X153060014Y-46696644D01*
X152704090Y-46652278D01*
X152704093Y-46652278D01*
X152623448Y-46649500D01*
X149636551Y-46649500D01*
X149555907Y-46652278D01*
X149199985Y-46696644D01*
X149199976Y-46696645D01*
X148941435Y-46758339D01*
X148851104Y-46779894D01*
X148851102Y-46779894D01*
X148851092Y-46779897D01*
X148513505Y-46901016D01*
X148513497Y-46901020D01*
X148191277Y-47058544D01*
X147888339Y-47250561D01*
X147608364Y-47474736D01*
X147608354Y-47474745D01*
X147354745Y-47728354D01*
X147354736Y-47728364D01*
X147130561Y-48008339D01*
X146938544Y-48311277D01*
X146781020Y-48633497D01*
X146781016Y-48633505D01*
X146659897Y-48971092D01*
X146576645Y-49319976D01*
X146576644Y-49319985D01*
X146532278Y-49675908D01*
X146529500Y-49756551D01*
X146529500Y-50141575D01*
X146509815Y-50208614D01*
X146493181Y-50229256D01*
X143008257Y-53714181D01*
X142946934Y-53747666D01*
X142920576Y-53750500D01*
X134224527Y-53750500D01*
X134157488Y-53730815D01*
X134111733Y-53678011D01*
X134101789Y-53608853D01*
X134111628Y-53575218D01*
X134184622Y-53414516D01*
X134239599Y-53196332D01*
X134249999Y-53064196D01*
X134250000Y-53064184D01*
X134250000Y-51500000D01*
X123250001Y-51500000D01*
X123250001Y-53064197D01*
X123260400Y-53196332D01*
X123315377Y-53414516D01*
X123388372Y-53575218D01*
X123398175Y-53644397D01*
X123369020Y-53707893D01*
X123310166Y-53745548D01*
X123275473Y-53750500D01*
X104459424Y-53750500D01*
X104429983Y-53741855D01*
X104399997Y-53735332D01*
X104394981Y-53731577D01*
X104392385Y-53730815D01*
X104371743Y-53714181D01*
X104253782Y-53596220D01*
X104220297Y-53534897D01*
X104218295Y-53494208D01*
X104247700Y-53241599D01*
X104250500Y-53154637D01*
X104250499Y-49435803D01*
X123250000Y-49435803D01*
X123250000Y-51000000D01*
X128500000Y-51000000D01*
X129000000Y-51000000D01*
X134249999Y-51000000D01*
X134249999Y-49435817D01*
X134249998Y-49435802D01*
X134239599Y-49303667D01*
X134184622Y-49085480D01*
X134091571Y-48880625D01*
X134091568Y-48880619D01*
X133963440Y-48695676D01*
X133963430Y-48695664D01*
X133804335Y-48536569D01*
X133804323Y-48536559D01*
X133619380Y-48408431D01*
X133619374Y-48408428D01*
X133414519Y-48315377D01*
X133196332Y-48260400D01*
X133064196Y-48250000D01*
X129000000Y-48250000D01*
X129000000Y-51000000D01*
X128500000Y-51000000D01*
X128500000Y-48250000D01*
X124435817Y-48250000D01*
X124435802Y-48250001D01*
X124303667Y-48260400D01*
X124085480Y-48315377D01*
X123880625Y-48408428D01*
X123880619Y-48408431D01*
X123695676Y-48536559D01*
X123695664Y-48536569D01*
X123536569Y-48695664D01*
X123536559Y-48695676D01*
X123408431Y-48880619D01*
X123408428Y-48880625D01*
X123315377Y-49085480D01*
X123260400Y-49303667D01*
X123250000Y-49435803D01*
X104250499Y-49435803D01*
X104250499Y-49345364D01*
X104247700Y-49258401D01*
X104202995Y-48874339D01*
X104181501Y-48777716D01*
X104119040Y-48496923D01*
X104119039Y-48496920D01*
X104119037Y-48496910D01*
X104102301Y-48446725D01*
X103996722Y-48130127D01*
X103996718Y-48130117D01*
X103996717Y-48130113D01*
X103837331Y-47777838D01*
X103642568Y-47443818D01*
X103414494Y-47131594D01*
X103291876Y-46995647D01*
X103155525Y-46844474D01*
X102868413Y-46585512D01*
X102868409Y-46585509D01*
X102868406Y-46585506D01*
X102556182Y-46357432D01*
X102222162Y-46162669D01*
X101869887Y-46003283D01*
X101869884Y-46003282D01*
X101869882Y-46003281D01*
X101869872Y-46003277D01*
X101503102Y-45880966D01*
X101503076Y-45880959D01*
X101125674Y-45797007D01*
X101125655Y-45797004D01*
X100741604Y-45752300D01*
X100708152Y-45751223D01*
X100654637Y-45749500D01*
X100654629Y-45749500D01*
X91845369Y-45749500D01*
X91758395Y-45752300D01*
X91374344Y-45797004D01*
X91374325Y-45797007D01*
X90996923Y-45880959D01*
X90996897Y-45880966D01*
X90660555Y-45993131D01*
X90621327Y-45999500D01*
X78395975Y-45999500D01*
X78329590Y-45980233D01*
X78172968Y-45880959D01*
X78058722Y-45808544D01*
X77736502Y-45651020D01*
X77736494Y-45651016D01*
X77398907Y-45529897D01*
X77398899Y-45529895D01*
X77398896Y-45529894D01*
X77245354Y-45493255D01*
X77050023Y-45446645D01*
X77050014Y-45446644D01*
X76694090Y-45402278D01*
X76694093Y-45402278D01*
X76613448Y-45399500D01*
X76613435Y-45399500D01*
X76228424Y-45399500D01*
X76198983Y-45390855D01*
X76168997Y-45384332D01*
X76163981Y-45380577D01*
X76161385Y-45379815D01*
X76140743Y-45363181D01*
X76054937Y-45277375D01*
X76021452Y-45216052D01*
X76026436Y-45146360D01*
X76068308Y-45090427D01*
X76133772Y-45066010D01*
X76142527Y-45065694D01*
X205400562Y-45000063D01*
X205467611Y-45019714D01*
G37*
%TD.AperFunction*%
%TD*%
M02*
