M48
METRIC,LZ,000.000
;FILE_FORMAT=3:3
;TYPE=PLATED
;Layer: PTH_Through
;EasyEDA v6.5.47, 2024-11-13 16:13:54
;fb85ae26fb934a7fa39b9ffe6f29e94b,28dbc4cd0de04f76b295d4d1f3f9c80b,10
;Gerber Generator version 0.2
;Holesize 1 = 0.915 mm
T01C0.915
;Holesize 2 = 2.501 mm
T02C2.501
%
G05
G90
T01
X010462Y297640
X010462Y294640
X013462Y297640
X013462Y294640
X062000Y012000
X062000Y015000
X023000Y015000
X023000Y012000
T02
X062000Y283999
X021000Y283999
X062000Y214000
X021000Y214000
X062000Y193000
X021000Y193000
X062000Y123000
X021000Y123000
X062000Y102000
X021000Y102000
X021000Y032000
X062000Y032000
X066937Y296999G85X067062Y296999
X072708Y296999G85X072834Y296999
M30
