G04 Layer: TopSilkscreenLayer*
G04 EasyEDA v6.5.47, 2024-11-13 16:13:54*
G04 fb85ae26fb934a7fa39b9ffe6f29e94b,28dbc4cd0de04f76b295d4d1f3f9c80b,10*
G04 Gerber Generator version 0.2*
G04 Scale: 100 percent, Rotated: No, Reflected: No *
G04 Dimensions in millimeters *
G04 leading zeros omitted , absolute positions ,4 integer and 5 decimal *
%FSLAX45Y45*%
%MOMM*%

%ADD10C,0.2032*%

%LPD*%
D10*
X1681304Y29476573D02*
G01*
X1847674Y29476573D01*
X1764362Y29859859D02*
G01*
X1764362Y29693743D01*
X1681304Y29776801D02*
G01*
X1847674Y29776801D01*
X6217158Y29768292D02*
G01*
X6217158Y29602176D01*
X6134100Y29685234D02*
G01*
X6300470Y29685234D01*
X7771129Y29749750D02*
G01*
X7761986Y29768292D01*
X7743443Y29786834D01*
X7725156Y29795978D01*
X7688072Y29795978D01*
X7669529Y29786834D01*
X7651241Y29768292D01*
X7641843Y29749750D01*
X7632700Y29722063D01*
X7632700Y29676089D01*
X7641843Y29648150D01*
X7651241Y29629862D01*
X7669529Y29611320D01*
X7688072Y29602176D01*
X7725156Y29602176D01*
X7743443Y29611320D01*
X7761986Y29629862D01*
X7771129Y29648150D01*
X7771129Y29676089D01*
X7725156Y29676089D02*
G01*
X7771129Y29676089D01*
X7832090Y29795978D02*
G01*
X7832090Y29602176D01*
X7832090Y29795978D02*
G01*
X7961629Y29602176D01*
X7961629Y29795978D02*
G01*
X7961629Y29602176D01*
X8022590Y29795978D02*
G01*
X8022590Y29602176D01*
X8022590Y29795978D02*
G01*
X8087106Y29795978D01*
X8114791Y29786834D01*
X8133334Y29768292D01*
X8142477Y29749750D01*
X8151875Y29722063D01*
X8151875Y29676089D01*
X8142477Y29648150D01*
X8133334Y29629862D01*
X8114791Y29611320D01*
X8087106Y29602176D01*
X8022590Y29602176D01*
M02*
