G04 Layer: BottomLayer*
G04 EasyEDA v6.5.47, 2024-11-13 16:13:54*
G04 fb85ae26fb934a7fa39b9ffe6f29e94b,28dbc4cd0de04f76b295d4d1f3f9c80b,10*
G04 Gerber Generator version 0.2*
G04 Scale: 100 percent, Rotated: No, Reflected: No *
G04 Dimensions in millimeters *
G04 leading zeros omitted , absolute positions ,4 integer and 5 decimal *
%FSLAX45Y45*%
%MOMM*%

%AMMACRO1*21,1,$1,$2,0,0,$3*%
%ADD10C,0.8000*%
%ADD11C,0.5000*%
%ADD12MACRO1,1.35X2.9X0.0000*%
%ADD13MACRO1,1.1X1.45X0.0000*%
%ADD14MACRO1,1.1X1.45X-179.9987*%
%ADD15C,1.5240*%
%ADD16C,4.0000*%

%LPD*%
D10*
X6199987Y1199997D02*
G01*
X2299995Y1199997D01*
D11*
X1346200Y29763974D02*
G01*
X1346200Y29984700D01*
X660400Y29984700D01*
X622300Y27470100D01*
X4178300Y27470100D01*
X4150106Y28808426D01*
D10*
X4350004Y28808426D02*
G01*
X4356100Y27432000D01*
X7620000Y27432000D01*
X7569200Y1511300D01*
X6199987Y1499996D01*
X6199886Y1499870D01*
D11*
X1346200Y29464000D02*
G01*
X1346200Y27914600D01*
X3750056Y27914600D01*
X3750056Y28808426D01*
X1046200Y29763999D02*
G01*
X850900Y29763999D01*
X800100Y27647900D01*
X3962400Y27609800D01*
X3949700Y28473400D01*
X3949992Y28808400D01*
D10*
X6199987Y1199997D02*
G01*
X7785100Y1199997D01*
X7810500Y27635200D01*
X4546600Y27647900D01*
X4549902Y28808426D01*
X2299995Y1499996D02*
G01*
X6199987Y1499996D01*
D11*
X1046200Y29464000D02*
G01*
X1346200Y29464000D01*
D12*
G01*
X3460483Y29405910D03*
D13*
G01*
X3749992Y28808400D03*
G01*
X3949992Y28808400D03*
G01*
X4149991Y28808400D03*
D14*
G01*
X4349993Y28808401D03*
D13*
G01*
X4549993Y28808400D03*
D12*
G01*
X4839489Y29405900D03*
D15*
G01*
X1046200Y29763999D03*
G01*
X1046200Y29464000D03*
G01*
X1346200Y29763999D03*
G01*
X1346200Y29464000D03*
G01*
X6199987Y1199997D03*
G01*
X6199987Y1499996D03*
G01*
X2299995Y1499996D03*
G01*
X2299995Y1199997D03*
D16*
G01*
X6199987Y28399943D03*
G01*
X2099995Y28399943D03*
G01*
X6199987Y21399957D03*
G01*
X2099995Y21399957D03*
G01*
X6199987Y19299961D03*
G01*
X2099995Y19299961D03*
G01*
X6199987Y12299975D03*
G01*
X2099995Y12299975D03*
G01*
X6199987Y10199979D03*
G01*
X2099995Y10199979D03*
G01*
X2099995Y3199993D03*
G01*
X6199987Y3199993D03*
G01*
X6699986Y29699940D03*
G01*
X7277100Y29699940D03*
M02*
