M48
METRIC,LZ,000.000
;FILE_FORMAT=3:3
;TYPE=PLATED
;Layer: PTH_Through
;EasyEDA v6.5.47, 2024-11-13 16:13:54
;74c0bd91fdf74cf69fbd3cf6ffc820c0,28dbc4cd0de04f76b295d4d1f3f9c80b,10
;Gerber Generator version 0.2
;Holesize 1 = 0.306 mm
T01C0.306
;Holesize 2 = 0.762 mm
T02C0.762
;Holesize 3 = 0.889 mm
T03C0.889
;Holesize 4 = 0.901 mm
T04C0.901
;Holesize 5 = 0.914 mm
T05C0.914
;Holesize 6 = 0.915 mm
T06C0.915
;Holesize 7 = 1.000 mm
T07C1.000
;Holesize 8 = 1.199 mm
T08C1.199
;Holesize 9 = 1.290 mm
T09C1.290
;Holesize 10 = 1.320 mm
T10C1.320
;Holesize 11 = 1.501 mm
T11C1.501
%
G05
G90
T01
X085543Y046432
X085633Y047257
X083598Y064816
T02
X074930Y021082
X074930Y018542
X074930Y016002
X074930Y023622
X074930Y026162
X074930Y028702
X074930Y031242
X074930Y033782
X087630Y033782
X087630Y031242
X087630Y028702
X087630Y026162
X087630Y023622
X087630Y021082
X087630Y018542
X087630Y016002
T03
X076581Y077851
X079121Y077851
X081661Y077851
X084201Y077851
T04
X046101Y071628
X046101Y069088
X067310Y020781G85X067310Y020781
X067310Y023281G85X067310Y023281
X067310Y025781G85X067310Y025781
X067310Y028281G85X067310Y028281
X039497Y056515
X049149Y056515
T05
X088262Y048514G85X088268Y048514
X088262Y051054G85X088268Y051054
X088262Y053594G85X088268Y053594
X088262Y056134G85X088268Y056134
X085262Y054864G85X085268Y054864
X085262Y057404G85X085268Y057404
X073022Y056134G85X073028Y056134
X073022Y053594G85X073028Y053594
X073022Y051054G85X073028Y051054
X073022Y048514G85X073028Y048514
X073022Y045974G85X073028Y045974
X073022Y043434G85X073028Y043434
X073022Y040894G85X073028Y040894
X073022Y038354G85X073028Y038354
X088262Y038354G85X088268Y038354
X088262Y040894G85X088268Y040894
X088262Y043434G85X088268Y043434
X088262Y045974G85X088268Y045974
X073022Y058674G85X073028Y058674
X088262Y063754G85X088268Y063754
X088262Y066294G85X088268Y066294
X088262Y061214G85X088268Y061214
X073022Y061214G85X073028Y061214
X073022Y063754G85X073028Y063754
X073022Y066294G85X073028Y066294
X088262Y058674G85X088268Y058674
T06
X064389Y013081
X061849Y013081
X063246Y004953
X060706Y004953
X037846Y081153
X040386Y081153
X042926Y081153
X069700Y086000
X074850Y086000
X080000Y086000
X069700Y004000
X074850Y004000
X080000Y004000
X039116Y070485
X039370Y072644
X039370Y068326
T07
X039846Y061849
X048546Y061849
T08
X061382Y034330
X066380Y034331
X063881Y039330
X061509Y045125
X066507Y045126
X064008Y050125
T09
X061214Y057432G85X061214Y057432
T10
X055214Y059432G85X055214Y059432
X067214Y059432G85X067214Y059432
X055214Y071632G85X055214Y071632
X067214Y071632G85X067214Y071632
T11
X052832Y086000
X059309Y086000
X064770Y086000
M30
