G04 Layer: BottomLayer*
G04 EasyEDA v6.5.47, 2024-11-13 16:13:54*
G04 74c0bd91fdf74cf69fbd3cf6ffc820c0,28dbc4cd0de04f76b295d4d1f3f9c80b,10*
G04 Gerber Generator version 0.2*
G04 Scale: 100 percent, Rotated: No, Reflected: No *
G04 Dimensions in millimeters *
G04 leading zeros omitted , absolute positions ,4 integer and 5 decimal *
%FSLAX45Y45*%
%MOMM*%

%AMMACRO1*21,1,$1,$2,0,0,$3*%
%ADD10C,1.0000*%
%ADD11C,0.2540*%
%ADD12MACRO1,1.524X1.524X0.0000*%
%ADD13C,1.5240*%
%ADD14C,1.8000*%
%ADD15C,1.4000*%
%ADD16R,1.5748X1.5748*%
%ADD17C,1.5748*%
%ADD18R,1.7500X1.7500*%
%ADD19C,1.7500*%
%ADD20O,1.524X2.286*%
%ADD21R,1.9799X1.9799*%
%ADD22C,1.9799*%
%ADD23C,1.9350*%
%ADD24MACRO1,2.1996X2.1008X0.0000*%
%ADD25C,2.2000*%
%ADD26C,2.5000*%
%ADD27C,0.6100*%

%LPD*%
D10*
X5521403Y7163201D02*
G01*
X5521403Y8361776D01*
X5283202Y8599977D01*
X6121402Y5743188D02*
G01*
X6121402Y8409477D01*
X5930902Y8599977D01*
X6721401Y7163201D02*
G01*
X6477002Y7407600D01*
X6477002Y8599977D01*
D11*
X6638038Y3433135D02*
G01*
X4292602Y5778571D01*
X4292602Y8115294D01*
X8826502Y4851394D02*
G01*
X8618324Y4643216D01*
X8554290Y4643216D01*
X8826502Y4343394D02*
G01*
X8932699Y4237197D01*
X8932699Y1621556D01*
X8104228Y793084D01*
X7363056Y793084D01*
X6969965Y399994D01*
X4038602Y8115294D02*
G01*
X4183636Y8260328D01*
X4343986Y8260328D01*
X5299661Y7304653D01*
X5299661Y5863711D01*
X6650738Y4512635D01*
X8563282Y4725741D02*
G01*
X8563282Y4842174D01*
X8826502Y5105394D01*
X8359777Y6481643D02*
G01*
X8466254Y6481643D01*
X8826502Y6121394D01*
X5521403Y5943188D02*
G01*
X5683303Y5943188D01*
X6905678Y4720813D01*
X6905678Y3711519D01*
X7493002Y3124194D01*
X3784602Y8115294D02*
G01*
X4053283Y7846613D01*
X4053283Y6253576D01*
X3984602Y6184894D01*
X8826502Y5867394D02*
G01*
X7912102Y6781794D01*
X7912102Y7785094D01*
D10*
X6438902Y1308094D02*
G01*
X6438902Y609594D01*
X6324602Y495294D01*
D11*
X8826502Y4089394D02*
G01*
X7799377Y5116520D01*
X7799377Y8399368D01*
X7999986Y8599977D01*
X8763002Y1600194D02*
G01*
X8064527Y2298669D01*
X8064527Y4343369D01*
X7302502Y5105394D01*
X4914902Y5651494D02*
G01*
X4610102Y5956294D01*
X4610102Y6908794D01*
D10*
X6184902Y1308094D02*
G01*
X6070602Y1193794D01*
X6070602Y495294D01*
X7493002Y3378194D02*
G01*
X7644615Y3226582D01*
X7644615Y2005807D01*
X7493002Y1854194D01*
X7302502Y5867394D02*
G01*
X7326810Y5867394D01*
X7658102Y6198687D01*
X7658102Y7785094D01*
D11*
X7302502Y5359394D02*
G01*
X8613294Y4048602D01*
X8613294Y3273902D01*
X8763002Y3124194D01*
X7302502Y5613394D02*
G01*
X7474409Y5441487D01*
X7474409Y5334833D01*
X8673772Y4135470D01*
X8673772Y3467425D01*
X8763002Y3378194D01*
X3911602Y7048494D02*
G01*
X3815031Y6951924D01*
X3815031Y5786165D01*
X3949702Y5651494D01*
X7302502Y4343394D02*
G01*
X7195847Y4450049D01*
X7195847Y5919922D01*
X7270320Y5994394D01*
X7338570Y5994394D01*
X7406794Y6062619D01*
X7406794Y8174680D01*
X7946773Y8714658D01*
X8046366Y8714658D01*
X8166102Y8594923D01*
X8166102Y7785094D01*
D12*
G01*
X6438900Y1308100D03*
D13*
G01*
X6184900Y1308092D03*
G01*
X6324600Y495292D03*
G01*
X6070600Y495292D03*
D14*
G01*
X3984599Y6184892D03*
G01*
X4854600Y6184892D03*
D15*
G01*
X4610100Y7162792D03*
G01*
X4610100Y6908792D03*
D16*
G01*
X7658100Y7785092D03*
D17*
G01*
X7912100Y7785092D03*
G01*
X8166100Y7785092D03*
G01*
X8420100Y7785092D03*
D18*
G01*
X6731000Y2078093D03*
D19*
G01*
X6731000Y2328105D03*
G01*
X6731000Y2578092D03*
G01*
X6731000Y2828104D03*
D20*
G01*
X3784600Y8115292D03*
G01*
X4038600Y8115292D03*
G01*
X4292600Y8115292D03*
D21*
G01*
X5521401Y5943185D03*
D22*
G01*
X6721398Y5943185D03*
D23*
G01*
X6121400Y5743186D03*
D22*
G01*
X5521401Y7163198D03*
G01*
X6721398Y7163198D03*
D24*
G01*
X6138163Y3433013D03*
D25*
G01*
X6638036Y3433132D03*
G01*
X6388100Y3933004D03*
D24*
G01*
X6150863Y4512513D03*
D25*
G01*
X6650736Y4512632D03*
G01*
X6400800Y5012504D03*
D26*
G01*
X3949700Y5651492D03*
G01*
X4914900Y5651492D03*
D13*
G01*
X6969963Y8599975D03*
G01*
X7484973Y8599975D03*
G01*
X7999984Y8599975D03*
G01*
X6969963Y399991D03*
G01*
X7484973Y399991D03*
G01*
X7999984Y399991D03*
G01*
X3911600Y7048492D03*
G01*
X3937000Y7264392D03*
G01*
X3937000Y6832592D03*
G01*
X8826500Y4851392D03*
G01*
X8826500Y5105392D03*
G01*
X8826500Y5359392D03*
G01*
X8826500Y5613392D03*
G01*
X8526500Y5486392D03*
G01*
X8526500Y5740392D03*
G01*
X7302500Y5613392D03*
G01*
X7302500Y5359392D03*
G01*
X7302500Y5105392D03*
G01*
X7302500Y4851392D03*
G01*
X7302500Y4597392D03*
G01*
X7302500Y4343392D03*
G01*
X7302500Y4089392D03*
G01*
X7302500Y3835392D03*
G01*
X8826500Y3835392D03*
G01*
X8826500Y4089392D03*
G01*
X8826500Y4343392D03*
G01*
X8826500Y4597392D03*
G01*
X7302500Y5867392D03*
G01*
X8826500Y6375392D03*
G01*
X8826500Y6629392D03*
G01*
X8826500Y6121392D03*
G01*
X7302500Y6121392D03*
G01*
X7302500Y6375392D03*
G01*
X7302500Y6629392D03*
G01*
X8826500Y5867392D03*
G01*
X7493000Y2108192D03*
G01*
X7493000Y1854192D03*
G01*
X7493000Y1600192D03*
G01*
X7493000Y2362192D03*
G01*
X7493000Y2616192D03*
G01*
X7493000Y2870192D03*
G01*
X7493000Y3124192D03*
G01*
X7493000Y3378192D03*
G01*
X8763000Y3378192D03*
G01*
X8763000Y3124192D03*
G01*
X8763000Y2870192D03*
G01*
X8763000Y2616192D03*
G01*
X8763000Y2362192D03*
G01*
X8763000Y2108192D03*
G01*
X8763000Y1854192D03*
G01*
X8763000Y1600192D03*
D26*
G01*
X5283200Y8599975D03*
G01*
X5930900Y8599975D03*
G01*
X6477000Y8599975D03*
D27*
G01*
X8554288Y4643213D03*
G01*
X8563279Y4725738D03*
G01*
X8359775Y6481640D03*
M02*
