G04 Layer: BottomSolderMaskLayer*
G04 EasyEDA v6.5.47, 2024-11-13 16:13:54*
G04 74c0bd91fdf74cf69fbd3cf6ffc820c0,28dbc4cd0de04f76b295d4d1f3f9c80b,10*
G04 Gerber Generator version 0.2*
G04 Scale: 100 percent, Rotated: No, Reflected: No *
G04 Dimensions in millimeters *
G04 leading zeros omitted , absolute positions ,4 integer and 5 decimal *
%FSLAX45Y45*%
%MOMM*%

%AMMACRO1*4,1,8,-0.7831,-0.8128,-0.8128,-0.7828,-0.8128,0.7831,-0.7831,0.8128,0.7828,0.8128,0.8128,0.7831,0.8128,-0.7828,0.7828,-0.8128,-0.7831,-0.8128,0*%
%AMMACRO2*4,1,8,-0.8085,-0.8382,-0.8382,-0.8082,-0.8382,0.8085,-0.8085,0.8382,0.8082,0.8382,0.8382,0.8085,0.8382,-0.8082,0.8082,-0.8382,-0.8085,-0.8382,0*%
%AMMACRO3*4,1,8,-0.9172,-0.9766,-0.9766,-0.9169,-0.9766,0.9172,-0.9172,0.9766,0.9169,0.9766,0.9766,0.9172,0.9766,-0.9169,0.9169,-0.9766,-0.9172,-0.9766,0*%
%AMMACRO4*4,1,8,-1.011,-1.0408,-1.0408,-1.0108,-1.0408,1.011,-1.011,1.0408,1.0108,1.0408,1.0408,1.011,1.0408,-1.0108,1.0108,-1.0408,-1.011,-1.0408,0*%
%AMMACRO5*4,1,8,-1.1209,-1.1012,-1.1506,-1.0712,-1.1506,1.0715,-1.1209,1.1012,1.1206,1.1012,1.1506,1.0715,1.1506,-1.0712,1.1206,-1.1012,-1.1209,-1.1012,0*%
%ADD10MACRO1*%
%ADD11C,1.6256*%
%ADD12C,1.7272*%
%ADD13C,1.9016*%
%ADD14C,1.5016*%
%ADD15MACRO2*%
%ADD16C,1.6764*%
%ADD17MACRO3*%
%ADD18C,1.9532*%
%ADD19O,1.7272X2.4892000000000003*%
%ADD20MACRO4*%
%ADD21C,2.0815*%
%ADD22C,2.0366*%
%ADD23MACRO5*%
%ADD24C,2.3016*%
%ADD25C,2.7032*%

%LPD*%
D10*
G01*
X6438900Y1308092D03*
D11*
G01*
X6184900Y1308092D03*
D12*
G01*
X6324600Y495292D03*
G01*
X6070600Y495292D03*
D13*
G01*
X3984599Y6184892D03*
G01*
X4854600Y6184892D03*
D14*
G01*
X4610100Y7162792D03*
G01*
X4610100Y6908792D03*
D15*
G01*
X7658100Y7785092D03*
D16*
G01*
X7912100Y7785092D03*
G01*
X8166100Y7785092D03*
G01*
X8420100Y7785092D03*
D17*
G01*
X6731000Y2078093D03*
D18*
G01*
X6731000Y2328105D03*
G01*
X6731000Y2578092D03*
G01*
X6731000Y2828104D03*
D19*
G01*
X3784600Y8115292D03*
G01*
X4038600Y8115292D03*
G01*
X4292600Y8115292D03*
D20*
G01*
X5521413Y5943198D03*
D21*
G01*
X6721398Y5943185D03*
D22*
G01*
X6121400Y5743186D03*
D21*
G01*
X5521401Y7163198D03*
G01*
X6721398Y7163198D03*
D23*
G01*
X6138163Y3433018D03*
D24*
G01*
X6638036Y3433132D03*
G01*
X6388100Y3933004D03*
D23*
G01*
X6150863Y4512518D03*
D24*
G01*
X6650736Y4512632D03*
G01*
X6400800Y5012504D03*
D25*
G01*
X3949700Y5651492D03*
G01*
X4914900Y5651492D03*
D11*
G01*
X6969963Y8599975D03*
G01*
X7484973Y8599975D03*
G01*
X7999984Y8599975D03*
G01*
X6969963Y399991D03*
G01*
X7484973Y399991D03*
G01*
X7999984Y399991D03*
G01*
X3911600Y7048492D03*
G01*
X3937000Y7264392D03*
G01*
X3937000Y6832592D03*
G01*
X8826500Y4851392D03*
G01*
X8826500Y5105392D03*
G01*
X8826500Y5359392D03*
G01*
X8826500Y5613392D03*
G01*
X8526500Y5486392D03*
G01*
X8526500Y5740392D03*
G01*
X7302500Y5613392D03*
G01*
X7302500Y5359392D03*
G01*
X7302500Y5105392D03*
G01*
X7302500Y4851392D03*
G01*
X7302500Y4597392D03*
G01*
X7302500Y4343392D03*
G01*
X7302500Y4089392D03*
G01*
X7302500Y3835392D03*
G01*
X8826500Y3835392D03*
G01*
X8826500Y4089392D03*
G01*
X8826500Y4343392D03*
G01*
X8826500Y4597392D03*
G01*
X7302500Y5867392D03*
G01*
X8826500Y6375392D03*
G01*
X8826500Y6629392D03*
G01*
X8826500Y6121392D03*
G01*
X7302500Y6121392D03*
G01*
X7302500Y6375392D03*
G01*
X7302500Y6629392D03*
G01*
X8826500Y5867392D03*
G01*
X7493000Y2108192D03*
G01*
X7493000Y1854192D03*
G01*
X7493000Y1600192D03*
G01*
X7493000Y2362192D03*
G01*
X7493000Y2616192D03*
G01*
X7493000Y2870192D03*
G01*
X7493000Y3124192D03*
G01*
X7493000Y3378192D03*
G01*
X8763000Y3378192D03*
G01*
X8763000Y3124192D03*
G01*
X8763000Y2870192D03*
D12*
G01*
X8763000Y2616192D03*
D11*
G01*
X8763000Y2362192D03*
G01*
X8763000Y2108192D03*
G01*
X8763000Y1854192D03*
G01*
X8763000Y1600192D03*
D25*
G01*
X5283200Y8599975D03*
G01*
X5930900Y8599975D03*
G01*
X6477000Y8599975D03*
M02*
