G04 Layer: TopSilkscreenLayer*
G04 EasyEDA v6.5.47, 2024-11-13 16:13:54*
G04 74c0bd91fdf74cf69fbd3cf6ffc820c0,28dbc4cd0de04f76b295d4d1f3f9c80b,10*
G04 Gerber Generator version 0.2*
G04 Scale: 100 percent, Rotated: No, Reflected: No *
G04 Dimensions in millimeters *
G04 leading zeros omitted , absolute positions ,4 integer and 5 decimal *
%FSLAX45Y45*%
%MOMM*%

%ADD10C,0.2032*%
%ADD11C,0.1524*%
%ADD12C,0.0813*%
%ADD13C,0.0650*%
%ADD14C,0.2540*%
%ADD15C,0.2030*%
%ADD16C,0.1200*%
%ADD17C,0.1270*%
%ADD18C,0.3000*%
%ADD19C,0.0134*%

%LPD*%
G36*
X8481060Y1881886D02*
G01*
X8468360Y1879803D01*
X8458200Y1873504D01*
X8454288Y1869236D01*
X8451545Y1864563D01*
X8449868Y1859432D01*
X8449310Y1853946D01*
X8449462Y1850948D01*
X8450021Y1848002D01*
X8450884Y1845106D01*
X8452104Y1842262D01*
X8453628Y1839671D01*
X8455456Y1837232D01*
X8459978Y1832864D01*
X8467445Y1827936D01*
X8493556Y1812747D01*
X8501380Y1806193D01*
X8502700Y1804263D01*
X8503666Y1802180D01*
X8504224Y1800047D01*
X8504428Y1797812D01*
X8504123Y1794865D01*
X8503158Y1792122D01*
X8501583Y1789531D01*
X8499348Y1787143D01*
X8496757Y1785010D01*
X8493760Y1783537D01*
X8490407Y1782622D01*
X8486648Y1782318D01*
X8483244Y1782521D01*
X8479891Y1783232D01*
X8476640Y1784299D01*
X8473440Y1785874D01*
X8470442Y1787804D01*
X8467801Y1789988D01*
X8465464Y1792478D01*
X8463534Y1795272D01*
X8462010Y1798574D01*
X8460689Y1802333D01*
X8459571Y1806549D01*
X8458708Y1811274D01*
X8455914Y1811274D01*
X8455914Y1776475D01*
X8458708Y1776475D01*
X8459571Y1779270D01*
X8460740Y1781048D01*
X8462111Y1782013D01*
X8463788Y1782318D01*
X8466175Y1781810D01*
X8474303Y1778609D01*
X8478570Y1777441D01*
X8482787Y1776730D01*
X8486902Y1776475D01*
X8492998Y1776984D01*
X8498535Y1778457D01*
X8503513Y1780895D01*
X8507984Y1784350D01*
X8511641Y1788363D01*
X8514283Y1792782D01*
X8515858Y1797659D01*
X8516366Y1802892D01*
X8516213Y1805990D01*
X8515654Y1808937D01*
X8514791Y1811680D01*
X8513572Y1814322D01*
X8511997Y1816912D01*
X8510066Y1819402D01*
X8507831Y1821738D01*
X8502040Y1826310D01*
X8492896Y1832000D01*
X8473033Y1843582D01*
X8468868Y1846732D01*
X8465718Y1850288D01*
X8464550Y1852168D01*
X8463026Y1855927D01*
X8462619Y1857756D01*
X8462518Y1859534D01*
X8462873Y1862836D01*
X8463838Y1865884D01*
X8465515Y1868678D01*
X8467852Y1871218D01*
X8470849Y1873351D01*
X8474303Y1874824D01*
X8478215Y1875739D01*
X8482584Y1876043D01*
X8486546Y1875840D01*
X8490356Y1875180D01*
X8493912Y1874062D01*
X8497316Y1872488D01*
X8500516Y1870608D01*
X8503259Y1868474D01*
X8505596Y1866138D01*
X8507476Y1863598D01*
X8509050Y1860600D01*
X8510371Y1856892D01*
X8511590Y1852472D01*
X8512556Y1847342D01*
X8515350Y1847342D01*
X8515350Y1881886D01*
X8512556Y1881886D01*
X8511895Y1878990D01*
X8511032Y1877314D01*
X8509762Y1876552D01*
X8507984Y1876298D01*
X8504834Y1876856D01*
X8492947Y1880362D01*
X8489442Y1881124D01*
X8485327Y1881682D01*
G37*
G36*
X8529066Y1879600D02*
G01*
X8529066Y1876806D01*
X8535365Y1876602D01*
X8537702Y1876043D01*
X8539683Y1875078D01*
X8541258Y1873757D01*
X8542121Y1872183D01*
X8542782Y1869693D01*
X8543137Y1866341D01*
X8543290Y1862074D01*
X8543188Y1792376D01*
X8542934Y1789226D01*
X8542426Y1786889D01*
X8541766Y1785366D01*
X8540140Y1783689D01*
X8538057Y1782521D01*
X8535568Y1781810D01*
X8532622Y1781556D01*
X8529066Y1781556D01*
X8529066Y1778762D01*
X8557768Y1778762D01*
X8593582Y1857756D01*
X8630412Y1778762D01*
X8658860Y1778762D01*
X8658860Y1781556D01*
X8653576Y1781860D01*
X8649970Y1782825D01*
X8647633Y1784502D01*
X8646160Y1786382D01*
X8645499Y1788160D01*
X8644991Y1790395D01*
X8644636Y1796288D01*
X8644737Y1865985D01*
X8645042Y1869135D01*
X8645499Y1871472D01*
X8646160Y1872996D01*
X8647785Y1874672D01*
X8649868Y1875840D01*
X8652357Y1876552D01*
X8655304Y1876806D01*
X8658860Y1876806D01*
X8658860Y1879600D01*
X8623808Y1879600D01*
X8623808Y1876806D01*
X8630107Y1876602D01*
X8632444Y1876043D01*
X8634425Y1875078D01*
X8636000Y1873757D01*
X8636863Y1872183D01*
X8637524Y1869693D01*
X8637879Y1866341D01*
X8638032Y1862074D01*
X8638032Y1794764D01*
X8598916Y1879600D01*
X8596630Y1879600D01*
X8557768Y1794764D01*
X8557869Y1865985D01*
X8558123Y1869135D01*
X8558631Y1871472D01*
X8559292Y1872996D01*
X8560816Y1874672D01*
X8562848Y1875840D01*
X8565388Y1876552D01*
X8568436Y1876806D01*
X8571992Y1876806D01*
X8571992Y1879600D01*
G37*
G36*
X8383524Y1879600D02*
G01*
X8383524Y1876806D01*
X8389213Y1876501D01*
X8391245Y1876094D01*
X8393684Y1874977D01*
X8395106Y1873453D01*
X8395817Y1870964D01*
X8396173Y1865630D01*
X8396224Y1776730D01*
X8398764Y1776730D01*
X8423148Y1788668D01*
X8422132Y1790954D01*
X8417814Y1789226D01*
X8414512Y1788668D01*
X8412683Y1788922D01*
X8411210Y1789684D01*
X8409940Y1791055D01*
X8409178Y1793239D01*
X8408822Y1795272D01*
X8408466Y1802384D01*
X8408416Y1861820D01*
X8408670Y1869135D01*
X8408974Y1871370D01*
X8409889Y1873605D01*
X8411311Y1874977D01*
X8413546Y1876094D01*
X8415528Y1876501D01*
X8421370Y1876806D01*
X8421370Y1879600D01*
G37*
G36*
X8481060Y2135886D02*
G01*
X8468360Y2133803D01*
X8458200Y2127504D01*
X8454288Y2123236D01*
X8451545Y2118563D01*
X8449868Y2113432D01*
X8449310Y2107946D01*
X8449462Y2104948D01*
X8450021Y2102002D01*
X8450884Y2099106D01*
X8452104Y2096262D01*
X8453628Y2093671D01*
X8455456Y2091232D01*
X8459978Y2086864D01*
X8467445Y2081936D01*
X8493556Y2066747D01*
X8501380Y2060193D01*
X8502700Y2058263D01*
X8503666Y2056180D01*
X8504224Y2054047D01*
X8504428Y2051812D01*
X8504123Y2048865D01*
X8503158Y2046122D01*
X8501583Y2043531D01*
X8499348Y2041143D01*
X8496757Y2039010D01*
X8493760Y2037537D01*
X8490407Y2036622D01*
X8486648Y2036318D01*
X8483244Y2036521D01*
X8479891Y2037232D01*
X8476640Y2038299D01*
X8473440Y2039874D01*
X8470442Y2041804D01*
X8467801Y2043988D01*
X8465464Y2046478D01*
X8463534Y2049272D01*
X8462010Y2052574D01*
X8460689Y2056333D01*
X8459571Y2060549D01*
X8458708Y2065274D01*
X8455914Y2065274D01*
X8455914Y2030475D01*
X8458708Y2030475D01*
X8459571Y2033270D01*
X8460740Y2035048D01*
X8462111Y2036013D01*
X8463788Y2036318D01*
X8466175Y2035810D01*
X8474303Y2032609D01*
X8478570Y2031441D01*
X8482787Y2030730D01*
X8486902Y2030475D01*
X8492998Y2030984D01*
X8498535Y2032457D01*
X8503513Y2034895D01*
X8507984Y2038350D01*
X8511641Y2042363D01*
X8514283Y2046782D01*
X8515858Y2051659D01*
X8516366Y2056892D01*
X8516213Y2059990D01*
X8515654Y2062937D01*
X8514791Y2065680D01*
X8513572Y2068322D01*
X8511997Y2070912D01*
X8510066Y2073402D01*
X8507831Y2075738D01*
X8502040Y2080310D01*
X8492896Y2086000D01*
X8473033Y2097582D01*
X8468868Y2100732D01*
X8465718Y2104288D01*
X8464550Y2106168D01*
X8463026Y2109927D01*
X8462619Y2111756D01*
X8462518Y2113534D01*
X8462873Y2116836D01*
X8463838Y2119884D01*
X8465515Y2122678D01*
X8467852Y2125218D01*
X8470849Y2127351D01*
X8474303Y2128824D01*
X8478215Y2129739D01*
X8482584Y2130044D01*
X8486546Y2129840D01*
X8490356Y2129180D01*
X8493912Y2128062D01*
X8497316Y2126488D01*
X8500516Y2124608D01*
X8503259Y2122474D01*
X8505596Y2120138D01*
X8507476Y2117598D01*
X8509050Y2114600D01*
X8510371Y2110892D01*
X8511590Y2106472D01*
X8512556Y2101342D01*
X8515350Y2101342D01*
X8515350Y2135886D01*
X8512556Y2135886D01*
X8511895Y2132990D01*
X8511032Y2131314D01*
X8509762Y2130552D01*
X8507984Y2130298D01*
X8504834Y2130856D01*
X8492947Y2134362D01*
X8489442Y2135124D01*
X8485327Y2135682D01*
G37*
G36*
X8529066Y2133600D02*
G01*
X8529066Y2130806D01*
X8535365Y2130602D01*
X8537702Y2130044D01*
X8539683Y2129078D01*
X8541258Y2127758D01*
X8542121Y2126183D01*
X8542782Y2123694D01*
X8543137Y2120341D01*
X8543290Y2116074D01*
X8543188Y2046376D01*
X8542934Y2043226D01*
X8542426Y2040889D01*
X8541766Y2039366D01*
X8540140Y2037689D01*
X8538057Y2036521D01*
X8535568Y2035810D01*
X8532622Y2035556D01*
X8529066Y2035556D01*
X8529066Y2032762D01*
X8557768Y2032762D01*
X8593582Y2111756D01*
X8630412Y2032762D01*
X8658860Y2032762D01*
X8658860Y2035556D01*
X8653576Y2035860D01*
X8649970Y2036825D01*
X8647633Y2038502D01*
X8646160Y2040382D01*
X8645499Y2042160D01*
X8644991Y2044395D01*
X8644636Y2050288D01*
X8644737Y2119985D01*
X8645042Y2123135D01*
X8645499Y2125472D01*
X8646160Y2126996D01*
X8647785Y2128672D01*
X8649868Y2129840D01*
X8652357Y2130552D01*
X8655304Y2130806D01*
X8658860Y2130806D01*
X8658860Y2133600D01*
X8623808Y2133600D01*
X8623808Y2130806D01*
X8630107Y2130602D01*
X8632444Y2130044D01*
X8634425Y2129078D01*
X8636000Y2127758D01*
X8636863Y2126183D01*
X8637524Y2123694D01*
X8637879Y2120341D01*
X8638032Y2116074D01*
X8638032Y2048764D01*
X8598916Y2133600D01*
X8596630Y2133600D01*
X8557768Y2048764D01*
X8557869Y2119985D01*
X8558123Y2123135D01*
X8558631Y2125472D01*
X8559292Y2126996D01*
X8560816Y2128672D01*
X8562848Y2129840D01*
X8565388Y2130552D01*
X8568436Y2130806D01*
X8571992Y2130806D01*
X8571992Y2133600D01*
G37*
G36*
X8378444Y2133600D02*
G01*
X8371331Y2114296D01*
X8374125Y2114296D01*
X8376107Y2117242D01*
X8378444Y2119376D01*
X8381288Y2120849D01*
X8384286Y2121662D01*
X8388807Y2122220D01*
X8395716Y2122424D01*
X8422132Y2122424D01*
X8413851Y2114194D01*
X8398764Y2098040D01*
X8388197Y2084882D01*
X8380984Y2072386D01*
X8379409Y2068575D01*
X8378291Y2064766D01*
X8377631Y2060956D01*
X8377428Y2057146D01*
X8377936Y2051964D01*
X8379459Y2047189D01*
X8382000Y2042718D01*
X8385556Y2038604D01*
X8389975Y2035149D01*
X8394903Y2032711D01*
X8400288Y2031238D01*
X8406130Y2030730D01*
X8411718Y2031187D01*
X8416798Y2032558D01*
X8421370Y2034895D01*
X8425434Y2038096D01*
X8428888Y2042160D01*
X8431580Y2047036D01*
X8433562Y2052726D01*
X8434832Y2059178D01*
X8432292Y2059178D01*
X8430666Y2055215D01*
X8428685Y2051761D01*
X8426246Y2048764D01*
X8423402Y2046224D01*
X8420404Y2044344D01*
X8417153Y2042972D01*
X8413800Y2042160D01*
X8410194Y2041906D01*
X8406180Y2042312D01*
X8402421Y2043480D01*
X8399068Y2045462D01*
X8395970Y2048256D01*
X8393430Y2051507D01*
X8391601Y2055215D01*
X8390483Y2059381D01*
X8390128Y2064004D01*
X8392820Y2077161D01*
X8400796Y2091689D01*
X8407196Y2099868D01*
X8415528Y2109114D01*
X8425738Y2119426D01*
X8437880Y2130806D01*
X8437880Y2133600D01*
G37*
G36*
X8496808Y2415286D02*
G01*
X8483803Y2413711D01*
X8472678Y2408936D01*
X8463127Y2401011D01*
X8454898Y2389378D01*
X8457184Y2387854D01*
X8461654Y2393594D01*
X8465870Y2398268D01*
X8469884Y2401976D01*
X8473694Y2404618D01*
X8477656Y2406396D01*
X8481872Y2407666D01*
X8486394Y2408428D01*
X8491220Y2408682D01*
X8496655Y2408326D01*
X8501837Y2407361D01*
X8506714Y2405684D01*
X8511286Y2403348D01*
X8515451Y2400401D01*
X8519007Y2396896D01*
X8522055Y2392781D01*
X8524494Y2388108D01*
X8526373Y2382824D01*
X8527745Y2377084D01*
X8528558Y2370886D01*
X8528812Y2364232D01*
X8527643Y2349042D01*
X8524240Y2336546D01*
X8521750Y2331364D01*
X8518753Y2326894D01*
X8515400Y2323236D01*
X8511540Y2320290D01*
X8507323Y2318054D01*
X8502904Y2316480D01*
X8498179Y2315514D01*
X8493252Y2315210D01*
X8487511Y2315616D01*
X8482126Y2316886D01*
X8477199Y2318918D01*
X8472678Y2321814D01*
X8465159Y2330856D01*
X8459470Y2344166D01*
X8457184Y2344166D01*
X8459470Y2309876D01*
X8462264Y2309876D01*
X8463330Y2313076D01*
X8465058Y2315464D01*
X8466531Y2316429D01*
X8468360Y2316734D01*
X8470239Y2316327D01*
X8478266Y2312873D01*
X8483650Y2311196D01*
X8489086Y2310231D01*
X8494522Y2309876D01*
X8507984Y2311603D01*
X8520430Y2316734D01*
X8531047Y2325065D01*
X8538972Y2336292D01*
X8544102Y2349652D01*
X8545830Y2364232D01*
X8543290Y2381656D01*
X8535670Y2396744D01*
X8527999Y2404872D01*
X8518956Y2410663D01*
X8508593Y2414117D01*
G37*
G36*
X8567674Y2414524D02*
G01*
X8567572Y2325776D01*
X8567267Y2322626D01*
X8566810Y2320290D01*
X8566150Y2318766D01*
X8564524Y2317089D01*
X8562441Y2315921D01*
X8559952Y2315210D01*
X8557006Y2314956D01*
X8553450Y2314956D01*
X8553450Y2312162D01*
X8588502Y2312162D01*
X8588502Y2314956D01*
X8582355Y2315159D01*
X8579916Y2315718D01*
X8577935Y2316683D01*
X8576310Y2318004D01*
X8575395Y2319578D01*
X8574786Y2322068D01*
X8574379Y2325420D01*
X8574278Y2387854D01*
X8636000Y2312162D01*
X8663432Y2312162D01*
X8663432Y2314956D01*
X8659622Y2315108D01*
X8656828Y2315464D01*
X8653018Y2316988D01*
X8650224Y2318512D01*
X8647430Y2321102D01*
X8643620Y2325370D01*
X8643721Y2399385D01*
X8643975Y2402535D01*
X8644483Y2404872D01*
X8645144Y2406396D01*
X8646769Y2408072D01*
X8648852Y2409240D01*
X8651341Y2409952D01*
X8654288Y2410206D01*
X8657844Y2410206D01*
X8657844Y2413000D01*
X8622792Y2413000D01*
X8622792Y2410206D01*
X8629091Y2410002D01*
X8631428Y2409444D01*
X8633409Y2408478D01*
X8634984Y2407158D01*
X8635847Y2405583D01*
X8636508Y2403094D01*
X8636863Y2399741D01*
X8637016Y2395474D01*
X8637016Y2333498D01*
X8570468Y2414524D01*
G37*
G36*
X8431530Y3207512D02*
G01*
X8431530Y3204718D01*
X8436203Y3204464D01*
X8437930Y3204159D01*
X8440115Y3203143D01*
X8441639Y3201619D01*
X8442198Y3200654D01*
X8442553Y3199434D01*
X8442909Y3194964D01*
X8442960Y3170936D01*
X8439404Y3173882D01*
X8436356Y3175508D01*
X8431936Y3176676D01*
X8426704Y3177032D01*
X8420658Y3176422D01*
X8415172Y3174695D01*
X8410244Y3171748D01*
X8405876Y3167634D01*
X8398256Y3154629D01*
X8396830Y3145536D01*
X8408924Y3145536D01*
X8409279Y3151987D01*
X8410448Y3157728D01*
X8412378Y3162706D01*
X8415020Y3166872D01*
X8417458Y3169412D01*
X8420303Y3171240D01*
X8423452Y3172358D01*
X8426958Y3172714D01*
X8429853Y3172510D01*
X8432546Y3171901D01*
X8434984Y3170834D01*
X8437118Y3169412D01*
X8438946Y3167684D01*
X8440420Y3165856D01*
X8441486Y3163874D01*
X8442553Y3160166D01*
X8442909Y3154680D01*
X8442960Y3125470D01*
X8437676Y3120136D01*
X8435695Y3118408D01*
X8434070Y3117342D01*
X8430615Y3116021D01*
X8428837Y3115665D01*
X8426958Y3115564D01*
X8423859Y3115919D01*
X8420963Y3117037D01*
X8418271Y3118866D01*
X8415782Y3121406D01*
X8410651Y3131616D01*
X8408924Y3145536D01*
X8396830Y3145536D01*
X8395716Y3138424D01*
X8397798Y3124149D01*
X8404098Y3112770D01*
X8407755Y3109315D01*
X8411768Y3106877D01*
X8416239Y3105404D01*
X8421116Y3104896D01*
X8424011Y3105099D01*
X8426856Y3105810D01*
X8429599Y3106877D01*
X8432292Y3108452D01*
X8434933Y3110585D01*
X8437626Y3113430D01*
X8440318Y3116935D01*
X8442960Y3121152D01*
X8442960Y3105150D01*
X8445754Y3105150D01*
X8466836Y3113532D01*
X8465820Y3116072D01*
X8463381Y3115310D01*
X8461248Y3115056D01*
X8459419Y3115259D01*
X8457946Y3115818D01*
X8456676Y3117037D01*
X8455914Y3118612D01*
X8455507Y3121609D01*
X8455456Y3194710D01*
X8455812Y3199384D01*
X8456574Y3201466D01*
X8457590Y3202736D01*
X8459774Y3203956D01*
X8461502Y3204464D01*
X8463330Y3204718D01*
X8467090Y3204718D01*
X8467090Y3207512D01*
G37*
G36*
X8616696Y3177286D02*
G01*
X8603996Y3175203D01*
X8593836Y3168904D01*
X8589924Y3164636D01*
X8587181Y3159963D01*
X8585504Y3154832D01*
X8584946Y3149346D01*
X8585098Y3146348D01*
X8585657Y3143402D01*
X8586520Y3140506D01*
X8587740Y3137662D01*
X8589264Y3135071D01*
X8591092Y3132632D01*
X8595614Y3128264D01*
X8598712Y3126028D01*
X8608364Y3120186D01*
X8614918Y3116580D01*
X8628989Y3108147D01*
X8636762Y3101594D01*
X8638184Y3099663D01*
X8639251Y3097580D01*
X8639860Y3095447D01*
X8640064Y3093212D01*
X8639759Y3090265D01*
X8638794Y3087522D01*
X8637219Y3084931D01*
X8634984Y3082544D01*
X8632291Y3080410D01*
X8629243Y3078937D01*
X8625941Y3078022D01*
X8622284Y3077718D01*
X8618880Y3077921D01*
X8615476Y3078632D01*
X8612124Y3079699D01*
X8608822Y3081274D01*
X8605824Y3083204D01*
X8603234Y3085388D01*
X8600998Y3087878D01*
X8599170Y3090672D01*
X8597544Y3093974D01*
X8596172Y3097733D01*
X8595106Y3101949D01*
X8594344Y3106674D01*
X8591550Y3106674D01*
X8591550Y3071876D01*
X8594344Y3071876D01*
X8595207Y3074670D01*
X8596376Y3076448D01*
X8597646Y3077413D01*
X8599424Y3077718D01*
X8601760Y3077210D01*
X8609736Y3074009D01*
X8614105Y3072841D01*
X8618270Y3072130D01*
X8622284Y3071876D01*
X8628481Y3072384D01*
X8634120Y3073857D01*
X8639149Y3076295D01*
X8643620Y3079750D01*
X8647176Y3083763D01*
X8649716Y3088182D01*
X8651240Y3093059D01*
X8651748Y3098292D01*
X8651595Y3101390D01*
X8651036Y3104337D01*
X8650173Y3107080D01*
X8648954Y3109722D01*
X8647379Y3112312D01*
X8645550Y3114802D01*
X8640826Y3119374D01*
X8633409Y3124403D01*
X8611870Y3136900D01*
X8606536Y3140456D01*
X8604504Y3142132D01*
X8601354Y3145688D01*
X8600186Y3147568D01*
X8598662Y3151327D01*
X8598154Y3154934D01*
X8598509Y3158236D01*
X8599474Y3161284D01*
X8601151Y3164078D01*
X8603488Y3166618D01*
X8606434Y3168751D01*
X8609838Y3170224D01*
X8613749Y3171139D01*
X8618220Y3171444D01*
X8622080Y3171240D01*
X8625840Y3170580D01*
X8629446Y3169462D01*
X8632952Y3167888D01*
X8636050Y3166008D01*
X8638743Y3163874D01*
X8640978Y3161538D01*
X8642858Y3158998D01*
X8644432Y3156000D01*
X8645855Y3152292D01*
X8647074Y3147872D01*
X8648192Y3142742D01*
X8650986Y3142742D01*
X8650986Y3177286D01*
X8648192Y3177286D01*
X8647531Y3174390D01*
X8646668Y3172714D01*
X8645245Y3171952D01*
X8643620Y3171698D01*
X8640318Y3172256D01*
X8628380Y3175762D01*
X8624824Y3176524D01*
X8620861Y3177082D01*
G37*
G36*
X8498840Y3177032D02*
G01*
X8493455Y3176524D01*
X8488527Y3174949D01*
X8484057Y3172307D01*
X8480044Y3168650D01*
X8476589Y3164332D01*
X8473948Y3159810D01*
X8472017Y3155086D01*
X8470900Y3150108D01*
X8473186Y3148584D01*
X8475065Y3152698D01*
X8477046Y3156204D01*
X8479231Y3159048D01*
X8481568Y3161284D01*
X8484209Y3162858D01*
X8487054Y3163976D01*
X8490051Y3164636D01*
X8493252Y3164840D01*
X8498078Y3164281D01*
X8502599Y3162706D01*
X8506815Y3159963D01*
X8510778Y3156204D01*
X8516315Y3145993D01*
X8518144Y3132582D01*
X8470900Y3132582D01*
X8471226Y3128264D01*
X8518144Y3128264D01*
X8517483Y3124200D01*
X8516315Y3120593D01*
X8514588Y3117443D01*
X8512302Y3114802D01*
X8509812Y3112668D01*
X8507171Y3111195D01*
X8504326Y3110280D01*
X8501380Y3109976D01*
X8499398Y3110128D01*
X8497417Y3110636D01*
X8495588Y3111398D01*
X8491982Y3113786D01*
X8490458Y3115259D01*
X8489188Y3116935D01*
X8488172Y3118866D01*
X8487156Y3122625D01*
X8486648Y3128264D01*
X8471226Y3128264D01*
X8471357Y3126536D01*
X8472728Y3121152D01*
X8475065Y3116376D01*
X8478266Y3112262D01*
X8482228Y3108909D01*
X8486648Y3106521D01*
X8491626Y3105099D01*
X8497062Y3104642D01*
X8509558Y3107131D01*
X8519668Y3114548D01*
X8526322Y3126181D01*
X8528558Y3141726D01*
X8526373Y3156305D01*
X8519922Y3167634D01*
X8515248Y3171748D01*
X8510219Y3174695D01*
X8504732Y3176422D01*
G37*
G36*
X8551164Y3176016D02*
G01*
X8548674Y3175812D01*
X8546236Y3175152D01*
X8543848Y3174034D01*
X8541512Y3172460D01*
X8539226Y3170326D01*
X8537244Y3167837D01*
X8535568Y3164890D01*
X8534146Y3161538D01*
X8536940Y3161538D01*
X8538464Y3164027D01*
X8540496Y3165856D01*
X8542832Y3167024D01*
X8545322Y3167380D01*
X8546744Y3167227D01*
X8548065Y3166821D01*
X8549182Y3166110D01*
X8550148Y3165094D01*
X8551011Y3163671D01*
X8551672Y3161741D01*
X8552180Y3156204D01*
X8552180Y3112008D01*
X8536178Y3112008D01*
X8536178Y3106928D01*
X8552180Y3106928D01*
X8552180Y3084322D01*
X8554466Y3084322D01*
X8557107Y3090722D01*
X8559038Y3094736D01*
X8562695Y3099765D01*
X8566658Y3104134D01*
X8570925Y3107385D01*
X8575040Y3109468D01*
X8575040Y3112008D01*
X8564372Y3112008D01*
X8564270Y3161436D01*
X8563508Y3166872D01*
X8562848Y3168904D01*
X8561984Y3170478D01*
X8560866Y3171901D01*
X8558022Y3174238D01*
X8554669Y3175558D01*
X8552942Y3175914D01*
G37*
G36*
X8613648Y3429000D02*
G01*
X8599881Y3428034D01*
X8587994Y3425088D01*
X8578037Y3420160D01*
X8569960Y3413251D01*
X8564422Y3405733D01*
X8560409Y3397300D01*
X8558072Y3388055D01*
X8557321Y3378708D01*
X8574024Y3378708D01*
X8576868Y3397402D01*
X8585454Y3411728D01*
X8598357Y3420668D01*
X8614156Y3423665D01*
X8617508Y3423564D01*
X8625382Y3422548D01*
X8629904Y3421634D01*
X8629904Y3335782D01*
X8621877Y3334258D01*
X8618169Y3333851D01*
X8614664Y3333750D01*
X8598458Y3336747D01*
X8585454Y3345687D01*
X8576868Y3360064D01*
X8574024Y3378708D01*
X8557321Y3378708D01*
X8557260Y3377946D01*
X8559038Y3363264D01*
X8564372Y3350260D01*
X8572703Y3340049D01*
X8583422Y3333242D01*
X8597849Y3329432D01*
X8617712Y3328162D01*
X8658860Y3328162D01*
X8658860Y3330956D01*
X8652306Y3331159D01*
X8649970Y3331718D01*
X8647988Y3332683D01*
X8646414Y3334004D01*
X8645550Y3335680D01*
X8644890Y3338271D01*
X8644534Y3341674D01*
X8644382Y3345942D01*
X8644483Y3415029D01*
X8644737Y3418128D01*
X8645245Y3420516D01*
X8645906Y3422142D01*
X8647531Y3423920D01*
X8649563Y3425190D01*
X8652103Y3425951D01*
X8655050Y3426206D01*
X8658860Y3426206D01*
X8658860Y3429000D01*
G37*
G36*
X8504428Y3429000D02*
G01*
X8504428Y3426206D01*
X8509762Y3426104D01*
X8513165Y3425190D01*
X8515908Y3423767D01*
X8517432Y3422243D01*
X8518347Y3419805D01*
X8518855Y3414725D01*
X8518906Y3345942D01*
X8518753Y3341776D01*
X8518398Y3338525D01*
X8517737Y3336086D01*
X8516874Y3334512D01*
X8515248Y3332937D01*
X8513267Y3331870D01*
X8510828Y3331159D01*
X8504428Y3330956D01*
X8504428Y3328162D01*
X8547608Y3328162D01*
X8547608Y3330956D01*
X8542274Y3331057D01*
X8538870Y3331972D01*
X8536127Y3333394D01*
X8534603Y3334918D01*
X8533688Y3337356D01*
X8533180Y3342436D01*
X8533231Y3415284D01*
X8533587Y3418535D01*
X8534146Y3420973D01*
X8534908Y3422650D01*
X8536533Y3424224D01*
X8538565Y3425342D01*
X8541105Y3426002D01*
X8547608Y3426206D01*
X8547608Y3429000D01*
G37*
G36*
X8397494Y3429000D02*
G01*
X8397494Y3426206D01*
X8401456Y3425647D01*
X8405063Y3424834D01*
X8408212Y3423615D01*
X8410956Y3422142D01*
X8413597Y3420059D01*
X8416544Y3417214D01*
X8423148Y3408934D01*
X8444230Y3379978D01*
X8438184Y3378352D01*
X8433054Y3376168D01*
X8428786Y3373526D01*
X8425434Y3370326D01*
X8422792Y3366719D01*
X8420862Y3362807D01*
X8419744Y3358591D01*
X8419429Y3355086D01*
X8436102Y3355086D01*
X8436559Y3359708D01*
X8437880Y3363874D01*
X8440115Y3367582D01*
X8443214Y3370834D01*
X8447328Y3373628D01*
X8452358Y3375609D01*
X8458250Y3376777D01*
X8465058Y3377184D01*
X8469376Y3377184D01*
X8469376Y3335274D01*
X8462772Y3334105D01*
X8457692Y3333750D01*
X8452967Y3334105D01*
X8448802Y3335223D01*
X8445144Y3337051D01*
X8441944Y3339592D01*
X8439404Y3342843D01*
X8437575Y3346500D01*
X8436457Y3350615D01*
X8436102Y3355086D01*
X8419429Y3355086D01*
X8419338Y3354070D01*
X8419693Y3349904D01*
X8420658Y3345992D01*
X8422335Y3342386D01*
X8424672Y3339084D01*
X8427466Y3336188D01*
X8430564Y3333750D01*
X8433968Y3331870D01*
X8437626Y3330448D01*
X8441944Y3329432D01*
X8447328Y3328720D01*
X8453780Y3328314D01*
X8498078Y3328162D01*
X8498078Y3330956D01*
X8491524Y3331159D01*
X8489188Y3331718D01*
X8487206Y3332683D01*
X8485632Y3334004D01*
X8484768Y3335680D01*
X8484108Y3338271D01*
X8483752Y3341674D01*
X8483600Y3345942D01*
X8483701Y3415131D01*
X8484006Y3418281D01*
X8484463Y3420618D01*
X8485124Y3422142D01*
X8486749Y3423920D01*
X8488781Y3425190D01*
X8491321Y3425951D01*
X8494268Y3426206D01*
X8498078Y3426206D01*
X8498078Y3429000D01*
X8454644Y3429000D01*
X8454644Y3426206D01*
X8461349Y3426002D01*
X8463584Y3425393D01*
X8465515Y3424326D01*
X8467090Y3422904D01*
X8468106Y3421329D01*
X8468817Y3418840D01*
X8469223Y3415487D01*
X8469376Y3411220D01*
X8469376Y3381756D01*
X8468106Y3381959D01*
X8458708Y3381756D01*
X8424418Y3429000D01*
G37*
G36*
X7863586Y3431286D02*
G01*
X7858607Y3431184D01*
X7849362Y3430168D01*
X7845044Y3429254D01*
X7840827Y3427984D01*
X7836662Y3426409D01*
X7828280Y3422396D01*
X7828178Y3387699D01*
X7827924Y3384702D01*
X7827416Y3382365D01*
X7826756Y3380740D01*
X7825384Y3378962D01*
X7823657Y3377692D01*
X7821472Y3376929D01*
X7816850Y3376676D01*
X7816850Y3373882D01*
X7855966Y3373882D01*
X7855966Y3376676D01*
X7850784Y3376980D01*
X7848803Y3377387D01*
X7847330Y3377946D01*
X7845298Y3379470D01*
X7843774Y3381501D01*
X7843316Y3382975D01*
X7842808Y3387953D01*
X7842758Y3420618D01*
X7847634Y3423107D01*
X7852664Y3424936D01*
X7858048Y3425901D01*
X7863586Y3426206D01*
X7868259Y3425850D01*
X7872933Y3424834D01*
X7877556Y3423056D01*
X7882128Y3420618D01*
X7886496Y3417519D01*
X7890357Y3413607D01*
X7893862Y3408883D01*
X7896859Y3403346D01*
X7901025Y3390798D01*
X7902448Y3376929D01*
X7900263Y3360369D01*
X7893812Y3346196D01*
X7881569Y3334765D01*
X7864602Y3330956D01*
X7851698Y3333140D01*
X7841488Y3339592D01*
X7838490Y3342995D01*
X7835747Y3347161D01*
X7833410Y3352037D01*
X7831328Y3357626D01*
X7828534Y3357626D01*
X7831328Y3325876D01*
X7834122Y3325876D01*
X7834375Y3329076D01*
X7835138Y3330956D01*
X7836306Y3331921D01*
X7837678Y3332226D01*
X7839709Y3331819D01*
X7850479Y3328162D01*
X7855966Y3326637D01*
X7860792Y3326079D01*
X7866125Y3325876D01*
X7880146Y3327450D01*
X7892288Y3332226D01*
X7904124Y3341776D01*
X7913116Y3354578D01*
X7917891Y3367074D01*
X7919466Y3380232D01*
X7916621Y3397453D01*
X7908036Y3412490D01*
X7899552Y3420719D01*
X7889290Y3426612D01*
X7877302Y3430117D01*
G37*
G36*
X7721092Y3430524D02*
G01*
X7720990Y3341776D01*
X7720736Y3338626D01*
X7720228Y3336290D01*
X7719568Y3334765D01*
X7717942Y3333089D01*
X7715859Y3331921D01*
X7713370Y3331210D01*
X7710424Y3330956D01*
X7706868Y3330956D01*
X7706868Y3328162D01*
X7741920Y3328162D01*
X7741920Y3330956D01*
X7735620Y3331159D01*
X7733284Y3331718D01*
X7731302Y3332683D01*
X7729728Y3334004D01*
X7728813Y3335578D01*
X7728203Y3338068D01*
X7727797Y3341420D01*
X7727696Y3403854D01*
X7789418Y3328162D01*
X7816850Y3328162D01*
X7816850Y3330956D01*
X7812938Y3331108D01*
X7810246Y3331464D01*
X7806436Y3332987D01*
X7803642Y3334512D01*
X7800797Y3337102D01*
X7796784Y3341370D01*
X7796885Y3415385D01*
X7797241Y3418535D01*
X7797800Y3420872D01*
X7798562Y3422396D01*
X7800086Y3424072D01*
X7802118Y3425240D01*
X7804658Y3425951D01*
X7807706Y3426206D01*
X7811262Y3426206D01*
X7811262Y3429000D01*
X7775956Y3429000D01*
X7775956Y3426206D01*
X7782356Y3426002D01*
X7784795Y3425444D01*
X7786776Y3424478D01*
X7788402Y3423158D01*
X7789265Y3421583D01*
X7789925Y3419094D01*
X7790281Y3415741D01*
X7790434Y3411474D01*
X7790434Y3349498D01*
X7723886Y3430524D01*
G37*
G36*
X7657084Y3429000D02*
G01*
X7643266Y3428034D01*
X7631379Y3425088D01*
X7621320Y3420160D01*
X7613142Y3413251D01*
X7607604Y3405733D01*
X7603591Y3397300D01*
X7601254Y3388055D01*
X7600503Y3378708D01*
X7617459Y3378708D01*
X7620304Y3397402D01*
X7628890Y3411728D01*
X7641590Y3420668D01*
X7657338Y3423665D01*
X7660792Y3423564D01*
X7668818Y3422548D01*
X7673340Y3421634D01*
X7673340Y3335782D01*
X7665212Y3334258D01*
X7661554Y3333851D01*
X7658100Y3333750D01*
X7641793Y3336747D01*
X7628890Y3345687D01*
X7620304Y3360064D01*
X7617459Y3378708D01*
X7600503Y3378708D01*
X7600442Y3377946D01*
X7602220Y3363264D01*
X7607553Y3350260D01*
X7615885Y3340049D01*
X7626603Y3333242D01*
X7641031Y3329432D01*
X7660894Y3328162D01*
X7702042Y3328162D01*
X7702042Y3330956D01*
X7695590Y3331159D01*
X7693253Y3331718D01*
X7691272Y3332683D01*
X7689596Y3334004D01*
X7688681Y3335680D01*
X7688072Y3338271D01*
X7687665Y3341674D01*
X7687564Y3411220D01*
X7687970Y3418128D01*
X7688427Y3420516D01*
X7689088Y3422142D01*
X7690713Y3423920D01*
X7692796Y3425190D01*
X7695285Y3425951D01*
X7698231Y3426206D01*
X7702042Y3426206D01*
X7702042Y3429000D01*
G37*
G36*
X7790688Y3177286D02*
G01*
X7753807Y3087878D01*
X7752130Y3084830D01*
X7750403Y3082290D01*
X7748524Y3080258D01*
X7746949Y3079089D01*
X7745069Y3078175D01*
X7742885Y3077464D01*
X7740396Y3076956D01*
X7740396Y3074162D01*
X7771384Y3074162D01*
X7771384Y3076956D01*
X7770368Y3076956D01*
X7765846Y3078175D01*
X7764221Y3078886D01*
X7761986Y3080766D01*
X7761274Y3081832D01*
X7760716Y3084068D01*
X7760919Y3086049D01*
X7762697Y3092043D01*
X7788148Y3154426D01*
X7813802Y3095244D01*
X7816291Y3088386D01*
X7816900Y3085744D01*
X7817103Y3083560D01*
X7817002Y3082340D01*
X7815986Y3080156D01*
X7815072Y3079242D01*
X7813751Y3078429D01*
X7811770Y3077768D01*
X7805928Y3076956D01*
X7805928Y3074162D01*
X7847330Y3074162D01*
X7847330Y3076956D01*
X7843215Y3077464D01*
X7839964Y3078480D01*
X7837424Y3080004D01*
X7835392Y3082036D01*
X7833715Y3084880D01*
X7793481Y3177286D01*
G37*
G36*
X7704581Y3177032D02*
G01*
X7699756Y3176574D01*
X7695133Y3175254D01*
X7690713Y3173018D01*
X7686548Y3169920D01*
X7682941Y3165856D01*
X7679944Y3161030D01*
X7677607Y3155442D01*
X7675880Y3149092D01*
X7678166Y3148076D01*
X7680096Y3152190D01*
X7682026Y3155645D01*
X7684008Y3158388D01*
X7686040Y3160522D01*
X7689037Y3162757D01*
X7692186Y3164332D01*
X7695539Y3165297D01*
X7698994Y3165602D01*
X7703921Y3164992D01*
X7708239Y3163265D01*
X7712049Y3160318D01*
X7715250Y3156204D01*
X7717942Y3151327D01*
X7719822Y3146094D01*
X7720939Y3140557D01*
X7721346Y3134614D01*
X7720939Y3128924D01*
X7719822Y3123844D01*
X7717942Y3119272D01*
X7715250Y3115310D01*
X7712811Y3112871D01*
X7709966Y3111144D01*
X7706817Y3110077D01*
X7703312Y3109722D01*
X7701127Y3109874D01*
X7699197Y3110280D01*
X7697470Y3110992D01*
X7695946Y3112008D01*
X7694828Y3113278D01*
X7693964Y3114852D01*
X7693406Y3116732D01*
X7692847Y3120847D01*
X7691983Y3123793D01*
X7691374Y3124708D01*
X7690103Y3125927D01*
X7688580Y3126790D01*
X7686802Y3127349D01*
X7683195Y3127400D01*
X7680655Y3126486D01*
X7679690Y3125724D01*
X7678369Y3123692D01*
X7678013Y3122472D01*
X7677912Y3121152D01*
X7678318Y3118358D01*
X7679486Y3115614D01*
X7681468Y3112922D01*
X7684262Y3110230D01*
X7687767Y3107893D01*
X7691678Y3106216D01*
X7696047Y3105251D01*
X7700772Y3104896D01*
X7713268Y3107385D01*
X7723886Y3114802D01*
X7730947Y3126435D01*
X7733284Y3140964D01*
X7731150Y3155848D01*
X7724648Y3167380D01*
X7720177Y3171596D01*
X7715300Y3174644D01*
X7710119Y3176422D01*
G37*
G36*
X7636764Y3177032D02*
G01*
X7632039Y3176574D01*
X7627518Y3175254D01*
X7623149Y3173018D01*
X7618984Y3169920D01*
X7615377Y3165856D01*
X7612380Y3161030D01*
X7610043Y3155442D01*
X7608316Y3149092D01*
X7610348Y3148076D01*
X7612278Y3152190D01*
X7614259Y3155645D01*
X7616342Y3158388D01*
X7618475Y3160522D01*
X7621371Y3162757D01*
X7624521Y3164332D01*
X7627874Y3165297D01*
X7631430Y3165602D01*
X7636256Y3164992D01*
X7640574Y3163265D01*
X7644384Y3160318D01*
X7647686Y3156204D01*
X7650225Y3151327D01*
X7652054Y3146094D01*
X7653172Y3140557D01*
X7653528Y3134614D01*
X7653172Y3128924D01*
X7652054Y3123844D01*
X7650225Y3119272D01*
X7647686Y3115310D01*
X7645247Y3112871D01*
X7642402Y3111144D01*
X7639253Y3110077D01*
X7635748Y3109722D01*
X7633462Y3109874D01*
X7631480Y3110280D01*
X7629804Y3110992D01*
X7628381Y3112008D01*
X7627213Y3113278D01*
X7626350Y3114852D01*
X7625689Y3116732D01*
X7625130Y3120847D01*
X7624368Y3123793D01*
X7623809Y3124708D01*
X7622540Y3125927D01*
X7621016Y3126790D01*
X7619238Y3127349D01*
X7615631Y3127400D01*
X7614259Y3127044D01*
X7613091Y3126486D01*
X7611211Y3124758D01*
X7610195Y3122472D01*
X7610094Y3121152D01*
X7610500Y3118358D01*
X7611770Y3115614D01*
X7613802Y3112922D01*
X7616698Y3110230D01*
X7620101Y3107893D01*
X7624013Y3106216D01*
X7628381Y3105251D01*
X7633208Y3104896D01*
X7645653Y3107385D01*
X7656068Y3114802D01*
X7663281Y3126435D01*
X7665720Y3140964D01*
X7663586Y3155848D01*
X7657084Y3167380D01*
X7652562Y3171596D01*
X7647686Y3174644D01*
X7642402Y3176422D01*
G37*
G36*
X7714742Y2921000D02*
G01*
X7714742Y2918206D01*
X7720431Y2917901D01*
X7722463Y2917494D01*
X7724952Y2916377D01*
X7726476Y2914853D01*
X7726934Y2913888D01*
X7727289Y2910078D01*
X7727442Y2903220D01*
X7727442Y2818130D01*
X7729981Y2818130D01*
X7754620Y2830068D01*
X7753350Y2832354D01*
X7749031Y2830626D01*
X7745730Y2830068D01*
X7743901Y2830322D01*
X7742428Y2831084D01*
X7741361Y2832455D01*
X7740650Y2834640D01*
X7740294Y2836672D01*
X7739938Y2843784D01*
X7739888Y2903220D01*
X7740294Y2912770D01*
X7740650Y2914142D01*
X7741716Y2915716D01*
X7743444Y2916936D01*
X7744866Y2917494D01*
X7746949Y2917901D01*
X7752842Y2918206D01*
X7752842Y2921000D01*
G37*
G36*
X7646162Y2921000D02*
G01*
X7631175Y2920238D01*
X7620762Y2917952D01*
X7616799Y2916072D01*
X7613243Y2913735D01*
X7610195Y2910992D01*
X7607553Y2907792D01*
X7605572Y2904337D01*
X7604150Y2900730D01*
X7603286Y2897073D01*
X7603084Y2894584D01*
X7620253Y2894584D01*
X7620660Y2898851D01*
X7621981Y2902762D01*
X7624114Y2906369D01*
X7627112Y2909570D01*
X7631074Y2912262D01*
X7635798Y2914142D01*
X7641336Y2915310D01*
X7647686Y2915666D01*
X7651902Y2915564D01*
X7660386Y2914548D01*
X7664703Y2913634D01*
X7664703Y2872232D01*
X7659624Y2871724D01*
X7646619Y2871927D01*
X7641894Y2872486D01*
X7637627Y2873451D01*
X7633716Y2874772D01*
X7630414Y2876448D01*
X7627569Y2878480D01*
X7625181Y2880766D01*
X7623302Y2883408D01*
X7621981Y2886100D01*
X7621016Y2888894D01*
X7620457Y2891688D01*
X7620253Y2894584D01*
X7603084Y2894584D01*
X7602981Y2893314D01*
X7603439Y2888538D01*
X7604759Y2884170D01*
X7606995Y2880156D01*
X7610094Y2876550D01*
X7613091Y2874314D01*
X7616698Y2872384D01*
X7620965Y2870758D01*
X7625842Y2869438D01*
X7621574Y2867812D01*
X7617815Y2865831D01*
X7614716Y2863392D01*
X7612125Y2860548D01*
X7610144Y2857500D01*
X7608722Y2854248D01*
X7607858Y2850794D01*
X7607616Y2846324D01*
X7623048Y2846324D01*
X7623251Y2849168D01*
X7623809Y2851912D01*
X7624775Y2854502D01*
X7626096Y2856992D01*
X7627670Y2859227D01*
X7629601Y2861157D01*
X7631836Y2862783D01*
X7634478Y2864104D01*
X7637475Y2865221D01*
X7641234Y2866034D01*
X7645603Y2866491D01*
X7652867Y2866644D01*
X7660335Y2866136D01*
X7664703Y2865374D01*
X7664703Y2826766D01*
X7658455Y2825445D01*
X7655102Y2825089D01*
X7651496Y2824988D01*
X7644942Y2825394D01*
X7639253Y2826562D01*
X7634376Y2828544D01*
X7630414Y2831338D01*
X7627213Y2834640D01*
X7624876Y2838246D01*
X7623505Y2842158D01*
X7623048Y2846324D01*
X7607616Y2846324D01*
X7607909Y2842768D01*
X7609027Y2838704D01*
X7610856Y2834894D01*
X7613396Y2831338D01*
X7616647Y2828188D01*
X7620558Y2825546D01*
X7625181Y2823464D01*
X7630414Y2821940D01*
X7634376Y2821178D01*
X7638999Y2820619D01*
X7644180Y2820263D01*
X7693659Y2820162D01*
X7693659Y2822956D01*
X7687208Y2823159D01*
X7684922Y2823718D01*
X7682890Y2824683D01*
X7681214Y2826004D01*
X7680350Y2827680D01*
X7679690Y2830271D01*
X7679334Y2833674D01*
X7679181Y2837942D01*
X7679283Y2907030D01*
X7679537Y2910128D01*
X7680045Y2912516D01*
X7680706Y2914142D01*
X7682331Y2915920D01*
X7684363Y2917190D01*
X7686903Y2917952D01*
X7689850Y2918206D01*
X7693659Y2918206D01*
X7693659Y2921000D01*
G37*
G36*
X7740142Y2641600D02*
G01*
X7740142Y2638806D01*
X7745831Y2638501D01*
X7747863Y2638094D01*
X7750352Y2636977D01*
X7751876Y2635453D01*
X7752334Y2634488D01*
X7752689Y2630678D01*
X7752842Y2623820D01*
X7752842Y2538730D01*
X7755381Y2538730D01*
X7780020Y2550668D01*
X7778750Y2552954D01*
X7774431Y2551226D01*
X7771130Y2550668D01*
X7769301Y2550922D01*
X7767828Y2551684D01*
X7766761Y2553055D01*
X7766050Y2555240D01*
X7765694Y2557272D01*
X7765338Y2564384D01*
X7765288Y2623820D01*
X7765694Y2633370D01*
X7766050Y2634742D01*
X7767116Y2636316D01*
X7768844Y2637536D01*
X7770266Y2638094D01*
X7772349Y2638501D01*
X7778242Y2638806D01*
X7778242Y2641600D01*
G37*
G36*
X7613142Y2641600D02*
G01*
X7613142Y2638806D01*
X7616139Y2638501D01*
X7618730Y2637840D01*
X7620965Y2636875D01*
X7622794Y2635504D01*
X7624622Y2633522D01*
X7626553Y2630678D01*
X7630668Y2622296D01*
X7639059Y2602230D01*
X7688580Y2602230D01*
X7671053Y2561590D01*
X7654036Y2602230D01*
X7639059Y2602230D01*
X7665720Y2538476D01*
X7668259Y2538476D01*
X7706055Y2626512D01*
X7708188Y2630627D01*
X7710271Y2633776D01*
X7712202Y2636012D01*
X7713370Y2636875D01*
X7717434Y2638247D01*
X7720330Y2638806D01*
X7720330Y2641600D01*
X7688580Y2641600D01*
X7688580Y2638806D01*
X7694675Y2637993D01*
X7696758Y2637332D01*
X7698231Y2636520D01*
X7699756Y2634589D01*
X7700264Y2632456D01*
X7699654Y2628900D01*
X7697724Y2623820D01*
X7690866Y2607818D01*
X7651750Y2607818D01*
X7645653Y2622296D01*
X7643571Y2628442D01*
X7643012Y2630830D01*
X7642961Y2633929D01*
X7643977Y2635961D01*
X7646162Y2637586D01*
X7647940Y2638196D01*
X7650225Y2638602D01*
X7653020Y2638806D01*
X7653020Y2641600D01*
G37*
G36*
X7709662Y2387600D02*
G01*
X7702550Y2368296D01*
X7705344Y2368296D01*
X7707375Y2371242D01*
X7709916Y2373376D01*
X7712659Y2374849D01*
X7715758Y2375662D01*
X7720075Y2376220D01*
X7726934Y2376424D01*
X7753350Y2376424D01*
X7745272Y2368194D01*
X7730236Y2352040D01*
X7719517Y2338882D01*
X7712202Y2326386D01*
X7710627Y2322576D01*
X7709560Y2318766D01*
X7708849Y2314956D01*
X7708646Y2311146D01*
X7709153Y2305964D01*
X7710728Y2301189D01*
X7713370Y2296718D01*
X7717028Y2292604D01*
X7721346Y2289149D01*
X7726172Y2286711D01*
X7731506Y2285238D01*
X7737348Y2284730D01*
X7742936Y2285187D01*
X7748016Y2286558D01*
X7752588Y2288895D01*
X7756652Y2292096D01*
X7760106Y2296160D01*
X7762849Y2301036D01*
X7764932Y2306726D01*
X7766303Y2313178D01*
X7763509Y2313178D01*
X7761884Y2309215D01*
X7759903Y2305761D01*
X7757464Y2302764D01*
X7754620Y2300224D01*
X7751622Y2298344D01*
X7748371Y2296972D01*
X7745018Y2296160D01*
X7741412Y2295906D01*
X7737500Y2296312D01*
X7733792Y2297480D01*
X7730388Y2299462D01*
X7727188Y2302256D01*
X7724648Y2305507D01*
X7722819Y2309215D01*
X7721701Y2313381D01*
X7721346Y2318004D01*
X7724089Y2331161D01*
X7732268Y2345690D01*
X7738567Y2353868D01*
X7746796Y2363114D01*
X7757007Y2373426D01*
X7769098Y2384806D01*
X7769098Y2387600D01*
G37*
G36*
X7587742Y2387600D02*
G01*
X7587742Y2384806D01*
X7590739Y2384501D01*
X7593330Y2383840D01*
X7595565Y2382875D01*
X7597394Y2381504D01*
X7599222Y2379522D01*
X7601153Y2376678D01*
X7605268Y2368296D01*
X7613659Y2348230D01*
X7663180Y2348230D01*
X7645653Y2307590D01*
X7628636Y2348230D01*
X7613659Y2348230D01*
X7640320Y2284476D01*
X7642859Y2284476D01*
X7680655Y2372512D01*
X7682788Y2376627D01*
X7684871Y2379776D01*
X7686802Y2382012D01*
X7687970Y2382875D01*
X7692034Y2384247D01*
X7694930Y2384806D01*
X7694930Y2387600D01*
X7663180Y2387600D01*
X7663180Y2384806D01*
X7669275Y2383993D01*
X7671358Y2383332D01*
X7672831Y2382520D01*
X7674356Y2380589D01*
X7674864Y2378456D01*
X7674254Y2374900D01*
X7672324Y2369820D01*
X7665466Y2353818D01*
X7626350Y2353818D01*
X7620253Y2368296D01*
X7618171Y2374442D01*
X7617612Y2376830D01*
X7617561Y2379929D01*
X7618577Y2381961D01*
X7620762Y2383586D01*
X7622540Y2384196D01*
X7624825Y2384602D01*
X7627620Y2384806D01*
X7627620Y2387600D01*
G37*
G36*
X7709662Y2159000D02*
G01*
X7702550Y2139696D01*
X7705344Y2139696D01*
X7707375Y2142642D01*
X7709916Y2144776D01*
X7712659Y2146249D01*
X7715758Y2147062D01*
X7720075Y2147620D01*
X7726934Y2147824D01*
X7753350Y2147824D01*
X7745272Y2139594D01*
X7730236Y2123440D01*
X7719517Y2110282D01*
X7712202Y2097786D01*
X7710627Y2093975D01*
X7709560Y2090166D01*
X7708849Y2086356D01*
X7708646Y2082546D01*
X7709153Y2077364D01*
X7710728Y2072589D01*
X7713370Y2068118D01*
X7717028Y2064004D01*
X7721346Y2060549D01*
X7726172Y2058111D01*
X7731506Y2056638D01*
X7737348Y2056130D01*
X7742936Y2056587D01*
X7748016Y2057958D01*
X7752588Y2060295D01*
X7756652Y2063496D01*
X7760106Y2067560D01*
X7762849Y2072436D01*
X7764932Y2078126D01*
X7766303Y2084578D01*
X7763509Y2084578D01*
X7761884Y2080615D01*
X7759903Y2077161D01*
X7757464Y2074164D01*
X7754620Y2071624D01*
X7751622Y2069744D01*
X7748371Y2068372D01*
X7745018Y2067560D01*
X7741412Y2067306D01*
X7737500Y2067712D01*
X7733792Y2068880D01*
X7730388Y2070862D01*
X7727188Y2073656D01*
X7724648Y2076907D01*
X7722819Y2080615D01*
X7721701Y2084781D01*
X7721346Y2089404D01*
X7724089Y2102561D01*
X7732268Y2117090D01*
X7738567Y2125268D01*
X7746796Y2134514D01*
X7757007Y2144826D01*
X7769098Y2156206D01*
X7769098Y2159000D01*
G37*
G36*
X7646162Y2159000D02*
G01*
X7631175Y2158238D01*
X7620762Y2155952D01*
X7616799Y2154072D01*
X7613243Y2151735D01*
X7610195Y2148992D01*
X7607553Y2145792D01*
X7605572Y2142337D01*
X7604150Y2138730D01*
X7603286Y2135073D01*
X7603084Y2132584D01*
X7620253Y2132584D01*
X7620660Y2136851D01*
X7621981Y2140762D01*
X7624114Y2144369D01*
X7627112Y2147570D01*
X7631074Y2150262D01*
X7635798Y2152142D01*
X7641336Y2153310D01*
X7647686Y2153666D01*
X7651902Y2153564D01*
X7660386Y2152548D01*
X7664703Y2151634D01*
X7664703Y2110232D01*
X7659624Y2109724D01*
X7646619Y2109927D01*
X7641894Y2110486D01*
X7637627Y2111451D01*
X7633716Y2112772D01*
X7630414Y2114448D01*
X7627569Y2116480D01*
X7625181Y2118766D01*
X7623302Y2121408D01*
X7621981Y2124100D01*
X7621016Y2126894D01*
X7620457Y2129688D01*
X7620253Y2132584D01*
X7603084Y2132584D01*
X7602981Y2131314D01*
X7603439Y2126538D01*
X7604759Y2122170D01*
X7606995Y2118156D01*
X7610094Y2114550D01*
X7613091Y2112314D01*
X7616698Y2110384D01*
X7620965Y2108758D01*
X7625842Y2107438D01*
X7621574Y2105812D01*
X7617815Y2103831D01*
X7614716Y2101392D01*
X7612125Y2098548D01*
X7610144Y2095500D01*
X7608722Y2092248D01*
X7607858Y2088794D01*
X7607616Y2084324D01*
X7623048Y2084324D01*
X7623251Y2087168D01*
X7623809Y2089912D01*
X7624775Y2092502D01*
X7626096Y2094992D01*
X7627670Y2097227D01*
X7629601Y2099157D01*
X7631836Y2100783D01*
X7634478Y2102104D01*
X7637475Y2103221D01*
X7641234Y2104034D01*
X7645603Y2104491D01*
X7652867Y2104644D01*
X7660335Y2104136D01*
X7664703Y2103374D01*
X7664703Y2064766D01*
X7658455Y2063445D01*
X7655102Y2063089D01*
X7651496Y2062988D01*
X7644942Y2063394D01*
X7639253Y2064562D01*
X7634376Y2066543D01*
X7630414Y2069338D01*
X7627213Y2072639D01*
X7624876Y2076246D01*
X7623505Y2080158D01*
X7623048Y2084324D01*
X7607616Y2084324D01*
X7607909Y2080768D01*
X7609027Y2076704D01*
X7610856Y2072893D01*
X7613396Y2069338D01*
X7616647Y2066188D01*
X7620558Y2063546D01*
X7625181Y2061464D01*
X7630414Y2059939D01*
X7634376Y2059178D01*
X7638999Y2058619D01*
X7644180Y2058263D01*
X7693659Y2058162D01*
X7693659Y2060956D01*
X7687208Y2061159D01*
X7684922Y2061718D01*
X7682890Y2062683D01*
X7681214Y2064004D01*
X7680350Y2065680D01*
X7679690Y2068271D01*
X7679334Y2071674D01*
X7679181Y2075942D01*
X7679283Y2145030D01*
X7679537Y2148128D01*
X7680045Y2150516D01*
X7680706Y2152142D01*
X7682331Y2153920D01*
X7684363Y2155190D01*
X7686903Y2155952D01*
X7689850Y2156206D01*
X7693659Y2156206D01*
X7693659Y2159000D01*
G37*
G36*
X7863586Y1907286D02*
G01*
X7858607Y1907184D01*
X7849362Y1906168D01*
X7845044Y1905254D01*
X7840827Y1903984D01*
X7836662Y1902409D01*
X7828280Y1898396D01*
X7828178Y1863699D01*
X7827924Y1860702D01*
X7827416Y1858365D01*
X7826756Y1856739D01*
X7825384Y1854962D01*
X7823657Y1853692D01*
X7821472Y1852930D01*
X7816850Y1852675D01*
X7816850Y1849882D01*
X7855966Y1849882D01*
X7855966Y1852675D01*
X7850784Y1852980D01*
X7848803Y1853387D01*
X7847330Y1853946D01*
X7845298Y1855470D01*
X7843774Y1857502D01*
X7843316Y1858975D01*
X7842808Y1863953D01*
X7842758Y1896618D01*
X7847634Y1899107D01*
X7852664Y1900936D01*
X7858048Y1901901D01*
X7863586Y1902206D01*
X7868259Y1901850D01*
X7872933Y1900834D01*
X7877556Y1899056D01*
X7882128Y1896618D01*
X7886496Y1893519D01*
X7890357Y1889607D01*
X7893862Y1884883D01*
X7896859Y1879346D01*
X7901025Y1866798D01*
X7902448Y1852930D01*
X7900263Y1836369D01*
X7893812Y1822196D01*
X7881569Y1810766D01*
X7864602Y1806956D01*
X7851698Y1809140D01*
X7841488Y1815592D01*
X7838490Y1818995D01*
X7835747Y1823161D01*
X7833410Y1828038D01*
X7831328Y1833625D01*
X7828534Y1833625D01*
X7831328Y1801875D01*
X7834122Y1801875D01*
X7834375Y1805076D01*
X7835138Y1806956D01*
X7836306Y1807921D01*
X7837678Y1808225D01*
X7839709Y1807819D01*
X7850479Y1804162D01*
X7855966Y1802638D01*
X7860792Y1802079D01*
X7866125Y1801875D01*
X7880146Y1803450D01*
X7892288Y1808225D01*
X7904124Y1817776D01*
X7913116Y1830578D01*
X7917891Y1843074D01*
X7919466Y1856232D01*
X7916621Y1873453D01*
X7908036Y1888489D01*
X7899552Y1896719D01*
X7889290Y1902612D01*
X7877302Y1906117D01*
G37*
G36*
X7721092Y1906524D02*
G01*
X7720990Y1817776D01*
X7720736Y1814626D01*
X7720228Y1812289D01*
X7719568Y1810766D01*
X7717942Y1809089D01*
X7715859Y1807921D01*
X7713370Y1807210D01*
X7710424Y1806956D01*
X7706868Y1806956D01*
X7706868Y1804162D01*
X7741920Y1804162D01*
X7741920Y1806956D01*
X7735620Y1807159D01*
X7733284Y1807718D01*
X7731302Y1808683D01*
X7729728Y1810004D01*
X7728813Y1811578D01*
X7728203Y1814068D01*
X7727797Y1817420D01*
X7727696Y1879854D01*
X7789418Y1804162D01*
X7816850Y1804162D01*
X7816850Y1806956D01*
X7812938Y1807108D01*
X7810246Y1807464D01*
X7806436Y1808988D01*
X7803642Y1810512D01*
X7800797Y1813102D01*
X7796784Y1817370D01*
X7796885Y1891385D01*
X7797241Y1894535D01*
X7797800Y1896872D01*
X7798562Y1898396D01*
X7800086Y1900072D01*
X7802118Y1901240D01*
X7804658Y1901952D01*
X7807706Y1902206D01*
X7811262Y1902206D01*
X7811262Y1905000D01*
X7775956Y1905000D01*
X7775956Y1902206D01*
X7782356Y1902002D01*
X7784795Y1901443D01*
X7786776Y1900478D01*
X7788402Y1899157D01*
X7789265Y1897583D01*
X7789925Y1895093D01*
X7790281Y1891741D01*
X7790434Y1887474D01*
X7790434Y1825498D01*
X7723886Y1906524D01*
G37*
G36*
X7657084Y1905000D02*
G01*
X7643266Y1904034D01*
X7631379Y1901088D01*
X7621320Y1896160D01*
X7613142Y1889252D01*
X7607604Y1881733D01*
X7603591Y1873300D01*
X7601254Y1864055D01*
X7600503Y1854707D01*
X7617459Y1854707D01*
X7620304Y1873402D01*
X7628890Y1887728D01*
X7641590Y1896668D01*
X7657338Y1899666D01*
X7660792Y1899564D01*
X7668818Y1898548D01*
X7673340Y1897634D01*
X7673340Y1811782D01*
X7665212Y1810257D01*
X7661554Y1809851D01*
X7658100Y1809750D01*
X7641793Y1812747D01*
X7628890Y1821688D01*
X7620304Y1836064D01*
X7617459Y1854707D01*
X7600503Y1854707D01*
X7600442Y1853946D01*
X7602220Y1839264D01*
X7607553Y1826260D01*
X7615885Y1816049D01*
X7626603Y1809242D01*
X7641031Y1805432D01*
X7660894Y1804162D01*
X7702042Y1804162D01*
X7702042Y1806956D01*
X7695590Y1807159D01*
X7693253Y1807718D01*
X7691272Y1808683D01*
X7689596Y1810004D01*
X7688681Y1811680D01*
X7688072Y1814271D01*
X7687665Y1817674D01*
X7687564Y1887220D01*
X7687970Y1894128D01*
X7688427Y1896516D01*
X7689088Y1898142D01*
X7690713Y1899920D01*
X7692796Y1901189D01*
X7695285Y1901952D01*
X7698231Y1902206D01*
X7702042Y1902206D01*
X7702042Y1905000D01*
G37*
G36*
X7892288Y1627886D02*
G01*
X7855407Y1538478D01*
X7853730Y1535430D01*
X7852003Y1532890D01*
X7850124Y1530858D01*
X7848549Y1529689D01*
X7846669Y1528775D01*
X7844485Y1528064D01*
X7841996Y1527556D01*
X7841996Y1524762D01*
X7872984Y1524762D01*
X7872984Y1527556D01*
X7871968Y1527556D01*
X7867446Y1528775D01*
X7865821Y1529486D01*
X7863586Y1531366D01*
X7862874Y1532432D01*
X7862316Y1534668D01*
X7862519Y1536649D01*
X7864297Y1542643D01*
X7889748Y1605026D01*
X7915402Y1545844D01*
X7917891Y1538986D01*
X7918500Y1536344D01*
X7918703Y1534160D01*
X7918602Y1532940D01*
X7917586Y1530756D01*
X7916672Y1529842D01*
X7915351Y1529029D01*
X7913370Y1528368D01*
X7907528Y1527556D01*
X7907528Y1524762D01*
X7948930Y1524762D01*
X7948930Y1527556D01*
X7944815Y1528064D01*
X7941564Y1529080D01*
X7939024Y1530604D01*
X7936992Y1532636D01*
X7935315Y1535480D01*
X7895081Y1627886D01*
G37*
G36*
X7684262Y1627632D02*
G01*
X7679690Y1627327D01*
X7675321Y1626412D01*
X7671155Y1624939D01*
X7667244Y1622806D01*
X7663535Y1620215D01*
X7660284Y1617014D01*
X7657439Y1613255D01*
X7655052Y1608836D01*
X7653172Y1604162D01*
X7651800Y1599488D01*
X7651166Y1595882D01*
X7664450Y1595882D01*
X7664754Y1602689D01*
X7665669Y1608378D01*
X7667142Y1613001D01*
X7669275Y1616456D01*
X7671714Y1618996D01*
X7674559Y1620824D01*
X7677708Y1621942D01*
X7681214Y1622298D01*
X7685786Y1621637D01*
X7689900Y1619656D01*
X7693558Y1616303D01*
X7696708Y1611630D01*
X7701076Y1599742D01*
X7702550Y1585976D01*
X7702397Y1581607D01*
X7701991Y1577594D01*
X7701280Y1573987D01*
X7700264Y1570736D01*
X7698892Y1568043D01*
X7697368Y1565808D01*
X7695590Y1563979D01*
X7693659Y1562608D01*
X7691729Y1561592D01*
X7689799Y1560880D01*
X7687818Y1560474D01*
X7685786Y1560322D01*
X7681874Y1560779D01*
X7678369Y1562100D01*
X7675168Y1564335D01*
X7672324Y1567434D01*
X7666431Y1579778D01*
X7664450Y1595882D01*
X7651166Y1595882D01*
X7650734Y1590294D01*
X7652715Y1578051D01*
X7658608Y1567180D01*
X7669530Y1558442D01*
X7683500Y1555496D01*
X7687665Y1555750D01*
X7691678Y1556562D01*
X7695641Y1557934D01*
X7699502Y1559814D01*
X7703108Y1562404D01*
X7706359Y1565554D01*
X7709204Y1569262D01*
X7711694Y1573530D01*
X7713827Y1578203D01*
X7715300Y1582877D01*
X7716215Y1587500D01*
X7716520Y1592072D01*
X7714640Y1604416D01*
X7708900Y1615440D01*
X7698181Y1624584D01*
G37*
G36*
X7620000Y1626616D02*
G01*
X7617459Y1626412D01*
X7614970Y1625752D01*
X7612532Y1624634D01*
X7610094Y1623060D01*
X7607909Y1620926D01*
X7605979Y1618437D01*
X7604252Y1615490D01*
X7602728Y1612138D01*
X7605775Y1612138D01*
X7607300Y1614627D01*
X7609331Y1616456D01*
X7611668Y1617624D01*
X7614158Y1617980D01*
X7615529Y1617827D01*
X7616748Y1617421D01*
X7617917Y1616710D01*
X7618984Y1615694D01*
X7619746Y1614271D01*
X7620304Y1612341D01*
X7620660Y1609852D01*
X7620762Y1562608D01*
X7605014Y1562608D01*
X7605014Y1557528D01*
X7620762Y1557528D01*
X7620762Y1534922D01*
X7623048Y1534922D01*
X7625791Y1541322D01*
X7627874Y1545336D01*
X7631430Y1550365D01*
X7635494Y1554734D01*
X7639761Y1557985D01*
X7643875Y1560068D01*
X7643875Y1562608D01*
X7633208Y1562608D01*
X7633106Y1612036D01*
X7632852Y1614982D01*
X7632344Y1617472D01*
X7631684Y1619504D01*
X7629550Y1622501D01*
X7626603Y1624838D01*
X7623403Y1626158D01*
X7621727Y1626514D01*
G37*
G36*
X7722362Y1625600D02*
G01*
X7722362Y1622806D01*
X7726222Y1622552D01*
X7728712Y1621790D01*
X7730439Y1620469D01*
X7731506Y1618996D01*
X7731963Y1617573D01*
X7732471Y1613154D01*
X7732623Y1576628D01*
X7732979Y1572971D01*
X7733538Y1569872D01*
X7734300Y1567434D01*
X7735570Y1564487D01*
X7737094Y1561947D01*
X7738872Y1559915D01*
X7740903Y1558290D01*
X7743037Y1557070D01*
X7745323Y1556207D01*
X7747863Y1555648D01*
X7750556Y1555496D01*
X7753299Y1555648D01*
X7755991Y1556207D01*
X7758633Y1557070D01*
X7761224Y1558290D01*
X7764018Y1560068D01*
X7767116Y1562608D01*
X7770520Y1565910D01*
X7774178Y1569974D01*
X7775244Y1566621D01*
X7776667Y1563674D01*
X7778394Y1561185D01*
X7780528Y1559052D01*
X7782915Y1557477D01*
X7785557Y1556410D01*
X7788402Y1555699D01*
X7791450Y1555496D01*
X7795259Y1555902D01*
X7799070Y1557020D01*
X7802930Y1558848D01*
X7806436Y1561338D01*
X7815072Y1569974D01*
X7815072Y1555496D01*
X7818374Y1555496D01*
X7838948Y1563878D01*
X7837678Y1566418D01*
X7835087Y1565656D01*
X7832852Y1565402D01*
X7831074Y1565605D01*
X7829803Y1566164D01*
X7828737Y1567586D01*
X7828025Y1569720D01*
X7827670Y1575003D01*
X7827518Y1584198D01*
X7827568Y1613052D01*
X7827924Y1617370D01*
X7828280Y1618742D01*
X7829550Y1620672D01*
X7831328Y1621790D01*
X7833817Y1622552D01*
X7837678Y1622806D01*
X7837678Y1625600D01*
X7804150Y1625600D01*
X7804150Y1622806D01*
X7808772Y1622552D01*
X7810398Y1622247D01*
X7812379Y1621332D01*
X7813751Y1619910D01*
X7814309Y1618996D01*
X7814868Y1615744D01*
X7815072Y1610106D01*
X7815072Y1573784D01*
X7813243Y1571701D01*
X7811058Y1569770D01*
X7808569Y1568043D01*
X7803642Y1565402D01*
X7801609Y1564690D01*
X7797546Y1564132D01*
X7794802Y1564436D01*
X7792313Y1565351D01*
X7790230Y1566824D01*
X7788402Y1568958D01*
X7787386Y1571040D01*
X7786674Y1573733D01*
X7786268Y1576984D01*
X7786116Y1580896D01*
X7786166Y1614982D01*
X7786370Y1617472D01*
X7786827Y1618792D01*
X7788351Y1620824D01*
X7790637Y1622094D01*
X7792313Y1622501D01*
X7797038Y1622806D01*
X7797038Y1625600D01*
X7762748Y1625600D01*
X7762748Y1622806D01*
X7767116Y1622552D01*
X7770114Y1621790D01*
X7771841Y1620469D01*
X7772908Y1618996D01*
X7773263Y1617776D01*
X7773619Y1613306D01*
X7773670Y1577594D01*
X7773924Y1574546D01*
X7773670Y1573784D01*
X7768488Y1569161D01*
X7766151Y1567535D01*
X7762087Y1565503D01*
X7758175Y1564487D01*
X7756144Y1564386D01*
X7753197Y1564690D01*
X7750657Y1565605D01*
X7748625Y1567078D01*
X7747000Y1569212D01*
X7746136Y1571193D01*
X7745475Y1573784D01*
X7744968Y1580896D01*
X7745018Y1614982D01*
X7745222Y1617472D01*
X7746238Y1619707D01*
X7747762Y1621282D01*
X7750556Y1622450D01*
X7755890Y1622806D01*
X7755890Y1625600D01*
G37*
G36*
X8474710Y1627124D02*
G01*
X8474608Y1538376D01*
X8474252Y1535226D01*
X8473694Y1532890D01*
X8472932Y1531366D01*
X8471408Y1529689D01*
X8469426Y1528521D01*
X8466988Y1527810D01*
X8464042Y1527556D01*
X8460486Y1527556D01*
X8460486Y1524762D01*
X8495538Y1524762D01*
X8495538Y1527556D01*
X8489238Y1527759D01*
X8486902Y1528318D01*
X8484920Y1529283D01*
X8483346Y1530604D01*
X8482431Y1532178D01*
X8481822Y1534668D01*
X8481415Y1538020D01*
X8481314Y1600454D01*
X8543036Y1524762D01*
X8570214Y1524762D01*
X8570214Y1527556D01*
X8566454Y1527708D01*
X8563864Y1528064D01*
X8559850Y1529588D01*
X8557006Y1531112D01*
X8554212Y1533702D01*
X8550402Y1537970D01*
X8550503Y1611985D01*
X8550859Y1615135D01*
X8551418Y1617472D01*
X8552180Y1618996D01*
X8553704Y1620672D01*
X8555736Y1621840D01*
X8558276Y1622552D01*
X8561324Y1622806D01*
X8564626Y1622806D01*
X8564626Y1625600D01*
X8529574Y1625600D01*
X8529574Y1622806D01*
X8535873Y1622602D01*
X8538210Y1622044D01*
X8540191Y1621078D01*
X8541766Y1619758D01*
X8542629Y1618183D01*
X8543290Y1615694D01*
X8543645Y1612341D01*
X8543798Y1608074D01*
X8543798Y1546098D01*
X8477250Y1627124D01*
G37*
G36*
X8580628Y1625600D02*
G01*
X8571738Y1600200D01*
X8574786Y1600200D01*
X8577173Y1604619D01*
X8579561Y1608378D01*
X8581898Y1611579D01*
X8584184Y1614170D01*
X8587790Y1617167D01*
X8589670Y1618234D01*
X8591550Y1618996D01*
X8596680Y1619758D01*
X8603996Y1620012D01*
X8623147Y1619961D01*
X8625941Y1619605D01*
X8627567Y1618843D01*
X8628583Y1617675D01*
X8629243Y1615897D01*
X8629599Y1611833D01*
X8629650Y1575562D01*
X8604351Y1575663D01*
X8599627Y1576425D01*
X8597900Y1577086D01*
X8596477Y1577898D01*
X8594344Y1579930D01*
X8593582Y1581150D01*
X8592566Y1584502D01*
X8591550Y1590548D01*
X8588756Y1590548D01*
X8588756Y1555496D01*
X8591550Y1555496D01*
X8592007Y1559458D01*
X8592870Y1562811D01*
X8594191Y1565452D01*
X8595868Y1567434D01*
X8597646Y1568551D01*
X8600135Y1569364D01*
X8603335Y1569821D01*
X8607298Y1569974D01*
X8629650Y1569974D01*
X8629650Y1530096D01*
X8598458Y1530197D01*
X8595461Y1530400D01*
X8593124Y1530807D01*
X8591296Y1531366D01*
X8588095Y1533296D01*
X8585708Y1535938D01*
X8584844Y1537665D01*
X8583980Y1540052D01*
X8582406Y1546860D01*
X8579358Y1546860D01*
X8580628Y1524762D01*
X8658352Y1524762D01*
X8658352Y1527556D01*
X8651849Y1527708D01*
X8649309Y1528267D01*
X8647277Y1529130D01*
X8645652Y1530350D01*
X8644890Y1531975D01*
X8644331Y1534464D01*
X8643975Y1537919D01*
X8643874Y1607820D01*
X8644077Y1613916D01*
X8644636Y1617472D01*
X8645956Y1619656D01*
X8647938Y1621028D01*
X8651290Y1622348D01*
X8653018Y1622704D01*
X8658352Y1622806D01*
X8658352Y1625600D01*
G37*
G36*
X8372856Y2668524D02*
G01*
X8372754Y2579776D01*
X8372500Y2576626D01*
X8371992Y2574290D01*
X8371331Y2572766D01*
X8369706Y2571089D01*
X8367674Y2569921D01*
X8365134Y2569210D01*
X8362188Y2568956D01*
X8358631Y2568956D01*
X8358631Y2566162D01*
X8393684Y2566162D01*
X8393684Y2568956D01*
X8387537Y2569159D01*
X8385098Y2569718D01*
X8383117Y2570683D01*
X8381492Y2572004D01*
X8380577Y2573578D01*
X8379968Y2576068D01*
X8379612Y2579420D01*
X8379459Y2583688D01*
X8379459Y2641854D01*
X8441182Y2566162D01*
X8468614Y2566162D01*
X8468614Y2568956D01*
X8464804Y2569108D01*
X8462010Y2569464D01*
X8458200Y2570988D01*
X8455406Y2572512D01*
X8452612Y2575102D01*
X8448802Y2579370D01*
X8448903Y2653385D01*
X8449157Y2656535D01*
X8449665Y2658872D01*
X8450326Y2660396D01*
X8451951Y2662072D01*
X8454034Y2663240D01*
X8456523Y2663952D01*
X8459470Y2664206D01*
X8463026Y2664206D01*
X8463026Y2667000D01*
X8427974Y2667000D01*
X8427974Y2664206D01*
X8434273Y2664002D01*
X8436610Y2663444D01*
X8438591Y2662478D01*
X8440166Y2661158D01*
X8441029Y2659583D01*
X8441690Y2657094D01*
X8442045Y2653741D01*
X8442198Y2649474D01*
X8442198Y2587498D01*
X8375650Y2668524D01*
G37*
G36*
X8615680Y2667000D02*
G01*
X8615680Y2664206D01*
X8622233Y2664002D01*
X8624570Y2663393D01*
X8626551Y2662326D01*
X8628126Y2660904D01*
X8628989Y2659329D01*
X8629650Y2656840D01*
X8630005Y2653487D01*
X8630158Y2649220D01*
X8630158Y2619756D01*
X8625484Y2620670D01*
X8617000Y2621686D01*
X8613140Y2621788D01*
X8599982Y2619857D01*
X8590026Y2614168D01*
X8586470Y2609951D01*
X8583930Y2605227D01*
X8582406Y2599944D01*
X8582008Y2595372D01*
X8598916Y2595372D01*
X8599271Y2599994D01*
X8600338Y2604160D01*
X8602065Y2607868D01*
X8604504Y2611120D01*
X8607450Y2613660D01*
X8610650Y2615488D01*
X8614156Y2616606D01*
X8619032Y2616962D01*
X8624620Y2616454D01*
X8630158Y2615438D01*
X8630158Y2573528D01*
X8624824Y2572410D01*
X8620506Y2572004D01*
X8617407Y2572156D01*
X8614511Y2572715D01*
X8611819Y2573578D01*
X8609330Y2574798D01*
X8606942Y2576372D01*
X8604910Y2578354D01*
X8603132Y2580690D01*
X8600490Y2586278D01*
X8599627Y2589225D01*
X8599068Y2592222D01*
X8598916Y2595372D01*
X8582008Y2595372D01*
X8581898Y2594102D01*
X8582253Y2589682D01*
X8583218Y2585618D01*
X8584895Y2581808D01*
X8587232Y2578354D01*
X8590178Y2575306D01*
X8593328Y2572715D01*
X8596731Y2570581D01*
X8600440Y2568956D01*
X8604707Y2567736D01*
X8609685Y2566873D01*
X8615375Y2566314D01*
X8621776Y2566162D01*
X8658860Y2566162D01*
X8658860Y2568956D01*
X8652408Y2569159D01*
X8650122Y2569718D01*
X8648090Y2570683D01*
X8646414Y2572004D01*
X8645550Y2573680D01*
X8644890Y2576271D01*
X8644534Y2579674D01*
X8644382Y2583942D01*
X8644483Y2653131D01*
X8644737Y2656281D01*
X8645245Y2658618D01*
X8645906Y2660142D01*
X8647531Y2661920D01*
X8649563Y2663190D01*
X8652103Y2663952D01*
X8655050Y2664206D01*
X8658860Y2664206D01*
X8658860Y2667000D01*
G37*
G36*
X8529066Y2667000D02*
G01*
X8515248Y2666034D01*
X8503361Y2663088D01*
X8493302Y2658160D01*
X8485124Y2651252D01*
X8479586Y2643733D01*
X8475573Y2635300D01*
X8473236Y2626055D01*
X8472485Y2616708D01*
X8489442Y2616708D01*
X8492236Y2635402D01*
X8500618Y2649728D01*
X8513521Y2658668D01*
X8529320Y2661666D01*
X8532723Y2661564D01*
X8540699Y2660548D01*
X8545322Y2659634D01*
X8545322Y2573782D01*
X8537194Y2572258D01*
X8533536Y2571851D01*
X8530082Y2571750D01*
X8513673Y2574747D01*
X8500618Y2583688D01*
X8492236Y2598064D01*
X8489442Y2616708D01*
X8472485Y2616708D01*
X8472424Y2615946D01*
X8474202Y2601264D01*
X8479536Y2588260D01*
X8487867Y2578049D01*
X8498586Y2571242D01*
X8513013Y2567432D01*
X8532876Y2566162D01*
X8574024Y2566162D01*
X8574024Y2568956D01*
X8567572Y2569159D01*
X8565286Y2569718D01*
X8563254Y2570683D01*
X8561578Y2572004D01*
X8560663Y2573680D01*
X8560054Y2576271D01*
X8559647Y2579674D01*
X8559546Y2649220D01*
X8559952Y2656128D01*
X8560409Y2658516D01*
X8561070Y2660142D01*
X8562695Y2661920D01*
X8564727Y2663190D01*
X8567267Y2663952D01*
X8570214Y2664206D01*
X8574024Y2664206D01*
X8574024Y2667000D01*
G37*
G36*
X8606790Y2923286D02*
G01*
X8593785Y2921711D01*
X8582660Y2916936D01*
X8573211Y2909011D01*
X8565134Y2897378D01*
X8567420Y2895854D01*
X8571788Y2901594D01*
X8576005Y2906268D01*
X8580018Y2909976D01*
X8583930Y2912618D01*
X8587790Y2914396D01*
X8591956Y2915666D01*
X8596426Y2916428D01*
X8601202Y2916682D01*
X8606739Y2916326D01*
X8611920Y2915361D01*
X8616797Y2913684D01*
X8621268Y2911348D01*
X8625433Y2908401D01*
X8628989Y2904896D01*
X8632037Y2900781D01*
X8634476Y2896108D01*
X8636457Y2890824D01*
X8637879Y2885084D01*
X8638743Y2878886D01*
X8639048Y2872232D01*
X8637828Y2857042D01*
X8634222Y2844546D01*
X8631732Y2839364D01*
X8628735Y2834894D01*
X8625382Y2831236D01*
X8621522Y2828290D01*
X8617305Y2826054D01*
X8612886Y2824480D01*
X8608161Y2823514D01*
X8603234Y2823210D01*
X8597493Y2823616D01*
X8592159Y2824886D01*
X8587333Y2826918D01*
X8582914Y2829814D01*
X8575294Y2838856D01*
X8569706Y2852166D01*
X8567420Y2852166D01*
X8569706Y2817876D01*
X8572246Y2817876D01*
X8573312Y2821076D01*
X8575040Y2823464D01*
X8576665Y2824429D01*
X8578596Y2824734D01*
X8580323Y2824327D01*
X8588248Y2820873D01*
X8593632Y2819196D01*
X8599068Y2818231D01*
X8604504Y2817876D01*
X8618118Y2819603D01*
X8630412Y2824734D01*
X8641080Y2833065D01*
X8649208Y2844292D01*
X8654135Y2857652D01*
X8655812Y2872232D01*
X8653272Y2889656D01*
X8645652Y2904744D01*
X8638082Y2912872D01*
X8629091Y2918663D01*
X8618626Y2922117D01*
G37*
G36*
X8478520Y2921000D02*
G01*
X8469884Y2893568D01*
X8472424Y2893060D01*
X8474303Y2897428D01*
X8476234Y2901188D01*
X8478164Y2904286D01*
X8480044Y2906776D01*
X8484209Y2910484D01*
X8488680Y2912872D01*
X8491423Y2913634D01*
X8495030Y2914192D01*
X8499551Y2914548D01*
X8512302Y2914650D01*
X8522563Y2914243D01*
X8524849Y2913481D01*
X8526780Y2911602D01*
X8527237Y2910230D01*
X8527745Y2905912D01*
X8527796Y2839720D01*
X8527542Y2832303D01*
X8527237Y2829864D01*
X8526780Y2828290D01*
X8526018Y2827172D01*
X8523732Y2825140D01*
X8522208Y2824226D01*
X8520379Y2823565D01*
X8517890Y2823159D01*
X8511032Y2822956D01*
X8511032Y2820162D01*
X8556752Y2820162D01*
X8556752Y2822956D01*
X8550198Y2823159D01*
X8547862Y2823718D01*
X8545880Y2824683D01*
X8544306Y2826004D01*
X8543391Y2827680D01*
X8542782Y2830271D01*
X8542375Y2833674D01*
X8542274Y2902966D01*
X8542629Y2910078D01*
X8543137Y2912465D01*
X8543798Y2914142D01*
X8545423Y2915920D01*
X8547455Y2917190D01*
X8549995Y2917952D01*
X8552942Y2918206D01*
X8556752Y2918206D01*
X8556752Y2921000D01*
G37*
G36*
X8355330Y2921000D02*
G01*
X8355330Y2918206D01*
X8358631Y2917799D01*
X8361883Y2916986D01*
X8365083Y2915869D01*
X8368284Y2914396D01*
X8371636Y2912364D01*
X8375396Y2909620D01*
X8379510Y2906166D01*
X8384031Y2901950D01*
X8421116Y2865120D01*
X8392160Y2835910D01*
X8387943Y2831998D01*
X8383117Y2828340D01*
X8379155Y2825851D01*
X8376005Y2824226D01*
X8373211Y2823362D01*
X8368538Y2822956D01*
X8368538Y2820162D01*
X8405622Y2820162D01*
X8405622Y2822956D01*
X8400084Y2823260D01*
X8398002Y2824226D01*
X8396884Y2825648D01*
X8396478Y2827274D01*
X8396579Y2828340D01*
X8397595Y2830880D01*
X8398510Y2832354D01*
X8407450Y2842514D01*
X8435340Y2868930D01*
X8435289Y2834538D01*
X8434933Y2829610D01*
X8434578Y2828036D01*
X8433257Y2826004D01*
X8431276Y2824480D01*
X8427923Y2823362D01*
X8424418Y2822956D01*
X8421116Y2822956D01*
X8421116Y2820162D01*
X8464042Y2820162D01*
X8464042Y2822956D01*
X8458708Y2823057D01*
X8455304Y2823972D01*
X8452561Y2825394D01*
X8451037Y2826918D01*
X8450580Y2827782D01*
X8450021Y2831592D01*
X8449818Y2837942D01*
X8449919Y2907284D01*
X8450275Y2910535D01*
X8450834Y2912973D01*
X8451596Y2914650D01*
X8453221Y2916224D01*
X8455202Y2917342D01*
X8457641Y2918002D01*
X8464042Y2918206D01*
X8464042Y2921000D01*
X8421116Y2921000D01*
X8421116Y2918206D01*
X8426297Y2918104D01*
X8429701Y2917190D01*
X8432393Y2915767D01*
X8433308Y2915056D01*
X8434324Y2913380D01*
X8434781Y2911805D01*
X8435289Y2906725D01*
X8435340Y2870708D01*
X8398814Y2906877D01*
X8396528Y2909519D01*
X8395614Y2911094D01*
X8395258Y2912770D01*
X8395309Y2914497D01*
X8396325Y2916021D01*
X8398306Y2917342D01*
X8399627Y2917850D01*
X8403336Y2918206D01*
X8403336Y2921000D01*
G37*
D10*
X7607300Y7546340D02*
G01*
X7701279Y7546340D01*
X7895589Y7580630D02*
G01*
X7895589Y7486650D01*
X7848600Y7533640D02*
G01*
X7942579Y7533640D01*
X8163077Y7567846D02*
G01*
X8152663Y7578514D01*
X8136915Y7583594D01*
X8116087Y7583594D01*
X8100339Y7578514D01*
X8089925Y7567846D01*
X8089925Y7557432D01*
X8095005Y7547018D01*
X8100339Y7541938D01*
X8110753Y7536604D01*
X8142249Y7526190D01*
X8152663Y7520856D01*
X8157743Y7515776D01*
X8163077Y7505362D01*
X8163077Y7489614D01*
X8152663Y7479200D01*
X8136915Y7473866D01*
X8116087Y7473866D01*
X8100339Y7479200D01*
X8089925Y7489614D01*
X8197621Y7562766D02*
G01*
X8208035Y7567846D01*
X8223783Y7583594D01*
X8223783Y7473866D01*
X8404377Y7555146D02*
G01*
X8393963Y7565814D01*
X8378215Y7570894D01*
X8357387Y7570894D01*
X8341639Y7565814D01*
X8331225Y7555146D01*
X8331225Y7544732D01*
X8336305Y7534318D01*
X8341639Y7529238D01*
X8352053Y7523904D01*
X8383549Y7513490D01*
X8393963Y7508156D01*
X8399043Y7503076D01*
X8404377Y7492662D01*
X8404377Y7476914D01*
X8393963Y7466500D01*
X8378215Y7461166D01*
X8357387Y7461166D01*
X8341639Y7466500D01*
X8331225Y7476914D01*
X8444001Y7544732D02*
G01*
X8444001Y7550066D01*
X8449335Y7560480D01*
X8454669Y7565814D01*
X8465083Y7570894D01*
X8485911Y7570894D01*
X8496325Y7565814D01*
X8501659Y7560480D01*
X8506739Y7550066D01*
X8506739Y7539652D01*
X8501659Y7529238D01*
X8491245Y7513490D01*
X8438921Y7461166D01*
X8512073Y7461166D01*
X6400825Y8891694D02*
G01*
X6400825Y8781966D01*
X6400825Y8891694D02*
G01*
X6473977Y8781966D01*
X6473977Y8891694D02*
G01*
X6473977Y8781966D01*
X6539763Y8891694D02*
G01*
X6529349Y8886614D01*
X6518935Y8875946D01*
X6513601Y8865532D01*
X6508521Y8850038D01*
X6508521Y8823876D01*
X6513601Y8808128D01*
X6518935Y8797714D01*
X6529349Y8787300D01*
X6539763Y8781966D01*
X6560845Y8781966D01*
X6571259Y8787300D01*
X6581673Y8797714D01*
X6587007Y8808128D01*
X6592087Y8823876D01*
X6592087Y8850038D01*
X6587007Y8865532D01*
X6581673Y8875946D01*
X6571259Y8886614D01*
X6560845Y8891694D01*
X6539763Y8891694D01*
X5971311Y8878232D02*
G01*
X5965977Y8888646D01*
X5955563Y8899314D01*
X5945149Y8904394D01*
X5924067Y8904394D01*
X5913653Y8899314D01*
X5903239Y8888646D01*
X5897905Y8878232D01*
X5892825Y8862738D01*
X5892825Y8836576D01*
X5897905Y8820828D01*
X5903239Y8810414D01*
X5913653Y8800000D01*
X5924067Y8794666D01*
X5945149Y8794666D01*
X5955563Y8800000D01*
X5965977Y8810414D01*
X5971311Y8820828D01*
X5181625Y8904394D02*
G01*
X5181625Y8794666D01*
X5181625Y8904394D02*
G01*
X5254777Y8794666D01*
X5254777Y8904394D02*
G01*
X5254777Y8794666D01*
X5367807Y8878232D02*
G01*
X5362473Y8888646D01*
X5352059Y8899314D01*
X5341645Y8904394D01*
X5320563Y8904394D01*
X5310149Y8899314D01*
X5299735Y8888646D01*
X5294401Y8878232D01*
X5289321Y8862738D01*
X5289321Y8836576D01*
X5294401Y8820828D01*
X5299735Y8810414D01*
X5310149Y8800000D01*
X5320563Y8794666D01*
X5341645Y8794666D01*
X5352059Y8800000D01*
X5362473Y8810414D01*
X5367807Y8820828D01*
D11*
X5856477Y203708D02*
G01*
X5851143Y214122D01*
X5840729Y224536D01*
X5830570Y229616D01*
X5809741Y229616D01*
X5799327Y224536D01*
X5788913Y214122D01*
X5783579Y203708D01*
X5778500Y187960D01*
X5778500Y162052D01*
X5783579Y146558D01*
X5788913Y136144D01*
X5799327Y125730D01*
X5809741Y120650D01*
X5830570Y120650D01*
X5840729Y125730D01*
X5851143Y136144D01*
X5856477Y146558D01*
X5890768Y208788D02*
G01*
X5901181Y214122D01*
X5916675Y229616D01*
X5916675Y120650D01*
X4413250Y6579616D02*
G01*
X4413250Y6470650D01*
X4413250Y6579616D02*
G01*
X4449571Y6579616D01*
X4465320Y6574536D01*
X4475479Y6564122D01*
X4480813Y6553708D01*
X4485893Y6537960D01*
X4485893Y6512052D01*
X4480813Y6496558D01*
X4475479Y6486144D01*
X4465320Y6475730D01*
X4449571Y6470650D01*
X4413250Y6470650D01*
X4520184Y6558788D02*
G01*
X4530597Y6564122D01*
X4546345Y6579616D01*
X4546345Y6470650D01*
X4584700Y7354316D02*
G01*
X4584700Y7245350D01*
X4584700Y7354316D02*
G01*
X4621021Y7354316D01*
X4636770Y7349236D01*
X4646929Y7338822D01*
X4652263Y7328408D01*
X4657343Y7312660D01*
X4657343Y7286752D01*
X4652263Y7271258D01*
X4646929Y7260844D01*
X4636770Y7250430D01*
X4621021Y7245350D01*
X4584700Y7245350D01*
X4696968Y7328408D02*
G01*
X4696968Y7333488D01*
X4702047Y7343902D01*
X4707381Y7349236D01*
X4717795Y7354316D01*
X4738370Y7354316D01*
X4748784Y7349236D01*
X4754118Y7343902D01*
X4759197Y7333488D01*
X4759197Y7323074D01*
X4754118Y7312660D01*
X4743704Y7297166D01*
X4691634Y7245350D01*
X4764531Y7245350D01*
X8013700Y8052816D02*
G01*
X8013700Y7943850D01*
X8086343Y8052816D02*
G01*
X8086343Y7943850D01*
X8013700Y8001000D02*
G01*
X8086343Y8001000D01*
X8120634Y8031988D02*
G01*
X8131047Y8037322D01*
X8146795Y8052816D01*
X8146795Y7943850D01*
X6285484Y2477770D02*
G01*
X6368541Y2477770D01*
X6384289Y2472436D01*
X6389370Y2467356D01*
X6394450Y2456942D01*
X6394450Y2446528D01*
X6389370Y2436114D01*
X6384289Y2430780D01*
X6368541Y2425700D01*
X6358127Y2425700D01*
X6306311Y2512060D02*
G01*
X6300977Y2522220D01*
X6285484Y2537968D01*
X6394450Y2537968D01*
X3277870Y8522716D02*
G01*
X3277870Y8439658D01*
X3272536Y8423910D01*
X3267455Y8418830D01*
X3257041Y8413750D01*
X3246627Y8413750D01*
X3236213Y8418830D01*
X3230879Y8423910D01*
X3225800Y8439658D01*
X3225800Y8450072D01*
X3317239Y8496808D02*
G01*
X3317239Y8501888D01*
X3322320Y8512302D01*
X3327654Y8517636D01*
X3338068Y8522716D01*
X3358895Y8522716D01*
X3369309Y8517636D01*
X3374389Y8512302D01*
X3379470Y8501888D01*
X3379470Y8491474D01*
X3374389Y8481060D01*
X3363975Y8465566D01*
X3312159Y8413750D01*
X3384804Y8413750D01*
X5167884Y6527800D02*
G01*
X5276850Y6527800D01*
X5167884Y6600444D02*
G01*
X5240527Y6527800D01*
X5214620Y6553708D02*
G01*
X5276850Y6600444D01*
X5188711Y6634734D02*
G01*
X5183377Y6645148D01*
X5167884Y6660896D01*
X5276850Y6660896D01*
X6362700Y4230179D02*
G01*
X6362700Y4121213D01*
X6362700Y4230179D02*
G01*
X6409436Y4230179D01*
X6424929Y4225099D01*
X6430263Y4219765D01*
X6435343Y4209351D01*
X6435343Y4198937D01*
X6430263Y4188523D01*
X6424929Y4183443D01*
X6409436Y4178363D01*
X6362700Y4178363D01*
X6399021Y4178363D02*
G01*
X6435343Y4121213D01*
X6469634Y4209351D02*
G01*
X6480047Y4214685D01*
X6495795Y4230179D01*
X6495795Y4121213D01*
X6375400Y5309679D02*
G01*
X6375400Y5200713D01*
X6375400Y5309679D02*
G01*
X6422136Y5309679D01*
X6437629Y5304599D01*
X6442963Y5299265D01*
X6448043Y5288851D01*
X6448043Y5278437D01*
X6442963Y5268023D01*
X6437629Y5262943D01*
X6422136Y5257863D01*
X6375400Y5257863D01*
X6411721Y5257863D02*
G01*
X6448043Y5200713D01*
X6487668Y5283771D02*
G01*
X6487668Y5288851D01*
X6492747Y5299265D01*
X6498081Y5304599D01*
X6508495Y5309679D01*
X6529070Y5309679D01*
X6539484Y5304599D01*
X6544818Y5299265D01*
X6549897Y5288851D01*
X6549897Y5278437D01*
X6544818Y5268023D01*
X6534404Y5252529D01*
X6482334Y5200713D01*
X6555231Y5200713D01*
X4406900Y5944616D02*
G01*
X4406900Y5835650D01*
X4406900Y5944616D02*
G01*
X4453636Y5944616D01*
X4469129Y5939536D01*
X4474463Y5934202D01*
X4479543Y5923788D01*
X4479543Y5913374D01*
X4474463Y5902960D01*
X4469129Y5897880D01*
X4453636Y5892800D01*
X4406900Y5892800D01*
X4443221Y5892800D02*
G01*
X4479543Y5835650D01*
X4524247Y5944616D02*
G01*
X4581397Y5944616D01*
X4550409Y5902960D01*
X4565904Y5902960D01*
X4576318Y5897880D01*
X4581397Y5892800D01*
X4586731Y5877052D01*
X4586731Y5866638D01*
X4581397Y5851144D01*
X4570984Y5840730D01*
X4555489Y5835650D01*
X4539995Y5835650D01*
X4524247Y5840730D01*
X4519168Y5845810D01*
X4513834Y5856224D01*
D10*
X4330700Y5681472D02*
G01*
X4341113Y5686806D01*
X4356607Y5702300D01*
X4356607Y5593334D01*
X4421886Y5702300D02*
G01*
X4406391Y5696966D01*
X4395977Y5681472D01*
X4390897Y5655564D01*
X4390897Y5640070D01*
X4395977Y5614162D01*
X4406391Y5598668D01*
X4421886Y5593334D01*
X4432300Y5593334D01*
X4447793Y5598668D01*
X4458207Y5614162D01*
X4463288Y5640070D01*
X4463288Y5655564D01*
X4458207Y5681472D01*
X4447793Y5696966D01*
X4432300Y5702300D01*
X4421886Y5702300D01*
X4497577Y5702300D02*
G01*
X4497577Y5593334D01*
X4549393Y5665978D02*
G01*
X4497577Y5614162D01*
X4518405Y5634990D02*
G01*
X4554473Y5593334D01*
D11*
X8264143Y8659622D02*
G01*
X8253729Y8670036D01*
X8238236Y8675116D01*
X8217407Y8675116D01*
X8201913Y8670036D01*
X8191500Y8659622D01*
X8191500Y8649208D01*
X8196579Y8638794D01*
X8201913Y8633460D01*
X8212327Y8628380D01*
X8243570Y8617966D01*
X8253729Y8612886D01*
X8259063Y8607552D01*
X8264143Y8597138D01*
X8264143Y8581644D01*
X8253729Y8571230D01*
X8238236Y8566150D01*
X8217407Y8566150D01*
X8201913Y8571230D01*
X8191500Y8581644D01*
X8298434Y8654288D02*
G01*
X8308847Y8659622D01*
X8324595Y8675116D01*
X8324595Y8566150D01*
X8264143Y468122D02*
G01*
X8253729Y478536D01*
X8238236Y483616D01*
X8217407Y483616D01*
X8201913Y478536D01*
X8191500Y468122D01*
X8191500Y457708D01*
X8196579Y447294D01*
X8201913Y441960D01*
X8212327Y436880D01*
X8243570Y426466D01*
X8253729Y421386D01*
X8259063Y416052D01*
X8264143Y405638D01*
X8264143Y390144D01*
X8253729Y379730D01*
X8238236Y374650D01*
X8217407Y374650D01*
X8201913Y379730D01*
X8191500Y390144D01*
X8303768Y457708D02*
G01*
X8303768Y462788D01*
X8308847Y473202D01*
X8314181Y478536D01*
X8324595Y483616D01*
X8345170Y483616D01*
X8355584Y478536D01*
X8360918Y473202D01*
X8365997Y462788D01*
X8365997Y452374D01*
X8360918Y441960D01*
X8350504Y426466D01*
X8298434Y374650D01*
X8371331Y374650D01*
X3837177Y6577584D02*
G01*
X3837177Y6686550D01*
X3873500Y6577584D02*
G01*
X3800855Y6577584D01*
X3766565Y6598412D02*
G01*
X3756152Y6593078D01*
X3740404Y6577584D01*
X3740404Y6686550D01*
X8064500Y6897116D02*
G01*
X8064500Y6819138D01*
X8069579Y6803644D01*
X8079993Y6793230D01*
X8095741Y6788150D01*
X8106155Y6788150D01*
X8121650Y6793230D01*
X8132063Y6803644D01*
X8137143Y6819138D01*
X8137143Y6897116D01*
X8171434Y6876288D02*
G01*
X8181847Y6881622D01*
X8197595Y6897116D01*
X8197595Y6788150D01*
D12*
X7493000Y6211316D02*
G01*
X7493000Y6114288D01*
X7493000Y6211316D02*
G01*
X7534655Y6211316D01*
X7548371Y6206490D01*
X7552943Y6201918D01*
X7557770Y6192774D01*
X7557770Y6183630D01*
X7552943Y6174232D01*
X7548371Y6169660D01*
X7534655Y6165088D01*
X7493000Y6165088D01*
X7525257Y6165088D02*
G01*
X7557770Y6114288D01*
X7652765Y6197346D02*
G01*
X7643621Y6206490D01*
X7629652Y6211316D01*
X7611109Y6211316D01*
X7597393Y6206490D01*
X7588250Y6197346D01*
X7588250Y6188202D01*
X7592821Y6178804D01*
X7597393Y6174232D01*
X7606538Y6169660D01*
X7634223Y6160516D01*
X7643621Y6155690D01*
X7648193Y6151118D01*
X7652765Y6141974D01*
X7652765Y6128004D01*
X7643621Y6118860D01*
X7629652Y6114288D01*
X7611109Y6114288D01*
X7597393Y6118860D01*
X7588250Y6128004D01*
X7715504Y6211316D02*
G01*
X7715504Y6114288D01*
X7683245Y6211316D02*
G01*
X7748015Y6211316D01*
X7562341Y5934202D02*
G01*
X7557770Y5943346D01*
X7548371Y5952490D01*
X7539227Y5957316D01*
X7520686Y5957316D01*
X7511541Y5952490D01*
X7502143Y5943346D01*
X7497571Y5934202D01*
X7493000Y5920232D01*
X7493000Y5897118D01*
X7497571Y5883402D01*
X7502143Y5874004D01*
X7511541Y5864860D01*
X7520686Y5860288D01*
X7539227Y5860288D01*
X7548371Y5864860D01*
X7557770Y5874004D01*
X7562341Y5883402D01*
X7562341Y5897118D01*
X7539227Y5897118D02*
G01*
X7562341Y5897118D01*
X7592821Y5957316D02*
G01*
X7592821Y5860288D01*
X7592821Y5957316D02*
G01*
X7657338Y5860288D01*
X7657338Y5957316D02*
G01*
X7657338Y5860288D01*
X7687818Y5957316D02*
G01*
X7687818Y5860288D01*
X7687818Y5957316D02*
G01*
X7720329Y5957316D01*
X7734045Y5952490D01*
X7743189Y5943346D01*
X7748015Y5934202D01*
X7752588Y5920232D01*
X7752588Y5897118D01*
X7748015Y5883402D01*
X7743189Y5874004D01*
X7734045Y5864860D01*
X7720329Y5860288D01*
X7687818Y5860288D01*
X7493000Y5703316D02*
G01*
X7493000Y5606288D01*
X7493000Y5703316D02*
G01*
X7525257Y5703316D01*
X7539227Y5698490D01*
X7548371Y5689346D01*
X7552943Y5680202D01*
X7557770Y5666232D01*
X7557770Y5643118D01*
X7552943Y5629402D01*
X7548371Y5620004D01*
X7539227Y5610860D01*
X7525257Y5606288D01*
X7493000Y5606288D01*
X7592821Y5680202D02*
G01*
X7592821Y5684774D01*
X7597393Y5693918D01*
X7601965Y5698490D01*
X7611109Y5703316D01*
X7629652Y5703316D01*
X7639050Y5698490D01*
X7643621Y5693918D01*
X7648193Y5684774D01*
X7648193Y5675630D01*
X7643621Y5666232D01*
X7634223Y5652516D01*
X7588250Y5606288D01*
X7652765Y5606288D01*
X7493000Y6465316D02*
G01*
X7493000Y6368288D01*
X7493000Y6465316D02*
G01*
X7534655Y6465316D01*
X7548371Y6460490D01*
X7552943Y6455918D01*
X7557770Y6446774D01*
X7557770Y6437630D01*
X7552943Y6428232D01*
X7548371Y6423660D01*
X7534655Y6419088D01*
X7493000Y6419088D01*
X7525257Y6419088D02*
G01*
X7557770Y6368288D01*
X7588250Y6465316D02*
G01*
X7652765Y6368288D01*
X7652765Y6465316D02*
G01*
X7588250Y6368288D01*
X7525257Y6719316D02*
G01*
X7525257Y6622288D01*
X7493000Y6719316D02*
G01*
X7557770Y6719316D01*
X7588250Y6719316D02*
G01*
X7652765Y6622288D01*
X7652765Y6719316D02*
G01*
X7588250Y6622288D01*
X7493000Y5195316D02*
G01*
X7493000Y5098288D01*
X7493000Y5195316D02*
G01*
X7525257Y5195316D01*
X7539227Y5190490D01*
X7548371Y5181346D01*
X7552943Y5172202D01*
X7557770Y5158232D01*
X7557770Y5135118D01*
X7552943Y5121402D01*
X7548371Y5112004D01*
X7539227Y5102860D01*
X7525257Y5098288D01*
X7493000Y5098288D01*
X7634223Y5195316D02*
G01*
X7588250Y5130546D01*
X7657338Y5130546D01*
X7634223Y5195316D02*
G01*
X7634223Y5098288D01*
X7493000Y4941316D02*
G01*
X7493000Y4844288D01*
X7493000Y4941316D02*
G01*
X7525257Y4941316D01*
X7539227Y4936490D01*
X7548371Y4927346D01*
X7552943Y4918202D01*
X7557770Y4904232D01*
X7557770Y4881118D01*
X7552943Y4867402D01*
X7548371Y4858004D01*
X7539227Y4848860D01*
X7525257Y4844288D01*
X7493000Y4844288D01*
X7643621Y4941316D02*
G01*
X7597393Y4941316D01*
X7592821Y4899660D01*
X7597393Y4904232D01*
X7611109Y4908804D01*
X7625079Y4908804D01*
X7639050Y4904232D01*
X7648193Y4895088D01*
X7652765Y4881118D01*
X7652765Y4871974D01*
X7648193Y4858004D01*
X7639050Y4848860D01*
X7625079Y4844288D01*
X7611109Y4844288D01*
X7597393Y4848860D01*
X7592821Y4853432D01*
X7588250Y4862830D01*
X7493000Y4687316D02*
G01*
X7493000Y4590288D01*
X7493000Y4687316D02*
G01*
X7525257Y4687316D01*
X7539227Y4682490D01*
X7548371Y4673346D01*
X7552943Y4664202D01*
X7557770Y4650232D01*
X7557770Y4627118D01*
X7552943Y4613402D01*
X7548371Y4604004D01*
X7539227Y4594860D01*
X7525257Y4590288D01*
X7493000Y4590288D01*
X7643621Y4673346D02*
G01*
X7639050Y4682490D01*
X7625079Y4687316D01*
X7615936Y4687316D01*
X7601965Y4682490D01*
X7592821Y4668774D01*
X7588250Y4645660D01*
X7588250Y4622546D01*
X7592821Y4604004D01*
X7601965Y4594860D01*
X7615936Y4590288D01*
X7620507Y4590288D01*
X7634223Y4594860D01*
X7643621Y4604004D01*
X7648193Y4617974D01*
X7648193Y4622546D01*
X7643621Y4636516D01*
X7634223Y4645660D01*
X7620507Y4650232D01*
X7615936Y4650232D01*
X7601965Y4645660D01*
X7592821Y4636516D01*
X7588250Y4622546D01*
X7493000Y4433316D02*
G01*
X7493000Y4336288D01*
X7493000Y4433316D02*
G01*
X7525257Y4433316D01*
X7539227Y4428490D01*
X7548371Y4419346D01*
X7552943Y4410202D01*
X7557770Y4396232D01*
X7557770Y4373118D01*
X7552943Y4359402D01*
X7548371Y4350004D01*
X7539227Y4340860D01*
X7525257Y4336288D01*
X7493000Y4336288D01*
X7652765Y4433316D02*
G01*
X7606538Y4336288D01*
X7588250Y4433316D02*
G01*
X7652765Y4433316D01*
X7493000Y4179316D02*
G01*
X7493000Y4082288D01*
X7493000Y4179316D02*
G01*
X7525257Y4179316D01*
X7539227Y4174490D01*
X7548371Y4165346D01*
X7552943Y4156202D01*
X7557770Y4142232D01*
X7557770Y4119118D01*
X7552943Y4105402D01*
X7548371Y4096004D01*
X7539227Y4086860D01*
X7525257Y4082288D01*
X7493000Y4082288D01*
X7611109Y4179316D02*
G01*
X7597393Y4174490D01*
X7592821Y4165346D01*
X7592821Y4156202D01*
X7597393Y4146804D01*
X7606538Y4142232D01*
X7625079Y4137660D01*
X7639050Y4133088D01*
X7648193Y4123690D01*
X7652765Y4114546D01*
X7652765Y4100830D01*
X7648193Y4091432D01*
X7643621Y4086860D01*
X7629652Y4082288D01*
X7611109Y4082288D01*
X7597393Y4086860D01*
X7592821Y4091432D01*
X7588250Y4100830D01*
X7588250Y4114546D01*
X7592821Y4123690D01*
X7601965Y4133088D01*
X7615936Y4137660D01*
X7634223Y4142232D01*
X7643621Y4146804D01*
X7648193Y4156202D01*
X7648193Y4165346D01*
X7643621Y4174490D01*
X7629652Y4179316D01*
X7611109Y4179316D01*
X7493000Y3925316D02*
G01*
X7493000Y3828288D01*
X7493000Y3925316D02*
G01*
X7525257Y3925316D01*
X7539227Y3920490D01*
X7548371Y3911346D01*
X7552943Y3902202D01*
X7557770Y3888232D01*
X7557770Y3865118D01*
X7552943Y3851402D01*
X7548371Y3842004D01*
X7539227Y3832860D01*
X7525257Y3828288D01*
X7493000Y3828288D01*
X7648193Y3892804D02*
G01*
X7643621Y3879088D01*
X7634223Y3869690D01*
X7620507Y3865118D01*
X7615936Y3865118D01*
X7601965Y3869690D01*
X7592821Y3879088D01*
X7588250Y3892804D01*
X7588250Y3897630D01*
X7592821Y3911346D01*
X7601965Y3920490D01*
X7615936Y3925316D01*
X7620507Y3925316D01*
X7634223Y3920490D01*
X7643621Y3911346D01*
X7648193Y3892804D01*
X7648193Y3869690D01*
X7643621Y3846830D01*
X7634223Y3832860D01*
X7620507Y3828288D01*
X7611109Y3828288D01*
X7597393Y3832860D01*
X7592821Y3842004D01*
X8382000Y4179316D02*
G01*
X8382000Y4082288D01*
X8382000Y4179316D02*
G01*
X8414257Y4179316D01*
X8428227Y4174490D01*
X8437371Y4165346D01*
X8441943Y4156202D01*
X8446770Y4142232D01*
X8446770Y4119118D01*
X8441943Y4105402D01*
X8437371Y4096004D01*
X8428227Y4086860D01*
X8414257Y4082288D01*
X8382000Y4082288D01*
X8477250Y4160774D02*
G01*
X8486393Y4165346D01*
X8500109Y4179316D01*
X8500109Y4082288D01*
X8530589Y4160774D02*
G01*
X8539988Y4165346D01*
X8553704Y4179316D01*
X8553704Y4082288D01*
X8382000Y4433316D02*
G01*
X8382000Y4336288D01*
X8382000Y4433316D02*
G01*
X8414257Y4433316D01*
X8428227Y4428490D01*
X8437371Y4419346D01*
X8441943Y4410202D01*
X8446770Y4396232D01*
X8446770Y4373118D01*
X8441943Y4359402D01*
X8437371Y4350004D01*
X8428227Y4340860D01*
X8414257Y4336288D01*
X8382000Y4336288D01*
X8477250Y4414774D02*
G01*
X8486393Y4419346D01*
X8500109Y4433316D01*
X8500109Y4336288D01*
X8535415Y4410202D02*
G01*
X8535415Y4414774D01*
X8539988Y4423918D01*
X8544559Y4428490D01*
X8553704Y4433316D01*
X8572245Y4433316D01*
X8581389Y4428490D01*
X8586215Y4423918D01*
X8590788Y4414774D01*
X8590788Y4405630D01*
X8586215Y4396232D01*
X8576818Y4382516D01*
X8530589Y4336288D01*
X8595359Y4336288D01*
X8382000Y4687316D02*
G01*
X8382000Y4590288D01*
X8382000Y4687316D02*
G01*
X8414257Y4687316D01*
X8428227Y4682490D01*
X8437371Y4673346D01*
X8441943Y4664202D01*
X8446770Y4650232D01*
X8446770Y4627118D01*
X8441943Y4613402D01*
X8437371Y4604004D01*
X8428227Y4594860D01*
X8414257Y4590288D01*
X8382000Y4590288D01*
X8477250Y4668774D02*
G01*
X8486393Y4673346D01*
X8500109Y4687316D01*
X8500109Y4590288D01*
X8539988Y4687316D02*
G01*
X8590788Y4687316D01*
X8563102Y4650232D01*
X8576818Y4650232D01*
X8586215Y4645660D01*
X8590788Y4641088D01*
X8595359Y4627118D01*
X8595359Y4617974D01*
X8590788Y4604004D01*
X8581389Y4594860D01*
X8567673Y4590288D01*
X8553704Y4590288D01*
X8539988Y4594860D01*
X8535415Y4599432D01*
X8530589Y4608830D01*
X8418829Y4941316D02*
G01*
X8382000Y4844288D01*
X8418829Y4941316D02*
G01*
X8455913Y4844288D01*
X8395970Y4876546D02*
G01*
X8441943Y4876546D01*
X8514079Y4941316D02*
G01*
X8500109Y4936490D01*
X8490965Y4922774D01*
X8486393Y4899660D01*
X8486393Y4885690D01*
X8490965Y4862830D01*
X8500109Y4848860D01*
X8514079Y4844288D01*
X8523223Y4844288D01*
X8537193Y4848860D01*
X8546338Y4862830D01*
X8550909Y4885690D01*
X8550909Y4899660D01*
X8546338Y4922774D01*
X8537193Y4936490D01*
X8523223Y4941316D01*
X8514079Y4941316D01*
X8299399Y5163858D02*
G01*
X8376782Y5094701D01*
X8299399Y5163858D02*
G01*
X8403272Y5163708D01*
X8351674Y5119303D02*
G01*
X8368149Y5162224D01*
X8340920Y5220289D02*
G01*
X8339929Y5230464D01*
X8331893Y5248513D01*
X8422477Y5213741D01*
D13*
X8678163Y5543042D02*
G01*
X8648700Y5465318D01*
X8678163Y5543042D02*
G01*
X8707881Y5465318D01*
X8659875Y5491226D02*
G01*
X8696705Y5491226D01*
X8735821Y5524500D02*
G01*
X8735821Y5528310D01*
X8739631Y5535676D01*
X8743188Y5539232D01*
X8750554Y5543042D01*
X8765539Y5543042D01*
X8772905Y5539232D01*
X8776461Y5535676D01*
X8780271Y5528310D01*
X8780271Y5520944D01*
X8776461Y5513578D01*
X8769095Y5502402D01*
X8732265Y5465318D01*
X8783827Y5465318D01*
X8678163Y5771642D02*
G01*
X8648700Y5693918D01*
X8678163Y5771642D02*
G01*
X8707881Y5693918D01*
X8659875Y5719826D02*
G01*
X8696705Y5719826D01*
X8739631Y5771642D02*
G01*
X8780271Y5771642D01*
X8758173Y5742178D01*
X8769095Y5742178D01*
X8776461Y5738368D01*
X8780271Y5734558D01*
X8783827Y5723636D01*
X8783827Y5716270D01*
X8780271Y5705094D01*
X8772905Y5697728D01*
X8761729Y5693918D01*
X8750554Y5693918D01*
X8739631Y5697728D01*
X8735821Y5701538D01*
X8732265Y5708904D01*
X8420100Y6025642D02*
G01*
X8449563Y5947918D01*
X8479281Y6025642D02*
G01*
X8449563Y5947918D01*
X8559038Y6007100D02*
G01*
X8555227Y6014466D01*
X8547861Y6021832D01*
X8540495Y6025642D01*
X8525763Y6025642D01*
X8518397Y6021832D01*
X8511031Y6014466D01*
X8507221Y6007100D01*
X8503665Y5996178D01*
X8503665Y5977636D01*
X8507221Y5966460D01*
X8511031Y5959094D01*
X8518397Y5951728D01*
X8525763Y5947918D01*
X8540495Y5947918D01*
X8547861Y5951728D01*
X8555227Y5959094D01*
X8559038Y5966460D01*
X8638793Y6007100D02*
G01*
X8635238Y6014466D01*
X8627618Y6021832D01*
X8620252Y6025642D01*
X8605520Y6025642D01*
X8598154Y6021832D01*
X8590788Y6014466D01*
X8586977Y6007100D01*
X8583421Y5996178D01*
X8583421Y5977636D01*
X8586977Y5966460D01*
X8590788Y5959094D01*
X8598154Y5951728D01*
X8605520Y5947918D01*
X8620252Y5947918D01*
X8627618Y5951728D01*
X8635238Y5959094D01*
X8638793Y5966460D01*
D12*
X8255000Y6211316D02*
G01*
X8255000Y6114288D01*
X8255000Y6211316D02*
G01*
X8296655Y6211316D01*
X8310371Y6206490D01*
X8314943Y6201918D01*
X8319770Y6192774D01*
X8319770Y6183630D01*
X8314943Y6174232D01*
X8310371Y6169660D01*
X8296655Y6165088D01*
X8255000Y6165088D01*
X8287257Y6165088D02*
G01*
X8319770Y6114288D01*
X8414765Y6197346D02*
G01*
X8405621Y6206490D01*
X8391652Y6211316D01*
X8373109Y6211316D01*
X8359393Y6206490D01*
X8350250Y6197346D01*
X8350250Y6188202D01*
X8354821Y6178804D01*
X8359393Y6174232D01*
X8368538Y6169660D01*
X8396223Y6160516D01*
X8405621Y6155690D01*
X8410193Y6151118D01*
X8414765Y6141974D01*
X8414765Y6128004D01*
X8405621Y6118860D01*
X8391652Y6114288D01*
X8373109Y6114288D01*
X8359393Y6118860D01*
X8350250Y6128004D01*
X8477504Y6211316D02*
G01*
X8477504Y6114288D01*
X8445245Y6211316D02*
G01*
X8510015Y6211316D01*
X8324341Y6442202D02*
G01*
X8319770Y6451346D01*
X8310371Y6460490D01*
X8301227Y6465316D01*
X8282686Y6465316D01*
X8273541Y6460490D01*
X8264143Y6451346D01*
X8259571Y6442202D01*
X8255000Y6428232D01*
X8255000Y6405118D01*
X8259571Y6391402D01*
X8264143Y6382004D01*
X8273541Y6372860D01*
X8282686Y6368288D01*
X8301227Y6368288D01*
X8310371Y6372860D01*
X8319770Y6382004D01*
X8324341Y6391402D01*
X8324341Y6405118D01*
X8301227Y6405118D02*
G01*
X8324341Y6405118D01*
X8354821Y6465316D02*
G01*
X8354821Y6368288D01*
X8354821Y6465316D02*
G01*
X8419338Y6368288D01*
X8419338Y6465316D02*
G01*
X8419338Y6368288D01*
X8449818Y6465316D02*
G01*
X8449818Y6368288D01*
X8449818Y6465316D02*
G01*
X8482329Y6465316D01*
X8496045Y6460490D01*
X8505189Y6451346D01*
X8510015Y6442202D01*
X8514588Y6428232D01*
X8514588Y6405118D01*
X8510015Y6391402D01*
X8505189Y6382004D01*
X8496045Y6372860D01*
X8482329Y6368288D01*
X8449818Y6368288D01*
X8255000Y6719316D02*
G01*
X8255000Y6622288D01*
X8255000Y6719316D02*
G01*
X8296655Y6719316D01*
X8310371Y6714490D01*
X8314943Y6709918D01*
X8319770Y6700774D01*
X8319770Y6691630D01*
X8314943Y6682232D01*
X8310371Y6677660D01*
X8296655Y6673088D01*
X8255000Y6673088D01*
X8287257Y6673088D02*
G01*
X8319770Y6622288D01*
X8387079Y6719316D02*
G01*
X8350250Y6622288D01*
X8387079Y6719316D02*
G01*
X8423909Y6622288D01*
X8363965Y6654546D02*
G01*
X8410193Y6654546D01*
X8454389Y6719316D02*
G01*
X8477504Y6622288D01*
X8500618Y6719316D02*
G01*
X8477504Y6622288D01*
X8500618Y6719316D02*
G01*
X8523731Y6622288D01*
X8546845Y6719316D02*
G01*
X8523731Y6622288D01*
X7493000Y5449316D02*
G01*
X7493000Y5352288D01*
X7493000Y5449316D02*
G01*
X7525257Y5449316D01*
X7539227Y5444490D01*
X7548371Y5435346D01*
X7552943Y5426202D01*
X7557770Y5412232D01*
X7557770Y5389118D01*
X7552943Y5375402D01*
X7548371Y5366004D01*
X7539227Y5356860D01*
X7525257Y5352288D01*
X7493000Y5352288D01*
X7597393Y5449316D02*
G01*
X7648193Y5449316D01*
X7620507Y5412232D01*
X7634223Y5412232D01*
X7643621Y5407660D01*
X7648193Y5403088D01*
X7652765Y5389118D01*
X7652765Y5379974D01*
X7648193Y5366004D01*
X7639050Y5356860D01*
X7625079Y5352288D01*
X7611109Y5352288D01*
X7597393Y5356860D01*
X7592821Y5361432D01*
X7588250Y5370830D01*
X8291829Y5703316D02*
G01*
X8255000Y5606288D01*
X8291829Y5703316D02*
G01*
X8328913Y5606288D01*
X8268970Y5638546D02*
G01*
X8314943Y5638546D01*
X8414765Y5703316D02*
G01*
X8368538Y5703316D01*
X8363965Y5661660D01*
X8368538Y5666232D01*
X8382507Y5670804D01*
X8396223Y5670804D01*
X8410193Y5666232D01*
X8419338Y5657088D01*
X8423909Y5643118D01*
X8423909Y5633974D01*
X8419338Y5620004D01*
X8410193Y5610860D01*
X8396223Y5606288D01*
X8382507Y5606288D01*
X8368538Y5610860D01*
X8363965Y5615432D01*
X8359393Y5624830D01*
X8291829Y5449316D02*
G01*
X8255000Y5352288D01*
X8291829Y5449316D02*
G01*
X8328913Y5352288D01*
X8268970Y5384546D02*
G01*
X8314943Y5384546D01*
X8405621Y5449316D02*
G01*
X8359393Y5384546D01*
X8428736Y5384546D01*
X8405621Y5449316D02*
G01*
X8405621Y5352288D01*
X8394700Y3938016D02*
G01*
X8394700Y3840988D01*
X8394700Y3938016D02*
G01*
X8426957Y3938016D01*
X8440927Y3933190D01*
X8450071Y3924046D01*
X8454643Y3914902D01*
X8459470Y3900932D01*
X8459470Y3877818D01*
X8454643Y3864102D01*
X8450071Y3854704D01*
X8440927Y3845560D01*
X8426957Y3840988D01*
X8394700Y3840988D01*
X8489950Y3919474D02*
G01*
X8499093Y3924046D01*
X8512809Y3938016D01*
X8512809Y3840988D01*
X8571229Y3938016D02*
G01*
X8557259Y3933190D01*
X8548115Y3919474D01*
X8543289Y3896360D01*
X8543289Y3882390D01*
X8548115Y3859530D01*
X8557259Y3845560D01*
X8571229Y3840988D01*
X8580373Y3840988D01*
X8594089Y3845560D01*
X8603488Y3859530D01*
X8608059Y3882390D01*
X8608059Y3896360D01*
X8603488Y3919474D01*
X8594089Y3933190D01*
X8580373Y3938016D01*
X8571229Y3938016D01*
D11*
X8140700Y1129284D02*
G01*
X8140700Y1207262D01*
X8135620Y1222756D01*
X8125205Y1233170D01*
X8109457Y1238250D01*
X8099043Y1238250D01*
X8083550Y1233170D01*
X8073136Y1222756D01*
X8068055Y1207262D01*
X8068055Y1129284D01*
X8028431Y1155192D02*
G01*
X8028431Y1150112D01*
X8023352Y1139698D01*
X8018018Y1134364D01*
X8007604Y1129284D01*
X7987029Y1129284D01*
X7976615Y1134364D01*
X7971281Y1139698D01*
X7966202Y1150112D01*
X7966202Y1160526D01*
X7971281Y1170940D01*
X7981695Y1186434D01*
X8033765Y1238250D01*
X7960868Y1238250D01*
G36*
X5981700Y723900D02*
G01*
X5970219Y712978D01*
X5959297Y701497D01*
X5948984Y689457D01*
X5939332Y676859D01*
X5930290Y663854D01*
X5921959Y650341D01*
X5914339Y636473D01*
X5907430Y622198D01*
X5901283Y607568D01*
X5895898Y592683D01*
X5891276Y577494D01*
X5887415Y562152D01*
X5884418Y546557D01*
X5882182Y530910D01*
X5880760Y515112D01*
X5880150Y499262D01*
X5880354Y483412D01*
X5881370Y467614D01*
X5883198Y451866D01*
X5885840Y436219D01*
X5887415Y428447D01*
X5891276Y413105D01*
X5895898Y397916D01*
X5901283Y383032D01*
X5907430Y368401D01*
X5914339Y354126D01*
X5921959Y340258D01*
X5930290Y326745D01*
X5939332Y313740D01*
X5948984Y301142D01*
X5959297Y289102D01*
X5970219Y277622D01*
X5981700Y266700D01*
G37*
D14*
X5699988Y5299989D02*
G01*
X5699988Y0D01*
X2999993Y5299989D02*
G01*
X5699988Y5299989D01*
X2999993Y8999982D02*
G01*
X2999993Y5299989D01*
X6375400Y342900D02*
G01*
X6273800Y342900D01*
X6324600Y292100D02*
G01*
X6324600Y393700D01*
X4159600Y6324899D02*
G01*
X4679599Y6324899D01*
X4679599Y6324899D02*
G01*
X4679599Y6044900D01*
X4159600Y6044900D02*
G01*
X4679599Y6044900D01*
X4159600Y6324899D02*
G01*
X4159600Y6044900D01*
X4255526Y6324899D02*
G01*
X4255526Y6044900D01*
X4483100Y6867652D02*
G01*
X4737887Y6867118D01*
D10*
X8547100Y7912100D02*
G01*
X8547100Y7658100D01*
X7531100Y7658100D01*
X7531100Y7912100D01*
X7721600Y7912100D01*
D15*
X8547100Y7912100D02*
G01*
X7721600Y7912100D01*
D16*
X6711000Y1823100D02*
G01*
X6711000Y1898101D01*
X7006000Y1898101D01*
X7006000Y2453101D01*
X7006000Y3008099D01*
X6711000Y3008099D01*
X6711000Y3083097D01*
X6486001Y2903100D02*
G01*
X6561000Y2903100D01*
X6561000Y3083097D01*
X6486001Y3083097D01*
X6486001Y2903100D01*
X6486001Y2153102D02*
G01*
X6561000Y2153102D01*
X6561000Y2753098D01*
X6486001Y2753098D01*
X6486001Y2153102D01*
X6486001Y1823100D02*
G01*
X6486001Y2003102D01*
X6561000Y2003102D01*
X6561000Y1823100D01*
X6486001Y1823100D01*
X7080999Y1823100D01*
X7080999Y3083097D01*
X6486001Y3083097D01*
X6486001Y1823100D01*
X6456001Y2043102D02*
G01*
X6456001Y1793102D01*
X6706001Y1793102D01*
D14*
X4470400Y8140700D02*
G01*
X4521200Y8140700D01*
X4521200Y8851900D01*
X4343400Y8851900D01*
X4343400Y8420100D01*
X4241800Y8420100D01*
X4241800Y8851900D02*
G01*
X3835400Y8851900D01*
X3835400Y8420100D01*
X3733800Y8420100D01*
X3733800Y8851900D01*
X3530600Y8851900D01*
X3530600Y8140700D01*
X3606800Y8140700D01*
X4391913Y8140700D02*
G01*
X4470400Y8140700D01*
X4137913Y8140700D02*
G01*
X4193286Y8140700D01*
X3883913Y8140700D02*
G01*
X3939286Y8140700D01*
X3606800Y8140700D02*
G01*
X3685286Y8140700D01*
X4241800Y8420100D02*
G01*
X4241800Y8851900D01*
D17*
X6896404Y5598210D02*
G01*
X5346395Y5598210D01*
X5346395Y7508189D01*
X6896404Y7508189D01*
X6896404Y5598210D01*
D14*
X6778091Y3423069D02*
G01*
X6778091Y3293071D01*
X5988100Y3293071D01*
X5988100Y3883037D01*
X6178118Y4073055D01*
X6578117Y4073055D01*
X6778091Y3873080D01*
X6778091Y3423069D01*
X6138113Y3783063D02*
G01*
X6648094Y3783063D01*
X6648094Y3633050D01*
X6138113Y3633050D01*
X6138113Y3783063D01*
X6790791Y4502569D02*
G01*
X6790791Y4372571D01*
X6000800Y4372571D01*
X6000800Y4962537D01*
X6190818Y5152555D01*
X6590817Y5152555D01*
X6790791Y4952580D01*
X6790791Y4502569D01*
X6150813Y4862563D02*
G01*
X6660794Y4862563D01*
X6660794Y4712550D01*
X6150813Y4712550D01*
X6150813Y4862563D01*
X4114800Y5562600D02*
G01*
X4114800Y5740400D01*
X4140200Y5765800D02*
G01*
X4178300Y5765800D01*
X4191000Y5753100D02*
G01*
X4178300Y5765800D01*
X4140200Y5537200D02*
G01*
X4178300Y5537200D01*
X4191000Y5549900D02*
G01*
X4178300Y5537200D01*
X4673600Y5753100D02*
G01*
X4686300Y5765800D01*
X4673600Y5753100D02*
G01*
X4191000Y5753100D01*
X4673600Y5549900D02*
G01*
X4686300Y5537200D01*
X4673600Y5549900D02*
G01*
X4191000Y5549900D01*
X4724400Y5765800D02*
G01*
X4686300Y5765800D01*
X4724400Y5537200D02*
G01*
X4686300Y5537200D01*
X4749800Y5562600D02*
G01*
X4749800Y5740400D01*
X4076700Y5651500D02*
G01*
X4102100Y5651500D01*
X4025900Y5651500D01*
X4813300Y5651500D02*
G01*
X4838700Y5651500D01*
X4762500Y5651500D01*
X6844969Y8889974D02*
G01*
X8124977Y8889974D01*
X8124977Y8309965D01*
X6844969Y8309965D01*
X6844969Y8889974D01*
X6844969Y689991D02*
G01*
X8124977Y689991D01*
X8124977Y109982D01*
X6844969Y109982D01*
X6844969Y689991D01*
X4038600Y6731000D02*
G01*
X4038600Y7048500D01*
X4038600Y7366000D01*
D17*
X8699500Y5422900D02*
G01*
X8699500Y5295900D01*
X8763000Y5232400D01*
X8699500Y5168900D01*
X8699500Y5041900D01*
X8763000Y4978400D01*
X8699500Y4914900D01*
X8699500Y4787900D01*
X8763000Y4724400D01*
X8699500Y4660900D01*
X8699500Y4533900D01*
X8763000Y4470400D01*
X8699500Y4406900D01*
X8699500Y4279900D01*
X8763000Y4216400D01*
X8699500Y4152900D01*
X8699500Y4025900D01*
X8763000Y3962400D01*
X8699500Y3898900D01*
X8699500Y3771900D01*
X8763000Y3708400D01*
X8890000Y3708400D01*
X8953500Y3771900D01*
X8953500Y3898900D01*
X8890000Y3962400D01*
X8953500Y4025900D01*
X8953500Y4152900D01*
X8890000Y4216400D01*
X8953500Y4279900D01*
X8953500Y4406900D01*
X8890000Y4470400D01*
X8953500Y4533900D01*
X8953500Y4660900D01*
X8890000Y4724400D01*
X8953500Y4787900D01*
X8953500Y4914900D01*
X8890000Y4978400D01*
X8953500Y5041900D01*
X8953500Y5168900D01*
X8890000Y5232400D01*
X8953500Y5295900D01*
X8953500Y5422900D01*
X8890000Y5486400D01*
X8953500Y5549900D01*
X8953500Y5676900D01*
X8890000Y5740400D01*
X8953500Y5803900D01*
X8953500Y5930900D01*
X8890000Y5994400D01*
X8953500Y6057900D01*
X8953500Y6184900D01*
X8890000Y6248400D01*
X8953500Y6311900D01*
X8953500Y6438900D01*
X8890000Y6502400D01*
X8953500Y6565900D01*
X8953500Y6692900D01*
X8890000Y6756400D01*
X8763000Y6756400D01*
X8699500Y6692900D01*
X8699500Y6565900D01*
X8763000Y6502400D01*
X8699500Y6438900D01*
X8699500Y6311900D01*
X8763000Y6248400D01*
X8699500Y6184900D01*
X8699500Y6057900D01*
X8763000Y5994400D01*
X8699500Y5930900D01*
X8699500Y5803900D01*
X7175500Y6692900D02*
G01*
X7175500Y6565900D01*
X7239000Y6502400D01*
X7175500Y6438900D01*
X7175500Y6311900D01*
X7239000Y6248400D01*
X7175500Y6184900D01*
X7175500Y6057900D01*
X7239000Y5994400D01*
X7175500Y5930900D01*
X7175500Y5803900D01*
X7239000Y5740400D01*
X7175500Y5676900D01*
X7175500Y5549900D01*
X7239000Y5486400D01*
X7175500Y5422900D01*
X7175500Y5295900D01*
X7239000Y5232400D01*
X7175500Y5168900D01*
X7175500Y5041900D01*
X7239000Y4978400D01*
X7175500Y4914900D01*
X7175500Y4787900D01*
X7239000Y4724400D01*
X7175500Y4660900D01*
X7175500Y4533900D01*
X7239000Y4470400D01*
X7175500Y4406900D01*
X7175500Y4279900D01*
X7239000Y4216400D01*
X7175500Y4152900D01*
X7175500Y4025900D01*
X7239000Y3962400D01*
X7175500Y3898900D01*
X7175500Y3771900D01*
X7239000Y3708400D01*
X7366000Y3708400D01*
X7429500Y3771900D01*
X7429500Y3898900D01*
X7366000Y3962400D01*
X7429500Y4025900D01*
X7429500Y4152900D01*
X7366000Y4216400D01*
X7429500Y4279900D01*
X7429500Y4406900D01*
X7366000Y4470400D01*
X7429500Y4533900D01*
X7429500Y4660900D01*
X7366000Y4724400D01*
X7429500Y4787900D01*
X7429500Y4914900D01*
X7366000Y4978400D01*
X7429500Y5041900D01*
X7429500Y5168900D01*
X7366000Y5232400D01*
X7429500Y5295900D01*
X7429500Y5422900D01*
X7366000Y5486400D01*
X7429500Y5549900D01*
X7429500Y5676900D01*
X7366000Y5740400D01*
X7429500Y5803900D01*
X7429500Y5930900D01*
X7366000Y5994400D01*
X7429500Y6057900D01*
X7429500Y6184900D01*
X7366000Y6248400D01*
X7429500Y6311900D01*
X7429500Y6438900D01*
X7366000Y6502400D01*
X7429500Y6565900D01*
X7429500Y6692900D01*
X7366000Y6756400D01*
X7239000Y6756400D01*
X7175500Y6692900D01*
X7366000Y3505200D02*
G01*
X8890000Y3505200D01*
X8890000Y1473200D01*
X7366000Y1473200D01*
X7366000Y3505200D01*
D14*
G75*
G01*
X4736643Y6867652D02*
G03*
X4483151Y6867652I-126746J154710D01*
D18*
G75*
G01*
X5509489Y5543194D02*
G03*
X5509946Y5543194I228J-10005D01*
D14*
G75*
G01*
X4114800Y5740400D02*
G02*
X4140200Y5765800I25400J0D01*
G75*
G01*
X4114800Y5562600D02*
G03*
X4140200Y5537200I25400J0D01*
G75*
G01*
X4724400Y5537200D02*
G03*
X4749800Y5562600I0J25400D01*
G75*
G01*
X4724400Y5765800D02*
G02*
X4749800Y5740400I0J-25400D01*
G75*
G01*
X4037846Y7361700D02*
G03*
X4037874Y6735143I-54996J-313281D01*
G75*
G01
X6512560Y495292D02*
G03X6512560Y495292I-314960J0D01*
G75*
G01
X6742100Y3675652D02*
G03X6742100Y3675652I-359994J0D01*
G75*
G01
X6754800Y4755152D02*
G03X6754800Y4755152I-359994J0D01*
G36*
X199999Y6199979D02*
G01*
X1699996Y6199979D01*
X1699996Y5399981D01*
X199999Y5399981D01*
G37*
G36*
X199999Y3599985D02*
G01*
X1699996Y3599985D01*
X1699996Y2799986D01*
X199999Y2799986D01*
G37*
G36*
X2489200Y3799984D02*
G01*
X5089194Y3799984D01*
X5089194Y3499985D01*
X2489200Y3499985D01*
G37*
G36*
X5024983Y3799984D02*
G01*
X5624982Y3799984D01*
X5624982Y1599989D01*
X5024983Y1599989D01*
G37*
G36*
X2275001Y3799984D02*
G01*
X2875000Y3799984D01*
X2875000Y1599989D01*
X2275001Y1599989D01*
G37*
M02*
