G04 Layer: BottomSilkscreenLayer*
G04 EasyEDA v6.5.47, 2024-11-13 16:13:54*
G04 74c0bd91fdf74cf69fbd3cf6ffc820c0,28dbc4cd0de04f76b295d4d1f3f9c80b,10*
G04 Gerber Generator version 0.2*
G04 Scale: 100 percent, Rotated: No, Reflected: No *
G04 Dimensions in millimeters *
G04 leading zeros omitted , absolute positions ,4 integer and 5 decimal *
%FSLAX45Y45*%
%MOMM*%

%ADD10C,0.1524*%
%ADD11C,0.2540*%

%LPD*%
D10*
X6259829Y1702816D02*
G01*
X6259829Y1619758D01*
X6265163Y1604010D01*
X6270243Y1598930D01*
X6280657Y1593850D01*
X6291071Y1593850D01*
X6301486Y1598930D01*
X6306820Y1604010D01*
X6311900Y1619758D01*
X6311900Y1630172D01*
X6215379Y1702816D02*
G01*
X6158229Y1702816D01*
X6189218Y1661160D01*
X6173723Y1661160D01*
X6163309Y1656080D01*
X6158229Y1651000D01*
X6152895Y1635252D01*
X6152895Y1624838D01*
X6158229Y1609344D01*
X6168389Y1598930D01*
X6184138Y1593850D01*
X6199631Y1593850D01*
X6215379Y1598930D01*
X6220459Y1604010D01*
X6225539Y1614424D01*
X6540500Y1502156D02*
G01*
X6512813Y1429258D01*
X6485127Y1502156D02*
G01*
X6512813Y1429258D01*
X6420611Y1467358D02*
G01*
X6427470Y1474470D01*
X6434581Y1477772D01*
X6444995Y1477772D01*
X6451854Y1474470D01*
X6458711Y1467358D01*
X6462268Y1456944D01*
X6462268Y1450086D01*
X6458711Y1439672D01*
X6451854Y1432814D01*
X6444995Y1429258D01*
X6434581Y1429258D01*
X6427470Y1432814D01*
X6420611Y1439672D01*
X6356350Y1467358D02*
G01*
X6363207Y1474470D01*
X6370065Y1477772D01*
X6380479Y1477772D01*
X6387338Y1474470D01*
X6394450Y1467358D01*
X6397752Y1456944D01*
X6397752Y1450086D01*
X6394450Y1439672D01*
X6387338Y1432814D01*
X6380479Y1429258D01*
X6370065Y1429258D01*
X6363207Y1432814D01*
X6356350Y1439672D01*
X6209029Y1484630D02*
G01*
X6212586Y1491742D01*
X6219443Y1498600D01*
X6226555Y1502156D01*
X6240271Y1502156D01*
X6247129Y1498600D01*
X6254241Y1491742D01*
X6257543Y1484630D01*
X6261100Y1474470D01*
X6261100Y1456944D01*
X6257543Y1446530D01*
X6254241Y1439672D01*
X6247129Y1432814D01*
X6240271Y1429258D01*
X6226555Y1429258D01*
X6219443Y1432814D01*
X6212586Y1439672D01*
X6209029Y1446530D01*
X6209029Y1456944D01*
X6226555Y1456944D02*
G01*
X6209029Y1456944D01*
X6186170Y1477772D02*
G01*
X6186170Y1429258D01*
X6186170Y1464056D02*
G01*
X6176009Y1474470D01*
X6168897Y1477772D01*
X6158484Y1477772D01*
X6151625Y1474470D01*
X6148070Y1464056D01*
X6148070Y1429258D01*
X6083807Y1502156D02*
G01*
X6083807Y1429258D01*
X6083807Y1467358D02*
G01*
X6090665Y1474470D01*
X6097523Y1477772D01*
X6107938Y1477772D01*
X6115050Y1474470D01*
X6121907Y1467358D01*
X6125209Y1456944D01*
X6125209Y1450086D01*
X6121907Y1439672D01*
X6115050Y1432814D01*
X6107938Y1429258D01*
X6097523Y1429258D01*
X6090665Y1432814D01*
X6083807Y1439672D01*
D11*
X6692900Y1562100D02*
G01*
X5930900Y1562100D01*
X5930900Y1054100D01*
X6692900Y1054100D01*
X6692900Y1562100D01*
X6438900Y1054100D02*
G01*
X6438900Y1130300D01*
X6591300Y1130300D01*
X6591300Y1054100D01*
X6184900Y1054100D01*
X6184900Y1130300D01*
X6032500Y1130300D01*
X6032500Y1054100D01*
M02*
