G04 Layer: TopSilkscreenLayer*
G04 EasyEDA v6.5.47, 2024-11-13 16:13:54*
G04 1c16752ac9c043d0a5978040c22a04db,28dbc4cd0de04f76b295d4d1f3f9c80b,10*
G04 Gerber Generator version 0.2*
G04 Scale: 100 percent, Rotated: No, Reflected: No *
G04 Dimensions in millimeters *
G04 leading zeros omitted , absolute positions ,4 integer and 5 decimal *
%FSLAX45Y45*%
%MOMM*%

%ADD10C,0.5000*%

%LPD*%
D10*
X1471675Y-1225804D02*
G01*
X1471675Y-1552955D01*
X1308100Y-1389379D02*
G01*
X1635252Y-1389379D01*
X8261095Y-1312926D02*
G01*
X8242808Y-1276604D01*
X8206486Y-1240028D01*
X8170163Y-1221994D01*
X8097265Y-1221994D01*
X8060943Y-1240028D01*
X8024622Y-1276604D01*
X8006588Y-1312926D01*
X7988300Y-1367536D01*
X7988300Y-1458213D01*
X8006588Y-1512823D01*
X8024622Y-1549145D01*
X8060943Y-1585721D01*
X8097265Y-1603755D01*
X8170163Y-1603755D01*
X8206486Y-1585721D01*
X8242808Y-1549145D01*
X8261095Y-1512823D01*
X8261095Y-1458213D01*
X8170163Y-1458213D02*
G01*
X8261095Y-1458213D01*
X8380984Y-1221994D02*
G01*
X8380984Y-1603755D01*
X8380984Y-1221994D02*
G01*
X8635491Y-1603755D01*
X8635491Y-1221994D02*
G01*
X8635491Y-1603755D01*
X8755634Y-1221994D02*
G01*
X8755634Y-1603755D01*
X8755634Y-1221994D02*
G01*
X8882888Y-1221994D01*
X8937497Y-1240028D01*
X8973820Y-1276604D01*
X8991854Y-1312926D01*
X9010141Y-1367536D01*
X9010141Y-1458213D01*
X8991854Y-1512823D01*
X8973820Y-1549145D01*
X8937497Y-1585721D01*
X8882888Y-1603755D01*
X8755634Y-1603755D01*
M02*
