G04 Layer: BottomSilkscreenLayer*
G04 EasyEDA v6.5.47, 2024-11-13 16:13:54*
G04 1c16752ac9c043d0a5978040c22a04db,28dbc4cd0de04f76b295d4d1f3f9c80b,10*
G04 Gerber Generator version 0.2*
G04 Scale: 100 percent, Rotated: No, Reflected: No *
G04 Dimensions in millimeters *
G04 leading zeros omitted , absolute positions ,4 integer and 5 decimal *
%FSLAX45Y45*%
%MOMM*%

%ADD10C,0.2032*%

%LPD*%
D10*
X4116263Y-2305210D02*
G01*
X4116263Y-2632481D01*
X4279900Y-2468846D02*
G01*
X3952628Y-2468846D01*
X6737604Y-2328926D02*
G01*
X6755891Y-2292604D01*
X6792213Y-2256028D01*
X6828536Y-2237994D01*
X6901434Y-2237994D01*
X6937756Y-2256028D01*
X6974077Y-2292604D01*
X6992111Y-2328926D01*
X7010400Y-2383536D01*
X7010400Y-2474213D01*
X6992111Y-2528823D01*
X6974077Y-2565145D01*
X6937756Y-2601721D01*
X6901434Y-2619755D01*
X6828536Y-2619755D01*
X6792213Y-2601721D01*
X6755891Y-2565145D01*
X6737604Y-2528823D01*
X6737604Y-2474213D01*
X6828536Y-2474213D02*
G01*
X6737604Y-2474213D01*
X6617715Y-2237994D02*
G01*
X6617715Y-2619755D01*
X6617715Y-2237994D02*
G01*
X6363208Y-2619755D01*
X6363208Y-2237994D02*
G01*
X6363208Y-2619755D01*
X6243065Y-2237994D02*
G01*
X6243065Y-2619755D01*
X6243065Y-2237994D02*
G01*
X6115811Y-2237994D01*
X6061202Y-2256028D01*
X6024879Y-2292604D01*
X6006845Y-2328926D01*
X5988558Y-2383536D01*
X5988558Y-2474213D01*
X6006845Y-2528823D01*
X6024879Y-2565145D01*
X6061202Y-2601721D01*
X6115811Y-2619755D01*
X6243065Y-2619755D01*
M02*
