G04 Layer: TopLayer*
G04 EasyEDA v6.5.47, 2024-11-13 16:13:54*
G04 fb85ae26fb934a7fa39b9ffe6f29e94b,28dbc4cd0de04f76b295d4d1f3f9c80b,10*
G04 Gerber Generator version 0.2*
G04 Scale: 100 percent, Rotated: No, Reflected: No *
G04 Dimensions in millimeters *
G04 leading zeros omitted , absolute positions ,4 integer and 5 decimal *
%FSLAX45Y45*%
%MOMM*%

%ADD10C,2.0000*%
%ADD11C,1.5240*%
%ADD12C,4.0000*%

%LPD*%
D10*
X2099995Y28399943D02*
G01*
X6199987Y28399943D01*
X2099995Y10199979D02*
G01*
X6199987Y10199979D01*
X2099995Y12299975D02*
G01*
X6199987Y12299975D01*
X2099995Y3199993D02*
G01*
X6199987Y3199993D01*
X7277100Y29699940D02*
G01*
X7264400Y3200400D01*
X6199987Y3199993D01*
X6199987Y3199993D01*
X2099995Y19299961D02*
G01*
X6199987Y19299961D01*
X2099995Y21399957D02*
G01*
X6199987Y21399957D01*
X6699986Y29699940D02*
G01*
X6699986Y28397200D01*
X6202730Y28397200D01*
X6199987Y28399943D01*
X2068271Y12331700D02*
G01*
X2099995Y12299975D01*
X2099995Y10199979D02*
G01*
X889000Y10199979D01*
X825500Y28399943D01*
X2099995Y28399943D01*
X6199987Y12299975D02*
G01*
X7268773Y12299975D01*
X2099995Y19299961D02*
G01*
X857422Y19299961D01*
X6199987Y21399957D02*
G01*
X7273117Y21399957D01*
D11*
G01*
X1046200Y29763999D03*
G01*
X1046200Y29464000D03*
G01*
X1346200Y29763999D03*
G01*
X1346200Y29464000D03*
G01*
X6199987Y1199997D03*
G01*
X6199987Y1499996D03*
G01*
X2299995Y1499996D03*
G01*
X2299995Y1199997D03*
D12*
G01*
X6199987Y28399943D03*
G01*
X2099995Y28399943D03*
G01*
X6199987Y21399957D03*
G01*
X2099995Y21399957D03*
G01*
X6199987Y19299961D03*
G01*
X2099995Y19299961D03*
G01*
X6199987Y12299975D03*
G01*
X2099995Y12299975D03*
G01*
X6199987Y10199979D03*
G01*
X2099995Y10199979D03*
G01*
X2099995Y3199993D03*
G01*
X6199987Y3199993D03*
G01*
X6699986Y29699940D03*
G01*
X7277100Y29699940D03*
M02*
